<svg id="Layer_1" data-name="Layer 1" xmlns="http://www.w3.org/2000/svg" viewBox="0 0 708.66 708.66"><defs><style>.cls-1{fill:#ffd627;}.cls-2{fill:#965f44;}.cls-3{fill:#fcbd38;}</style></defs><title>sunflower</title><path class="cls-1" d="M488.42,413.72c3.86,1.76,5.5,3.91,6.25,5.67,1.49,3.49,0,6.64,2,8.13,1.26,1,3.07.52,4.83.08,2.22-.56,4.94-1.73,10-6.52,4.81-4.51,7.22-6.76,6.65-8.9-.64-2.42-4.93-4.5-4.93-4.5-13.21-6.67-13-7.39-13-7.39.35-1.12,8.11-.07,11.92.61s5.07,1.24,7.5.71a12.23,12.23,0,0,0,6.57-4.07c1.29-1.59,1.87-4.24,3-9.46,1.93-9,1.91-9,2.17-9.81,2.24-6.88,5.23-8.94,4.34-10.36-1.42-2.26-10.53.46-17.67,3.8A73.81,73.81,0,0,0,493,391.37a73.78,73.78,0,0,0-15.17-27.9c-5.22-5.91-12.5-12-14.7-10.52-1.38.95.54,4-.14,11.23-.07.81-.1.83-1.92,9.86-1,5.24-1.57,7.9-1,9.87a12.21,12.21,0,0,0,4.41,6.35c2,1.45,3.54,1.48,7.16,2.34s11.31,3,11.18,4.18c0,0-.08.75-14.85,1.61,0,0-4.76.2-6.31,2.17-1.37,1.73-.06,4.76,2.56,10.81,2.77,6.42,4.8,8.58,6.61,10,1.45,1.11,2.93,2.24,4.47,1.85,2.37-.59,2.29-4.05,5-6.67C481.63,415.2,484,413.82,488.42,413.72Z"/><path class="cls-1" d="M590.49,249.56c-2.66-.07-5.48,9-6.69,16.79A73.91,73.91,0,0,0,586.1,298a73.92,73.92,0,0,0-31.75-3c-7.81,1-17,3.68-16.92,6.34,0,1.68,3.65,1.8,9.24,6.38.63.51.63.55,7.12,7.09,3.77,3.79,5.69,5.7,7.63,6.35a12.22,12.22,0,0,0,7.73-.13c2.33-.86,3.2-2.11,5.93-4.64s8.81-7.71,9.7-7c0,0,.58.49-6.93,13.23,0,0-2.49,4.07-1.72,6.46.67,2.1,3.92,2.7,10.4,3.9,6.88,1.27,9.8.79,12,.06,1.72-.59,3.49-1.18,4-2.68.83-2.3-2.12-4.16-2.75-7.89-.32-1.9-.09-4.59,2.21-8.15,3.76-2.3,6.51-2.42,8.37-2.06,3.72.73,5.52,3.69,7.84,2.91,1.51-.51,2.14-2.27,2.76-4,.78-2.15,1.31-5.06.18-12-1.06-6.51-1.59-9.76-3.68-10.48-2.37-.82-6.49,1.58-6.49,1.58-12.89,7.25-13.37,6.67-13.37,6.67-.73-.91,4.47-6.78,7.15-9.56s3.86-3.53,4.77-5.84a12.26,12.26,0,0,0,.29-7.72c-.61-2-2.48-3.92-6.2-7.76-6.4-6.62-6.44-6.62-6.94-7.26C592.21,253.25,592.17,249.61,590.49,249.56Z"/><path class="cls-1" d="M407.74,191.45c3.12,4.33,4.73,6.51,6.55,7.45a12.1,12.1,0,0,0,7.65,1.08c2.43-.49,3.49-1.59,6.58-3.67s9.9-6.24,10.67-5.36c0,0,.49.57-8.91,12,0,0-3.09,3.63-2.7,6.11.34,2.18,3.45,3.28,9.67,5.47,6.6,2.32,9.56,2.31,11.81,1.92,1.79-.31,3.63-.63,4.4-2,1.17-2.14-1.44-4.44-1.49-8.22,0-1.92.62-4.55,3.45-7.71,4.07-1.69,6.8-1.38,8.59-.73,3.56,1.3,4.88,4.5,7.29,4.09,1.57-.27,2.47-1.91,3.34-3.5,1.11-2,2.09-4.79,2-11.79,0-6.59-.05-9.89-2-10.93-2.21-1.17-6.65.56-6.65.56-13.87,5.16-14.24,4.51-14.24,4.51-.58-1,5.46-6,8.55-8.34s4.35-2.88,5.61-5a12.13,12.13,0,0,0,1.48-7.58c-.29-2-1.84-4.26-4.91-8.63-5.3-7.54-5.33-7.54-5.73-8.25-3.52-6.32-3-9.91-4.65-10.22-2.62-.5-6.81,8-9.22,15.54a74,74,0,0,0-2.65,31.65,73.79,73.79,0,0,0-30.9-7.88c-7.87-.18-17.31,1-17.7,3.63-.24,1.66,3.33,2.34,8.15,7.74C402.35,183.94,402.34,184,407.74,191.45Z"/><path class="cls-1" d="M446,525.66c-11.64-5.88-11.44-6.51-11.44-6.51.3-1,7.15-.07,10.51.54s4.47,1.08,6.61.62a10.81,10.81,0,0,0,5.79-3.58c1.13-1.41,1.65-3.74,2.64-8.35,1.7-7.94,1.68-8,1.9-8.64,2-6.07,4.62-7.88,3.83-9.14-1.25-2-9.28.41-15.58,3.36a65,65,0,0,0-22.13,17.32,65.11,65.11,0,0,0-13.37-24.59c-4.6-5.2-11-10.6-13-9.27-1.22.83.47,3.55-.13,9.9-.07.71-.09.73-1.69,8.69-.93,4.62-1.38,7-.9,8.7a10.75,10.75,0,0,0,3.89,5.6c1.77,1.27,3.12,1.3,6.31,2.05s10,2.67,9.85,3.69c0,0-.07.66-13.08,1.42,0,0-4.2.18-5.57,1.91-1.21,1.53-.06,4.2,2.25,9.54,2.45,5.65,4.23,7.56,5.83,8.78,1.28,1,2.58,2,3.94,1.64,2.1-.53,2-3.58,4.43-5.89,1.21-1.16,3.31-2.38,7.19-2.46,3.41,1.55,4.86,3.44,5.52,5,1.31,3.07,0,5.85,1.72,7.16,1.12.85,2.71.45,4.27.07,1.95-.49,4.34-1.53,8.84-5.74,4.25-4,6.37-6,5.87-7.85C449.74,527.49,446,525.66,446,525.66Z"/><path class="cls-1" d="M601.65,426.68c-.68-5.58.76-8-.34-8.72-1.74-1.12-7.27,3.78-11.2,8.47a57.36,57.36,0,0,0-11.26,22.07A57.28,57.28,0,0,0,559,433.81c-5.62-2.45-12.75-4.38-13.8-2.6-.67,1.12,1.7,2.66,3.58,8,.21.59.19.61,1.87,7.57,1,4,1.48,6.08,2.51,7.29a9.46,9.46,0,0,0,5.19,3c1.89.36,3-.11,5.81-.7s8.95-1.57,9.25-.71c0,0,.19.56-9.94,6,0,0-3.29,1.7-3.74,3.59-.4,1.68,1.52,3.38,5.35,6.79,4,3.61,6.19,4.47,7.92,4.85,1.38.31,2.8.62,3.76-.15,1.47-1.2.28-3.61,1.35-6.35.54-1.38,1.76-3.14,4.84-4.64,3.29,0,5.15.95,6.26,1.94,2.19,2,2.18,4.67,4,5.09,1.2.27,2.33-.64,3.43-1.53,1.38-1.12,2.91-2.83,4.94-7.88,1.92-4.75,2.87-7.13,1.77-8.45-1.24-1.5-4.95-1.55-4.95-1.55-11.48-.38-11.56-1-11.56-1-.12-.9,5.69-2.71,8.6-3.47s4-.79,5.51-2a9.55,9.55,0,0,0,3.31-5c.38-1.54-.07-3.6-1-7.65C601.74,427.32,601.72,427.31,601.65,426.68Z"/><path class="cls-1" d="M434.5,577.13a50.68,50.68,0,0,0-18.39,11.75,50.55,50.55,0,0,0-8.51-20c-3.17-4.36-7.73-9-9.33-8.12-1,.56.11,2.78-.82,7.64-.11.55-.13.56-1.95,6.59-1.06,3.5-1.59,5.28-1.34,6.66a8.33,8.33,0,0,0,2.59,4.61c1.28,1.12,2.31,1.24,4.72,2.06s7.51,2.79,7.35,3.58c0,0-.11.5-10.22.13,0,0-3.26-.18-4.44,1.06s-.36,3.24,1,7.53c1.48,4.56,2.71,6.16,3.86,7.22.91.85,1.85,1.72,2.92,1.56,1.66-.25,1.83-2.62,3.86-4.22,1-.81,2.74-1.6,5.74-1.37,2.52,1.44,3.5,3,3.89,4.26.79,2.47-.42,4.52.81,5.66.79.75,2.06.56,3.29.37,1.54-.23,3.47-.85,7.25-3.78,3.58-2.76,5.36-4.14,5.12-5.63-.28-1.69-3.07-3.39-3.07-3.39-8.56-5.4-8.36-5.87-8.36-5.87.31-.74,5.53.47,8.08,1.19s3.37,1.17,5.06,1a8.4,8.4,0,0,0,4.74-2.34c1-1,1.55-2.77,2.66-6.26,1.9-6,1.89-6,2.11-6.54,2-4.54,4.14-5.75,3.63-6.77C446,574.06,439.58,575.32,434.5,577.13Z"/><path class="cls-1" d="M533,445.68c1.59.05,2.22.21,3.22-.17a5.28,5.28,0,0,0,2.53-2.12c.45-.76.53-1.91.68-4.2.26-3.93.25-3.94.31-4.28.53-3.06,1.67-4.11,1.2-4.66-.74-.87-4.43.85-7.25,2.7a31.59,31.59,0,0,0-9.42,9.87,31.77,31.77,0,0,0-8.14-10.88c-2.58-2.17-6-4.32-6.88-3.54-.53.48.48,1.67.64,4.76,0,.35,0,.36-.21,4.3-.12,2.28-.18,3.44.18,4.24a5.18,5.18,0,0,0,2.26,2.42c.94.49,1.59.41,3.17.54s5,.59,5,1.09c0,0,0,.32-6.19,1.59,0,0-2,.38-2.54,1.31s.26,2,1.75,4.42c1.57,2.55,2.56,3.34,3.41,3.82.68.38,1.38.77,2,.51,1-.4.72-1.86,1.72-3.14a4.91,4.91,0,0,1,3.28-1.69,4.85,4.85,0,0,1,3,2c.84,1.38.42,2.81,1.33,3.32.59.33,1.33,0,2-.27.91-.37,2-1,3.85-3.37s2.64-3.32,2.27-4.19-2.37-1.6-2.37-1.6c-6-2-5.95-2.32-5.95-2.33C527.94,445.66,531.29,445.62,533,445.68Z"/><path class="cls-1" d="M536.34,342.08c1.94-.44,2.75-.45,3.83-1.21a6.57,6.57,0,0,0,2.39-3.37c.3-1.06,0-2.48-.5-5.28-.93-4.84-.95-4.85-1-5.28-.34-3.85.71-5.49,0-6-1.17-.81-5.08,2.42-7.9,5.55a39.7,39.7,0,0,0-8.25,14.91,39.32,39.32,0,0,0-13.28-10.56c-3.8-1.82-8.65-3.31-9.42-2.11-.48.75,1.11,1.87,2.27,5.55.13.42.12.43,1.11,5.25.58,2.8.88,4.21,1.56,5.07a6.52,6.52,0,0,0,3.49,2.2c1.3.3,2,0,4-.34s6.19-.87,6.37-.27c0,0,.12.38-7,3.88,0,0-2.31,1.09-2.66,2.39-.31,1.14,1,2.35,3.52,4.78s4.14,3.22,5.33,3.53c.94.24,1.9.49,2.58,0,1-.79.28-2.47,1.08-4.34a6.15,6.15,0,0,1,3.43-3.07,6,6,0,0,1,4.26,1.48c1.46,1.41,1.39,3.26,2.66,3.59.82.22,1.62-.38,2.39-1,1-.73,2.07-1.88,3.58-5.29,1.43-3.23,2.14-4.84,1.42-5.77s-3.37-1.19-3.37-1.19c-7.88-.52-7.92-.92-7.92-.92C530.29,343.65,534.32,342.54,536.34,342.08Z"/><path class="cls-1" d="M460.58,127.64c.26.2.26.21,2.92,2.79,1.54,1.49,2.33,2.24,3.12,2.49a4.86,4.86,0,0,0,3.1-.12c.93-.36,1.27-.87,2.35-1.91s3.47-3.17,3.84-2.87c0,0,.24.19-2.68,5.37,0,0-1,1.65-.64,2.61s1.6,1.05,4.21,1.48c2.78.45,3.95.24,4.81-.07.69-.25,1.39-.51,1.6-1.11.31-.93-.87-1.66-1.17-3.15a4.64,4.64,0,0,1,.83-3.37,4.53,4.53,0,0,1,3.27-.88c1.51.25,2.25,1.43,3.18,1.1.6-.22.84-.93,1.07-1.62.3-.87.49-2,0-4.81-.48-2.6-.72-3.91-1.56-4.18s-2.6.69-2.6.69c-5.12,3-5.32,2.79-5.32,2.79-.3-.36,1.74-2.76,2.8-3.9s1.52-1.45,1.87-2.38a5,5,0,0,0,.05-3.11c-.26-.78-1-1.55-2.55-3.07-2.63-2.6-2.64-2.6-2.85-2.86-1.84-2.25-1.89-3.71-2.56-3.71-1.07,0-2.13,3.66-2.55,6.8a29.7,29.7,0,0,0,1.19,12.76,29.44,29.44,0,0,0-12.72-.93c-3.14.48-6.78,1.61-6.75,2.68C456.84,125.83,458.3,125.84,460.58,127.64Z"/><path class="cls-1" d="M410.52,134.87c1.33-.53,1.82-1.27,3.36-2.77s5-4.59,5.51-4.16c0,0,.34.27-3.84,7.77,0,0-1.39,2.4-.92,3.78.42,1.22,2.29,1.53,6,2.15,4,.66,5.66.35,6.9-.11,1-.36,2-.73,2.29-1.6.45-1.35-1.26-2.4-1.67-4.57a6.71,6.71,0,0,1,1.18-4.87,6.45,6.45,0,0,1,4.7-1.28c2.15.37,3.22,2.08,4.55,1.6.86-.32,1.2-1.35,1.54-2.35.42-1.26.7-3,0-7-.69-3.78-1-5.67-2.25-6.06-1.37-.45-3.72,1-3.72,1-7.34,4.37-7.62,4-7.62,4-.43-.52,2.49-4,4-5.64s2.17-2.1,2.67-3.45a7.19,7.19,0,0,0,.08-4.5c-.37-1.13-1.47-2.25-3.66-4.44-3.77-3.78-3.79-3.78-4.08-4.15-2.64-3.26-2.71-5.37-3.68-5.38-1.53,0-3.05,5.3-3.65,9.85a43.31,43.31,0,0,0,1.71,18.48,42.27,42.27,0,0,0-18.25-1.35c-4.49.71-9.72,2.34-9.68,3.89,0,1,2.13,1,5.41,3.61.36.29.36.31,4.18,4,2.21,2.16,3.34,3.25,4.47,3.6A6.92,6.92,0,0,0,410.52,134.87Z"/><path class="cls-1" d="M485.17,207.82a6.59,6.59,0,0,0,2.59,3.21c1.13.7,1.94.66,3.9,1s6.14,1.19,6.12,1.81c0,0,0,.4-7.85,1.42,0,0-2.53.29-3.28,1.39s.14,2.55,1.77,5.67c1.72,3.32,2.88,4.39,3.9,5.06.81.54,1.65,1.09,2.45.82,1.25-.41,1.07-2.25,2.43-3.75a6.13,6.13,0,0,1,4.24-1.79,6,6,0,0,1,3.55,2.78c.92,1.8.26,3.54,1.35,4.25.71.47,1.66.16,2.58-.14,1.16-.37,2.56-1.1,5.1-3.85,2.39-2.58,3.59-3.88,3.21-5-.44-1.27-2.8-2.22-2.8-2.22-7.29-3.05-7.2-3.44-7.2-3.44.15-.61,4.32-.35,6.38-.13s2.75.47,4,.1a6.54,6.54,0,0,0,3.35-2.42c.62-.9.84-2.33,1.24-5.16.68-4.87.67-4.88.78-5.31.93-3.74,2.45-5,1.92-5.68-.85-1.15-5.6.65-9.27,2.7A39.35,39.35,0,0,0,503,210.54a39.32,39.32,0,0,0-9.14-14.29c-3-2.95-7.11-5.94-8.23-5.05-.7.56.44,2.13.35,6,0,.43,0,.44-.65,5.33C485,205.35,484.8,206.78,485.17,207.82Z"/><path class="cls-1" d="M483.68,155.39c-.32,1.06,2,1.68,4.74,5.4.31.42.3.44,3.24,5.55,1.7,3,2.58,4.45,3.71,5.15a8.11,8.11,0,0,0,5,1.06c1.67-.2,2.47-.86,4.71-2.06s7.16-3.57,7.59-3c0,0,.28.39-7,7.34,0,0-2.38,2.21-2.34,3.83,0,1.44,2,2.3,6,4,4.2,1.82,6.17,1.95,7.71,1.81,1.22-.12,2.48-.23,3.11-1.1,1-1.33-.55-2.94-.26-5.4.15-1.24.79-2.95,3-4.95,2.76-.87,4.53-.58,5.67-.07,2.27,1,2.86,3.15,4.5,3,1.07-.1,1.82-1.12,2.54-2.11.92-1.24,1.82-3,2.41-7.54.56-4.28.83-6.42-.38-7.18-1.37-.87-4.49,0-4.49,0-9.7,2.68-9.89,2.23-9.89,2.23-.3-.68,4.17-3.62,6.44-5s3.16-1.66,4.19-3a8.16,8.16,0,0,0,1.66-4.85c0-1.33-.85-2.84-2.52-5.83-2.86-5.14-2.88-5.14-3.09-5.62-1.79-4.27-1.12-6.57-2.19-6.85-1.71-.45-5.26,4.88-7.53,9.63a48.32,48.32,0,0,0-4.57,20.48,48.35,48.35,0,0,0-19.84-6.56C490.57,153.39,484.17,153.7,483.68,155.39Z"/><path class="cls-1" d="M532.64,216.69c-.08,1.21,2.54,1.48,6.35,5.07.43.41.43.43,4.78,5.49,2.52,2.93,3.81,4.41,5.18,5a8.85,8.85,0,0,0,5.59.3c1.73-.5,2.42-1.36,4.52-3.05s6.76-5.11,7.37-4.52c0,0,.39.38-5.69,9.2,0,0-2,2.81-1.57,4.57.38,1.56,2.69,2.15,7.32,3.35,4.9,1.27,7,1.07,8.63.65,1.28-.33,2.59-.67,3-1.73.72-1.61-1.3-3.11-1.58-5.84-.14-1.37.13-3.34,2-5.9,2.72-1.43,4.67-1.41,6-1.05,2.65.7,3.8,2.94,5.51,2.49,1.11-.29,1.66-1.52,2.2-2.72.67-1.52,1.2-3.59.74-8.63-.44-4.76-.65-7.14-2.13-7.77-1.67-.71-4.76.82-4.76.82-9.69,4.58-10,4.13-10,4.13-.48-.7,3.57-4.67,5.65-6.54s3-2.35,3.74-4a8.76,8.76,0,0,0,.6-5.56c-.33-1.45-1.59-3-4.07-5.92-4.29-5.11-4.32-5.11-4.65-5.6-2.93-4.34-2.77-7-4-7.09-1.92-.19-4.42,6.22-5.69,11.79a53.5,53.5,0,0,0,.06,23.08A53.54,53.54,0,0,0,545.18,213C539.49,213.33,532.76,214.76,532.64,216.69Z"/><path class="cls-1" d="M461.9,222.51c-1.17-.81-5.08,2.43-7.9,5.56a39.56,39.56,0,0,0-8.25,14.9,39.45,39.45,0,0,0-13.28-10.56c-3.8-1.81-8.65-3.31-9.42-2.11-.48.75,1.11,1.87,2.27,5.55.14.42.13.43,1.12,5.25.57,2.8.87,4.22,1.55,5.07a6.52,6.52,0,0,0,3.49,2.2c1.3.3,2,0,4-.34s6.19-.87,6.37-.27c0,0,.12.38-7,3.89,0,0-2.3,1.09-2.66,2.38-.31,1.14,1,2.35,3.52,4.79s4.15,3.21,5.33,3.52c.94.24,1.9.49,2.58,0,1.05-.79.28-2.47,1.08-4.33a6.16,6.16,0,0,1,3.43-3.08,6,6,0,0,1,4.26,1.49c1.46,1.4,1.39,3.26,2.66,3.58.82.22,1.62-.38,2.39-1,1-.73,2.07-1.87,3.58-5.29,1.43-3.22,2.14-4.83,1.42-5.77s-3.37-1.18-3.37-1.18c-7.88-.53-7.92-.93-7.92-.93-.06-.62,4-1.73,6-2.19s2.75-.45,3.83-1.21a6.53,6.53,0,0,0,2.39-3.37c.3-1,0-2.48-.5-5.28-.93-4.83-1-4.84-1-5.28C461.59,224.66,462.64,223,461.9,222.51Z"/><path class="cls-1" d="M470.11,282.5c-2.92-4.49-7.21-9.34-8.84-8.54-1,.5,0,2.76-1.21,7.54-.14.54-.16.55-2.28,6.45-1.23,3.42-1.84,5.16-1.67,6.54a8.3,8.3,0,0,0,2.34,4.71c1.21,1.18,2.23,1.35,4.58,2.29s7.31,3.16,7.11,3.93c0,0-.13.49-10.15-.4,0,0-3.23-.34-4.47.83s-.51,3.2.65,7.53c1.23,4.6,2.37,6.26,3.45,7.37.87.89,1.75,1.8,2.83,1.69,1.65-.16,1.94-2.5,4.05-4,1.05-.75,2.79-1.44,5.76-1.07a7.69,7.69,0,0,1,3.65,4.44c.65,2.49-.65,4.47.51,5.66.75.78,2,.66,3.24.54,1.55-.15,3.5-.67,7.41-3.38,3.69-2.56,5.53-3.84,5.36-5.33-.19-1.7-2.87-3.53-2.87-3.53-8.22-5.8-8-6.26-8-6.26.34-.72,5.47.76,8,1.6s3.29,1.34,5,1.22a8.32,8.32,0,0,0,4.83-2.08c1-.95,1.68-2.67,2.95-6.07,2.2-5.87,2.19-5.89,2.43-6.39,2.2-4.4,4.42-5.49,4-6.54-.73-1.66-7.13-.73-12.27.8a50.33,50.33,0,0,0-18.86,10.73A50.24,50.24,0,0,0,470.11,282.5Z"/><path class="cls-1" d="M566,405.65c1.56.05,2.18.2,3.15-.16a5.17,5.17,0,0,0,2.48-2.08c.43-.74.52-1.87.67-4.1.25-3.85.24-3.86.3-4.19.51-3,1.63-4,1.17-4.55-.72-.85-4.33.83-7.08,2.64a30.74,30.74,0,0,0-9.21,9.65,31,31,0,0,0-8-10.64c-2.52-2.12-5.9-4.22-6.72-3.46-.51.47.47,1.63.62,4.65,0,.34,0,.35-.2,4.2-.12,2.23-.17,3.37.17,4.15a5.14,5.14,0,0,0,2.21,2.36c.93.48,1.56.4,3.11.54s4.86.57,4.88,1.06c0,0,0,.31-6,1.56,0,0-2,.37-2.49,1.28s.27,2,1.72,4.32,2.5,3.26,3.34,3.73c.66.37,1.34.75,2,.5.95-.39.7-1.82,1.68-3.07a3.51,3.51,0,0,1,6.14.32c.82,1.35.4,2.75,1.3,3.25.58.32,1.3,0,2-.26.88-.37,1.93-1,3.76-3.3s2.58-3.24,2.22-4.09-2.32-1.57-2.32-1.57c-5.87-2-5.82-2.27-5.82-2.27C561.15,405.63,564.43,405.6,566,405.65Z"/><path class="cls-1" d="M494,554.5c-1.13-1-5.9,1.72-9.47,4.49a41.65,41.65,0,0,0-11.38,14,41.34,41.34,0,0,0-12.65-12.73c-3.81-2.42-8.82-4.66-9.85-3.55-.65.7.89,2.07,1.55,6,.07.44.06.45.34,5.51.16,2.94.25,4.43.85,5.4a6.92,6.92,0,0,0,3.42,2.76c1.35.49,2.22.3,4.4.25s6.85,0,6.94.66c0,0,.07.41-8.18,2.93,0,0-2.67.77-3.27,2-.52,1.11.66,2.54,3,5.4,2.51,3,4,3.89,5.2,4.38,1,.39,2,.78,2.8.36,1.26-.64.71-2.47,1.88-4.25a6.84,6.84,0,0,1,4.22-2.63,6.65,6.65,0,0,1,4.37,2.15c1.35,1.64,1,3.53,2.28,4.05.86.34,1.82-.16,2.76-.64,1.18-.6,2.54-1.61,4.74-4.86,2.08-3.08,3.11-4.61,2.48-5.67s-3.45-1.71-3.45-1.71c-8.45-1.7-8.43-2.12-8.43-2.12,0-.64,4.59-1.17,6.85-1.34s3.06-.05,4.36-.67a7,7,0,0,0,3.13-3.08c.5-1,.45-2.52.33-5.46-.22-5.06-.23-5.07-.2-5.52C493.3,556.65,494.7,555.13,494,554.5Z"/><path class="cls-1" d="M453.86,457.88c1.86,1.67,2.48,2.49,4,3.08a8,8,0,0,0,5.05.15c1.25-.41,2.45-1.64,4.79-4.08,4-4.21,4-4.23,4.43-4.56,3.51-2.94,5.89-3,5.84-4.08-.07-1.74-6.13-3.53-11.27-4.28a47.73,47.73,0,0,0-20.66,1.68,47.68,47.68,0,0,0,.49-20.64c-1-5.09-3.17-11-4.9-11-1.1,0-1,2.39-3.75,6.06-.31.42-.33.42-4.31,4.68-2.3,2.48-3.47,3.74-3.8,5a8,8,0,0,0,.43,5c.67,1.51,1.53,2.08,3.3,3.84s5.43,5.71,5,6.3c0,0-.29.38-8.95-4.46,0,0-2.77-1.6-4.29-1.09-1.34.45-1.59,2.57-2.08,6.81-.51,4.49-.07,6.39.5,7.8.46,1.12.93,2.27,1.94,2.62,1.54.53,2.62-1.39,5-1.83,1.21-.22,3-.12,5.54,1.41,1.62,2.34,1.85,4.1,1.7,5.33-.29,2.43-2.16,3.62-1.54,5.13.4,1,1.57,1.38,2.72,1.78,1.44.5,3.36.83,7.82.06,4.2-.73,6.3-1.09,6.68-2.46.43-1.55-1.33-4.22-1.33-4.22-5.32-8.37-5-8.69-5-8.69C447.86,452.78,451.92,456.14,453.86,457.88Z"/><path class="cls-1" d="M528.9,261.91c2.5,0,3.5.25,5.05-.33a8,8,0,0,0,3.91-3.22c.67-1.13.76-2.84.92-6.22.26-5.83.24-5.84.32-6.35.72-4.53,2.47-6.12,1.72-6.92-1.2-1.26-6.94,1.38-11.3,4.2a47.73,47.73,0,0,0-14.45,14.87,47.6,47.6,0,0,0-13.22-15.86c-4.13-3.15-9.65-6.22-10.94-5.05-.81.73.82,2.46,1.18,7,0,.51,0,.52-.17,6.35-.1,3.38-.15,5.1.44,6.28a7.94,7.94,0,0,0,3.64,3.5c1.5.7,2.52.56,5,.72s7.84.72,7.89,1.46c0,0,0,.48-9.67,2.54,0,0-3.14.62-3.95,2-.71,1.22.5,3,2.92,6.49,2.57,3.72,4.15,4.86,5.52,5.54,1.08.54,2.19,1.1,3.17.7,1.51-.62,1.06-2.77,2.58-4.69.77-1,2.19-2.07,5.1-2.59,2.77.7,4.1,1.87,4.8,2.9,1.38,2,.75,4.14,2.21,4.87.95.48,2.1,0,3.22-.45,1.41-.57,3.08-1.59,5.93-5.1,2.68-3.32,4-5,3.41-6.25-.7-1.45-3.79-2.31-3.79-2.31-9.51-2.79-9.44-3.27-9.44-3.27C521,262,526.29,261.88,528.9,261.91Z"/><path class="cls-1" d="M625.46,376.71c-.48-4.24-.73-6.36-2.07-6.81-1.53-.51-4.3,1.09-4.3,1.09-8.66,4.84-9,4.46-9,4.46-.45-.59,3.14-4.46,5-6.3s2.63-2.33,3.3-3.84a8,8,0,0,0,.44-5c-.34-1.27-1.5-2.54-3.81-5-4-4.27-4-4.26-4.3-4.68-2.74-3.67-2.65-6-3.75-6.06-1.74,0-3.87,5.92-4.91,11a47.72,47.72,0,0,0,.5,20.64,47.63,47.63,0,0,0-20.67-1.68c-5.14.74-11.2,2.54-11.26,4.27,0,1.1,2.32,1.15,5.84,4.08.39.34.39.36,4.43,4.57,2.34,2.44,3.53,3.67,4.78,4.08a8,8,0,0,0,5.06-.15c1.55-.59,2.16-1.41,4-3.08s6-5.1,6.56-4.62c0,0,.37.31-5,8.69,0,0-1.76,2.67-1.33,4.22.37,1.37,2.47,1.73,6.68,2.46,4.45.77,6.38.43,7.82-.06,1.14-.4,2.32-.8,2.72-1.78.61-1.51-1.25-2.7-1.54-5.13-.15-1.23.08-3,1.7-5.33,2.53-1.53,4.33-1.64,5.54-1.41,2.41.44,3.49,2.36,5,1.83,1-.35,1.47-1.5,1.93-2.62C625.54,383.1,626,381.2,625.46,376.71Z"/><path class="cls-1" d="M556.19,490.79c-8.78,2-22.18,6.42-37.14,17.8-1.46-18.65-7-31.58-11.36-39.42-4.94-8.89-12.41-18.64-15.6-17.35-2,.81-.45,5.23-3.31,14.12-.32,1-.37,1-5.17,11.9-2.79,6.31-4.18,9.52-4,12.17a15.8,15.8,0,0,0,3.8,9.23c2.14,2.39,4.05,2.85,8.38,4.94,4.5,2.17,13.41,7,12.93,8.39,0,0-.31.92-19.17-2.1,0,0-6.06-1.08-8.57,1-2.21,1.81-1.41,6,.21,14.35,1.72,8.87,3.67,12.16,5.57,14.42,1.51,1.79,3.06,3.64,5.12,3.58,3.16-.09,4-4.48,8.2-7,2.09-1.28,5.48-2.36,11.06-1.25,4.39,3.29,5.86,6.45,6.32,8.89.9,4.81-1.83,8.37.2,10.79,1.32,1.57,3.73,1.51,6.08,1.45,2.95-.08,6.7-.81,14.47-5.42,7.32-4.35,11-6.52,10.87-9.38-.14-3.23-5-7.05-5-7.05-14.8-12.08-14.32-12.93-14.31-12.93.75-1.31,10.25,2.17,14.86,4.09,4.43,1.85,6,3,9.26,3a15.77,15.77,0,0,0,9.42-3.3c2.07-1.65,3.54-4.82,6.41-11.1,4.94-10.82,4.93-10.86,5.46-11.77,4.74-8,9.09-9.82,8.36-11.86C578.37,487.67,566.12,488.57,556.19,490.79Z"/><path class="cls-2" d="M455.13,346.82a108.43,108.43,0,0,0-65.85-99.72V92.91h-4V615.75h4V446.54A108.43,108.43,0,0,0,455.13,346.82Z"/><path class="cls-2" d="M297.13,250.49a108.31,108.31,0,0,0,0,192.66v172.6h4V92.91h-4Z"/><path class="cls-3" d="M166.08,287.42c16.63,12.81,37.29,28.73,57.06,22.23,8.12-2.68,13.62-8.32,17-12.6a54.43,54.43,0,0,1-45.07-24,86.27,86.27,0,0,0,29.86,14c3.89.95,15.39,3.74,17.17.34,1-1.92-1.42-5.17-4.88-9A119.48,119.48,0,0,0,208,254.85a251.15,251.15,0,0,0-30.38-14.63c10.41,1,31.82,4.62,51.87,20.45A95.49,95.49,0,0,1,249,281.61a27.38,27.38,0,0,0,5-15.34c0-4-1.18-13.16-17.38-27-5.45-4.67-19-15.05-46.2-24.26-19.67-6.68-35.42-8.52-55.05-10.81-16.51-1.92-30.33-2.54-40-2.73,4,6.34,9.82,15.28,17.3,25.66C129.35,250.38,143.45,270,166.08,287.42Z"/><path class="cls-3" d="M248.71,438.34c1.69-8.38-.49-15.95-2.56-21A54.55,54.55,0,0,1,203,444.69a86.33,86.33,0,0,0,26.91-19.05c2.74-2.91,10.87-11.52,8.79-14.75-1.17-1.82-5.2-1.32-10.25-.22a119.91,119.91,0,0,0-34.89,13.75,251,251,0,0,0-27.74,19.17c6-8.55,19.75-25.37,43.43-35a95.49,95.49,0,0,1,27.85-6.6,27.24,27.24,0,0,0-10.85-11.92c-3.51-2-12-5.49-32.09,1.72-6.76,2.43-22.51,9.11-43.95,28.14-15.54,13.79-24.93,26.57-36.63,42.49-9.84,13.4-17.21,25.1-22.17,33.42,7.48-.33,18.13-1,30.86-2.33,28.51-3,52.51-5.59,78.87-16.63C220.52,468.81,244.58,458.74,248.71,438.34Z"/><path class="cls-3" d="M166.59,379.65c16.8,2.73,37.68,6.12,49.27-6.15,4.76-5,6.5-11.18,7.23-15.52a44.13,44.13,0,0,1-41.39.29,69.94,69.94,0,0,0,26.68-1.56c3.13-.82,12.42-3.26,12.37-6.38,0-1.75-3-3.14-7-4.55a97,97,0,0,0-29.9-5.5,206,206,0,0,0-27.3,1.28,80.55,80.55,0,0,1,44.87-5.41,77.43,77.43,0,0,1,22,7.4,22,22,0,0,0-2.35-12.86c-1.57-2.85-5.91-8.93-22.81-12.57-5.69-1.23-19.39-3.39-42.31.5-16.6,2.83-28.54,7.59-43.42,13.53C100,337.14,90,342,83,345.63c5.29,3,12.9,7.1,22.23,11.63C126.12,367.4,143.72,375.94,166.59,379.65Z"/><path class="cls-3" d="M292.87,461.07a44.18,44.18,0,0,1-20.09,36.18,69.93,69.93,0,0,0,11.75-24c.83-3.13,3.26-12.42.53-13.91-1.54-.84-4.21,1.07-7.38,3.82a97,97,0,0,0-19.49,23.34,204.84,204.84,0,0,0-12.31,24.41,80.39,80.39,0,0,1,17.35-41.74,77.28,77.28,0,0,1,17.26-15.52,22.19,22.19,0,0,0-12.36-4.27c-3.25,0-10.68.76-22.17,13.68-3.86,4.36-12.48,15.23-20.35,37.09-5.71,15.85-7.43,28.59-9.57,44.47-1.81,13.35-2.51,24.54-2.81,32.39,5.2-3.14,12.53-7.74,21.06-13.64C253.4,550.14,269.49,539,284,520.92a165.21,165.21,0,0,0,13.16-18.12V465.11A35.47,35.47,0,0,0,292.87,461.07Z"/><path class="cls-3" d="M276.22,169.14c-10.93-12.82-21.13-20.63-33.85-30.37-10.7-8.19-20.07-14.36-26.73-18.51.15,6.07.5,14.71,1.39,25,2,23.16,3.69,42.65,12.21,64.2,6.26,15.82,14,35.49,30.51,39.16,6.77,1.51,12.94-.14,17-1.73a44.16,44.16,0,0,1-21.44-35.4,70.08,70.08,0,0,0,15,22.11c2.32,2.27,9.17,9,11.82,7.36,1.49-.92,1.16-4.19.34-8.31a97.18,97.18,0,0,0-10.58-28.5,204,204,0,0,0-15.09-22.79,80.48,80.48,0,0,1,27.63,35.77,76.77,76.77,0,0,1,4.9,22.68,23.5,23.5,0,0,0,7.77-5.77V202C294.54,195.42,288.88,184,276.22,169.14Z"/><path class="cls-1" d="M113.28,302.55a160.32,160.32,0,0,0,20.55,13.85A141.58,141.58,0,0,1,183.51,309a310.69,310.69,0,0,1-33.73-21.83c-7.09-5.27-13.58-10.55-19.47-15.71a172.62,172.62,0,0,0-22.88,1.73,174.74,174.74,0,0,0-19.65,4A160.89,160.89,0,0,0,113.28,302.55Z"/><path class="cls-1" d="M167.47,498.42a170.7,170.7,0,0,0-17.4,39.22A160.44,160.44,0,0,0,207.61,519a141.46,141.46,0,0,1,19.71-46.2,311.8,311.8,0,0,1-36.26,17.28C182.85,493.35,175,496.1,167.47,498.42Z"/><path class="cls-1" d="M167.12,194.62c7.25,3,14.87,6.41,22.76,10.41a312.76,312.76,0,0,1,34.59,20.43,141.18,141.18,0,0,1-15.54-47.76A160.72,160.72,0,0,0,153.28,154a171.19,171.19,0,0,0,13.84,40.62Z"/><path class="cls-1" d="M161.74,387.15a142,142,0,0,1-26.55-8.49A160.39,160.39,0,0,0,86.11,414a170.48,170.48,0,0,0,19.25,5.59,172.54,172.54,0,0,0,22.67,3.6c6.29-4.67,13.18-9.41,20.69-14.08a312.67,312.67,0,0,1,35.38-19A141.42,141.42,0,0,1,161.74,387.15Z"/><path class="cls-1" d="M291.84,108.93a172.57,172.57,0,0,0-13.26-15,160.51,160.51,0,0,0-11.1,59.46,141.39,141.39,0,0,1,19,20.41A139.93,139.93,0,0,1,297.13,190V116.13C295.48,113.77,293.75,111.38,291.84,108.93Z"/><path class="cls-1" d="M265.76,555.66a160.35,160.35,0,0,0,6.88,60.09,169.87,169.87,0,0,0,14.28-14.07c3.87-4.28,7.23-8.46,10.21-12.47V522.36a140.64,140.64,0,0,1-31.37,33.3Z"/></svg>