<svg id="Layer_1" data-name="Layer 1" xmlns="http://www.w3.org/2000/svg" viewBox="0 0 708.66 708.66"><defs><style>.cls-1{fill:#fedb48;}.cls-2{fill:#965f44;}.cls-3{fill:#fcbd38;}</style></defs><title>sunflower</title><path class="cls-1" d="M288.8,172.88a142.66,142.66,0,0,1,12.18,19,311.45,311.45,0,0,1,2.15-40.11c1-8.78,2.39-17,3.94-24.71a171.42,171.42,0,0,0-26.15-34,160.51,160.51,0,0,0-11.1,59.46A142,142,0,0,1,288.8,172.88Z"/><path class="cls-1" d="M115.62,309.65a159.92,159.92,0,0,0,20.54,13.85,141.66,141.66,0,0,1,49.68-7.42,312.93,312.93,0,0,1-33.72-21.82c-7.1-5.27-13.58-10.56-19.48-15.72a172,172,0,0,0-42.52,5.74A160.89,160.89,0,0,0,115.62,309.65Z"/><path class="cls-1" d="M169.8,505.52a171.51,171.51,0,0,0-17.39,39.23,160.51,160.51,0,0,0,57.53-18.67,141.17,141.17,0,0,1,19.72-46.2,313.59,313.59,0,0,1-36.27,17.29C185.18,500.45,177.29,503.2,169.8,505.52Z"/><path class="cls-1" d="M169.46,201.72c7.25,3,14.87,6.42,22.75,10.41a311.19,311.19,0,0,1,34.59,20.44,141.34,141.34,0,0,1-15.54-47.77,160.48,160.48,0,0,0-55.65-23.7,173.31,173.31,0,0,0,5.18,19.37A169.92,169.92,0,0,0,169.46,201.72Z"/><path class="cls-1" d="M164.08,394.25a141.74,141.74,0,0,1-26.55-8.49A160.25,160.25,0,0,0,88.44,421.1a171,171,0,0,0,41.92,9.19c6.3-4.67,13.19-9.41,20.69-14.08a311,311,0,0,1,35.39-19A142.57,142.57,0,0,1,164.08,394.25Z"/><path class="cls-1" d="M302,525.66a141.34,141.34,0,0,1-33.86,37.1A160.35,160.35,0,0,0,275,622.85a171.5,171.5,0,0,0,28.48-32.09c-1-7.78-1.77-16.1-2.19-24.93A313.43,313.43,0,0,1,302,525.66Z"/><path class="cls-1" d="M481.3,420.12c4.11,1.87,5.86,4.16,6.66,6,1.59,3.71,0,7.07,2.08,8.65,1.35,1,3.28.55,5.16.08,2.36-.58,5.25-1.84,10.69-6.93,5.12-4.81,7.69-7.21,7.08-9.48-.68-2.59-5.25-4.8-5.25-4.8-14.07-7.1-13.83-7.87-13.83-7.87.37-1.19,8.64-.08,12.7.65,3.9.7,5.4,1.32,8,.75a13,13,0,0,0,7-4.33c1.37-1.69,2-4.51,3.18-10.08,2.06-9.59,2-9.62,2.31-10.45,2.38-7.32,5.57-9.52,4.62-11-1.51-2.4-11.21.5-18.82,4.05-6.72,3.14-16.72,9.12-26.74,20.94-4.5-14.76-11.26-24.18-16.16-29.72-5.56-6.29-13.31-12.81-15.65-11.2-1.48,1,.57,4.29-.15,12-.08.86-.12.88-2.05,10.5-1.12,5.58-1.67,8.41-1.09,10.52a13.11,13.11,0,0,0,4.7,6.76c2.15,1.54,3.77,1.57,7.63,2.48s12,3.22,11.91,4.46c0,0-.09.8-15.82,1.72,0,0-5.07.21-6.73,2.3-1.46,1.85-.06,5.08,2.73,11.53,3,6.83,5.11,9.13,7.05,10.61,1.53,1.18,3.11,2.39,4.76,2,2.52-.64,2.44-4.32,5.35-7.11C474.07,421.69,476.61,420.22,481.3,420.12Z"/><path class="cls-1" d="M391.68,323c4.08,1.12,6,3,7.06,4.59,2,3.2,1.08,6.54,3.22,7.69,1.4.76,3.11,0,4.78-.69,2.1-.9,4.58-2.49,8.85-8,4-5.21,6-7.81,5.13-9.83-1-2.28-5.57-3.65-5.57-3.65-14.08-4.46-14-5.2-14-5.2.17-1.16,8-1.37,11.84-1.3s5.2.4,7.5-.5a12.2,12.2,0,0,0,5.83-5.06c1-1.77,1.17-4.47,1.44-9.8.46-9.18.44-9.2.56-10,1.11-7.13,3.73-9.64,2.63-10.89-1.76-2-10.3,2.13-16.8,6.56a73.64,73.64,0,0,0-21.6,23.37,73.83,73.83,0,0,0-19.39-25.07c-6.09-5-14.23-9.85-16.16-8-1.21,1.15,1.18,3.88,1.65,11.09.06.81,0,.83-.32,10-.2,5.33-.28,8,.57,9.89a12.26,12.26,0,0,0,5.36,5.54c2.21,1.11,3.72.9,7.42,1.16,3.86.28,11.62,1.18,11.69,2.34,0,0,0,.76-14.37,4,0,0-4.67,1-5.88,3.14-1.08,1.93.7,4.7,4.24,10.25,3.76,5.88,6.1,7.68,8.11,8.76,1.6.86,3.24,1.74,4.7,1.12,2.24-1,1.61-4.36,3.88-7.38C385.23,325.58,387.35,323.84,391.68,323Z"/><path class="cls-1" d="M590,245.27c-2.84-.08-5.84,9.59-7.12,17.88-1.14,7.31-1.74,18.9,2.44,33.74-14.82-4.54-26.46-4.16-33.81-3.18-8.32,1.11-18,3.92-18,6.75,0,1.79,3.89,1.92,9.85,6.79.67.55.67.59,7.58,7.56,4,4,6.06,6.07,8.13,6.76a13,13,0,0,0,8.23-.14c2.48-.92,3.41-2.25,6.31-4.94s9.39-8.21,10.34-7.41c0,0,.62.52-7.39,14.09,0,0-2.65,4.33-1.83,6.87.72,2.25,4.18,2.88,11.09,4.16,7.32,1.35,10.43.85,12.74.07,1.83-.63,3.71-1.26,4.29-2.86.88-2.45-2.25-4.43-2.92-8.41-.34-2-.11-4.88,2.35-8.67,4-2.46,6.93-2.58,8.92-2.19,4,.77,5.87,3.92,8.34,3.09,1.61-.54,2.28-2.41,2.94-4.23.83-2.29,1.4-5.39.2-12.74-1.13-6.94-1.7-10.4-3.93-11.17-2.52-.87-6.91,1.69-6.91,1.69-13.73,7.72-14.23,7.1-14.23,7.1-.78-1,4.75-7.22,7.61-10.18s4.1-3.76,5.08-6.22a13,13,0,0,0,.3-8.22C610,269.17,608,267.08,604,263c-6.82-7.05-6.86-7.05-7.39-7.73C591.85,249.2,591.8,245.32,590,245.27Z"/><path class="cls-1" d="M382.37,176c3.33,4.61,5,6.94,7,7.94a13,13,0,0,0,8.16,1.14c2.59-.52,3.72-1.69,7-3.9s10.55-6.65,11.37-5.71c0,0,.52.61-9.49,12.77,0,0-3.29,3.87-2.88,6.5.37,2.33,3.68,3.5,10.31,5.83,7,2.48,10.17,2.46,12.57,2.05,1.91-.33,3.87-.67,4.69-2.16,1.25-2.28-1.54-4.72-1.58-8.76,0-2,.65-4.83,3.66-8.2,4.34-1.8,7.25-1.47,9.16-.78,3.79,1.38,5.19,4.79,7.76,4.35,1.67-.28,2.63-2,3.56-3.72,1.18-2.13,2.22-5.11,2.18-12.56-.05-7-.07-10.53-2.15-11.64-2.36-1.25-7.09.6-7.09.6-14.76,5.49-15.16,4.8-15.16,4.8-.62-1.08,5.81-6.4,9.1-8.88s4.64-3.07,6-5.35a13,13,0,0,0,1.58-8.08c-.31-2.16-2-4.53-5.23-9.18-5.64-8-5.68-8-6.1-8.79-3.76-6.73-3.2-10.56-5-10.89C429,112.88,424.53,122,422,130c-2.26,7-4.65,18.39-2.83,33.7-13.93-6.78-25.49-8.22-32.91-8.39-8.39-.19-18.44,1.06-18.85,3.87-.26,1.77,3.54,2.49,8.67,8.24C376.63,168,376.62,168.07,382.37,176Z"/><path class="cls-1" d="M427.27,542.57c-14.87-7.51-14.61-8.32-14.61-8.32.39-1.25,9.13-.08,13.42.69,4.12.74,5.71,1.39,8.44.79a13.71,13.71,0,0,0,7.39-4.57c1.45-1.8,2.11-4.77,3.37-10.65,2.17-10.14,2.15-10.17,2.43-11.05,2.53-7.74,5.9-10.06,4.89-11.66-1.6-2.53-11.85.53-19.89,4.28-7.1,3.32-17.66,9.64-28.26,22.13-4.75-15.59-11.9-25.55-17.07-31.4-5.88-6.65-14.07-13.54-16.54-11.84-1.56,1.06.61,4.53-.16,12.64-.09.91-.12.93-2.16,11.1-1.19,5.89-1.77,8.89-1.15,11.11a13.8,13.8,0,0,0,5,7.14c2.27,1.63,4,1.67,8.06,2.63,4.24,1,12.73,3.4,12.59,4.71,0,0-.1.85-16.72,1.81,0,0-5.36.23-7.11,2.44-1.54,2-.07,5.36,2.88,12.18,3.13,7.22,5.41,9.65,7.45,11.22,1.62,1.24,3.29,2.52,5,2.08,2.67-.67,2.58-4.56,5.66-7.51,1.54-1.48,4.22-3,9.18-3.15,4.35,2,6.19,4.4,7,6.38,1.67,3.92,0,7.47,2.2,9.15,1.42,1.09,3.46.58,5.45.09,2.49-.63,5.55-2,11.29-7.33,5.42-5.08,8.13-7.62,7.49-10C432.1,544.91,427.27,542.57,427.27,542.57Z"/><path class="cls-1" d="M601.9,433.92c-.72-5.94.81-8.53-.35-9.29-1.86-1.19-7.74,4-11.94,9a61.28,61.28,0,0,0-12,23.51,61.13,61.13,0,0,0-21.11-15.65c-6-2.61-13.57-4.67-14.7-2.77-.71,1.19,1.81,2.84,3.81,8.48.23.63.21.66,2,8.07,1,4.3,1.57,6.47,2.67,7.76a10.17,10.17,0,0,0,5.53,3.23c2,.38,3.17-.12,6.19-.75s9.53-1.67,9.85-.75c0,0,.2.59-10.59,6.38,0,0-3.5,1.81-4,3.83-.42,1.78,1.61,3.6,5.69,7.23,4.33,3.84,6.6,4.76,8.44,5.17,1.47.33,3,.66,4-.17,1.58-1.27.31-3.84,1.45-6.76.57-1.47,1.87-3.34,5.15-4.94,3.51,0,5.49,1,6.67,2.07,2.33,2.1,2.32,5,4.3,5.42,1.28.28,2.49-.69,3.66-1.63,1.47-1.19,3.09-3,5.26-8.39,2-5.06,3.06-7.59,1.89-9-1.33-1.6-5.28-1.66-5.28-1.66-12.23-.4-12.31-1-12.31-1-.13-1,6.06-2.88,9.16-3.7s4.23-.84,5.87-2.08a10.19,10.19,0,0,0,3.52-5.34c.4-1.65-.08-3.84-1.06-8.15C602,434.6,602,434.59,601.9,433.92Z"/><path class="cls-1" d="M413.48,591.15a57.53,57.53,0,0,0-21,13.4,57.63,57.63,0,0,0-9.71-22.79c-3.62-5-8.81-10.27-10.63-9.26-1.15.63.12,3.17-.95,8.71-.12.62-.14.63-2.22,7.51-1.21,4-1.8,6-1.53,7.59a9.6,9.6,0,0,0,3,5.26c1.46,1.27,2.64,1.41,5.39,2.34s8.55,3.19,8.37,4.08c0,0-.12.58-11.65.15,0,0-3.72-.2-5.07,1.22-1.19,1.24-.4,3.69,1.19,8.59,1.68,5.19,3.09,7,4.39,8.23,1,1,2.11,2,3.34,1.77,1.88-.29,2.08-3,4.4-4.81,1.16-.92,3.11-1.82,6.54-1.57,2.87,1.65,4,3.44,4.44,4.87.89,2.82-.49,5.15.91,6.45.91.85,2.35.63,3.75.42,1.76-.26,4-1,8.28-4.31,4.07-3.14,6.11-4.72,5.83-6.42-.32-1.93-3.5-3.86-3.5-3.86-9.76-6.16-9.53-6.7-9.53-6.7.35-.84,6.3.54,9.21,1.36s3.85,1.33,5.77,1.1a9.56,9.56,0,0,0,5.41-2.67c1.11-1.14,1.76-3.15,3-7.12,2.17-6.86,2.16-6.88,2.41-7.46,2.25-5.18,4.73-6.56,4.14-7.73C426.54,587.65,419.27,589.08,413.48,591.15Z"/><path class="cls-1" d="M528.73,454.15c1.69.06,2.37.23,3.43-.17a5.58,5.58,0,0,0,2.7-2.27c.47-.8.56-2,.72-4.46.28-4.19.27-4.2.33-4.57.56-3.25,1.78-4.38,1.28-5-.79-.92-4.72.9-7.72,2.88a33.56,33.56,0,0,0-10,10.51,33.62,33.62,0,0,0-8.68-11.58c-2.74-2.32-6.43-4.61-7.32-3.78-.56.51.51,1.78.67,5.07,0,.37,0,.38-.21,4.58-.13,2.43-.19,3.66.18,4.52a5.58,5.58,0,0,0,2.41,2.57c1,.52,1.69.44,3.38.58s5.3.62,5.32,1.16c0,0,0,.34-6.59,1.7,0,0-2.14.4-2.71,1.39s.29,2.15,1.87,4.71c1.67,2.71,2.73,3.56,3.64,4.06a2.62,2.62,0,0,0,2.14.55c1-.43.76-2,1.82-3.35a5.28,5.28,0,0,1,3.5-1.79,5.14,5.14,0,0,1,3.19,2.14c.9,1.48.45,3,1.42,3.54.63.35,1.42,0,2.19-.28,1-.4,2.11-1.11,4.1-3.6s2.81-3.53,2.41-4.45-2.52-1.71-2.52-1.71c-6.39-2.14-6.34-2.48-6.34-2.48C523.39,454.13,527,454.1,528.73,454.15Z"/><path class="cls-1" d="M532.34,343.81c2.07-.47,2.93-.48,4.09-1.29a7,7,0,0,0,2.54-3.59c.32-1.12,0-2.64-.54-5.62-1-5.15-1-5.16-1-5.62-.36-4.1.75-5.85,0-6.39-1.24-.87-5.41,2.58-8.41,5.91a42.11,42.11,0,0,0-8.79,15.87A42,42,0,0,0,506,331.84c-4-1.94-9.22-3.53-10-2.25-.51.8,1.18,2,2.42,5.91.14.45.13.46,1.19,5.6.61,3,.93,4.48,1.65,5.4a7,7,0,0,0,3.72,2.34c1.38.31,2.19,0,4.27-.37s6.6-.92,6.79-.29c0,0,.12.42-7.42,4.14,0,0-2.45,1.17-2.83,2.54-.33,1.22,1,2.51,3.74,5.1,2.88,2.75,4.42,3.43,5.68,3.75,1,.26,2,.53,2.76,0,1.11-.84.29-2.63,1.15-4.61a4.78,4.78,0,0,1,8.19-1.7c1.55,1.5,1.48,3.48,2.82,3.83.88.22,1.73-.42,2.56-1,1-.78,2.2-2,3.81-5.64,1.52-3.43,2.28-5.14,1.51-6.14s-3.59-1.26-3.59-1.26c-8.4-.56-8.44-1-8.44-1C525.9,345.48,530.2,344.3,532.34,343.81Z"/><path class="cls-1" d="M451.66,115.41c.27.21.27.23,3.1,3,1.65,1.59,2.49,2.39,3.32,2.65a5.2,5.2,0,0,0,3.31-.12c1-.39,1.35-.93,2.5-2s3.7-3.37,4.09-3.06c0,0,.25.2-2.85,5.72,0,0-1,1.77-.68,2.78s1.7,1.12,4.48,1.58c3,.48,4.2.25,5.12-.08.74-.26,1.49-.53,1.7-1.18.34-1-.93-1.76-1.24-3.35a5,5,0,0,1,.88-3.59,4.85,4.85,0,0,1,3.49-.94c1.6.27,2.4,1.53,3.38,1.17.64-.23.9-1,1.15-1.72.31-.93.51-2.18,0-5.12-.51-2.78-.76-4.17-1.67-4.46s-2.76.74-2.76.74c-5.45,3.21-5.66,3-5.66,3-.32-.39,1.85-2.94,3-4.16s1.61-1.54,2-2.53a5.23,5.23,0,0,0,.06-3.31c-.28-.83-1.09-1.66-2.72-3.27-2.8-2.78-2.81-2.78-3-3-2-2.39-2-4-2.73-4-1.14,0-2.27,3.89-2.71,7.24a31.56,31.56,0,0,0,1.27,13.59,31.59,31.59,0,0,0-13.56-1c-3.33.52-7.22,1.72-7.19,2.86C447.66,113.48,449.22,113.5,451.66,115.41Z"/><path class="cls-1" d="M382,112.82c1.42-.56,1.94-1.33,3.59-2.92s5.3-4.84,5.86-4.39c0,0,.37.29-4.09,8.2,0,0-1.47,2.53-1,4,.44,1.28,2.44,1.61,6.43,2.26,4.24.69,6,.37,7.34-.11,1.05-.38,2.13-.77,2.44-1.69.48-1.43-1.33-2.53-1.78-4.81a7.07,7.07,0,0,1,1.26-5.14,7,7,0,0,1,5-1.36c2.29.39,3.43,2.2,4.84,1.69.92-.33,1.29-1.42,1.65-2.47.45-1.33.74-3.12,0-7.35-.73-4-1.1-6-2.39-6.38-1.47-.48-4,1-4,1C399.33,98,399,97.65,399,97.64c-.46-.54,2.65-4.21,4.27-6s2.32-2.21,2.85-3.64a7.54,7.54,0,0,0,.08-4.74c-.4-1.2-1.57-2.37-3.9-4.68-4-4-4-4-4.35-4.37-2.81-3.44-2.88-5.67-3.91-5.68-1.64,0-3.25,5.59-3.89,10.38A45.3,45.3,0,0,0,392,98.45,45.42,45.42,0,0,0,372.57,97c-4.78.74-10.35,2.47-10.31,4.1,0,1,2.27,1.06,5.76,3.8.39.31.39.33,4.45,4.26,2.36,2.28,3.56,3.43,4.76,3.81A7.5,7.5,0,0,0,382,112.82Z"/><path class="cls-1" d="M477.84,200.8a7,7,0,0,0,2.76,3.43c1.2.74,2.07.7,4.16,1s6.54,1.25,6.51,1.92c0,0,0,.43-8.36,1.51,0,0-2.69.31-3.5,1.49s.16,2.7,1.89,6c1.84,3.53,3.07,4.68,4.16,5.39.86.57,1.75,1.16,2.61.88,1.32-.44,1.14-2.4,2.58-4a6.58,6.58,0,0,1,4.52-1.91,6.41,6.41,0,0,1,3.78,3c1,1.92.28,3.77,1.44,4.54.75.5,1.76.17,2.75-.15,1.23-.41,2.73-1.18,5.43-4.11,2.55-2.75,3.83-4.13,3.42-5.32-.47-1.35-3-2.35-3-2.35-7.77-3.25-7.67-3.67-7.67-3.67.15-.65,4.6-.37,6.79-.14s2.93.5,4.29.1a6.93,6.93,0,0,0,3.56-2.57c.67-1,.89-2.48,1.32-5.49.73-5.19.72-5.21.83-5.66,1-4,2.61-5.28,2-6.05-.9-1.23-6,.69-9.88,2.87a42.1,42.1,0,0,0-13.46,12.17,42.07,42.07,0,0,0-9.73-15.23c-3.2-3.14-7.58-6.32-8.77-5.37-.74.59.47,2.26.38,6.38,0,.46,0,.47-.7,5.67C477.64,198.18,477.45,199.71,477.84,200.8Z"/><path class="cls-1" d="M476.25,145c-.33,1.14,2.14,1.79,5.06,5.76.33.45.32.47,3.45,5.91,1.81,3.15,2.74,4.74,3.94,5.48a8.71,8.71,0,0,0,5.34,1.14c1.78-.22,2.63-.92,5-2.2s7.62-3.8,8.08-3.15c0,0,.3.41-7.45,7.82,0,0-2.54,2.35-2.5,4.08,0,1.52,2.14,2.44,6.36,4.27,4.47,1.94,6.57,2.08,8.21,1.93,1.3-.12,2.63-.24,3.31-1.17,1-1.42-.59-3.13-.28-5.75.16-1.32.84-3.14,3.23-5.27,2.93-.93,4.82-.62,6-.08,2.42,1.07,3,3.36,4.79,3.2,1.14-.11,1.94-1.19,2.71-2.25,1-1.32,1.93-3.2,2.56-8,.59-4.56.89-6.84-.4-7.65-1.46-.93-4.78,0-4.78,0-10.33,2.86-10.54,2.39-10.54,2.39-.32-.73,4.44-3.87,6.86-5.32s3.36-1.77,4.46-3.18a8.7,8.7,0,0,0,1.77-5.16c0-1.42-.91-3-2.68-6.21-3-5.48-3.07-5.48-3.29-6-1.91-4.54-1.2-7-2.34-7.3-1.81-.47-5.6,5.2-8,10.26a51.34,51.34,0,0,0-4.87,21.81,51.49,51.49,0,0,0-21.13-7C483.59,142.83,476.78,143.16,476.25,145Z"/><path class="cls-1" d="M528.4,210.25c-.08,1.29,2.71,1.58,6.77,5.41.45.43.45.46,5.09,5.84,2.69,3.12,4.06,4.7,5.52,5.3a9.43,9.43,0,0,0,6,.32c1.84-.54,2.58-1.45,4.82-3.25s7.19-5.44,7.84-4.82c0,0,.42.41-6.06,9.8,0,0-2.13,3-1.67,4.87.41,1.66,2.87,2.29,7.79,3.57,5.23,1.35,7.5,1.14,9.2.7,1.36-.36,2.75-.72,3.25-1.85.76-1.72-1.38-3.31-1.68-6.22-.15-1.46.13-3.56,2.16-6.28,2.9-1.52,5-1.5,6.42-1.13,2.82.75,4,3.14,5.87,2.66,1.18-.31,1.77-1.62,2.34-2.9.71-1.62,1.28-3.82.79-9.19-.47-5.07-.7-7.6-2.27-8.27-1.78-.76-5.07.87-5.07.87-10.32,4.87-10.65,4.4-10.65,4.4-.51-.75,3.8-5,6-7s3.16-2.5,4-4.23a9.38,9.38,0,0,0,.64-5.92c-.36-1.54-1.69-3.15-4.34-6.31-4.56-5.44-4.59-5.44-4.94-6-3.13-4.62-3-7.42-4.25-7.55-2-.21-4.71,6.62-6.06,12.55a56.93,56.93,0,0,0,.07,24.59,57.16,57.16,0,0,0-24.17-4C535.7,206.68,528.53,208.2,528.4,210.25Z"/><path class="cls-1" d="M463.06,217.38c-1.25-.86-5.41,2.59-8.41,5.92a41.89,41.89,0,0,0-8.79,15.87,42,42,0,0,0-14.14-11.24c-4.05-1.94-9.22-3.53-10-2.25-.51.8,1.18,2,2.42,5.91.14.44.13.46,1.18,5.6.62,3,.94,4.48,1.66,5.39a7,7,0,0,0,3.72,2.35c1.38.31,2.19,0,4.27-.37s6.6-.92,6.79-.29c0,0,.12.41-7.42,4.14,0,0-2.45,1.17-2.83,2.54s1,2.51,3.74,5.1c2.88,2.74,4.42,3.43,5.68,3.75,1,.26,2,.53,2.75,0,1.12-.84.3-2.63,1.15-4.61a6.55,6.55,0,0,1,3.66-3.28,6.38,6.38,0,0,1,4.53,1.58c1.56,1.5,1.49,3.48,2.83,3.82.88.23,1.73-.41,2.55-1,1-.78,2.2-2,3.82-5.64,1.51-3.43,2.27-5.15,1.5-6.14s-3.58-1.26-3.58-1.26c-8.4-.56-8.44-1-8.44-1-.07-.66,4.23-1.84,6.38-2.33s2.93-.48,4.08-1.29a7,7,0,0,0,2.55-3.59c.32-1.12,0-2.64-.54-5.63-1-5.14-1-5.15-1.05-5.62C462.73,219.67,463.84,217.93,463.06,217.38Z"/><path class="cls-1" d="M409.87,213.81c-.74-1.32-6,0-10.14,1.66a42.17,42.17,0,0,0-14.83,10.47,42.12,42.12,0,0,0-7.83-16.28c-2.81-3.5-6.77-7.18-8.06-6.39-.81.5.19,2.3-.4,6.38-.06.46-.08.47-1.36,5.55-.75,3-1.12,4.44-.86,5.58a6.9,6.9,0,0,0,2.33,3.73c1.1.88,2,.94,4,1.53s6.34,2,6.24,2.69c0,0-.07.43-8.49.5,0,0-2.71,0-3.65,1.05s-.16,2.71,1.15,6.22c1.4,3.73,2.49,5,3.48,5.85.79.67,1.6,1.36,2.49,1.18,1.37-.27,1.42-2.24,3.05-3.65a6.5,6.5,0,0,1,4.71-1.36,6.42,6.42,0,0,1,3.4,3.4c.74,2-.18,3.77.88,4.67.69.58,1.73.38,2.75.18,1.27-.25,2.85-.85,5.88-3.42,2.86-2.43,4.29-3.64,4-4.87-.29-1.4-2.67-2.7-2.67-2.7-7.32-4.16-7.17-4.56-7.17-4.56.23-.63,4.61.18,6.76.68s2.84.84,4.24.61a7,7,0,0,0,3.85-2.13c.77-.87,1.18-2.35,2-5.29C407,220,407,220,407.12,219.57,408.58,215.73,410.34,214.64,409.87,213.81Z"/><path class="cls-1" d="M457.72,281.54c-3.11-4.79-7.68-10-9.41-9.1-1.1.53,0,2.94-1.3,8-.14.57-.16.58-2.42,6.87-1.31,3.64-2,5.49-1.78,7a8.77,8.77,0,0,0,2.49,5c1.29,1.25,2.38,1.44,4.88,2.44s7.79,3.36,7.57,4.18c0,0-.13.53-10.81-.42,0,0-3.44-.36-4.76.88-1.16,1.1-.55,3.41.69,8,1.31,4.89,2.53,6.66,3.68,7.85.92.94,1.86,1.91,3,1.8,1.77-.18,2.07-2.66,4.31-4.25,1.13-.8,3-1.54,6.15-1.14,2.58,1.67,3.53,3.38,3.88,4.73.7,2.65-.69,4.76.54,6,.8.83,2.15.69,3.46.57,1.65-.16,3.72-.72,7.88-3.61,3.93-2.72,5.9-4.08,5.72-5.67-.21-1.81-3.06-3.75-3.06-3.75-8.76-6.18-8.52-6.68-8.52-6.68.36-.76,5.82.81,8.48,1.71s3.5,1.42,5.3,1.3a8.86,8.86,0,0,0,5.14-2.22c1.09-1,1.79-2.84,3.15-6.46,2.34-6.26,2.33-6.28,2.59-6.81,2.34-4.69,4.7-5.85,4.21-7-.78-1.77-7.6-.79-13.07.85a53.5,53.5,0,0,0-20.08,11.42A53.46,53.46,0,0,0,457.72,281.54Z"/><path class="cls-1" d="M564,411.52c1.66.05,2.32.22,3.35-.17a5.38,5.38,0,0,0,2.64-2.22c.47-.78.55-2,.71-4.36.28-4.1.26-4.11.33-4.47.54-3.17,1.73-4.28,1.24-4.84-.77-.91-4.61.88-7.54,2.81a32.87,32.87,0,0,0-9.81,10.28,32.93,32.93,0,0,0-8.48-11.33c-2.69-2.27-6.29-4.5-7.16-3.69-.55.5.5,1.74.66,5,0,.36,0,.37-.21,4.47-.13,2.38-.19,3.58.18,4.42a5.48,5.48,0,0,0,2.35,2.51c1,.51,1.66.43,3.31.57s5.18.61,5.2,1.13c0,0,0,.34-6.45,1.66,0,0-2.08.4-2.64,1.37s.28,2.1,1.82,4.6,2.67,3.48,3.56,4c.71.4,1.43.8,2.09.53,1-.41.75-1.93,1.79-3.27a5.13,5.13,0,0,1,3.41-1.75,5.07,5.07,0,0,1,3.13,2.1c.88,1.44.43,2.92,1.38,3.45.62.35,1.39,0,2.14-.27.94-.39,2.06-1.08,4-3.52s2.75-3.45,2.36-4.35-2.47-1.67-2.47-1.67c-6.25-2.09-6.19-2.42-6.19-2.42C558.77,411.5,562.26,411.46,564,411.52Z"/><path class="cls-1" d="M390.53,451.43c1.66.05,2.32.22,3.35-.17a5.43,5.43,0,0,0,2.64-2.22c.46-.78.55-2,.71-4.36.27-4.1.26-4.11.32-4.47.55-3.17,1.74-4.28,1.25-4.84-.77-.91-4.61.88-7.54,2.81a32.65,32.65,0,0,0-9.81,10.28A32.93,32.93,0,0,0,373,437.13c-2.68-2.27-6.28-4.5-7.15-3.69-.55.5.49,1.74.66,5,0,.36,0,.37-.22,4.47-.12,2.38-.18,3.58.19,4.42a5.42,5.42,0,0,0,2.35,2.51c1,.51,1.66.43,3.31.57s5.18.61,5.2,1.13c0,0,0,.34-6.45,1.66,0,0-2.09.4-2.64,1.37s.28,2.1,1.82,4.6,2.67,3.48,3.56,4c.7.4,1.43.8,2.09.53,1-.41.75-1.93,1.78-3.27a5.16,5.16,0,0,1,3.42-1.75,5.07,5.07,0,0,1,3.13,2.1c.87,1.44.43,2.92,1.38,3.45a2.54,2.54,0,0,0,2.14-.27c.94-.39,2.06-1.08,4-3.52s2.75-3.45,2.37-4.35-2.47-1.67-2.47-1.67c-6.25-2.09-6.2-2.42-6.2-2.42C385.31,451.41,388.81,451.37,390.53,451.43Z"/><path class="cls-1" d="M487.24,570.06c-1.21-1.07-6.29,1.83-10.09,4.78A44.26,44.26,0,0,0,465,589.72a44.11,44.11,0,0,0-13.47-13.56c-4.06-2.57-9.4-5-10.5-3.78-.69.74.95,2.21,1.65,6.39.08.47.07.48.36,5.88.18,3.12.28,4.71.91,5.74a7.44,7.44,0,0,0,3.65,3c1.44.52,2.36.31,4.68.26s7.29,0,7.4.71c0,0,.06.43-8.72,3.12,0,0-2.85.82-3.48,2.16-.56,1.19.7,2.71,3.22,5.76,2.66,3.22,4.22,4.15,5.53,4.66,1,.41,2.11.84,3,.39,1.35-.69.76-2.64,2-4.53.62-1,1.85-2.09,4.49-2.8a7.11,7.11,0,0,1,4.66,2.28c1.43,1.76,1,3.76,2.43,4.32.91.36,1.94-.16,2.93-.68,1.26-.64,2.71-1.71,5.06-5.18,2.21-3.27,3.31-4.91,2.64-6s-3.67-1.82-3.67-1.82c-9-1.81-9-2.25-9-2.25,0-.69,4.89-1.25,7.29-1.43s3.25-.06,4.64-.72a7.39,7.39,0,0,0,3.34-3.28c.53-1.09.47-2.68.34-5.81-.22-5.39-.24-5.41-.21-5.88C486.5,572.35,488,570.73,487.24,570.06Z"/><path class="cls-1" d="M444.49,467.15c2,1.78,2.64,2.66,4.29,3.28a8.62,8.62,0,0,0,5.39.16c1.33-.43,2.6-1.74,5.1-4.35,4.29-4.48,4.29-4.5,4.71-4.86,3.75-3.13,6.27-3.18,6.23-4.34-.08-1.85-6.53-3.76-12-4.56a51,51,0,0,0-22,1.79,50.77,50.77,0,0,0,.53-22c-1.1-5.43-3.37-11.76-5.23-11.73-1.16,0-1.07,2.55-4,6.46-.33.44-.36.44-4.59,5-2.46,2.64-3.7,4-4.05,5.34a8.5,8.5,0,0,0,.46,5.36c.71,1.62,1.62,2.22,3.51,4.1s5.79,6.08,5.31,6.7c0,0-.31.41-9.54-4.74,0,0-2.95-1.71-4.57-1.17-1.43.49-1.69,2.74-2.21,7.26-.55,4.78-.08,6.81.53,8.31.49,1.19,1,2.42,2.06,2.78,1.64.57,2.8-1.47,5.36-1.94,1.29-.24,3.21-.13,5.9,1.5,1.73,2.5,2,4.37,1.82,5.68-.32,2.59-2.3,3.85-1.65,5.46.43,1,1.68,1.47,2.9,1.9,1.53.52,3.58.88,8.33.06,4.48-.77,6.72-1.16,7.12-2.62.45-1.65-1.42-4.5-1.42-4.5-5.67-8.92-5.28-9.25-5.28-9.25C438.1,461.72,442.43,465.3,444.49,467.15Z"/><path class="cls-1" d="M536.29,262.75c2.67,0,3.74.26,5.39-.36a8.58,8.58,0,0,0,4.16-3.42c.72-1.21.81-3,1-6.63.28-6.2.26-6.22.35-6.76.75-4.82,2.62-6.53,1.82-7.37-1.28-1.35-7.39,1.46-12,4.47a50.83,50.83,0,0,0-15.39,15.84,50.89,50.89,0,0,0-14.08-16.89c-4.4-3.36-10.28-6.63-11.65-5.39-.87.79.86,2.63,1.25,7.49,0,.55,0,.56-.18,6.77-.11,3.6-.16,5.43.47,6.68a8.5,8.5,0,0,0,3.88,3.74c1.6.74,2.68.6,5.34.77s8.36.76,8.41,1.55c0,0,0,.51-10.3,2.71,0,0-3.35.65-4.21,2.13-.76,1.31.53,3.18,3.11,6.92,2.73,4,4.42,5.17,5.87,5.9,1.16.58,2.34,1.17,3.39.74,1.6-.66,1.13-2.95,2.75-5,.81-1,2.33-2.21,5.43-2.76,2.94.75,4.36,2,5.1,3.08,1.47,2.16.81,4.42,2.36,5.19,1,.51,2.24,0,3.43-.48,1.5-.61,3.28-1.69,6.31-5.43,2.86-3.53,4.29-5.3,3.64-6.66-.75-1.54-4-2.45-4-2.45-10.14-3-10.07-3.49-10.07-3.49C527.9,262.87,533.52,262.71,536.29,262.75Z"/><path class="cls-1" d="M617.35,380.51c1.48-4.29,2.22-6.44,1.14-7.49s-4.62-.93-4.62-.93c-10.55.66-10.65.16-10.65.16-.17-.77,5.06-2.84,7.67-3.75s3.6-1,4.94-2.18a8.46,8.46,0,0,0,2.74-4.64c.26-1.37-.27-3.12-1.35-6.56-1.86-5.93-1.88-5.94-2-6.47-.93-4.79.24-7-.8-7.55-1.66-.83-6.44,3.9-9.78,8.31a50.8,50.8,0,0,0-9,20.06,50.77,50.77,0,0,0-19.08-11.12c-5.28-1.65-11.93-2.71-12.79-1.07-.55,1,1.71,2.16,3.73,6.6.23.5.22.52,2.16,6.43,1.12,3.42,1.71,5.15,2.72,6.11a8.54,8.54,0,0,0,4.93,2.19c1.75.15,2.72-.36,5.28-1.11s8.11-2.13,8.43-1.41c0,0,.21.47-8.75,6.06,0,0-2.92,1.76-3.23,3.45-.26,1.48,1.59,2.8,5.29,5.43,3.93,2.79,5.93,3.36,7.54,3.54,1.28.15,2.6.3,3.44-.46,1.28-1.16,0-3.16.87-5.63.43-1.25,1.45-2.84,4.09-4.34,3.14-.31,4.91.42,6,1.19,2.11,1.54,2.27,3.87,4,4.07,1.13.13,2.11-.76,3.06-1.62C614.49,386.69,615.79,385.07,617.35,380.51Z"/><path class="cls-1" d="M423,396.17c1.79-5.2,2.69-7.8,1.38-9.08-1.48-1.44-5.59-1.11-5.59-1.11-12.75.81-12.88.21-12.88.21-.19-.94,6.12-3.45,9.29-4.56s4.35-1.25,6-2.64a10.32,10.32,0,0,0,3.31-5.62c.32-1.67-.33-3.78-1.63-7.94-2.24-7.17-2.27-7.19-2.39-7.84-1.13-5.8.29-8.51-1-9.14-2-1-7.79,4.74-11.83,10.08a61.69,61.69,0,0,0-10.93,24.29,61.11,61.11,0,0,0-23.06-13.44c-6.38-2-14.41-3.27-15.46-1.29-.66,1.25,2.06,2.63,4.51,8,.27.6.26.63,2.6,7.77,1.35,4.14,2.06,6.24,3.28,7.41a10.39,10.39,0,0,0,6,2.64c2.12.18,3.29-.44,6.39-1.35s9.81-2.59,10.19-1.72c0,0,.25.57-10.59,7.35,0,0-3.53,2.13-3.9,4.18-.32,1.8,1.91,3.39,6.39,6.57,4.75,3.37,7.17,4.05,9.11,4.28,1.55.17,3.14.36,4.15-.56,1.56-1.42.06-3.83,1.07-6.82.51-1.52,1.76-3.44,5-5.26,3.79-.38,5.94.5,7.22,1.43,2.55,1.86,2.74,4.69,4.82,4.93,1.36.16,2.54-.92,3.7-2C419.48,403.65,421.06,401.69,423,396.17Z"/><path class="cls-1" d="M553.48,502.2c-9.34,2.09-23.62,6.84-39.55,19-1.56-19.86-7.47-33.63-12.1-42-5.27-9.48-13.22-19.86-16.62-18.49-2.14.86-.47,5.58-3.52,15.05-.35,1.06-.39,1.07-5.51,12.67-3,6.72-4.45,10.14-4.3,13a16.82,16.82,0,0,0,4,9.83c2.28,2.55,4.32,3,8.93,5.26,4.79,2.31,14.29,7.42,13.77,8.94,0,0-.33,1-20.42-2.24,0,0-6.46-1.15-9.13,1-2.35,1.92-1.49,6.38.23,15.28,1.83,9.45,3.91,12.95,5.93,15.36,1.61,1.91,3.27,3.87,5.46,3.81,3.36-.09,4.27-4.77,8.73-7.48,2.23-1.35,5.84-2.51,11.78-1.33,4.67,3.51,6.24,6.88,6.73,9.47,1,5.12-1.95,8.92.21,11.49,1.41,1.68,4,1.61,6.48,1.55,3.14-.09,7.13-.86,15.41-5.77,7.8-4.64,11.7-7,11.58-10-.15-3.45-5.3-7.51-5.3-7.51-15.76-12.87-15.24-13.77-15.24-13.77.8-1.4,10.92,2.3,15.83,4.35,4.73,2,6.45,3.17,9.87,3.17a16.75,16.75,0,0,0,10-3.51c2.2-1.76,3.77-5.14,6.83-11.82,5.26-11.53,5.24-11.57,5.81-12.54,5-8.57,9.68-10.45,8.9-12.63C577.11,498.88,564.06,499.84,553.48,502.2Z"/><path class="cls-2" d="M240.67,353.92c-.78,51.26,45.94,103.06,108.4,108.89V248.58C287.92,254.07,241.43,303.62,240.67,353.92Z"/><path class="cls-3" d="M168.42,294.52c16.63,12.81,37.29,28.74,57.06,22.23,8.12-2.67,13.62-8.32,17-12.6a54.49,54.49,0,0,1-45.08-24,86.56,86.56,0,0,0,29.86,13.95c3.89.95,15.39,3.74,17.17.34,1-1.92-1.42-5.17-4.88-9A119.77,119.77,0,0,0,210.29,262a251.3,251.3,0,0,0-30.38-14.62c10.4,1,31.81,4.61,51.86,20.44a95.25,95.25,0,0,1,19.52,20.94,27.19,27.19,0,0,0,5-15.33c0-4-1.17-13.17-17.37-27-5.46-4.68-19.06-15.06-46.2-24.27-19.68-6.68-35.43-8.52-55.05-10.8-16.52-1.93-30.33-2.54-40-2.74,4,6.34,9.83,15.28,17.3,25.67C131.69,257.48,145.78,277.07,168.42,294.52Z"/><path class="cls-3" d="M251,445.44c1.7-8.38-.49-15.95-2.56-21a54.51,54.51,0,0,1-43.13,27.31,86.62,86.62,0,0,0,26.91-19C235,429.84,243.12,421.23,241,418c-1.17-1.82-5.19-1.32-10.25-.22a119.65,119.65,0,0,0-34.89,13.76,251.62,251.62,0,0,0-27.74,19.16c6-8.55,19.75-25.37,43.44-34.95a95.55,95.55,0,0,1,27.85-6.61,27.26,27.26,0,0,0-10.86-11.92c-3.51-2-12-5.49-32.08,1.72-6.76,2.43-22.51,9.11-43.95,28.14-15.54,13.79-24.93,26.57-36.63,42.49C106.09,483,98.71,494.66,93.75,503c7.49-.33,18.14-1,30.86-2.33,28.52-3,52.51-5.59,78.88-16.63C222.85,475.92,246.91,465.84,251,445.44Z"/><path class="cls-3" d="M231.58,216.61c6.26,15.83,14,35.49,30.51,39.17a29.46,29.46,0,0,0,17-1.74,44.21,44.21,0,0,1-21.45-35.4,70.07,70.07,0,0,0,15,22.11c2.31,2.27,9.16,9,11.81,7.36,1.5-.92,1.16-4.19.35-8.3a97,97,0,0,0-10.59-28.5,204.9,204.9,0,0,0-15.09-22.8,80.48,80.48,0,0,1,27.64,35.77A77.48,77.48,0,0,1,291.7,247a22.09,22.09,0,0,0,9.84-8.6c1.64-2.82,4.65-9.66-.88-26-1.86-5.52-7-18.39-22.1-36.08-10.93-12.81-21.14-20.63-33.86-30.37-10.7-8.19-20.06-14.36-26.73-18.51.15,6.07.51,14.72,1.4,25C221.37,175.57,223.05,195.06,231.58,216.61Z"/><path class="cls-3" d="M168.93,386.75c16.8,2.73,37.67,6.12,49.26-6.15a29.34,29.34,0,0,0,7.23-15.51,44.18,44.18,0,0,1-41.38.29,69.84,69.84,0,0,0,26.67-1.57c3.14-.82,12.42-3.26,12.38-6.38,0-1.75-3-3.13-7-4.55a97.34,97.34,0,0,0-29.9-5.5,204.66,204.66,0,0,0-27.31,1.29,80.47,80.47,0,0,1,44.88-5.42,77.21,77.21,0,0,1,22,7.41,22.1,22.1,0,0,0-2.35-12.86c-1.58-2.85-5.92-8.94-22.81-12.58-5.7-1.23-19.4-3.39-42.31.51-16.61,2.82-28.55,7.58-43.43,13.52-12.51,5-22.6,9.88-29.59,13.48,5.3,3,12.9,7.1,22.24,11.63C128.45,374.5,146.06,383,168.93,386.75Z"/><path class="cls-3" d="M295.21,468.17a44.15,44.15,0,0,1-20.1,36.18,70,70,0,0,0,11.76-24c.82-3.13,3.26-12.41.53-13.91-1.54-.84-4.21,1.08-7.39,3.82a97.21,97.21,0,0,0-19.49,23.34A203.49,203.49,0,0,0,248.22,518a80.51,80.51,0,0,1,17.34-41.74,77.18,77.18,0,0,1,17.26-15.51,22.12,22.12,0,0,0-12.35-4.28c-3.26,0-10.69.76-22.17,13.69-3.87,4.35-12.48,15.22-20.36,37.09-5.7,15.85-7.42,28.58-9.57,44.46-1.8,13.36-2.51,24.55-2.81,32.4,5.2-3.15,12.53-7.75,21.06-13.65,19.12-13.23,35.2-24.36,49.68-42.45,10.64-13.29,23.85-29.8,18.87-45.92A29.38,29.38,0,0,0,295.21,468.17Z"/><path class="cls-3" d="M343.22,484.64A119.54,119.54,0,0,0,338,521.78a251.69,251.69,0,0,0,3,33.58c-4.47-9.45-12.36-29.68-9-55a95.17,95.17,0,0,1,8-27.5,27.33,27.33,0,0,0-15.73,3.58c-3.43,2.1-10.69,7.76-14.29,28.78-1.21,7.08-3.15,24.08,2.86,52.11,4.36,20.32,10.86,34.78,19,52.8,6.41,14.27,12.58,25.85,17.29,34.19V475.9a2.09,2.09,0,0,0-.61-.08C346.3,476,344.75,479.69,343.22,484.64Z"/><path class="cls-3" d="M336.63,89.83c-11.85,26.11-21.82,48.08-25.69,76.4-2.84,20.8-6.36,46.65,9.12,60.55,6.36,5.72,14,7.68,19.36,8.44a54.54,54.54,0,0,1-1.65-51A86.51,86.51,0,0,0,340.53,217c1.12,3.84,4.42,15.21,8.26,15.05a1.64,1.64,0,0,0,.28-.07V64.35C345.69,70.81,341.34,79.46,336.63,89.83Z"/></svg>