<svg id="Layer_1" data-name="Layer 1" xmlns="http://www.w3.org/2000/svg" viewBox="0 0 708.66 708.66"><defs><style>.cls-1{fill:#fcbd38;}.cls-2{fill:#ffcc26;}.cls-3{fill:#fedb48;}.cls-4{fill:#965f44;}</style></defs><title>sunflower</title><path class="cls-1" d="M289.64,469a44.35,44.35,0,0,1-5.64,20.8c-.48.87-1,1.66-1.5,2.45a44.63,44.63,0,0,1-13,13.08,75.93,75.93,0,0,0,7.81-13.08,66.34,66.34,0,0,0,4-11c.83-3.15,3.28-12.47.53-14-1.55-.84-4.23,1.08-7.41,3.84a98.31,98.31,0,0,0-18.18,21.15c-.63,1-1.1,1.78-1.39,2.28a205,205,0,0,0-12.36,24.51c.08-.72.18-1.52.31-2.37a83.31,83.31,0,0,1,1.82-9.11,81.19,81.19,0,0,1,5.61-15.31,76.91,76.91,0,0,1,27-30.7,22.23,22.23,0,0,0-12.41-4.29c-3.27,0-10.73.76-22.26,13.74-2.79,3.14-8,9.69-13.71,21.25-1.11,2.26-2.24,4.72-3.36,7.38-.57,1.33-1.13,2.71-1.69,4.15s-1.12,2.92-1.68,4.47c-1.45,4-2.64,7.84-3.64,11.56s-1.83,7.34-2.54,11c-.47,2.42-.9,4.84-1.29,7.29-.77,4.75-1.44,9.62-2.14,14.83-1.07,7.89-1.75,15-2.19,21.15q-.23,3.23-.39,6.08c-.1,1.91-.18,3.68-.24,5.3,1.69-1,3.61-2.21,5.72-3.53,3.52-2.21,7.58-4.84,12-7.85,1.11-.75,2.24-1.52,3.39-2.32,15.83-11,29.58-20.48,42.07-33.66,1.33-1.41,2.64-2.85,3.95-4.35s2.59-3,3.87-4.62l1.64-2c2.2-2.77,4.47-5.66,6.62-8.64.54-.75,1.07-1.5,1.6-2.26a75.46,75.46,0,0,0,6.78-11.72,36.53,36.53,0,0,0,3.31-12.18,24.9,24.9,0,0,0-1-9.27A29.49,29.49,0,0,0,289.64,469Z"/><path class="cls-1" d="M476.86,574.07c-.44-6.6-1.15-14.45-2.34-23.26-.6-4.44-1.17-8.63-1.8-12.72a162.7,162.7,0,0,0-7.81-31.93c-1.89-5.25-3.82-9.85-5.72-13.89-6.05-12.89-11.76-20-14.72-23.35-6.91-7.78-12.34-11.17-16.3-12.64a17.77,17.77,0,0,0-3.48-.92,14.09,14.09,0,0,0-2.48-.18,19.73,19.73,0,0,0-6.22,1.1,25.31,25.31,0,0,0-6.19,3.19A77.57,77.57,0,0,1,427.13,475a76.6,76.6,0,0,1,10.65,17.23,82.58,82.58,0,0,1,4.86,14.09,84.81,84.81,0,0,1,1.91,10.6c-2.15-5.1-4.34-9.7-6.44-13.79-.53-1-1.05-2-1.56-3-1.53-2.87-3-5.46-4.35-7.74l-.11-.18A97.36,97.36,0,0,0,412.62,469c-3.18-2.76-5.86-4.69-7.41-3.84-2.74,1.5-.3,10.82.53,14a66.57,66.57,0,0,0,5,13.12,77.36,77.36,0,0,0,6.78,11,44.12,44.12,0,0,1-5.2-4c-1-.9-2.08-1.93-3.15-3.09a45.51,45.51,0,0,1-3.22-3.9,43.61,43.61,0,0,1-8.6-25.36c-3.44,2.78-7.95,7.34-10,14a25.3,25.3,0,0,0-.75,11.38C387.77,500,392,507.65,397,514.79c3,4.28,6.27,8.39,9.34,12.22.8,1,1.61,2,2.42,2.94,2.43,2.87,4.92,5.57,7.45,8.14h0c11.94,12.1,25.05,21.19,40,31.55q3.41,2.36,6.53,4.43c5.78,3.84,10.78,6.95,14.61,9.27-.07-2-.18-4.29-.33-6.75C477,575.77,476.91,574.93,476.86,574.07Z"/><path class="cls-1" d="M215.44,377h0a30,30,0,0,0,3.24-7.5,37.76,37.76,0,0,0,.89-4,44.32,44.32,0,0,1-41.56.29,76.73,76.73,0,0,0,12.15.56,67.31,67.31,0,0,0,12.29-1.55c.83-.19,1.61-.38,2.35-.58,1-.26,2.59-.68,4.31-1.23a33.38,33.38,0,0,0,5.08-2h0c1.77-.93,3.05-2,3-3.16,0-1.76-3-3.15-7-4.57a97.17,97.17,0,0,0-30-5.52A204.33,204.33,0,0,0,152.79,349a80.88,80.88,0,0,1,45.06-5.43A77.41,77.41,0,0,1,219.94,351a22.24,22.24,0,0,0-2.37-12.91c-1.58-2.86-5.93-9-22.9-12.63-5.72-1.24-19.48-3.4-42.49.51-16.67,2.83-28.66,7.62-43.6,13.58-12.57,5-22.71,9.92-29.72,13.53,3.79,2.14,8.77,4.86,14.7,7.89,2.4,1.22,4.93,2.49,7.63,3.79,9.23,4.48,17.81,8.64,26.49,12.22h0a155.33,155.33,0,0,0,35.16,10.27c16.87,2.74,37.83,6.14,49.47-6.17A25.63,25.63,0,0,0,215.44,377Z"/><path class="cls-1" d="M225.75,216.41c6.28,15.89,14.1,35.64,30.64,39.33a29.51,29.51,0,0,0,17.1-1.75A44.34,44.34,0,0,1,252,218.44,70.36,70.36,0,0,0,267,240.65c2.32,2.28,9.2,9,11.87,7.39,1.5-.92,1.16-4.21.34-8.34a97.24,97.24,0,0,0-10.63-28.62,203.72,203.72,0,0,0-15.15-22.89,80.8,80.8,0,0,1,27.75,35.92,77.51,77.51,0,0,1,4.92,22.78,22.2,22.2,0,0,0,9.88-8.65c1.65-2.82,4.67-9.69-.88-26.14-1.87-5.54-7.05-18.47-22.19-36.23-11-12.87-21.23-20.72-34-30.5-10.75-8.23-20.15-14.42-26.84-18.59.15,6.1.5,14.78,1.4,25.16C215.5,175.2,217.19,194.77,225.75,216.41Z"/><path class="cls-2" d="M533.85,524.9a170.47,170.47,0,0,0-10.55-20.48c-7.52-2.33-15.45-5.09-23.69-8.39q-4.62-1.84-9-3.76c-10.06-4.39-19.21-9-27.43-13.6a143.11,143.11,0,0,1,7.89,13.6c1,2,2,4.07,3,6.26a141.28,141.28,0,0,1,7.4,20.57c.57,2.07,1.06,4.07,1.5,6a162.06,162.06,0,0,0,16.34,7.83c2,.84,4.14,1.66,6.32,2.45,2.82,1,5.57,1.92,8.27,2.74h0a162.46,162.46,0,0,0,26.84,5.72c-.55-1.85-1.18-3.77-1.84-5.72C537.5,533.9,535.85,529.5,533.85,524.9Z"/><path class="cls-2" d="M297,574.07c-.47-2.24-.9-4.57-1.26-7a111.45,111.45,0,0,1-.41-29c.33-2.9.76-5.61,1.23-8.11s1-4.79,1.5-6.84c-.62,1.12-1.29,2.28-2,3.47a131.69,131.69,0,0,1-7.7,11.48c-1.68,2.23-3.48,4.51-5.47,6.81A129.55,129.55,0,0,1,262.42,564c-.24,3.14-.38,6.52-.42,10.06-.06,4.65.05,9.58.46,14.82a161.58,161.58,0,0,0,2.75,19.44c.3,1.48.61,2.93.94,4.34.66,2.82,1.36,5.49,2.08,8,.36,1.26.73,2.49,1.1,3.67q7.07-7,14.34-14.13,9.45-9.21,18.81-18.05c-1-2.53-2-5.31-2.94-8.33S297.73,577.56,297,574.07Z"/><path class="cls-2" d="M404.13,542.79q-2.08-2.37-4-4.7a143.13,143.13,0,0,1-9.58-13.45q.32,6.39.28,13.45a247.5,247.5,0,0,1-1.64,27.13c-.36,3-.77,6-1.22,8.85-.73,4.77-1.56,9.34-2.48,13.67,5.26,6.55,11.17,13.4,17.81,20.37,4.86,5.11,9.66,9.81,14.34,14.13.47-1.5.93-3.09,1.39-4.73.53-1.89,1.05-3.87,1.54-5.93s.93-4.07,1.36-6.22a160.49,160.49,0,0,0,2.53-18.08c0-.17,0-.33.05-.5q.26-3.33.38-6.51c.08-2.12.11-4.19.11-6.2,0-4.33-.16-8.4-.45-12.17A141.84,141.84,0,0,1,404.13,542.79Z"/><path class="cls-2" d="M187.4,498.14q-6.18,2.46-12.11,4.55t-11.58,3.83A171.36,171.36,0,0,0,153.16,527q-1.24,2.87-2.32,5.64t-2,5.44c-.95,2.7-1.82,5.32-2.57,7.82a161.57,161.57,0,0,0,33.28-7.82h0l1.83-.63A163.15,163.15,0,0,0,199,529.82c1.74-.88,3.41-1.77,5-2.65.65-2.85,1.45-5.91,2.42-9.14q1-3.24,2.18-6.68c.41-1.15.84-2.31,1.29-3.49.9-2.35,1.9-4.77,3-7.23.67-1.49,1.35-2.92,2-4.31s1.39-2.73,2.09-4.05c2.25-4.25,4.55-8.11,6.77-11.49-6.91,3.86-14.49,7.74-22.71,11.49Q194.52,495.27,187.4,498.14Z"/><path class="cls-2" d="M180.42,397.75a142.09,142.09,0,0,1-49.12-11.49A161.18,161.18,0,0,0,91,413c-3.35,3-6.34,6-9,8.78a171.23,171.23,0,0,0,19.33,5.62A174.11,174.11,0,0,0,124.11,431q2.37-1.75,4.85-3.53c5-3.53,10.27-7.09,15.92-10.61,2.15-1.34,4.28-2.62,6.39-3.87A313.32,313.32,0,0,1,180.42,397.75Z"/><path class="cls-2" d="M283.21,172.49a142.89,142.89,0,0,1,12.23,19.07,312.55,312.55,0,0,1,2.16-40.29c1-8.81,2.4-17.1,3.95-24.81A172,172,0,0,0,275.3,92.29,161.28,161.28,0,0,0,264.15,152,142.67,142.67,0,0,1,283.21,172.49Z"/><path class="cls-2" d="M109.3,309.84a162.38,162.38,0,0,0,20.63,13.91,142,142,0,0,1,49.89-7.45A314.17,314.17,0,0,1,146,294.38c-7.13-5.3-13.64-10.6-19.56-15.79a172.68,172.68,0,0,0-42.7,5.77A161.74,161.74,0,0,0,109.3,309.84Z"/><path class="cls-2" d="M163.37,201.46c7.28,3,14.93,6.44,22.85,10.45A314.35,314.35,0,0,1,221,232.43a142.13,142.13,0,0,1-15.6-48,161.2,161.2,0,0,0-55.89-23.79,173.88,173.88,0,0,0,5.21,19.45A171.41,171.41,0,0,0,163.37,201.46Z"/><path class="cls-3" d="M382.58,500a45.18,45.18,0,0,0-1.61-5.26c-.31-.85-.66-1.69-1-2.5-.47-1-1-2-1.53-3a30.09,30.09,0,0,0-3.91-5.39,29,29,0,0,0-2.44-2.39,35.34,35.34,0,0,0-17.46-7.81c-.75-.13-1.46-.23-2.13-.31a54.26,54.26,0,0,1,4.58,9.88,55.49,55.49,0,0,1,2.32,9h-7.53c0-.19-.11-.41-.17-.59-.54-1.75-4.73-15.19-8.55-15-2.17.13-3.72,3.89-5.26,8.86-.71,2.28-1.32,4.52-1.85,6.71-.9,3.74-1.57,7.31-2.07,10.61s-.8,6.35-1,9c-.1,1.34-.17,2.59-.22,3.74,0,.58-.05,1.14-.06,1.67-.06,2.06-.05,3.7,0,4.8,0,.28,0,.52,0,.73,0,1.1.06,2.25.1,3.44.13,3.56.35,7.51.71,11.8.47,5.61,1.18,11.8,2.23,18.48A104.42,104.42,0,0,1,329,538.09a102.73,102.73,0,0,1-2.38-12.29,94.82,94.82,0,0,1,0-24.47c.41-3.19,1-6.2,1.65-9.06a96.83,96.83,0,0,1,6.34-18.55,27.42,27.42,0,0,0-15.79,3.6c-2.51,1.53-7.07,5-10.76,14.95a72.24,72.24,0,0,0-2.81,9.87c-.28,1.29-.54,2.65-.78,4.07a105.64,105.64,0,0,0-1.11,23.37c.14,2.63.35,5.47.67,8.51a198.45,198.45,0,0,0,3.31,20.45c1.19,5.55,2.55,10.66,4.05,15.53,4,13,9.07,24.32,15,37.49q2.58,5.72,5.07,10.84c4.14,8.55,8,15.86,11.3,21.72.65,1.17,1.28,2.29,1.89,3.34,1.7-3.35,3.73-7.44,6-12.16s4.69-10.07,7.24-16c6-13.86,11.49-26.57,15.85-39.64.63-1.86,1.23-3.74,1.8-5.62a181.06,181.06,0,0,0,6.8-31.9q.24-2,.48-4.08a194.79,194.79,0,0,0,1.52-20.8,77.37,77.37,0,0,0-1.12-14.51C383,501.85,382.79,500.94,382.58,500Z"/><path class="cls-3" d="M593.75,492.27c-4.38-6.92-9.81-15-16.35-24-3.09-4.2-6-8.18-8.94-12-3.08-4-6.14-7.92-9.38-11.74a184.86,184.86,0,0,0-18.47-18.9q-2.13-1.89-4.18-3.62c-4.11-3.46-8-6.45-11.59-9-13.46-9.66-23.36-13.79-28.36-15.59-20.15-7.24-28.7-3.69-32.22-1.73a27.42,27.42,0,0,0-10.9,12A96.37,96.37,0,0,1,477.94,413c1.12.41,2.24.83,3.39,1.29a94.45,94.45,0,0,1,19.43,10.68,99,99,0,0,1,11.61,9.69c.83.8,1.63,1.6,2.39,2.39a105.7,105.7,0,0,1,9,10.63q.66.9,1.23,1.71c-4-3.19-7.88-6.06-11.54-8.64-2.44-1.72-4.79-3.32-7-4.79-1.12-.74-2.21-1.44-3.28-2.12-2.13-1.35-4.14-2.58-6-3.7a120.51,120.51,0,0,0-35-13.81c-1.27-.27-2.47-.51-3.58-.69a13.15,13.15,0,0,0-5.32-.05,2.42,2.42,0,0,0-1.39,1c-2.09,3.24,6.07,11.89,8.82,14.81a86.68,86.68,0,0,0,27,19.12c-1.21-.09-2.74-.25-4.5-.53a54.83,54.83,0,0,1-20.41-7.7c-1.31-.82-2.53-1.66-3.69-2.53a55,55,0,0,1-13.65-14.89c-.41-.65-.76-1.24-1.06-1.77A39.14,39.14,0,0,0,441.11,438a30.62,30.62,0,0,0,.61,6.13,31.07,31.07,0,0,0,5.5,12.19,45.61,45.61,0,0,0,8.36,8.61c1.6,1.29,3.3,2.52,5.07,3.69a114.09,114.09,0,0,0,14.18,7.84c1,.47,2,.93,2.95,1.37,4,1.8,7.91,3.46,11.69,5A179.83,179.83,0,0,0,519,492.27q3,.68,6,1.28c14,2.81,28.16,4.32,43.69,6,8,.85,15.16,1.42,21.25,1.81,3.66.23,6.93.4,9.75.53C598,499.05,596,495.8,593.75,492.27Z"/><path class="cls-3" d="M242.72,425.14a54.85,54.85,0,0,1-18.4,19.2,54.16,54.16,0,0,1-11.1,5.34,57.19,57.19,0,0,1-6.49,1.82,55,55,0,0,1-7.32,1.07,98,98,0,0,0,9.15-4.85,87,87,0,0,0,7.46-5,80.83,80.83,0,0,0,10.41-9.26c1.2-1.28,3.44-3.66,5.41-6.2.28-.36.55-.72.82-1.09.53-.73,1-1.47,1.44-2.19.22-.35.41-.71.59-1.05a7.71,7.71,0,0,0,.9-2.84,2.41,2.41,0,0,0-.34-1.45c-.88-1.37-3.37-1.43-6.71-.91-1.11.17-2.31.41-3.58.69a120.21,120.21,0,0,0-35,13.81c-1.87,1.12-3.88,2.35-6,3.7-1.07.67-2.16,1.38-3.28,2.12-2.24,1.47-4.59,3.06-7,4.78-3.66,2.59-7.53,5.46-11.53,8.64,6.05-8.58,19.83-25.47,43.61-35.1a97.07,97.07,0,0,1,28-6.62,27.37,27.37,0,0,0-10.9-12c-3.52-2-12.07-5.51-32.22,1.73-4.62,1.66-13.43,5.31-25.36,13.48a191,191,0,0,0-18.77,14.78A185.88,185.88,0,0,0,126,449c-2,2.4-3.9,4.83-5.82,7.31-3.46,4.49-6.89,9.16-10.55,14.14-5.88,8-10.87,15.4-15,21.85-2.81,4.37-5.24,8.33-7.25,11.71,5.63-.26,13.06-.68,21.81-1.46q4.38-.37,9.18-.89l7.7-.83c12.67-1.38,24.53-2.83,36.24-5.2,4.68-1,9.33-2,14-3.33a177.56,177.56,0,0,0,21.25-7.33c15.94-6.68,35-14.69,43.69-28.66h0a30.77,30.77,0,0,0,3.38-7.39,26.65,26.65,0,0,0,.68-2.7,32.57,32.57,0,0,0,.14-11.79A43,43,0,0,0,242.72,425.14Z"/><path class="cls-3" d="M233.11,246.27c-5.48-4.7-19.14-15.12-46.39-24.37-19.76-6.71-35.58-8.55-55.29-10.85-16.58-1.93-30.45-2.55-40.18-2.74,4,6.36,9.87,15.33,17.38,25.77,16.81,23.37,31,43,53.69,60.56C179,307.51,199.77,323.5,219.63,317c8.15-2.68,13.67-8.35,17-12.65a54.74,54.74,0,0,1-45.27-24.06,86.65,86.65,0,0,0,30,14c3.9.95,15.45,3.76,17.24.34,1-1.93-1.43-5.19-4.9-9.06a120.17,120.17,0,0,0-29.34-23.6,251.88,251.88,0,0,0-30.51-14.69c10.45,1,31.95,4.63,52.09,20.53a95.48,95.48,0,0,1,19.59,21,27.41,27.41,0,0,0,5-15.4C250.52,269.38,249.38,260.19,233.11,246.27Z"/><path class="cls-3" d="M334.05,235.09a54.7,54.7,0,0,1-1.66-51.24,86.72,86.72,0,0,0,2.77,33c1.12,3.86,4.43,15.28,8.29,15.13.09,0,.18-.06.28-.08,2-.37,3.49-3.76,5-8.27,0-.14.1-.27.14-.41a114.6,114.6,0,0,0,3.39-12.78A119.58,119.58,0,0,0,354.74,186c0-1.78-.05-3.7-.1-5.7a255.23,255.23,0,0,0-2.35-28.07,103.91,103.91,0,0,1,8.17,28.07,97.71,97.71,0,0,1,1,12.95,92.74,92.74,0,0,1-1,14.38,94.4,94.4,0,0,1-3.83,16,96,96,0,0,1-4.65,11.48,27.42,27.42,0,0,0,15.86-3.32,22.06,22.06,0,0,0,7.82-8.16,36.59,36.59,0,0,0,1.93-3.63,61.23,61.23,0,0,0,3.59-10.12c.54-2.05,1.05-4.28,1.51-6.73a99.87,99.87,0,0,0,1.6-18.81c0-1.29,0-2.62-.06-4a181.76,181.76,0,0,0-3.49-29.54c-.44-2.21-.9-4.35-1.39-6.44s-1-4.25-1.58-6.3a234,234,0,0,0-10.15-28.84c-1.58-3.81-3.25-7.7-5-11.77C356,82.07,349.62,69.73,345,61.2l-1.22,2.31C340.34,70,336,78.68,331.24,89.09c-11.9,26.22-21.91,48.29-25.8,76.72-2.85,20.89-6.39,46.85,9.16,60.81C321,232.36,328.65,234.33,334.05,235.09Z"/><path class="cls-4" d="M451.79,341.4a107.87,107.87,0,0,0-10.81-36,108.89,108.89,0,0,0-97.25-60h0A108.85,108.85,0,0,0,234.88,354.29c0,2.25.09,4.47.22,6.69h0c.08,1.36.19,2.72.32,4.07q.4,4.05,1.09,8c.23,1.32.49,2.63.76,3.93a108.12,108.12,0,0,0,14.8,36,109.28,109.28,0,0,0,37.63,35.82c2.54,1.45,5.14,2.81,7.81,4.06,1.33.62,2.68,1.22,4,1.8s2.73,1.12,4.12,1.63h0a108.93,108.93,0,0,0,76.09,0h0a105.17,105.17,0,0,0,12.11-5.39q3.91-2,7.62-4.37t7.21-4.94c1.17-.88,2.32-1.77,3.45-2.69a109.38,109.38,0,0,0,18.18-18.75q2.65-3.48,5-7.17A108.55,108.55,0,0,0,452,365.81a107.19,107.19,0,0,0-.18-24.41Z"/><path class="cls-3" d="M527.16,249.12c-.89-.5-1.7-1.12-2.57-1.65-1.13-.68-2.26-1.35-3.43-2s-2.51-1.25-3.78-1.85c-.88-.41-1.79-.76-2.67-1.18-1.22-.57-2.4-1.24-3.64-1.77s-2.81-1.06-4.23-1.57c-.37-.13-.76-.17-1.13-.3a18.86,18.86,0,0,0-7-1,1.92,1.92,0,0,0-1.45.55c-.64.67-1.3,1.31-1.9,2a29.45,29.45,0,0,1-3.08,3.14,12.29,12.29,0,0,1-4.55,2.39,7.74,7.74,0,0,1-2.77.53,2.09,2.09,0,0,1-1.82-.78,15.34,15.34,0,0,0-2.31-3.07,8,8,0,0,0-1.29-1.12,3.81,3.81,0,0,0-2.51-.38.87.87,0,0,1-.72-.25,3.24,3.24,0,0,0-1.55-.94.45.45,0,0,0-.37.1.43.43,0,0,0,0,.38c.09.19.24.35.35.54a12.06,12.06,0,0,1,.89,1.56,13.11,13.11,0,0,1,.45,1.63,6,6,0,0,1,.08,3.58.54.54,0,0,1-.29.32c-.6.19-1.2.36-1.81.49a10.81,10.81,0,0,1-5.64-.46c-1.89-.61-3.71-1.4-5.56-2.11a4.09,4.09,0,0,0-2.74-.13,15,15,0,0,0-3.87,2.11c-.7.48-1.34,1.06-2,1.58s-1.2.79-1.75,1.24-.82.84-1.24,1.24-.83.68-1.18,1.06c-.9,1-1.75,2-2.65,3s-2,2-2.89,3c-1.14,1.32-2.21,2.7-3.27,4.08-.43.55-.76,1.16-1.14,1.74a13.8,13.8,0,0,0-2,3.61,11.29,11.29,0,0,1-.46,1.08l-.05.16c0,.2,0,.4,0,.63l.32-.24c0,.23.09.5.36.32a4.62,4.62,0,0,0,1.44-1.11c.42-.67,1.12-1,1.53-1.69a3.67,3.67,0,0,1,.86-.73c-.21.64-.44,1.36-.69,2.08-.14.37-.24.71.21.86.14-.05.27-.14.36-.11.48.15.79-.11,1.12-.39.69-.59,1.4-1.18,2.1-1.76a2,2,0,0,1,.25-.13l.33.34c.12-.6.46-.6.89-.46a.69.69,0,0,0,.42-.13l1.49-.95a1.85,1.85,0,0,1,.4-.12,2.49,2.49,0,0,0,.61-.16c.37-.22.71-.48,1.06-.73s1-.71,1.48-1c.83-.53,1.7-1,2.52-1.53a19,19,0,0,1,3-1.73,11,11,0,0,0,1.27-.77c.08-.05.16-.14.24-.14a3.13,3.13,0,0,0,1.52-.41,5.37,5.37,0,0,1,2.71-.26c.51,0,1,.37,1.54.09.07,0,.2,0,.29.05l2.66.77a4.91,4.91,0,0,0,.67.06,1.82,1.82,0,0,1,.58,0c.46.19.89.46,1.35.65a2.18,2.18,0,0,0,.63.05,2.51,2.51,0,0,0-.09-.62,5.25,5.25,0,0,0-.31-.63l.1-.09a7.8,7.8,0,0,0,.71.35,17.81,17.81,0,0,0,2,.73c.67.18,1.39.19,2.07.34s1.54.4,2.32.59a1.17,1.17,0,0,0,.41-.06c.65,1.07,1.3,2.16,2,3.23a2.92,2.92,0,0,1,.46,1.46,6.56,6.56,0,0,0,.09.76l.63,4.55a1.66,1.66,0,0,0,1,1.4,3.1,3.1,0,0,0,1.8.25c1.17-.15,2.35-.27,3.52-.44a4.7,4.7,0,0,0,2.07-.68.71.71,0,0,0,.39-.81c-.3-1.19-.6-2.38-.94-3.57-.25-.89-.56-1.77-.82-2.66a3.65,3.65,0,0,1-.16-1c0-.69.1-1.37.12-2.06,0-.89,0-1.79,0-2.66a2.84,2.84,0,0,0,1-.14c.72-.34,1.38-.81,2.08-1.2s1.32-.68,2-1,1.3-.52,1.93-.81,1.17-.6,1.75-.91l1.28-.68,1.17-.59c1-.49,1.73-1.29,2.69-1.78.52-.26,1-.66,1.46-1,.33-.2.69-.36,1-.54l.62-.26a8,8,0,0,1,1.4-.2,14.55,14.55,0,0,1,1.81-.15,10.14,10.14,0,0,1,2.66.36c1,.33,2.07.44,3.09.7.66.16,1.28.49,1.94.58a31.91,31.91,0,0,1,3.37.84c.28.06.59.24.79-.16,0-.05.24,0,.36,0l1,.22a2.48,2.48,0,0,1,.7.2c.34.23.55.11.78-.14a.51.51,0,0,1,.38-.17c.7.15,1.39.34,2.1.49a.57.57,0,0,0,.45-.08c.21-.23.42-.18.66-.1l1.48.47a.65.65,0,0,0,.71-.13.75.75,0,0,1,.58-.12c.41.13.79.33,1.19.49a1.1,1.1,0,0,0,1.3-.34c-.72-.67-1.42-1.38-2.18-2A19.06,19.06,0,0,0,527.16,249.12Z"/><path class="cls-3" d="M621,319.83a12,12,0,0,0-2.19-.91c-.65-.17-1.27-.43-1.92-.61-.83-.25-1.67-.48-2.52-.67s-1.82-.37-2.73-.53c-.63-.12-1.27-.18-1.9-.29-.88-.16-1.74-.39-2.62-.51s-2-.19-3-.27c-.26,0-.52,0-.77,0a12.5,12.5,0,0,0-4.66.56,1.28,1.28,0,0,0-.82.6c-.29.54-.61,1.06-.87,1.61a18.42,18.42,0,0,1-1.42,2.53,8,8,0,0,1-2.49,2.3,4.91,4.91,0,0,1-1.67.82,1.4,1.4,0,0,1-1.3-.18,10.11,10.11,0,0,0-2-1.57,5.82,5.82,0,0,0-1-.48,2.54,2.54,0,0,0-1.67.18.53.53,0,0,1-.5,0,2.2,2.2,0,0,0-1.15-.33.33.33,0,0,0-.22.13.3.3,0,0,0,.09.24c.09.1.22.18.32.28a9.39,9.39,0,0,1,.83.84,8.37,8.37,0,0,1,.57,1,4,4,0,0,1,.66,2.27.36.36,0,0,1-.13.26c-.35.22-.7.43-1.07.62a7.18,7.18,0,0,1-3.67.67c-1.31-.06-2.61-.25-3.91-.39a2.72,2.72,0,0,0-1.76.39,9.82,9.82,0,0,0-2.11,2c-.36.43-.67.91-1,1.35s-.63.71-.9,1.09-.38.68-.58,1-.41.57-.57.88c-.41.77-.77,1.57-1.18,2.34s-.92,1.6-1.32,2.43c-.5,1-.94,2.1-1.39,3.16-.17.42-.28.87-.42,1.31a8.88,8.88,0,0,0-.64,2.63,6.83,6.83,0,0,1-.12.77v.11c0,.13.06.26.1.41l.16-.21c.07.14.14.3.29.14a3.07,3.07,0,0,0,.72-.95c.15-.5.54-.85.69-1.34a2.07,2.07,0,0,1,.42-.61c0,.44,0,.94-.09,1.44,0,.26,0,.49.29.51.08-.06.15-.14.21-.14.33,0,.49-.2.65-.43l1-1.49a1.49,1.49,0,0,1,.14-.12l.27.16c0-.4.19-.46.49-.45a.42.42,0,0,0,.24-.15c.27-.29.52-.58.79-.86a.68.68,0,0,1,.23-.14,1.79,1.79,0,0,0,.36-.21c.2-.2.37-.43.55-.65s.5-.62.77-.91c.44-.48.91-.92,1.34-1.41a13.35,13.35,0,0,1,1.58-1.61,6.41,6.41,0,0,0,.68-.7c.05-.05.08-.12.13-.14a2,2,0,0,0,.9-.52,3.61,3.61,0,0,1,1.68-.63c.33-.08.71.06,1-.2,0,0,.13,0,.2,0,.6,0,1.21,0,1.82,0a2.26,2.26,0,0,0,.44-.08,1.9,1.9,0,0,1,.37-.08c.33,0,.65.14,1,.18a1.23,1.23,0,0,0,.42-.07,2.19,2.19,0,0,0-.17-.38,2.51,2.51,0,0,0-.31-.35l0-.07c.17,0,.34.08.51.1a12.87,12.87,0,0,0,1.38.13c.46,0,.92-.12,1.37-.14s1.06,0,1.59,0a.68.68,0,0,0,.25-.11c.6.57,1.19,1.15,1.81,1.72a2,2,0,0,1,.54.85,3.85,3.85,0,0,0,.19.47l1.18,2.79a1.11,1.11,0,0,0,.88.72,2.07,2.07,0,0,0,1.18-.14c.72-.31,1.45-.58,2.17-.89a3.18,3.18,0,0,0,1.2-.79.46.46,0,0,0,.11-.58c-.39-.71-.79-1.42-1.21-2.12-.31-.52-.66-1-1-1.55a2.3,2.3,0,0,1-.27-.6c-.11-.44-.17-.89-.27-1.33s-.29-1.15-.44-1.7a2.13,2.13,0,0,0,.64-.27c.4-.34.74-.75,1.12-1.12s.72-.66,1.1-1,.74-.56,1.09-.86.64-.58,1-.87l.7-.66.64-.57c.53-.48.88-1.12,1.41-1.6.29-.26.5-.59.77-.87a6.77,6.77,0,0,1,.56-.51c.11-.1.23-.19.35-.28a4.72,4.72,0,0,1,.86-.36,9.71,9.71,0,0,1,1.12-.42,6.85,6.85,0,0,1,1.76-.22c.69,0,1.39-.07,2.09-.09a11.89,11.89,0,0,0,1.33,0,19.62,19.62,0,0,1,2.3,0c.19,0,.41.05.47-.24,0,0,.15-.06.23-.06l.68,0a1.54,1.54,0,0,1,.48,0c.25.09.36,0,.47-.22a.34.34,0,0,1,.21-.18l1.42,0a.36.36,0,0,0,.27-.14c.1-.18.25-.18.41-.17l1,0a.46.46,0,0,0,.44-.21.45.45,0,0,1,.34-.17,7.89,7.89,0,0,1,.85.1.7.7,0,0,0,.76-.44C622.14,320.44,621.57,320.11,621,319.83Z"/><path class="cls-3" d="M553.44,148.57c-.47-.68-.83-1.44-1.28-2.14-.57-.91-1.16-1.81-1.78-2.69s-1.38-1.83-2.09-2.73c-.49-.63-1-1.21-1.52-1.84-.68-.86-1.29-1.78-2-2.62s-1.67-1.8-2.52-2.69c-.22-.23-.5-.4-.71-.63a15.72,15.72,0,0,0-4.77-3.31,1.58,1.58,0,0,0-1.26-.12c-.71.25-1.43.48-2.12.78a24.33,24.33,0,0,1-3.4,1.16,9.87,9.87,0,0,1-4.19.09,6.28,6.28,0,0,1-2.22-.62c-.49-.29-1-.62-1.05-1.24a12.39,12.39,0,0,0-.56-3.08,6.39,6.39,0,0,0-.54-1.29,3.14,3.14,0,0,0-1.69-1.2.65.65,0,0,1-.43-.44,2.68,2.68,0,0,0-.8-1.26.37.37,0,0,0-.3,0c-.08,0-.12.18-.12.28s0,.35.06.53a10.21,10.21,0,0,1,.08,1.46,10.37,10.37,0,0,1-.26,1.35,5,5,0,0,1-1.25,2.65.48.48,0,0,1-.33.13c-.51-.09-1-.18-1.5-.31a8.92,8.92,0,0,1-4-2.39c-1.15-1.14-2.19-2.38-3.29-3.57a3.31,3.31,0,0,0-1.95-1.1,12,12,0,0,0-3.59.13c-.69.1-1.37.29-2.06.41s-1.16.14-1.73.27-.91.31-1.36.45-.85.19-1.25.34c-1,.39-2,.82-3,1.2s-2.16.72-3.21,1.16c-1.31.55-2.6,1.17-3.88,1.79-.51.24-1,.57-1.47.85a11.28,11.28,0,0,0-2.76,1.92,8.42,8.42,0,0,1-.73.61l-.1.11c-.08.14-.15.28-.25.45l.33-.06c-.06.18-.12.4.15.37a3.79,3.79,0,0,0,1.45-.29c.55-.34,1.19-.34,1.73-.68a3,3,0,0,1,.9-.21c-.39.38-.82.83-1.27,1.26-.23.22-.43.43-.15.7.12,0,.25,0,.3.06a.91.91,0,0,0,1,.12l2.18-.52h.23l.11.37c.31-.39.56-.27.82,0a.52.52,0,0,0,.36.06l1.43-.14a1,1,0,0,1,.33.06,2.3,2.3,0,0,0,.51.1c.35,0,.69-.09,1-.14s1-.17,1.46-.22c.8-.08,1.6-.1,2.4-.2a16.1,16.1,0,0,1,2.78-.18,8.34,8.34,0,0,0,1.21-.1.63.63,0,0,1,.23,0A2.41,2.41,0,0,0,501,132a4.45,4.45,0,0,1,2.08.8c.37.19.6.64,1.09.63.07,0,.14.09.2.14.55.51,1.1,1,1.66,1.53a2.47,2.47,0,0,0,.47.29,1.84,1.84,0,0,1,.41.24c.26.31.48.65.74,1a1.68,1.68,0,0,0,.45.27,2.81,2.81,0,0,0,.16-.49,2.73,2.73,0,0,0,0-.57l.11,0c.13.17.25.35.39.51a15.57,15.57,0,0,0,1.17,1.26c.43.37.94.64,1.39,1s1,.86,1.48,1.28a.8.8,0,0,0,.32.1c.08,1,.16,2.06.26,3.08a2.34,2.34,0,0,1-.2,1.23c-.08.19-.15.4-.22.59-.39,1.19-.79,2.37-1.19,3.55a1.37,1.37,0,0,0,.21,1.39,2.59,2.59,0,0,0,1.22.84c.91.31,1.82.66,2.73,1a3.76,3.76,0,0,0,1.76.26.6.6,0,0,0,.59-.45c.21-1,.42-2,.61-2.94.14-.75.24-1.5.37-2.25a2.73,2.73,0,0,1,.25-.78c.25-.49.57-1,.84-1.45.34-.64.67-1.3,1-1.93a2.57,2.57,0,0,0,.82.28c.65,0,1.3-.09,2-.12s1.21,0,1.82,0,1.13.1,1.71.11,1.06,0,1.6,0l1.18,0h1.08c.88,0,1.72-.31,2.61-.32.47,0,1-.13,1.42-.17.31,0,.63,0,1,0l.55,0a6.67,6.67,0,0,1,1.09.37,10.72,10.72,0,0,1,1.38.55,8.64,8.64,0,0,1,1.81,1.23c.61.61,1.34,1.08,2,1.64a15.91,15.91,0,0,0,1.2,1.13,25.38,25.38,0,0,1,2.16,1.85c.18.15.34.39.64.17,0,0,.18.07.26.12l.65.53a2.12,2.12,0,0,1,.44.4c.16.29.36.28.62.18a.44.44,0,0,1,.34,0c.45.36.89.76,1.35,1.12a.41.41,0,0,0,.36.1.45.45,0,0,1,.52.17l.9.89a.55.55,0,0,0,.57.17.58.58,0,0,1,.47.12c.25.24.46.53.69.79a.91.91,0,0,0,1.07.23c-.28-.76-.53-1.53-.85-2.27A15.72,15.72,0,0,0,553.44,148.57Z"/><path class="cls-4" d="M479.6,186.93a15.29,15.29,0,0,1,1.46-.58c.28-.11.57-.19.86-.28a10,10,0,0,1,1.9-.09,20.05,20.05,0,0,1,2.46,0,14.81,14.81,0,0,1,3.53.82c1.3.58,2.72.87,4.07,1.34a24.69,24.69,0,0,0,2.52,1,45.58,45.58,0,0,1,4.43,1.56c.37.12.76.4,1.08-.11,0-.07.32,0,.48,0q.66.19,1.32.42a3,3,0,0,1,.92.36c.43.35.72.22,1.06-.09a.66.66,0,0,1,.53-.18c.93.29,1.83.63,2.76.93a.75.75,0,0,0,.61-.06.75.75,0,0,1,.92-.05l1.92.83a.89.89,0,0,0,1-.09,1,1,0,0,1,.79-.08c.54.21,1,.54,1.55.8a1.47,1.47,0,0,0,1.78-.28c-.88-1-1.73-2-2.67-3a25.31,25.31,0,0,0-3.54-3.32c-1.12-.78-2.14-1.73-3.24-2.54-1.43-1.06-2.87-2.11-4.36-3.09s-3.21-2-4.84-3c-1.13-.67-2.31-1.26-3.44-1.93-1.56-.93-3.06-2-4.66-2.84-1.79-1-3.65-1.79-5.49-2.66-.47-.22-1-.32-1.47-.54a25.61,25.61,0,0,0-9.33-2.26,2.61,2.61,0,0,0-2,.56c-.94.81-1.92,1.59-2.81,2.46a39.48,39.48,0,0,1-4.54,3.83,16.45,16.45,0,0,1-6.42,2.63,10.39,10.39,0,0,1-3.8.37,2.84,2.84,0,0,1-2.34-1.28,20.47,20.47,0,0,0-2.71-4.43,11,11,0,0,0-1.6-1.67,5.1,5.1,0,0,0-3.32-.83,1.17,1.17,0,0,1-.94-.43,4.36,4.36,0,0,0-2-1.47.61.61,0,0,0-.5.1.6.6,0,0,0,0,.51c.1.27.29.51.41.77a16.89,16.89,0,0,1,1,2.22,16.38,16.38,0,0,1,.4,2.24,8.22,8.22,0,0,1-.35,4.83.8.8,0,0,1-.44.39c-.82.17-1.65.33-2.49.42a14.66,14.66,0,0,1-7.53-1.34c-2.45-1.06-4.8-2.35-7.2-3.54a5.4,5.4,0,0,0-3.66-.52,19.75,19.75,0,0,0-5.47,2.33c-1,.56-1.94,1.26-2.93,1.86-.83.5-1.71.91-2.52,1.45-.65.44-1.2,1-1.83,1.51s-1.18.8-1.71,1.27c-1.34,1.2-2.61,2.46-3.95,3.66s-2.9,2.39-4.26,3.69c-1.7,1.63-3.31,3.35-4.93,5.07-.64.68-1.16,1.47-1.75,2.2a18.67,18.67,0,0,0-3.12,4.6,11.67,11.67,0,0,1-.76,1.38c0,.08,0,.15-.08.22,0,.27-.07.53-.11.85l.46-.29c0,.31.06.68.45.48a6.21,6.21,0,0,0,2.07-1.31c.65-.85,1.64-1.23,2.27-2.08a4.59,4.59,0,0,1,1.25-.86c-.36.82-.76,1.76-1.2,2.69-.22.48-.4.93.19,1.18.19,0,.38-.15.49-.1.63.28,1.08,0,1.55-.37,1-.71,2-1.41,3.06-2.1a1.51,1.51,0,0,1,.35-.14l.39.49c.25-.78.71-.74,1.26-.5a.9.9,0,0,0,.58-.12c.72-.35,1.42-.74,2.13-1.09a2,2,0,0,1,.55-.1,2.9,2.9,0,0,0,.84-.14c.52-.24,1-.56,1.52-.85.7-.4,1.39-.83,2.12-1.2,1.18-.59,2.41-1.11,3.59-1.73a25.48,25.48,0,0,1,4.17-1.94,14.37,14.37,0,0,0,1.81-.88c.12-.05.24-.17.35-.16a4.15,4.15,0,0,0,2.09-.35c1.15-.5,2.44-.14,3.67,0,.7.08,1.31.63,2.07.33.1,0,.26,0,.38.1l3.47,1.37a5.3,5.3,0,0,0,.9.17,2.77,2.77,0,0,1,.78.11c.59.32,1.13.73,1.72,1a3,3,0,0,0,.85.16,4.75,4.75,0,0,0,0-.85A5.56,5.56,0,0,0,434,194l.15-.11c.3.18.59.39.91.55a21.39,21.39,0,0,0,2.55,1.24c.88.32,1.83.44,2.73.72s2,.74,3,1.09a1.34,1.34,0,0,0,.56,0c.74,1.53,1.47,3.08,2.24,4.6a4,4,0,0,1,.43,2,9.2,9.2,0,0,0,0,1c.09,2.06.19,4.12.27,6.18a2.25,2.25,0,0,0,1.16,2,4.29,4.29,0,0,0,2.38.57c1.59-.07,3.19-.07,4.78-.15a6.38,6.38,0,0,0,2.87-.65c.46-.25.71-.55.64-1-.25-1.64-.51-3.28-.81-4.91-.22-1.23-.53-2.45-.77-3.68a4.72,4.72,0,0,1-.08-1.35c.1-.92.31-1.83.42-2.75.16-1.19.27-2.4.39-3.56a4.24,4.24,0,0,0,1.42-.06c1-.37,1.95-.92,2.95-1.35s1.85-.75,2.8-1.07,1.81-.54,2.7-.85,1.64-.66,2.46-1l1.81-.75c.55-.22,1.11-.42,1.65-.64,1.36-.54,2.48-1.51,3.85-2C478.25,187.76,478.9,187.29,479.6,186.93Z"/><path class="cls-4" d="M628.07,422.6a13.49,13.49,0,0,0-2.19-.91c-.65-.17-1.28-.43-1.92-.61-.84-.24-1.68-.47-2.52-.67s-1.82-.37-2.73-.53c-.63-.11-1.27-.18-1.91-.29-.87-.16-1.74-.38-2.62-.51s-2-.19-3-.27c-.26,0-.52,0-.77,0a12.65,12.65,0,0,0-4.66.56,1.32,1.32,0,0,0-.83.61c-.29.53-.6,1-.86,1.6a19.21,19.21,0,0,1-1.43,2.54,8.14,8.14,0,0,1-2.48,2.3,5.36,5.36,0,0,1-1.68.82,1.38,1.38,0,0,1-1.29-.19,10.06,10.06,0,0,0-2-1.56,5,5,0,0,0-1-.49,2.51,2.51,0,0,0-1.66.18.55.55,0,0,1-.5,0,2.17,2.17,0,0,0-1.15-.34c-.08,0-.2.07-.22.14a.31.31,0,0,0,.08.23c.1.11.22.18.32.28a8.41,8.41,0,0,1,.84.85,7.54,7.54,0,0,1,.56,1,4,4,0,0,1,.67,2.27.38.38,0,0,1-.13.25c-.35.22-.7.43-1.07.62a7.31,7.31,0,0,1-3.68.68c-1.3-.07-2.6-.26-3.9-.39a2.69,2.69,0,0,0-1.77.38,9.77,9.77,0,0,0-2.1,2c-.37.43-.67.91-1,1.35s-.63.71-.91,1.1-.38.67-.58,1-.4.57-.57.88c-.4.78-.77,1.57-1.18,2.35s-.91,1.59-1.31,2.42c-.5,1-.95,2.1-1.39,3.16-.18.42-.28.88-.43,1.31a9.53,9.53,0,0,0-.64,2.64,5,5,0,0,1-.11.76v.12c0,.12.06.25.09.4l.17-.21c.06.14.14.3.28.14a3,3,0,0,0,.73-.95c.15-.5.54-.85.68-1.34a2.09,2.09,0,0,1,.43-.61c0,.44-.05.94-.09,1.44,0,.26,0,.49.29.51.08-.06.14-.14.21-.13.33,0,.48-.21.64-.44.34-.5.69-1,1-1.48a.86.86,0,0,1,.14-.13l.26.16c0-.4.2-.46.49-.45.08,0,.18-.08.25-.15.26-.28.52-.58.79-.86a.68.68,0,0,1,.23-.14,1.42,1.42,0,0,0,.36-.21c.2-.2.37-.43.55-.65s.5-.62.77-.91c.44-.48.91-.92,1.34-1.41a13.27,13.27,0,0,1,1.58-1.6,9.16,9.16,0,0,0,.68-.71c0-.05.08-.12.13-.14a2,2,0,0,0,.9-.51,3.48,3.48,0,0,1,1.68-.64c.33-.08.7.06,1-.2,0,0,.13,0,.19,0l1.82,0a3.5,3.5,0,0,0,.45-.07,1,1,0,0,1,.37-.08c.33,0,.64.13,1,.18a1.56,1.56,0,0,0,.41-.08,2.17,2.17,0,0,0-.16-.38,3.39,3.39,0,0,0-.31-.34.35.35,0,0,1,0-.08c.17,0,.34.08.51.1a12.87,12.87,0,0,0,1.38.13c.46,0,.91-.11,1.37-.14s1.05,0,1.58,0a.62.62,0,0,0,.25-.11c.6.57,1.2,1.16,1.81,1.72a2,2,0,0,1,.55.85c0,.16.12.32.18.47l1.19,2.79a1.12,1.12,0,0,0,.87.73,2.12,2.12,0,0,0,1.19-.15c.72-.3,1.45-.58,2.16-.89a3,3,0,0,0,1.21-.79.47.47,0,0,0,.11-.58c-.4-.71-.8-1.42-1.21-2.11-.31-.53-.66-1-1-1.56a1.91,1.91,0,0,1-.27-.6c-.11-.44-.17-.89-.28-1.33s-.29-1.14-.43-1.7a2.13,2.13,0,0,0,.64-.27c.4-.34.74-.75,1.12-1.12s.72-.66,1.1-1,.73-.56,1.09-.85.64-.58,1-.88l.7-.65.65-.58c.53-.48.88-1.12,1.41-1.6.28-.25.5-.58.76-.86a7,7,0,0,1,.57-.52l.34-.28a5.39,5.39,0,0,1,.86-.36,9.1,9.1,0,0,1,1.13-.41,6.83,6.83,0,0,1,1.75-.23c.7,0,1.4-.07,2.1-.08a11.81,11.81,0,0,0,1.33,0c.77-.09,1.53,0,2.3,0,.18,0,.41.05.47-.24,0,0,.15-.06.23-.06s.45,0,.67,0a1.29,1.29,0,0,1,.48,0c.26.09.37,0,.47-.22s.14-.17.22-.17c.47,0,.94,0,1.42-.05a.37.37,0,0,0,.27-.13c.1-.19.24-.19.41-.18l1,.05a.43.43,0,0,0,.43-.21.51.51,0,0,1,.35-.17c.28,0,.56.07.84.1a.72.72,0,0,0,.77-.43C629.23,423.21,628.66,422.88,628.07,422.6Z"/><path class="cls-4" d="M574.41,284.71c-1.3-.27-2.6-.6-3.93-.81a25.88,25.88,0,0,0-4.82-.54c-1.37.05-2.75-.1-4.12-.1-1.78,0-3.56,0-5.34.13s-3.77.31-5.66.51c-1.3.14-2.6.38-3.9.52-1.81.19-3.64.24-5.44.51-2,.29-4,.74-6,1.15-.51.1-1,.35-1.51.44a25.91,25.91,0,0,0-8.83,3.77,2.63,2.63,0,0,0-1.28,1.66c-.26,1.21-.58,2.42-.77,3.65a39.58,39.58,0,0,1-1.36,5.79,16.28,16.28,0,0,1-3.57,5.94,10.47,10.47,0,0,1-2.82,2.57,2.84,2.84,0,0,1-2.65.37,20.5,20.5,0,0,0-4.82-1.93,11.1,11.1,0,0,0-2.27-.38,5.09,5.09,0,0,0-3.16,1.32,1.15,1.15,0,0,1-1,.21,4.38,4.38,0,0,0-2.46,0,.58.58,0,0,0-.34.38c0,.13.15.33.29.41a8.08,8.08,0,0,0,.79.37,9.72,9.72,0,0,1,3.78,2.75,8.08,8.08,0,0,1,2.61,4.08.72.72,0,0,1-.12.57c-.56.63-1.13,1.25-1.74,1.83a14.75,14.75,0,0,1-6.84,3.43c-2.6.61-5.25,1-7.88,1.46a5.56,5.56,0,0,0-3.26,1.77,19.93,19.93,0,0,0-3,5.15c-.48,1.05-.81,2.16-1.24,3.24-.36.9-.83,1.75-1.15,2.66-.26.75-.36,1.54-.56,2.31s-.48,1.35-.62,2c-.35,1.75-.62,3.53-1,5.28s-.89,3.66-1.2,5.51c-.39,2.33-.65,4.67-.92,7-.1.93,0,1.88-.09,2.82a18.73,18.73,0,0,0,.25,5.54,11.86,11.86,0,0,1,.22,1.57l.06.22.42.75c.07-.19.13-.34.2-.51.21.23.45.51.64.11a6,6,0,0,0,.88-2.28c0-1.07.58-2,.58-3a4.51,4.51,0,0,1,.49-1.45c.2.88.44,1.88.65,2.88.11.52.22,1,.85.84.13-.16.22-.35.34-.38.66-.15.84-.68,1-1.23.38-1.17.79-2.34,1.19-3.51a1.32,1.32,0,0,1,.2-.32l.61.16c-.27-.77.12-1,.7-1.16.16,0,.31-.26.4-.44.36-.71.69-1.43,1.06-2.14a1.79,1.79,0,0,1,.37-.41,3.09,3.09,0,0,0,.59-.61c.28-.51.48-1.06.72-1.59.32-.75.62-1.51,1-2.23.59-1.19,1.27-2.34,1.83-3.54a27.29,27.29,0,0,1,2.19-4.05,16.7,16.7,0,0,0,.93-1.78c.06-.12.09-.28.18-.34a4.16,4.16,0,0,0,1.47-1.53c.62-1.09,1.87-1.57,2.94-2.21.6-.35,1.42-.28,1.84-1,.06-.09.24-.12.37-.15,1.2-.33,2.41-.64,3.6-1a4.52,4.52,0,0,0,.83-.4,2.57,2.57,0,0,1,.69-.37c.66-.1,1.34-.1,2-.2a2.76,2.76,0,0,0,.77-.38,4.32,4.32,0,0,0-.54-.66,5.9,5.9,0,0,0-.8-.49,1.21,1.21,0,0,1,0-.18c.35,0,.71,0,1.06-.1a22.13,22.13,0,0,0,2.79-.53c.89-.27,1.72-.75,2.61-1.06s2.07-.61,3.1-.94c.16-.06.29-.24.43-.36,1.51.78,3,1.59,4.54,2.35a4,4,0,0,1,1.55,1.35,10.19,10.19,0,0,0,.64.83c1.3,1.6,2.61,3.19,3.92,4.79a2.24,2.24,0,0,0,2.13.93,4.23,4.23,0,0,0,2.24-1c1.24-1,2.52-2,3.75-3a6.41,6.41,0,0,0,1.92-2.24,1,1,0,0,0-.12-1.21c-1.18-1.16-2.37-2.32-3.58-3.45-.92-.86-1.89-1.65-2.82-2.49a5.06,5.06,0,0,1-.88-1c-.46-.8-.84-1.65-1.29-2.46-.6-1.05-1.23-2.08-1.82-3.09a4.48,4.48,0,0,0,1.1-.89c.58-.91,1-1.91,1.55-2.84s1-1.72,1.6-2.55,1.14-1.51,1.66-2.29.92-1.51,1.38-2.27c.34-.56.66-1.13,1-1.68s.63-1,.94-1.51c.76-1.24,1.09-2.69,1.86-3.94.41-.67.65-1.44,1-2.14a15.51,15.51,0,0,1,.82-1.34c.16-.25.34-.49.52-.74a9.58,9.58,0,0,1,1.48-1.2,18.26,18.26,0,0,1,2-1.46,14.34,14.34,0,0,1,3.32-1.45c1.38-.32,2.7-.93,4.06-1.36.87-.27,1.81-.33,2.64-.68,1.45-.63,3-.93,4.48-1.41.37-.11.85-.12.8-.73,0-.08.25-.2.41-.25.43-.17.87-.31,1.31-.45a2.81,2.81,0,0,1,.95-.26c.55,0,.7-.26.8-.72a.68.68,0,0,1,.31-.46c.92-.32,1.85-.58,2.77-.9a.77.77,0,0,0,.46-.42c.08-.41.36-.5.7-.58l2-.48a.92.92,0,0,0,.73-.65,1,1,0,0,1,.59-.54c.56-.15,1.14-.18,1.72-.28A1.49,1.49,0,0,0,574.41,284.71Z"/><path class="cls-1" d="M469.11,92c-1-.25-1.94-.64-2.91-.92-1.27-.37-2.54-.72-3.83-1s-2.75-.56-4.13-.81c-1-.17-1.93-.27-2.88-.44-1.33-.24-2.64-.58-4-.77-1.49-.2-3-.29-4.5-.41-.39,0-.78,0-1.17,0a18.91,18.91,0,0,0-7.05.85,2,2,0,0,0-1.26.91c-.44.81-.91,1.61-1.31,2.44a28.39,28.39,0,0,1-2.16,3.84,12,12,0,0,1-3.77,3.48,7.58,7.58,0,0,1-2.53,1.25,2.13,2.13,0,0,1-2-.28,15.39,15.39,0,0,0-3-2.37,7.78,7.78,0,0,0-1.54-.74,3.73,3.73,0,0,0-2.52.28.85.85,0,0,1-.76-.06,3.29,3.29,0,0,0-1.75-.5.44.44,0,0,0-.33.2.47.47,0,0,0,.13.35c.14.16.33.28.48.43A13.94,13.94,0,0,1,417.63,99a13.09,13.09,0,0,1,.85,1.45,6.05,6.05,0,0,1,1,3.44.56.56,0,0,1-.21.39c-.52.33-1.06.66-1.61.94a11,11,0,0,1-5.57,1c-2-.1-3.95-.39-5.92-.59a4,4,0,0,0-2.68.59,14.79,14.79,0,0,0-3.18,3c-.56.65-1,1.37-1.55,2s-1,1.07-1.37,1.66-.58,1-.88,1.52-.62.86-.86,1.33c-.62,1.17-1.17,2.38-1.79,3.55s-1.39,2.42-2,3.67c-.75,1.58-1.43,3.19-2.1,4.8-.27.64-.43,1.32-.65,2a14.1,14.1,0,0,0-1,4A9.55,9.55,0,0,1,388,135v.17c.05.19.09.38.15.61.09-.11.16-.21.24-.32.1.22.22.46.44.22a4.5,4.5,0,0,0,1.09-1.45c.23-.75.82-1.28,1-2a3.3,3.3,0,0,1,.65-.93c0,.66-.08,1.42-.14,2.18,0,.39,0,.75.44.77.12-.08.22-.2.31-.2.51,0,.74-.3,1-.66l1.58-2.25a1.29,1.29,0,0,1,.21-.19l.4.25c0-.61.29-.7.74-.68a.64.64,0,0,0,.37-.24c.4-.42.79-.87,1.2-1.3a1.13,1.13,0,0,1,.35-.21,2.41,2.41,0,0,0,.54-.32c.3-.3.56-.65.84-1s.75-.94,1.16-1.38c.67-.72,1.39-1.4,2-2.14a20.31,20.31,0,0,1,2.39-2.43,11.59,11.59,0,0,0,1-1.07c.06-.07.12-.18.2-.21a3,3,0,0,0,1.36-.78,5.35,5.35,0,0,1,2.54-1c.5-.13,1.07.09,1.52-.31.06,0,.19,0,.29,0l2.76.05a3,3,0,0,0,.67-.12,2.53,2.53,0,0,1,.57-.12c.49.07,1,.21,1.47.28a2.39,2.39,0,0,0,.63-.11,3.38,3.38,0,0,0-.25-.58,3.87,3.87,0,0,0-.47-.52.75.75,0,0,1,.07-.12c.26,0,.51.12.78.15a18.25,18.25,0,0,0,2.09.2c.69,0,1.38-.18,2.08-.21s1.59,0,2.39,0a1.17,1.17,0,0,0,.38-.17c.91.87,1.82,1.75,2.75,2.61a2.91,2.91,0,0,1,.82,1.28,7.69,7.69,0,0,0,.28.72l1.8,4.22a1.69,1.69,0,0,0,1.32,1.11,3.26,3.26,0,0,0,1.8-.23c1.09-.46,2.2-.88,3.28-1.34A4.82,4.82,0,0,0,439,124a.72.72,0,0,0,.16-.89c-.59-1.07-1.2-2.14-1.83-3.19-.47-.8-1-1.57-1.49-2.36a3.39,3.39,0,0,1-.41-.91c-.16-.67-.26-1.35-.41-2-.21-.87-.44-1.73-.66-2.57a3.18,3.18,0,0,0,1-.41c.6-.52,1.12-1.14,1.69-1.7s1.1-1,1.67-1.47,1.12-.84,1.65-1.29,1-.88,1.45-1.33l1.06-1c.33-.3.66-.58,1-.88.8-.72,1.33-1.69,2.14-2.41.43-.39.76-.89,1.16-1.32a10.47,10.47,0,0,1,.85-.78c.17-.15.35-.28.53-.42a6.86,6.86,0,0,1,1.3-.55,14.29,14.29,0,0,1,1.71-.63,10.16,10.16,0,0,1,2.66-.34c1.05.06,2.11-.11,3.17-.13a19.36,19.36,0,0,0,2,.06,33.74,33.74,0,0,1,3.48-.07c.29,0,.63.08.72-.36,0-.05.22-.09.34-.09.35,0,.69,0,1,0a2,2,0,0,1,.73,0c.39.13.55,0,.71-.34a.52.52,0,0,1,.32-.27c.72,0,1.44,0,2.16-.06a.55.55,0,0,0,.41-.21.57.57,0,0,1,.62-.27l1.55.08a.66.66,0,0,0,.65-.31.68.68,0,0,1,.53-.26c.43,0,.85.11,1.28.15a1.09,1.09,0,0,0,1.16-.66c-.87-.46-1.73-1-2.63-1.39A19.59,19.59,0,0,0,469.11,92Z"/><path class="cls-1" d="M605.27,395.92a15.71,15.71,0,0,0-1.58-2.68c-.55-.68-1-1.44-1.54-2.14-.69-.91-1.38-1.81-2.12-2.68s-1.62-1.81-2.45-2.69c-.57-.62-1.2-1.19-1.77-1.8-.79-.86-1.53-1.77-2.35-2.59s-1.93-1.75-2.91-2.61c-.25-.22-.56-.38-.8-.6a16.31,16.31,0,0,0-5.33-3.06,1.69,1.69,0,0,0-1.34,0c-.73.33-1.47.64-2.17,1a23.93,23.93,0,0,1-3.48,1.54,10.51,10.51,0,0,1-4.42.47,6.77,6.77,0,0,1-2.4-.45c-.54-.26-1.09-.57-1.21-1.21a13.74,13.74,0,0,0-.87-3.21,7.12,7.12,0,0,0-.69-1.31,3.21,3.21,0,0,0-1.89-1.1.78.78,0,0,1-.5-.44,2.85,2.85,0,0,0-.94-1.25.39.39,0,0,0-.33,0,.37.37,0,0,0-.1.31c0,.18.08.36.11.55a10,10,0,0,1,.22,1.54,10.37,10.37,0,0,1-.16,1.45,5.19,5.19,0,0,1-1.08,2.9.53.53,0,0,1-.34.17c-.54-.05-1.08-.1-1.61-.19a9.34,9.34,0,0,1-4.38-2.17c-1.32-1.09-2.54-2.31-3.8-3.47a3.54,3.54,0,0,0-2.16-1,12.62,12.62,0,0,0-3.77.46c-.73.16-1.42.43-2.14.62s-1.22.25-1.81.44-.92.41-1.39.6-.88.28-1.29.48c-1,.49-2,1-3.07,1.54s-2.22.95-3.28,1.5c-1.34.7-2.64,1.47-3.94,2.24-.52.3-1,.69-1.48,1a11.87,11.87,0,0,0-2.73,2.27,9.66,9.66,0,0,1-.72.71l-.09.12-.22.5.34-.1c0,.2-.09.44.19.38a4,4,0,0,0,1.5-.44c.55-.4,1.23-.46,1.77-.86a2.83,2.83,0,0,1,.93-.31c-.37.44-.79.95-1.22,1.44-.23.26-.42.5-.1.76.13,0,.26,0,.32,0,.34.28.67.16,1,0l2.26-.74a.93.93,0,0,1,.24,0c0,.12.08.21.15.38.29-.44.56-.33.86-.08a.6.6,0,0,0,.38,0l1.51-.29a1.08,1.08,0,0,1,.35,0,2,2,0,0,0,.54.06c.37-.06.73-.16,1.09-.25s1-.26,1.52-.36c.83-.15,1.68-.25,2.51-.42a17,17,0,0,1,2.92-.45,9.6,9.6,0,0,0,1.27-.21.53.53,0,0,1,.24,0,2.66,2.66,0,0,0,1.35.16,4.67,4.67,0,0,1,2.26.65c.41.17.69.62,1.21.57.07,0,.15.08.22.13.63.49,1.25,1,1.88,1.47a3.26,3.26,0,0,0,.53.26,1.55,1.55,0,0,1,.45.21c.31.3.57.65.88.95a1.74,1.74,0,0,0,.49.25,3.41,3.41,0,0,0,.13-.53,4.34,4.34,0,0,0-.06-.61l.11,0c.15.17.29.35.46.51a14.05,14.05,0,0,0,1.35,1.21c.48.36,1.05.6,1.55.93s1.11.82,1.67,1.22a.82.82,0,0,0,.35.08c.18,1.08.35,2.16.55,3.23a2.47,2.47,0,0,1-.09,1.32c-.07.21-.12.42-.18.64l-.93,3.85a1.44,1.44,0,0,0,.34,1.45,2.69,2.69,0,0,0,1.36.77c1,.25,2,.53,3,.77a4.12,4.12,0,0,0,1.88.12c.33-.08.54-.22.58-.53.14-1.05.27-2.11.38-3.16.09-.8.12-1.61.19-2.4a3,3,0,0,1,.19-.85c.23-.55.52-1.07.75-1.61.31-.71.6-1.43.88-2.12a2.92,2.92,0,0,0,.88.22c.69-.06,1.37-.22,2-.31s1.28-.12,1.92-.16,1.21,0,1.81,0,1.13-.12,1.69-.18l1.25-.13,1.13-.1c.93-.09,1.8-.49,2.73-.57.5-.05,1-.23,1.49-.32.32-.06.66-.07,1-.1l.58,0a6.29,6.29,0,0,1,1.19.3,12.73,12.73,0,0,1,1.51.45,9.37,9.37,0,0,1,2,1.13c.69.59,1.51,1,2.26,1.56.47.33.87.8,1.37,1.08a28.42,28.42,0,0,1,2.44,1.75c.2.14.4.38.69.12,0,0,.2.06.28.11l.74.5a2,2,0,0,1,.5.39c.2.29.4.26.67.13a.46.46,0,0,1,.36,0c.52.35,1,.72,1.53,1.07a.46.46,0,0,0,.39.07.47.47,0,0,1,.56.14l1,.85a.56.56,0,0,0,.61.12.63.63,0,0,1,.5.09c.29.23.54.52.81.77a.92.92,0,0,0,1.14.14C606,397.47,605.67,396.67,605.27,395.92Z"/><path class="cls-1" d="M525.18,215.29c.34-.39.6-.25.86,0a.63.63,0,0,0,.37.08l1.53-.08a1.13,1.13,0,0,1,.35.09,2.05,2.05,0,0,0,.53.13c.37,0,.74-.06,1.11-.09s1-.13,1.55-.15c.85,0,1.7,0,2.55-.08a18.15,18.15,0,0,1,3,0,9.3,9.3,0,0,0,1.29,0c.08,0,.18,0,.24,0a2.75,2.75,0,0,0,1.31.35,4.48,4.48,0,0,1,2.15.95c.39.23.6.71,1.12.73.07,0,.14.1.2.16.56.57,1.11,1.15,1.67,1.71a3.21,3.21,0,0,0,.48.34c.14.09.33.14.42.27.27.34.48.72.74,1.06a2,2,0,0,0,.46.31,3.13,3.13,0,0,0,.19-.51,4,4,0,0,0,0-.6l.12,0a5.5,5.5,0,0,0,.38.56,14.32,14.32,0,0,0,1.17,1.39c.43.42,1,.74,1.41,1.14s1,1,1.49,1.43c.08.08.22.09.33.13,0,1.09.06,2.18.11,3.27a2.47,2.47,0,0,1-.28,1.29c-.1.2-.18.41-.26.62l-1.46,3.69a1.44,1.44,0,0,0,.15,1.48,2.71,2.71,0,0,0,1.24,1c1,.38,1.88.8,2.83,1.17a4,4,0,0,0,1.85.37c.33,0,.56-.14.64-.44.29-1,.57-2.05.82-3.08.19-.78.33-1.57.51-2.35a3,3,0,0,1,.31-.82c.3-.51.66-1,1-1.49s.78-1.33,1.16-2a2.7,2.7,0,0,0,.84.34c.69,0,1.38,0,2.07,0s1.28.05,1.92.1,1.2.17,1.81.22,1.13,0,1.69.06l1.26,0c.38,0,.75.05,1.13.06.93,0,1.85-.23,2.78-.19.51,0,1-.09,1.51-.11.34,0,.67,0,1,0s.38,0,.57.06a6.92,6.92,0,0,1,1.14.45,12.6,12.6,0,0,1,1.43.66,9.48,9.48,0,0,1,1.85,1.4c.61.68,1.36,1.22,2,1.85.43.4.75.91,1.21,1.26.8.62,1.45,1.38,2.18,2.07.18.17.34.43.66.22,0,0,.19.08.27.15s.44.39.66.59a1.87,1.87,0,0,1,.44.45c.16.31.37.31.65.22a.44.44,0,0,1,.36,0c.46.41.9.85,1.36,1.26a.48.48,0,0,0,.38.13.47.47,0,0,1,.54.21l.91,1a.58.58,0,0,0,.59.2.64.64,0,0,1,.49.16c.25.27.45.59.69.87a.93.93,0,0,0,1.11.3c-.25-.81-.47-1.64-.77-2.45a16.64,16.64,0,0,0-1.2-2.86c-.45-.75-.8-1.57-1.23-2.34-.55-1-1.12-2-1.74-2.94s-1.35-2-2.05-3c-.48-.68-1-1.33-1.5-2-.68-1-1.28-2-2-2.88s-1.67-2-2.52-3c-.21-.26-.5-.45-.71-.71a16.62,16.62,0,0,0-4.86-3.76,1.72,1.72,0,0,0-1.33-.2c-.76.23-1.54.43-2.29.7a25.77,25.77,0,0,1-3.65,1,10.55,10.55,0,0,1-4.44-.14,6.77,6.77,0,0,1-2.32-.78,1.81,1.81,0,0,1-1-1.36,13,13,0,0,0-.43-3.3,7.15,7.15,0,0,0-.49-1.39,3.26,3.26,0,0,0-1.73-1.36.75.75,0,0,1-.43-.5,2.84,2.84,0,0,0-.77-1.37.38.38,0,0,0-.32-.07c-.08,0-.13.19-.14.29s0,.37,0,.56a11.6,11.6,0,0,1,0,1.56,10.42,10.42,0,0,1-.36,1.41,5.15,5.15,0,0,1-1.46,2.73.45.45,0,0,1-.36.11c-.53-.11-1.05-.24-1.57-.4a9.51,9.51,0,0,1-4-2.75c-1.15-1.27-2.19-2.64-3.28-4a3.56,3.56,0,0,0-2-1.27,12.81,12.81,0,0,0-3.81-.06c-.73.06-1.46.22-2.2.32s-1.24.08-1.85.19-1,.27-1.46.4-.9.16-1.34.29c-1.09.35-2.17.76-3.26,1.11s-2.32.64-3.46,1c-1.42.51-2.81,1.09-4.2,1.67-.56.23-1.07.56-1.6.83a12.15,12.15,0,0,0-3,1.87,8.17,8.17,0,0,1-.81.61l-.1.1-.29.47.35,0c-.07.19-.15.42.14.4a3.94,3.94,0,0,0,1.55-.22c.6-.33,1.28-.29,1.87-.62a3,3,0,0,1,1-.18c-.43.39-.91.83-1.41,1.26-.26.23-.48.44-.2.74.12,0,.26,0,.31.07a1,1,0,0,0,1,.19l2.33-.43a2.09,2.09,0,0,1,.25,0C525.11,215,525.13,215.12,525.18,215.29Z"/></svg>