<svg id="Layer_1" data-name="Layer 1" xmlns="http://www.w3.org/2000/svg" viewBox="0 0 708.66 708.66"><defs><style>.cls-1{fill:#ffd627;}.cls-2{fill:#fcbd38;}.cls-3{fill:#965f44;}</style></defs><title>sunflower</title><path class="cls-1" d="M166.08,292c16.63,12.82,37.29,28.74,57.06,22.23,8.12-2.67,13.62-8.31,17-12.59a54.43,54.43,0,0,1-45.07-24,86.27,86.27,0,0,0,29.86,14c3.89.94,15.39,3.74,17.17.34,1-1.92-1.42-5.17-4.88-9A119.48,119.48,0,0,0,208,259.47a251.15,251.15,0,0,0-30.38-14.63c10.41,1,31.82,4.61,51.87,20.45A95.49,95.49,0,0,1,249,286.23a27.38,27.38,0,0,0,5-15.34c0-4-1.18-13.16-17.38-27-5.45-4.67-19-15.05-46.2-24.27-19.67-6.68-35.42-8.51-55.05-10.8-16.51-1.92-30.33-2.54-40-2.73,4,6.34,9.82,15.27,17.3,25.66C129.35,255,143.45,274.59,166.08,292Z"/><path class="cls-1" d="M248.71,443c1.69-8.38-.49-15.95-2.56-21A54.53,54.53,0,0,1,203,449.31a86.33,86.33,0,0,0,26.91-19.05c2.74-2.91,10.87-11.52,8.79-14.75-1.17-1.82-5.2-1.32-10.25-.22A119.61,119.61,0,0,0,193.57,429a250.67,250.67,0,0,0-27.74,19.16c6-8.54,19.75-25.36,43.43-34.95a95.17,95.17,0,0,1,27.85-6.6,27.24,27.24,0,0,0-10.85-11.92c-3.51-2-12-5.5-32.09,1.72-6.76,2.43-22.51,9.11-43.95,28.14-15.54,13.79-24.93,26.57-36.63,42.49-9.84,13.4-17.21,25.1-22.17,33.42,7.48-.34,18.13-1,30.86-2.34,28.51-3,52.51-5.58,78.87-16.62C220.52,473.43,244.58,463.36,248.71,443Z"/><path class="cls-1" d="M229.24,214.13c6.26,15.82,14,35.49,30.51,39.16a29.35,29.35,0,0,0,17-1.74,44.12,44.12,0,0,1-21.44-35.4,70,70,0,0,0,15,22.12c2.32,2.27,9.17,9,11.82,7.36,1.49-.92,1.16-4.19.34-8.31a97.18,97.18,0,0,0-10.58-28.5A204,204,0,0,0,256.83,186a80.48,80.48,0,0,1,27.63,35.77,76.77,76.77,0,0,1,4.9,22.68,22.14,22.14,0,0,0,9.85-8.61c1.64-2.81,4.64-9.65-.88-26-1.87-5.52-7-18.39-22.11-36.08-10.93-12.82-21.13-20.63-33.85-30.37-10.7-8.2-20.07-14.36-26.73-18.51.15,6.07.5,14.71,1.39,25.05C219,173.09,220.72,192.58,229.24,214.13Z"/><path class="cls-1" d="M166.59,384.27c16.8,2.73,37.68,6.11,49.27-6.15,4.76-5,6.5-11.18,7.23-15.52a44.2,44.2,0,0,1-41.39.29,69.94,69.94,0,0,0,26.68-1.56c3.13-.82,12.42-3.26,12.37-6.38,0-1.76-3-3.14-7-4.55a97,97,0,0,0-29.9-5.5,204.27,204.27,0,0,0-27.3,1.28,80.46,80.46,0,0,1,44.87-5.41,77.12,77.12,0,0,1,22,7.4,22,22,0,0,0-2.35-12.86c-1.57-2.85-5.91-8.93-22.81-12.58-5.69-1.22-19.39-3.38-42.31.51-16.6,2.83-28.54,7.59-43.42,13.53C100,341.76,90,346.65,83,350.25c5.29,3,12.9,7.1,22.23,11.63C126.12,372,143.72,380.55,166.59,384.27Z"/><path class="cls-1" d="M302.83,479.61c-2-6.62-6.54-11.16-10-13.92a44.21,44.21,0,0,1-20.09,36.18,69.93,69.93,0,0,0,11.75-24c.83-3.14,3.26-12.42.53-13.91-1.54-.84-4.21,1.07-7.38,3.82a97.18,97.18,0,0,0-19.49,23.33,205.62,205.62,0,0,0-12.31,24.41,80.45,80.45,0,0,1,17.35-41.74,77.46,77.46,0,0,1,17.26-15.51A22.19,22.19,0,0,0,268.13,454c-3.25,0-10.68.76-22.17,13.68-3.86,4.36-12.48,15.23-20.35,37.09-5.71,15.85-7.43,28.59-9.57,44.47-1.81,13.35-2.51,24.54-2.81,32.39,5.2-3.15,12.53-7.74,21.06-13.64,19.11-13.23,35.2-24.36,49.68-42.46C294.6,512.25,307.81,495.73,302.83,479.61Z"/><path class="cls-2" d="M286.46,178.38a141.66,141.66,0,0,1,12.18,19,313.26,313.26,0,0,1,2.15-40.11c1-8.78,2.4-17,3.94-24.71a170.43,170.43,0,0,0-26.15-34A160.51,160.51,0,0,0,267.48,158,141.39,141.39,0,0,1,286.46,178.38Z"/><path class="cls-2" d="M113.28,307.17A160.32,160.32,0,0,0,133.83,321a141.58,141.58,0,0,1,49.68-7.42,310.69,310.69,0,0,1-33.73-21.83c-7.09-5.27-13.58-10.55-19.47-15.71a171,171,0,0,0-42.53,5.74A160.89,160.89,0,0,0,113.28,307.17Z"/><path class="cls-2" d="M167.47,503a171,171,0,0,0-17.4,39.23,160.44,160.44,0,0,0,57.54-18.66,141.46,141.46,0,0,1,19.71-46.2,311.8,311.8,0,0,1-36.26,17.28C182.85,498,175,500.72,167.47,503Z"/><path class="cls-2" d="M167.12,199.24c7.25,3,14.87,6.41,22.76,10.41a312.76,312.76,0,0,1,34.59,20.43,141.14,141.14,0,0,1-15.54-47.77,160.49,160.49,0,0,0-55.65-23.69,171.19,171.19,0,0,0,13.84,40.62Z"/><path class="cls-2" d="M161.74,391.77a141.2,141.2,0,0,1-26.55-8.5,160.7,160.7,0,0,0-49.08,35.35,172.59,172.59,0,0,0,19.25,5.59A170.74,170.74,0,0,0,128,427.8c6.29-4.66,13.18-9.4,20.69-14.08a314.1,314.1,0,0,1,35.38-19A141.42,141.42,0,0,1,161.74,391.77Z"/><path class="cls-2" d="M299.62,523.18a141.28,141.28,0,0,1-33.86,37.1,160.35,160.35,0,0,0,6.88,60.09,171.66,171.66,0,0,0,28.49-32.1c-1-7.77-1.77-16.1-2.19-24.93A311.57,311.57,0,0,1,299.62,523.18Z"/><path class="cls-2" d="M488.42,418.34c3.86,1.76,5.5,3.91,6.25,5.67,1.49,3.49,0,6.64,2,8.13,1.26,1,3.07.51,4.83.07,2.22-.55,4.94-1.73,10-6.51,4.81-4.51,7.22-6.76,6.65-8.9-.64-2.43-4.93-4.5-4.93-4.5-13.21-6.67-13-7.39-13-7.39.35-1.12,8.11-.07,11.92.61s5.07,1.23,7.5.71a12.23,12.23,0,0,0,6.57-4.07c1.29-1.59,1.87-4.24,3-9.46,1.93-9,1.91-9,2.17-9.81,2.24-6.88,5.23-8.94,4.34-10.36-1.42-2.26-10.53.46-17.67,3.8A73.81,73.81,0,0,0,493,396c-4.22-13.86-10.57-22.71-15.17-27.9-5.22-5.91-12.5-12-14.7-10.52-1.38.94.54,4-.14,11.23-.07.81-.1.82-1.92,9.86-1,5.24-1.57,7.9-1,9.87a12.25,12.25,0,0,0,4.41,6.35c2,1.45,3.54,1.48,7.16,2.33s11.31,3,11.18,4.19c0,0-.08.75-14.85,1.61,0,0-4.76.2-6.31,2.17-1.37,1.73-.06,4.76,2.56,10.81,2.77,6.42,4.8,8.58,6.61,10,1.45,1.1,2.93,2.24,4.47,1.85,2.37-.59,2.29-4.05,5-6.67C481.63,419.82,484,418.44,488.42,418.34Z"/><path class="cls-2" d="M590.49,254.18c-2.66-.08-5.48,9-6.69,16.79a73.91,73.91,0,0,0,2.3,31.68,73.92,73.92,0,0,0-31.75-3c-7.81,1-17,3.68-16.92,6.34,0,1.68,3.65,1.8,9.24,6.38.63.51.63.55,7.12,7.09,3.77,3.79,5.69,5.7,7.63,6.35a12.22,12.22,0,0,0,7.73-.13c2.33-.87,3.2-2.11,5.93-4.64s8.81-7.71,9.7-7c0,0,.58.49-6.93,13.23,0,0-2.49,4.07-1.72,6.45.67,2.11,3.92,2.71,10.4,3.9,6.88,1.27,9.8.8,12,.07,1.72-.59,3.49-1.19,4-2.68.83-2.3-2.12-4.16-2.75-7.9-.32-1.89-.09-4.58,2.21-8.14,3.76-2.31,6.51-2.42,8.37-2.06,3.72.73,5.52,3.69,7.84,2.91,1.51-.51,2.14-2.27,2.76-4,.78-2.15,1.31-5.06.18-12-1.06-6.51-1.59-9.76-3.68-10.49C615.09,292.63,611,295,611,295c-12.89,7.25-13.37,6.67-13.37,6.66-.73-.91,4.47-6.77,7.15-9.55s3.86-3.53,4.77-5.84a12.26,12.26,0,0,0,.29-7.72c-.61-2-2.48-3.92-6.2-7.76-6.4-6.62-6.44-6.62-6.94-7.26C592.21,257.87,592.17,254.23,590.49,254.18Z"/><path class="cls-2" d="M407.74,196.07c3.12,4.33,4.73,6.51,6.55,7.45a12.25,12.25,0,0,0,7.65,1.08c2.43-.5,3.49-1.59,6.58-3.67s9.9-6.24,10.67-5.36c0,0,.49.57-8.91,12,0,0-3.09,3.63-2.7,6.11.34,2.18,3.45,3.28,9.67,5.47,6.6,2.32,9.56,2.31,11.81,1.92,1.79-.31,3.63-.63,4.4-2,1.17-2.14-1.44-4.44-1.49-8.23,0-1.91.62-4.54,3.45-7.7,4.07-1.69,6.8-1.38,8.59-.73,3.56,1.3,4.88,4.5,7.29,4.08,1.57-.26,2.47-1.9,3.34-3.49,1.11-2,2.09-4.8,2-11.79,0-6.6-.05-9.89-2-10.93-2.21-1.18-6.65.56-6.65.56-13.87,5.16-14.24,4.51-14.24,4.5-.58-1,5.46-6,8.55-8.33s4.35-2.88,5.61-5a12.15,12.15,0,0,0,1.48-7.59c-.29-2-1.84-4.25-4.91-8.62-5.3-7.54-5.33-7.54-5.73-8.25-3.52-6.32-3-9.92-4.65-10.23-2.62-.49-6.81,8-9.22,15.55a74,74,0,0,0-2.65,31.65c-13.08-6.37-23.93-7.73-30.9-7.88-7.87-.18-17.31,1-17.7,3.63-.24,1.66,3.33,2.34,8.15,7.74C402.35,188.56,402.34,188.6,407.74,196.07Z"/><path class="cls-2" d="M446,530.28c-11.64-5.88-11.44-6.51-11.44-6.51.3-1,7.15-.07,10.51.54s4.47,1.08,6.61.62a10.8,10.8,0,0,0,5.79-3.59c1.13-1.4,1.65-3.73,2.64-8.34,1.7-7.94,1.68-8,1.9-8.65,2-6.06,4.62-7.88,3.83-9.13-1.25-2-9.28.41-15.58,3.35a65.18,65.18,0,0,0-22.13,17.33,65.11,65.11,0,0,0-13.37-24.59c-4.6-5.21-11-10.6-13-9.27-1.22.83.47,3.55-.13,9.9-.07.71-.09.72-1.69,8.69-.93,4.61-1.38,7-.9,8.7a10.7,10.7,0,0,0,3.89,5.59c1.77,1.28,3.12,1.31,6.31,2.06s10,2.67,9.85,3.69c0,0-.07.66-13.08,1.42,0,0-4.2.18-5.57,1.91-1.21,1.53-.06,4.2,2.25,9.54,2.45,5.65,4.23,7.56,5.83,8.78,1.28,1,2.58,2,3.94,1.64,2.1-.53,2-3.58,4.43-5.89,1.21-1.16,3.31-2.38,7.19-2.46,3.41,1.55,4.86,3.44,5.52,5,1.31,3.08,0,5.86,1.72,7.17,1.12.85,2.71.45,4.27.07,1.95-.49,4.34-1.53,8.84-5.74,4.25-4,6.37-6,5.87-7.85C449.74,532.11,446,530.28,446,530.28Z"/><path class="cls-2" d="M601.65,431.3c-.68-5.58.76-8-.34-8.72-1.74-1.12-7.27,3.78-11.2,8.47a57.28,57.28,0,0,0-11.26,22.07A57.28,57.28,0,0,0,559,438.43c-5.62-2.45-12.75-4.39-13.8-2.61-.67,1.13,1.7,2.67,3.58,8,.21.6.19.62,1.87,7.58,1,4,1.48,6.08,2.51,7.29a9.53,9.53,0,0,0,5.19,3c1.89.36,3-.11,5.81-.7s8.95-1.57,9.25-.71c0,0,.19.56-9.94,6,0,0-3.29,1.7-3.74,3.59-.4,1.67,1.52,3.38,5.35,6.78,4,3.62,6.19,4.48,7.92,4.86,1.38.31,2.79.62,3.76-.15,1.47-1.2.28-3.61,1.35-6.36.54-1.37,1.76-3.13,4.84-4.63,3.29,0,5.15.94,6.26,1.94,2.19,2,2.18,4.67,4,5.09,1.2.27,2.33-.65,3.43-1.53,1.38-1.12,2.91-2.84,4.94-7.88,1.92-4.75,2.87-7.13,1.77-8.45-1.24-1.5-4.95-1.56-4.95-1.56-11.48-.37-11.56-1-11.56-1-.12-.9,5.69-2.71,8.6-3.47s4-.8,5.51-2a9.55,9.55,0,0,0,3.31-5c.38-1.54-.07-3.6-1-7.65C601.74,431.94,601.72,431.93,601.65,431.3Z"/><path class="cls-2" d="M424.74,578.91a54.06,54.06,0,0,0-19.68,12.59,54,54,0,0,0-9.12-21.4c-3.39-4.67-8.27-9.64-10-8.7-1.07.6.12,3-.88,8.18-.11.59-.14.6-2.09,7.06-1.13,3.75-1.69,5.65-1.43,7.13a8.93,8.93,0,0,0,2.77,4.93c1.37,1.2,2.48,1.33,5.06,2.2s8,3,7.86,3.83c0,0-.11.54-10.94.14,0,0-3.49-.18-4.75,1.14s-.38,3.47,1.11,8.07c1.58,4.87,2.9,6.59,4.13,7.72,1,.91,2,1.84,3.13,1.67,1.77-.27,1.95-2.8,4.13-4.52,1.09-.86,2.92-1.71,6.14-1.47,2.69,1.55,3.74,3.23,4.16,4.57.85,2.64-.45,4.84.86,6.06.86.79,2.21.59,3.52.39,1.66-.24,3.72-.91,7.77-4,3.83-3,5.74-4.43,5.48-6-.3-1.81-3.29-3.63-3.29-3.63-9.16-5.78-8.95-6.29-8.95-6.29.34-.79,5.92.51,8.65,1.28s3.62,1.25,5.42,1a9,9,0,0,0,5.08-2.5c1.05-1.07,1.66-3,2.84-6.69,2-6.44,2-6.46,2.26-7,2.11-4.85,4.44-6.15,3.88-7.25C437,575.63,430.18,577,424.74,578.91Z"/><path class="cls-2" d="M533,450.3c1.59.05,2.22.21,3.22-.17A5.22,5.22,0,0,0,538.7,448c.45-.75.53-1.91.68-4.19.26-3.93.25-3.94.31-4.29.53-3,1.67-4.11,1.2-4.65-.74-.87-4.43.85-7.25,2.7a31.59,31.59,0,0,0-9.42,9.87,31.77,31.77,0,0,0-8.14-10.88c-2.58-2.18-6-4.32-6.88-3.55-.53.49.48,1.68.64,4.77,0,.35,0,.36-.21,4.29-.12,2.29-.18,3.45.18,4.25a5.13,5.13,0,0,0,2.26,2.41c.94.49,1.59.41,3.17.55s5,.58,5,1.08c0,0,0,.33-6.19,1.6,0,0-2,.38-2.54,1.31s.26,2,1.75,4.42c1.57,2.55,2.56,3.34,3.41,3.82a2.5,2.5,0,0,0,2,.51c1-.4.72-1.86,1.72-3.14a4.91,4.91,0,0,1,3.28-1.69,4.85,4.85,0,0,1,3,2c.84,1.38.42,2.81,1.33,3.32.59.33,1.33,0,2-.27.91-.37,2-1,3.85-3.38s2.64-3.31,2.27-4.18-2.37-1.6-2.37-1.6c-6-2-5.95-2.33-5.95-2.33C527.94,450.28,531.29,450.24,533,450.3Z"/><path class="cls-2" d="M536.34,346.7c1.94-.44,2.75-.45,3.83-1.22a6.5,6.5,0,0,0,2.39-3.37c.3-1.05,0-2.47-.5-5.27-.93-4.84-.95-4.85-1-5.28-.34-3.85.71-5.49,0-6-1.17-.81-5.08,2.42-7.9,5.55A39.7,39.7,0,0,0,524.9,346a39.32,39.32,0,0,0-13.28-10.56c-3.8-1.82-8.65-3.31-9.42-2.11-.48.75,1.11,1.87,2.27,5.55.13.41.12.43,1.11,5.25.58,2.8.88,4.21,1.56,5.07a6.52,6.52,0,0,0,3.49,2.2c1.3.29,2,0,4-.34s6.19-.87,6.37-.28c0,0,.12.39-7,3.89,0,0-2.31,1.09-2.66,2.38s1,2.36,3.52,4.79,4.14,3.22,5.33,3.52c.94.25,1.9.5,2.58,0,1-.78.28-2.47,1.08-4.33a6.15,6.15,0,0,1,3.43-3.07,6,6,0,0,1,4.26,1.48c1.46,1.41,1.39,3.26,2.66,3.59.82.21,1.62-.39,2.39-1,1-.73,2.07-1.88,3.58-5.29,1.43-3.23,2.14-4.84,1.42-5.77s-3.37-1.19-3.37-1.19c-7.88-.52-7.92-.92-7.92-.92C530.29,348.26,534.32,347.16,536.34,346.7Z"/><path class="cls-2" d="M460.58,132.26c.26.2.26.21,2.92,2.79,1.54,1.49,2.33,2.24,3.12,2.49a4.86,4.86,0,0,0,3.1-.12c.93-.36,1.27-.87,2.35-1.91s3.47-3.17,3.84-2.87c0,0,.24.19-2.68,5.37,0,0-1,1.65-.64,2.6s1.6,1.06,4.21,1.49c2.78.45,3.95.24,4.81-.07.69-.25,1.39-.51,1.6-1.11.31-.94-.87-1.66-1.17-3.15a4.64,4.64,0,0,1,.83-3.37,4.53,4.53,0,0,1,3.27-.88c1.51.25,2.25,1.43,3.18,1.1.6-.22.84-.93,1.07-1.62.3-.87.49-2,0-4.81-.48-2.6-.72-3.91-1.56-4.18s-2.6.69-2.6.69c-5.12,3-5.32,2.79-5.32,2.79-.3-.36,1.74-2.76,2.8-3.9s1.52-1.45,1.87-2.39a4.94,4.94,0,0,0,.05-3.1c-.26-.78-1-1.55-2.55-3.07-2.63-2.61-2.64-2.61-2.85-2.86-1.84-2.25-1.89-3.71-2.56-3.72-1.07,0-2.13,3.67-2.55,6.8A29.68,29.68,0,0,0,476.29,128a29.6,29.6,0,0,0-12.73-.92c-3.13.48-6.77,1.61-6.74,2.68C456.84,130.44,458.3,130.46,460.58,132.26Z"/><path class="cls-2" d="M399.71,129.83c1.33-.53,1.82-1.26,3.37-2.75s5-4.54,5.51-4.11c0,0,.34.27-3.85,7.7,0,0-1.38,2.37-.91,3.74.41,1.2,2.29,1.51,6,2.12,4,.65,5.65.35,6.89-.1,1-.36,2-.72,2.29-1.59.45-1.34-1.25-2.38-1.67-4.52a6.6,6.6,0,0,1,1.19-4.82,6.45,6.45,0,0,1,4.69-1.27c2.16.36,3.23,2.06,4.55,1.58.86-.31,1.21-1.33,1.55-2.32.42-1.25.69-2.93,0-6.9-.69-3.73-1-5.6-2.24-6-1.38-.45-3.72,1-3.72,1-7.35,4.32-7.63,4-7.63,4-.43-.52,2.49-4,4-5.59s2.18-2.08,2.68-3.42a7,7,0,0,0,.07-4.45c-.37-1.12-1.47-2.23-3.65-4.4-3.77-3.74-3.79-3.74-4.09-4.1-2.64-3.23-2.7-5.32-3.67-5.33-1.54,0-3.05,5.25-3.66,9.75a42.68,42.68,0,0,0,1.72,18.3A42.39,42.39,0,0,0,390.88,115c-4.48.69-9.72,2.31-9.67,3.85,0,1,2.12,1,5.4,3.56.37.29.37.31,4.18,4,2.22,2.14,3.35,3.22,4.47,3.57A7,7,0,0,0,399.71,129.83Z"/><path class="cls-2" d="M485.17,212.43a6.55,6.55,0,0,0,2.59,3.22c1.13.69,1.94.65,3.9,1s6.14,1.18,6.12,1.81c0,0,0,.4-7.85,1.42,0,0-2.53.29-3.28,1.39s.14,2.54,1.77,5.67c1.72,3.31,2.88,4.39,3.9,5.06.81.54,1.64,1.08,2.45.82,1.25-.41,1.07-2.25,2.43-3.75a6.17,6.17,0,0,1,4.24-1.8A6,6,0,0,1,505,230c.92,1.8.26,3.53,1.35,4.25.71.47,1.66.16,2.58-.14,1.16-.38,2.56-1.11,5.1-3.85,2.39-2.58,3.59-3.88,3.21-5-.44-1.27-2.8-2.22-2.8-2.22-7.29-3.05-7.2-3.44-7.2-3.44.15-.61,4.32-.35,6.38-.13s2.75.47,4,.09a6.49,6.49,0,0,0,3.35-2.41c.62-.9.84-2.33,1.24-5.16.68-4.87.67-4.89.78-5.31.93-3.75,2.45-5,1.92-5.68-.85-1.15-5.6.64-9.27,2.69A39.53,39.53,0,0,0,503,215.16a39.32,39.32,0,0,0-9.14-14.29c-3-3-7.11-5.94-8.23-5.05-.7.55.44,2.12.35,6,0,.43,0,.44-.65,5.32C485,210,484.8,211.4,485.17,212.43Z"/><path class="cls-2" d="M483.68,160c-.32,1.06,2,1.67,4.74,5.4.31.42.3.44,3.24,5.55,1.7,2.95,2.58,4.45,3.71,5.15a8.11,8.11,0,0,0,5,1.06c1.67-.2,2.47-.86,4.71-2.06s7.16-3.57,7.59-3c0,0,.28.39-7,7.34,0,0-2.38,2.21-2.34,3.83,0,1.43,2,2.29,6,4,4.2,1.83,6.17,2,7.71,1.82,1.22-.12,2.48-.23,3.11-1.1,1-1.34-.55-2.94-.26-5.4.15-1.24.79-3,3-5,2.76-.87,4.53-.58,5.67-.07,2.27,1,2.86,3.15,4.5,3,1.07-.1,1.82-1.12,2.54-2.11.92-1.24,1.82-3,2.41-7.54.56-4.28.83-6.42-.38-7.19-1.37-.86-4.49.05-4.49.05-9.7,2.68-9.89,2.23-9.89,2.23-.3-.68,4.17-3.63,6.44-5s3.16-1.66,4.19-3a8.18,8.18,0,0,0,1.66-4.85c0-1.33-.85-2.85-2.52-5.83-2.86-5.14-2.88-5.14-3.09-5.62-1.79-4.27-1.12-6.58-2.19-6.85-1.71-.45-5.26,4.88-7.53,9.63a48.32,48.32,0,0,0-4.57,20.48,48.19,48.19,0,0,0-19.84-6.56C490.57,158,484.17,158.32,483.68,160Z"/><path class="cls-2" d="M532.64,221.3c-.08,1.22,2.54,1.49,6.35,5.08.43.41.43.43,4.78,5.49,2.52,2.93,3.81,4.4,5.18,5a8.85,8.85,0,0,0,5.59.3c1.73-.5,2.42-1.36,4.52-3s6.76-5.11,7.37-4.52c0,0,.39.38-5.69,9.2,0,0-2,2.8-1.57,4.57.38,1.55,2.69,2.15,7.32,3.35,4.9,1.26,7,1.07,8.63.65,1.28-.33,2.59-.67,3-1.73.72-1.62-1.3-3.11-1.58-5.84-.14-1.37.13-3.34,2-5.9,2.72-1.43,4.67-1.41,6-1.05,2.65.7,3.8,2.94,5.51,2.49,1.11-.29,1.66-1.52,2.2-2.73.67-1.51,1.2-3.58.74-8.63-.44-4.75-.65-7.13-2.13-7.76-1.67-.71-4.76.82-4.76.82-9.69,4.58-10,4.13-10,4.13-.48-.7,3.57-4.67,5.65-6.54s3-2.35,3.74-4a8.79,8.79,0,0,0,.6-5.57c-.33-1.44-1.59-2.95-4.07-5.91-4.29-5.12-4.32-5.12-4.65-5.6-2.93-4.34-2.77-7-4-7.09-1.92-.19-4.42,6.22-5.69,11.78a53.55,53.55,0,0,0,.06,23.09,53.38,53.38,0,0,0-22.69-3.74C539.49,218,532.76,219.38,532.64,221.3Z"/><path class="cls-2" d="M461.9,227.13c-1.17-.81-5.08,2.43-7.9,5.56a39.56,39.56,0,0,0-8.25,14.9A39.45,39.45,0,0,0,432.47,237c-3.8-1.82-8.65-3.31-9.42-2.11-.48.75,1.11,1.87,2.27,5.55.14.42.13.43,1.12,5.25.57,2.8.87,4.21,1.55,5.07a6.52,6.52,0,0,0,3.49,2.2c1.3.3,2,0,4-.34s6.19-.87,6.37-.27c0,0,.12.38-7,3.88,0,0-2.3,1.1-2.66,2.39s1,2.35,3.52,4.78,4.15,3.22,5.33,3.53c.94.24,1.9.49,2.58,0,1.05-.79.28-2.47,1.08-4.33a6.13,6.13,0,0,1,3.43-3.08,6,6,0,0,1,4.26,1.48c1.46,1.41,1.39,3.27,2.66,3.59.82.22,1.62-.38,2.39-1,1-.73,2.07-1.88,3.58-5.29,1.43-3.22,2.14-4.84,1.42-5.77s-3.37-1.18-3.37-1.18c-7.88-.53-7.92-.93-7.92-.93-.06-.62,4-1.73,6-2.19s2.75-.45,3.83-1.21a6.57,6.57,0,0,0,2.39-3.37c.3-1.06,0-2.48-.5-5.28-.93-4.84-1-4.84-1-5.28C461.59,229.28,462.64,227.64,461.9,227.13Z"/><path class="cls-2" d="M470.11,287.12c-2.92-4.49-7.21-9.34-8.84-8.54-1,.5,0,2.76-1.21,7.54-.14.54-.16.55-2.28,6.45-1.23,3.42-1.84,5.16-1.67,6.54a8.3,8.3,0,0,0,2.34,4.71c1.21,1.18,2.23,1.35,4.58,2.28s7.31,3.16,7.11,3.93c0,0-.13.5-10.15-.39,0,0-3.23-.34-4.47.83s-.51,3.2.65,7.53c1.23,4.6,2.37,6.25,3.45,7.37.87.89,1.75,1.8,2.83,1.69,1.65-.16,1.94-2.5,4.05-4,1.05-.75,2.79-1.44,5.76-1.07a7.69,7.69,0,0,1,3.65,4.44c.65,2.49-.65,4.47.51,5.66.75.78,2,.66,3.24.54,1.55-.15,3.5-.68,7.41-3.39,3.69-2.55,5.53-3.83,5.36-5.33-.19-1.69-2.87-3.52-2.87-3.52-8.22-5.8-8-6.26-8-6.26.34-.72,5.47.76,8,1.6s3.29,1.33,5,1.22a8.39,8.39,0,0,0,4.83-2.08c1-.95,1.68-2.67,2.95-6.07,2.2-5.87,2.19-5.9,2.43-6.39,2.2-4.41,4.42-5.5,4-6.54-.73-1.66-7.13-.74-12.27.8a50.33,50.33,0,0,0-18.86,10.73A50.18,50.18,0,0,0,470.11,287.12Z"/><path class="cls-2" d="M566,410.27c1.56.05,2.18.2,3.15-.16a5.17,5.17,0,0,0,2.48-2.08c.43-.74.52-1.87.67-4.1.25-3.85.24-3.86.3-4.19.51-3,1.63-4,1.17-4.55-.72-.85-4.33.82-7.08,2.64a30.74,30.74,0,0,0-9.21,9.65,31,31,0,0,0-8-10.64c-2.52-2.13-5.9-4.22-6.72-3.47-.51.48.47,1.64.62,4.66,0,.34,0,.35-.2,4.2-.12,2.23-.17,3.37.17,4.15a5.14,5.14,0,0,0,2.21,2.36c.93.48,1.56.4,3.11.54s4.86.57,4.88,1.05c0,0,0,.32-6,1.57,0,0-2,.37-2.49,1.28s.27,2,1.72,4.32,2.5,3.26,3.34,3.73c.66.37,1.34.75,2,.49.95-.38.7-1.81,1.68-3.06A4.78,4.78,0,0,1,557,417a4.71,4.71,0,0,1,2.93,2c.82,1.35.4,2.75,1.3,3.24.58.33,1.3,0,2-.26.88-.36,1.93-1,3.76-3.3s2.58-3.23,2.22-4.08-2.32-1.57-2.32-1.57c-5.87-2-5.82-2.28-5.82-2.28C561.15,410.25,564.43,410.21,566,410.27Z"/><path class="cls-2" d="M494,559.12c-1.13-1-5.9,1.71-9.47,4.49a41.54,41.54,0,0,0-11.38,14,41.51,41.51,0,0,0-12.65-12.74c-3.81-2.41-8.82-4.65-9.85-3.54-.65.69.89,2.07,1.55,6,.07.45.06.46.34,5.52.16,2.94.25,4.42.85,5.4A6.92,6.92,0,0,0,456.8,581c1.35.49,2.22.3,4.4.25s6.85,0,6.94.66c0,0,.07.41-8.18,2.93,0,0-2.67.77-3.27,2-.52,1.11.66,2.54,3,5.4,2.51,3,4,3.89,5.2,4.38,1,.39,2,.78,2.8.36,1.26-.65.71-2.48,1.88-4.25a5.07,5.07,0,0,1,8.59-.49c1.35,1.65,1,3.53,2.28,4.06.86.33,1.82-.16,2.76-.64,1.18-.6,2.54-1.61,4.74-4.87,2.08-3.07,3.11-4.61,2.48-5.66s-3.45-1.71-3.45-1.71c-8.45-1.71-8.43-2.12-8.43-2.12,0-.64,4.59-1.17,6.85-1.34s3.06-.05,4.35-.67a7,7,0,0,0,3.14-3.08c.5-1,.45-2.52.33-5.46-.22-5.06-.23-5.08-.2-5.52C493.3,561.26,494.7,559.75,494,559.12Z"/><path class="cls-2" d="M453.86,462.5c1.86,1.67,2.48,2.49,4,3.08a8,8,0,0,0,5.05.15c1.25-.41,2.45-1.64,4.79-4.08,4-4.21,4-4.23,4.43-4.57,3.51-2.93,5.89-3,5.84-4.08-.07-1.73-6.13-3.53-11.27-4.27a47.57,47.57,0,0,0-20.66,1.68,47.68,47.68,0,0,0,.49-20.64c-1-5.09-3.17-11-4.9-11-1.1,0-1,2.39-3.75,6.06-.31.42-.33.41-4.31,4.68-2.3,2.47-3.47,3.74-3.8,5a8,8,0,0,0,.43,5c.67,1.51,1.53,2.08,3.3,3.84s5.43,5.71,5,6.3c0,0-.29.38-8.95-4.46,0,0-2.77-1.6-4.29-1.09-1.34.45-1.59,2.57-2.08,6.81-.51,4.49-.07,6.39.5,7.8.46,1.12.93,2.27,1.94,2.62,1.54.53,2.62-1.39,5-1.83,1.21-.23,3-.13,5.54,1.41,1.62,2.34,1.85,4.1,1.7,5.33-.29,2.43-2.16,3.62-1.54,5.13.4,1,1.57,1.38,2.72,1.78,1.44.49,3.36.83,7.82.06,4.2-.73,6.3-1.09,6.68-2.46.43-1.55-1.33-4.22-1.33-4.22-5.32-8.38-5-8.69-5-8.69C447.86,457.4,451.92,460.76,453.86,462.5Z"/><path class="cls-2" d="M528.9,266.53c2.5,0,3.5.25,5.05-.33a8,8,0,0,0,3.91-3.22c.67-1.13.76-2.84.92-6.22.26-5.83.24-5.84.32-6.35.72-4.53,2.47-6.13,1.72-6.92-1.2-1.26-6.94,1.38-11.3,4.2a47.62,47.62,0,0,0-14.45,14.87,47.6,47.6,0,0,0-13.22-15.86c-4.13-3.15-9.65-6.22-10.94-5-.81.73.82,2.46,1.18,7,0,.51,0,.52-.17,6.35-.1,3.38-.15,5.1.44,6.28a8,8,0,0,0,3.64,3.5c1.5.7,2.52.56,5,.72s7.84.72,7.89,1.46c0,0,0,.48-9.67,2.54,0,0-3.14.62-3.95,2-.71,1.22.5,3,2.92,6.49,2.57,3.72,4.15,4.86,5.52,5.54,1.08.54,2.19,1.1,3.17.7,1.51-.62,1.06-2.77,2.58-4.69.77-1,2.19-2.08,5.1-2.59,2.77.7,4.1,1.87,4.8,2.9,1.38,2,.75,4.14,2.21,4.87.95.47,2.1,0,3.22-.45,1.41-.58,3.08-1.59,5.93-5.11,2.68-3.31,4-5,3.41-6.24-.7-1.45-3.79-2.31-3.79-2.31-9.51-2.8-9.44-3.27-9.44-3.27C521,266.65,526.29,266.5,528.9,266.53Z"/><path class="cls-2" d="M625.46,381.33c-.48-4.24-.73-6.36-2.07-6.81-1.53-.52-4.3,1.09-4.3,1.09-8.66,4.84-9,4.46-9,4.46-.45-.59,3.14-4.46,5-6.3s2.63-2.33,3.3-3.84a8,8,0,0,0,.44-5c-.34-1.28-1.5-2.54-3.81-5-4-4.27-4-4.27-4.3-4.68-2.74-3.67-2.65-6.05-3.75-6.06-1.74,0-3.87,5.91-4.91,11a47.72,47.72,0,0,0,.5,20.64,47.78,47.78,0,0,0-20.67-1.68c-5.14.75-11.2,2.55-11.26,4.28,0,1.1,2.32,1.14,5.84,4.08.39.33.39.36,4.43,4.57,2.34,2.44,3.53,3.67,4.78,4.07a8,8,0,0,0,5.06-.14c1.55-.59,2.16-1.41,4-3.08s6-5.1,6.56-4.62c0,0,.37.31-5,8.69,0,0-1.76,2.67-1.33,4.22.37,1.37,2.47,1.73,6.68,2.46,4.45.77,6.38.43,7.82-.06,1.14-.4,2.32-.8,2.72-1.78.61-1.51-1.25-2.7-1.54-5.13-.15-1.23.08-3,1.7-5.33,2.53-1.54,4.33-1.64,5.54-1.41,2.41.44,3.49,2.35,5,1.82,1-.34,1.47-1.49,1.93-2.61C625.54,387.72,626,385.82,625.46,381.33Z"/><path class="cls-2" d="M556.19,495.41c-8.78,2-22.18,6.42-37.14,17.79-1.46-18.64-7-31.57-11.36-39.41-4.94-8.9-12.41-18.64-15.6-17.36-2,.81-.45,5.24-3.31,14.13-.32,1-.37,1-5.17,11.9-2.79,6.31-4.18,9.52-4,12.17a15.84,15.84,0,0,0,3.8,9.23c2.14,2.39,4.05,2.85,8.38,4.94,4.5,2.17,13.41,7,12.93,8.39,0,0-.31.92-19.17-2.1,0,0-6.06-1.08-8.57,1-2.21,1.81-1.41,6,.21,14.35,1.72,8.87,3.67,12.16,5.57,14.41,1.51,1.8,3.06,3.64,5.12,3.59,3.16-.09,4-4.48,8.2-7,2.09-1.28,5.48-2.36,11.06-1.25,4.39,3.29,5.86,6.45,6.32,8.89.9,4.81-1.83,8.37.2,10.79,1.32,1.57,3.73,1.51,6.08,1.44,2.95-.07,6.7-.8,14.47-5.41,7.32-4.35,11-6.53,10.87-9.38-.14-3.24-5-7.05-5-7.05-14.8-12.09-14.32-12.93-14.31-12.93.75-1.31,10.25,2.17,14.86,4.09,4.43,1.85,6,3,9.26,3a15.77,15.77,0,0,0,9.42-3.3c2.07-1.65,3.54-4.82,6.41-11.1,4.94-10.83,4.93-10.87,5.46-11.77,4.74-8.05,9.09-9.82,8.36-11.86C578.37,492.29,566.12,493.19,556.19,495.41Z"/><path class="cls-3" d="M298.86,254.18a108.4,108.4,0,0,0,0,194.52Z"/><path class="cls-3" d="M389.26,251.71V451.16a108.43,108.43,0,0,0,0-199.45Z"/></svg>