<svg id="Layer_1" data-name="Layer 1" xmlns="http://www.w3.org/2000/svg" viewBox="0 0 708.66 708.66"><defs><style>.cls-1{fill:#fedb48;}.cls-2{fill:#fcbd38;}.cls-3{fill:#965f44;}</style></defs><title>sunflower</title><path class="cls-1" d="M327.12,235.59a54.47,54.47,0,0,1-1.65-51,86.3,86.3,0,0,0,2.76,32.85c1.11,3.84,4.41,15.21,8.25,15.06,2.16-.09,3.78-3.81,5.39-8.73a119.48,119.48,0,0,0,5.85-37,251.26,251.26,0,0,0-2.43-33.63c4.3,9.53,11.83,29.89,8.08,55.17a95.27,95.27,0,0,1-8.45,27.35,27.26,27.26,0,0,0,15.79-3.31c3.46-2,10.83-7.57,14.79-28.52,1.34-7.06,3.57-24-1.95-52.15-4-20.39-10.24-35-18-53.13C349,83.21,342.63,70.92,338,62.42c-3.51,6.62-8.36,16.13-13.65,27.78-11.85,26.11-21.83,48.08-25.69,76.4-2.84,20.8-6.37,46.65,9.12,60.56C314.12,232.87,321.75,234.83,327.12,235.59Z"/><path class="cls-1" d="M156.11,294.89c16.63,12.81,37.29,28.74,57.06,22.23,8.12-2.67,13.62-8.32,17-12.6a54.46,54.46,0,0,1-45.07-24,86.4,86.4,0,0,0,29.86,13.95c3.89.95,15.39,3.75,17.17.34,1-1.92-1.42-5.17-4.88-9A119.94,119.94,0,0,0,198,262.32,251.3,251.3,0,0,0,167.6,247.7c10.41,1,31.82,4.61,51.87,20.45A95.25,95.25,0,0,1,239,289.08a27.34,27.34,0,0,0,5-15.33c0-4-1.18-13.16-17.38-27-5.45-4.68-19-15.05-46.2-24.27-19.67-6.68-35.42-8.52-55.05-10.8-16.51-1.93-30.33-2.54-40-2.74,4,6.34,9.83,15.28,17.31,25.67C119.38,257.85,133.48,277.44,156.11,294.89Z"/><path class="cls-1" d="M238.74,445.81c1.69-8.38-.49-15.95-2.56-21A54.49,54.49,0,0,1,193,452.16a86.5,86.5,0,0,0,26.91-19c2.74-2.91,10.87-11.52,8.79-14.75-1.17-1.83-5.2-1.33-10.26-.23A119.54,119.54,0,0,0,183.6,431.9a251.6,251.6,0,0,0-27.75,19.16c6-8.55,19.76-25.37,43.44-34.95a95.17,95.17,0,0,1,27.85-6.6,27.31,27.31,0,0,0-10.85-11.93c-3.51-1.95-12-5.49-32.09,1.72-6.76,2.43-22.51,9.11-43.95,28.14-15.54,13.79-24.93,26.57-36.63,42.5C93.78,483.33,86.41,495,81.45,503.35c7.48-.33,18.13-1,30.86-2.33,28.51-3,52.51-5.59,78.87-16.63C210.54,476.29,234.61,466.21,238.74,445.81Z"/><path class="cls-1" d="M365,481c-6.46-5.6-14.12-7.42-19.51-8.09a54.45,54.45,0,0,1,2.55,51,86.41,86.41,0,0,0-3.34-32.79c-1.18-3.82-4.68-15.13-8.51-14.91-2.16.12-3.71,3.87-5.24,8.81a119.68,119.68,0,0,0-5.2,37.14,251.94,251.94,0,0,0,3,33.58c-4.48-9.45-12.36-29.68-9.05-55a95.49,95.49,0,0,1,8-27.5,27.32,27.32,0,0,0-15.72,3.58c-3.43,2.1-10.7,7.76-14.3,28.78-1.21,7.08-3.14,24.08,2.87,52.11,4.35,20.32,10.86,34.78,19,52.8,6.82,15.16,13.37,27.34,18.18,35.75,3.39-6.68,8.07-16.27,13.15-28,11.4-26.31,21-48.46,24.35-76.84C377.62,520.54,380.7,494.64,365,481Z"/><path class="cls-1" d="M219.27,217c6.26,15.83,14,35.49,30.51,39.17a29.35,29.35,0,0,0,17-1.74A44.16,44.16,0,0,1,245.37,219a70,70,0,0,0,15,22.11c2.32,2.27,9.17,9,11.82,7.36,1.49-.92,1.16-4.19.34-8.3A97,97,0,0,0,262,211.68a204.9,204.9,0,0,0-15.09-22.8,80.48,80.48,0,0,1,27.63,35.77,77.16,77.16,0,0,1,4.9,22.68,22.1,22.1,0,0,0,9.85-8.6c1.64-2.82,4.64-9.66-.88-26-1.87-5.52-7-18.39-22.11-36.07C255.32,163.8,245.12,156,232.4,146.24c-10.7-8.19-20.07-14.35-26.73-18.51.15,6.07.5,14.72,1.39,25C209.06,175.94,210.75,195.43,219.27,217Z"/><path class="cls-1" d="M156.62,387.12c16.8,2.73,37.68,6.12,49.27-6.14,4.76-5,6.5-11.19,7.23-15.52a44.2,44.2,0,0,1-41.39.29,69.9,69.9,0,0,0,26.68-1.57c3.13-.82,12.41-3.26,12.37-6.37,0-1.76-3-3.14-7-4.56a97.34,97.34,0,0,0-29.9-5.5,204.45,204.45,0,0,0-27.3,1.29,80.44,80.44,0,0,1,44.87-5.42,77.1,77.1,0,0,1,22,7.41,22,22,0,0,0-2.35-12.86c-1.57-2.85-5.91-8.94-22.81-12.58-5.69-1.23-19.39-3.39-42.31.51-16.6,2.82-28.54,7.58-43.42,13.52C90.07,344.62,80,349.5,73,353.1c5.29,3,12.9,7.1,22.23,11.63C116.15,374.87,133.75,383.41,156.62,387.12Z"/><path class="cls-1" d="M282.9,468.54a44.21,44.21,0,0,1-20.09,36.19,70,70,0,0,0,11.75-24c.83-3.13,3.26-12.41.53-13.91-1.54-.84-4.21,1.08-7.38,3.83A96.78,96.78,0,0,0,248.22,494a204.84,204.84,0,0,0-12.31,24.41,80.45,80.45,0,0,1,17.35-41.74,77,77,0,0,1,17.26-15.51,22.19,22.19,0,0,0-12.36-4.28c-3.26,0-10.68.76-22.17,13.69-3.87,4.35-12.48,15.22-20.35,37.09-5.71,15.85-7.43,28.59-9.57,44.46-1.81,13.36-2.51,24.55-2.81,32.4,5.2-3.15,12.53-7.74,21.06-13.65,19.11-13.23,35.2-24.36,49.68-42.45,10.63-13.29,23.84-29.8,18.86-45.92C290.82,475.85,286.32,471.3,282.9,468.54Z"/><path class="cls-2" d="M276.49,173.25a141.08,141.08,0,0,1,12.18,19,311.51,311.51,0,0,1,2.15-40.12c1-8.78,2.4-17,3.94-24.71a170.43,170.43,0,0,0-26.15-34,160.51,160.51,0,0,0-11.1,59.46A141.39,141.39,0,0,1,276.49,173.25Z"/><path class="cls-2" d="M103.31,310a160.48,160.48,0,0,0,20.55,13.86,141,141,0,0,1,49.68-7.42,313.73,313.73,0,0,1-33.73-21.83c-7.09-5.27-13.58-10.56-19.47-15.72a172.23,172.23,0,0,0-42.53,5.74A160.89,160.89,0,0,0,103.31,310Z"/><path class="cls-2" d="M157.5,505.89a171,171,0,0,0-17.4,39.23,160.68,160.68,0,0,0,57.54-18.67,141.46,141.46,0,0,1,19.71-46.2,313.39,313.39,0,0,1-36.26,17.29C172.88,500.82,165,503.57,157.5,505.89Z"/><path class="cls-2" d="M157.15,202.09c7.25,3,14.87,6.42,22.76,10.41a311.19,311.19,0,0,1,34.59,20.44A141.34,141.34,0,0,1,199,185.17a160.49,160.49,0,0,0-55.65-23.69,169.5,169.5,0,0,0,5.18,19.36A171.52,171.52,0,0,0,157.15,202.09Z"/><path class="cls-2" d="M151.77,394.62a142,142,0,0,1-26.55-8.49,160.39,160.39,0,0,0-49.08,35.34,170.39,170.39,0,0,0,19.25,5.6,172.39,172.39,0,0,0,22.67,3.59c6.29-4.67,13.18-9.4,20.69-14.08a310.9,310.9,0,0,1,35.38-19A141.54,141.54,0,0,1,151.77,394.62Z"/><path class="cls-2" d="M289.65,526a140.87,140.87,0,0,1-33.86,37.1,160.42,160.42,0,0,0,6.88,60.1,172,172,0,0,0,28.48-32.1c-1-7.77-1.76-16.1-2.18-24.93A311.73,311.73,0,0,1,289.65,526Z"/><circle class="cls-3" cx="336.76" cy="354.29" r="108.4" transform="translate(-72.39 86.85) rotate(-13.28)"/><path class="cls-2" d="M489.45,421.43c4.11,1.87,5.86,4.16,6.66,6,1.59,3.72,0,7.08,2.08,8.66,1.35,1,3.28.55,5.16.08,2.36-.58,5.25-1.84,10.69-6.93,5.12-4.81,7.68-7.21,7.08-9.49-.68-2.58-5.25-4.79-5.25-4.79-14.07-7.1-13.83-7.87-13.83-7.87.37-1.19,8.64-.08,12.7.65,3.9.7,5.4,1.32,8,.75a13,13,0,0,0,7-4.33c1.37-1.7,2-4.51,3.18-10.08,2.06-9.59,2-9.62,2.31-10.45,2.38-7.32,5.57-9.52,4.62-11-1.51-2.4-11.22.49-18.82,4.05-6.72,3.14-16.72,9.11-26.74,20.94-4.5-14.76-11.26-24.18-16.16-29.72-5.56-6.29-13.31-12.81-15.65-11.21-1.48,1,.57,4.3-.15,12-.08.86-.12.88-2.05,10.5-1.12,5.58-1.67,8.41-1.09,10.52a13,13,0,0,0,4.7,6.75c2.15,1.55,3.77,1.58,7.63,2.49s12,3.22,11.91,4.46c0,0-.09.8-15.82,1.72,0,0-5.07.21-6.73,2.3-1.46,1.85-.06,5.08,2.73,11.52,3,6.84,5.11,9.14,7,10.62,1.54,1.18,3.12,2.39,4.77,2,2.52-.64,2.43-4.32,5.35-7.12C482.22,423,484.76,421.53,489.45,421.43Z"/><path class="cls-2" d="M598.17,246.58c-2.84-.08-5.84,9.59-7.13,17.88-1.13,7.31-1.73,18.89,2.45,33.74C578.67,293.66,567,294,559.68,295c-8.32,1.11-18,3.92-18,6.75,0,1.79,3.89,1.92,9.85,6.79.67.55.67.59,7.58,7.55,4,4,6.06,6.08,8.13,6.77a13,13,0,0,0,8.23-.14c2.48-.92,3.41-2.25,6.31-4.94s9.39-8.21,10.34-7.41c0,0,.62.52-7.39,14.09,0,0-2.65,4.33-1.83,6.87.72,2.25,4.18,2.88,11.08,4.16,7.33,1.35,10.44.84,12.75.06,1.83-.62,3.71-1.25,4.29-2.85.88-2.45-2.25-4.43-2.92-8.41-.34-2-.11-4.88,2.35-8.68,4-2.45,6.93-2.57,8.92-2.18,4,.77,5.87,3.92,8.34,3.09,1.61-.54,2.28-2.41,2.94-4.23.83-2.29,1.4-5.39.2-12.74-1.13-6.94-1.7-10.4-3.93-11.17-2.52-.87-6.91,1.69-6.91,1.69-13.73,7.72-14.23,7.1-14.23,7.1-.78-1,4.75-7.22,7.61-10.19s4.1-3.75,5.08-6.21a13,13,0,0,0,.3-8.23c-.64-2.08-2.64-4.17-6.59-8.26-6.83-7.05-6.86-7.05-7.4-7.73C600,250.5,600,246.63,598.17,246.58Z"/><path class="cls-2" d="M407.38,163.93c-8.39-.19-18.44,1.07-18.85,3.87-.27,1.77,3.54,2.5,8.67,8.24.58.65.57.68,6.32,8.64,3.33,4.61,5,6.94,7,7.94a13.06,13.06,0,0,0,8.15,1.15c2.6-.53,3.72-1.7,7-3.91s10.54-6.65,11.36-5.71c0,0,.53.61-9.48,12.77,0,0-3.3,3.87-2.88,6.51.36,2.32,3.68,3.49,10.3,5.82,7,2.48,10.18,2.46,12.58,2.05,1.91-.33,3.87-.67,4.68-2.15,1.26-2.28-1.53-4.73-1.58-8.76,0-2,.66-4.84,3.67-8.21,4.34-1.8,7.25-1.47,9.15-.78,3.8,1.39,5.2,4.79,7.77,4.36,1.67-.29,2.63-2,3.56-3.73,1.17-2.13,2.22-5.1,2.17-12.55,0-7-.06-10.54-2.14-11.65-2.36-1.25-7.09.6-7.09.6-14.76,5.5-15.16,4.8-15.17,4.8-.62-1.08,5.82-6.39,9.11-8.88s4.64-3.07,6-5.34a13,13,0,0,0,1.58-8.09c-.32-2.15-2-4.53-5.23-9.18-5.65-8-5.68-8-6.11-8.79-3.75-6.73-3.19-10.56-4.95-10.89-2.79-.52-7.26,8.56-9.81,16.56-2.26,7-4.66,18.39-2.83,33.71C426.35,165.54,414.79,164.1,407.38,163.93Z"/><path class="cls-2" d="M444.23,540.65c-12.4-6.26-12.19-6.93-12.19-6.93.33-1.05,7.62-.07,11.19.57s4.77,1.16,7,.66a11.58,11.58,0,0,0,6.18-3.81c1.2-1.5,1.75-4,2.8-8.89,1.82-8.46,1.8-8.48,2-9.21,2.11-6.46,4.92-8.39,4.08-9.73-1.33-2.11-9.89.44-16.59,3.57a69.32,69.32,0,0,0-23.57,18.46A69.25,69.25,0,0,0,411,499.14c-4.9-5.54-11.73-11.28-13.79-9.87-1.3.89.5,3.78-.14,10.54-.07.76-.09.78-1.8,9.26-1,4.92-1.47,7.42-1,9.27a11.57,11.57,0,0,0,4.14,6c1.9,1.36,3.33,1.39,6.73,2.19s10.61,2.84,10.49,3.93c0,0-.07.7-13.94,1.51,0,0-4.47.19-5.93,2-1.28,1.63-.05,4.47,2.41,10.15,2.6,6,4.5,8,6.21,9.36,1.35,1,2.74,2.1,4.19,1.74,2.23-.56,2.15-3.81,4.72-6.27,1.29-1.23,3.52-2.54,7.66-2.62,3.63,1.65,5.17,3.66,5.87,5.32,1.4,3.27,0,6.23,1.84,7.63,1.18.91,2.88.48,4.54.07,2.08-.52,4.63-1.62,9.42-6.11,4.52-4.24,6.78-6.35,6.25-8.36C448.26,542.6,444.23,540.65,444.23,540.65Z"/><path class="cls-2" d="M610.05,435.23c-.72-5.94.81-8.53-.36-9.29-1.85-1.2-7.74,4-11.93,9a61.06,61.06,0,0,0-12,23.51,61.13,61.13,0,0,0-21.11-15.65c-6-2.61-13.58-4.67-14.7-2.77-.71,1.19,1.81,2.83,3.81,8.48.22.63.21.65,2,8.07,1,4.3,1.57,6.47,2.67,7.76a10.17,10.17,0,0,0,5.53,3.23c2,.38,3.17-.13,6.19-.75s9.53-1.67,9.85-.76c0,0,.2.6-10.59,6.39,0,0-3.5,1.81-4,3.83-.42,1.78,1.61,3.6,5.69,7.23,4.32,3.84,6.59,4.76,8.44,5.17,1.47.33,3,.66,4-.17,1.58-1.27.31-3.84,1.45-6.76.57-1.47,1.87-3.34,5.15-4.94,3.51,0,5.49,1,6.67,2.07,2.33,2.1,2.32,5,4.3,5.42,1.28.28,2.48-.69,3.66-1.63,1.47-1.19,3.09-3,5.26-8.39,2-5.06,3.05-7.59,1.88-9-1.32-1.6-5.27-1.66-5.27-1.66-12.23-.4-12.32-1-12.32-1-.12-1,6.07-2.88,9.16-3.7s4.24-.84,5.88-2.08a10.12,10.12,0,0,0,3.51-5.35c.41-1.64-.07-3.83-1-8.14C610.16,435.91,610.13,435.9,610.05,435.23Z"/><path class="cls-2" d="M421.62,592.45a57.79,57.79,0,0,0-20.95,13.41,57.76,57.76,0,0,0-9.71-22.8c-3.62-5-8.81-10.26-10.63-9.26-1.15.64.12,3.17-.95,8.72-.12.62-.14.63-2.22,7.51-1.21,4-1.8,6-1.53,7.59a9.53,9.53,0,0,0,3,5.26c1.46,1.27,2.64,1.41,5.38,2.34s8.56,3.19,8.38,4.08c0,0-.12.58-11.65.15,0,0-3.72-.2-5.07,1.21-1.19,1.25-.4,3.7,1.18,8.59,1.69,5.19,3.1,7,4.4,8.24,1,1,2.11,2,3.34,1.77,1.88-.29,2.07-3,4.39-4.82,1.17-.91,3.12-1.81,6.55-1.56,2.87,1.65,4,3.44,4.43,4.87.9,2.81-.48,5.15.92,6.45.91.85,2.35.63,3.75.42,1.76-.26,4-1,8.28-4.31,4.07-3.15,6.11-4.72,5.82-6.42-.32-1.93-3.49-3.86-3.49-3.86-9.76-6.16-9.53-6.7-9.53-6.7.35-.84,6.3.54,9.21,1.36s3.85,1.33,5.77,1.1a9.47,9.47,0,0,0,5.4-2.67c1.12-1.14,1.77-3.15,3-7.13,2.17-6.85,2.15-6.87,2.41-7.45,2.25-5.18,4.73-6.56,4.14-7.73C434.69,589,427.42,590.39,421.62,592.45Z"/><path class="cls-2" d="M536.88,455.46c1.69.06,2.37.23,3.43-.17A5.54,5.54,0,0,0,543,453c.48-.8.57-2,.73-4.46.28-4.19.27-4.21.33-4.57.56-3.25,1.78-4.38,1.28-5-.79-.92-4.72.9-7.72,2.88a33.56,33.56,0,0,0-10,10.51,33.91,33.91,0,0,0-8.68-11.59c-2.74-2.32-6.43-4.6-7.32-3.78-.56.52.51,1.79.67,5.08,0,.37,0,.38-.22,4.57-.13,2.44-.18,3.67.19,4.53a5.58,5.58,0,0,0,2.41,2.57c1,.52,1.69.43,3.38.58s5.3.62,5.32,1.16c0,0,0,.34-6.59,1.7,0,0-2.14.4-2.71,1.39s.29,2.15,1.87,4.71c1.67,2.71,2.73,3.55,3.64,4.06.72.41,1.46.82,2.13.55,1-.43.77-2,1.83-3.35a5.25,5.25,0,0,1,3.5-1.79A5.14,5.14,0,0,1,530.2,465c.9,1.48.45,3,1.42,3.54.63.35,1.42,0,2.19-.28,1-.4,2.11-1.11,4.1-3.6s2.81-3.53,2.41-4.45-2.52-1.71-2.52-1.71c-6.39-2.14-6.34-2.48-6.34-2.48C531.54,455.44,535.12,455.4,536.88,455.46Z"/><path class="cls-2" d="M540.49,345.12c2.06-.47,2.93-.48,4.09-1.29a7,7,0,0,0,2.54-3.59c.32-1.12,0-2.64-.54-5.62-1-5.15-1-5.16-1-5.62-.36-4.1.75-5.85,0-6.4-1.25-.86-5.41,2.59-8.41,5.92a42,42,0,0,0-8.79,15.87,42,42,0,0,0-14.14-11.24c-4-1.94-9.22-3.53-10-2.25-.51.8,1.18,2,2.42,5.91.14.44.13.46,1.19,5.6.61,3,.93,4.48,1.65,5.4a7.06,7.06,0,0,0,3.72,2.34c1.38.31,2.19,0,4.27-.37s6.6-.92,6.79-.29c0,0,.12.41-7.42,4.14,0,0-2.45,1.17-2.83,2.54-.33,1.22,1,2.51,3.74,5.1,2.88,2.74,4.42,3.43,5.68,3.75,1,.26,2,.53,2.75,0,1.12-.84.3-2.63,1.16-4.61a4.77,4.77,0,0,1,8.18-1.7c1.56,1.5,1.49,3.48,2.83,3.83.88.22,1.73-.42,2.55-1,1-.78,2.2-2,3.82-5.64,1.52-3.43,2.28-5.15,1.5-6.14s-3.58-1.26-3.58-1.26c-8.4-.56-8.44-1-8.44-1C534,346.79,538.34,345.61,540.49,345.12Z"/><path class="cls-2" d="M459.8,116.72c.28.21.28.23,3.11,3,1.65,1.59,2.48,2.39,3.32,2.65a5.2,5.2,0,0,0,3.31-.12c1-.39,1.35-.93,2.5-2s3.7-3.37,4.09-3.06c0,0,.25.2-2.86,5.72,0,0-1,1.76-.68,2.78s1.71,1.12,4.49,1.58c3,.48,4.2.25,5.12-.08.73-.26,1.49-.53,1.7-1.18.34-1-.93-1.76-1.24-3.35a5,5,0,0,1,.88-3.59,4.85,4.85,0,0,1,3.49-.94c1.6.27,2.39,1.53,3.38,1.17.64-.23.9-1,1.15-1.72.31-.93.51-2.18,0-5.12-.51-2.78-.77-4.17-1.67-4.46s-2.76.74-2.76.74c-5.46,3.21-5.66,3-5.66,3-.32-.39,1.85-2.94,3-4.16s1.62-1.54,2-2.54a5.2,5.2,0,0,0,.06-3.3c-.28-.84-1.09-1.66-2.72-3.27-2.8-2.78-2.81-2.78-3-3.05-2-2.4-2-3.95-2.73-4-1.14,0-2.27,3.9-2.72,7.25a31.76,31.76,0,0,0,1.28,13.59,31.43,31.43,0,0,0-13.56-1c-3.33.51-7.22,1.72-7.19,2.86C455.81,114.79,457.37,114.81,459.8,116.72Z"/><path class="cls-2" d="M381,106.24c.39.31.39.33,4.45,4.26,2.36,2.28,3.56,3.43,4.76,3.8a7.46,7.46,0,0,0,4.74-.17c1.42-.56,1.94-1.34,3.58-2.92s5.31-4.84,5.87-4.39c0,0,.36.29-4.09,8.2,0,0-1.48,2.53-1,4,.45,1.29,2.44,1.62,6.44,2.27,4.23.69,6,.37,7.34-.11,1.05-.38,2.13-.77,2.44-1.69.48-1.43-1.34-2.53-1.78-4.82a7,7,0,0,1,1.26-5.13,6.94,6.94,0,0,1,5-1.36c2.3.39,3.44,2.2,4.85,1.69.92-.33,1.28-1.42,1.64-2.47.45-1.33.74-3.12,0-7.35-.74-4-1.1-6-2.4-6.38-1.46-.48-4,1-4,1C412.33,99.31,412,99,412,99c-.46-.55,2.66-4.21,4.27-6s2.32-2.21,2.85-3.64a7.47,7.47,0,0,0,.08-4.74c-.39-1.2-1.56-2.38-3.89-4.69-4-4-4-4-4.35-4.37-2.81-3.43-2.88-5.66-3.91-5.67-1.64,0-3.25,5.59-3.9,10.38A45.34,45.34,0,0,0,405,99.76a45.26,45.26,0,0,0-19.44-1.42c-4.78.74-10.36,2.47-10.31,4.1C375.29,103.47,377.52,103.5,381,106.24Z"/><path class="cls-2" d="M486,202.11a7,7,0,0,0,2.76,3.43c1.2.74,2.07.7,4.16,1s6.54,1.26,6.51,1.93c0,0,0,.43-8.36,1.51,0,0-2.69.31-3.5,1.49s.16,2.7,1.89,6c1.84,3.53,3.07,4.68,4.16,5.39.86.57,1.75,1.16,2.61.87,1.32-.43,1.14-2.39,2.58-4a6.55,6.55,0,0,1,4.52-1.91,6.44,6.44,0,0,1,3.78,3c1,1.92.28,3.77,1.44,4.54.75.49,1.76.17,2.75-.16,1.23-.4,2.73-1.18,5.43-4.1,2.55-2.75,3.82-4.13,3.42-5.32-.47-1.35-3-2.35-3-2.35-7.76-3.25-7.66-3.67-7.66-3.67.15-.65,4.6-.37,6.79-.14s2.93.5,4.28.1a6.92,6.92,0,0,0,3.57-2.57c.67-1,.89-2.48,1.32-5.49.73-5.19.72-5.21.83-5.66,1-4,2.61-5.28,2.05-6.05-.9-1.23-6,.68-9.88,2.87A42,42,0,0,0,505,205a42,42,0,0,0-9.73-15.23c-3.2-3.14-7.58-6.32-8.77-5.38-.74.6.47,2.27.38,6.39,0,.46,0,.47-.7,5.67C485.79,199.48,485.6,201,486,202.11Z"/><path class="cls-2" d="M484.4,146.27c-.33,1.14,2.14,1.79,5.06,5.76.32.45.32.47,3.44,5.9,1.82,3.16,2.75,4.75,4,5.49a8.66,8.66,0,0,0,5.34,1.13c1.78-.21,2.63-.91,5-2.19s7.62-3.8,8.08-3.15c0,0,.3.41-7.45,7.82,0,0-2.54,2.35-2.5,4.08,0,1.52,2.14,2.44,6.36,4.27,4.46,1.94,6.57,2.08,8.21,1.93,1.3-.12,2.63-.25,3.31-1.17,1-1.42-.59-3.13-.28-5.75.16-1.32.84-3.14,3.23-5.27,2.93-.93,4.82-.62,6-.08,2.41,1.07,3,3.36,4.79,3.2,1.14-.11,1.94-1.19,2.71-2.25,1-1.32,1.93-3.2,2.56-8,.59-4.56.89-6.84-.4-7.65-1.46-.93-4.78,0-4.78,0-10.34,2.86-10.54,2.38-10.54,2.38-.32-.73,4.44-3.86,6.86-5.31s3.36-1.77,4.46-3.18a8.7,8.7,0,0,0,1.77-5.16c0-1.42-.91-3-2.68-6.21-3.05-5.48-3.08-5.48-3.29-6-1.91-4.55-1.2-7-2.34-7.3-1.82-.47-5.6,5.2-8,10.26a51.3,51.3,0,0,0-4.87,21.81,51.53,51.53,0,0,0-21.13-7C491.74,144.14,484.93,144.47,484.4,146.27Z"/><path class="cls-2" d="M536.55,211.56c-.08,1.29,2.71,1.58,6.77,5.41.45.43.45.46,5.08,5.84,2.69,3.12,4.07,4.7,5.53,5.3a9.43,9.43,0,0,0,6,.32c1.84-.54,2.58-1.45,4.81-3.25s7.2-5.45,7.85-4.82c0,0,.42.41-6.06,9.8,0,0-2.13,3-1.67,4.87.41,1.66,2.87,2.29,7.79,3.57,5.22,1.35,7.5,1.14,9.2.69,1.36-.35,2.75-.71,3.25-1.84.76-1.72-1.38-3.31-1.68-6.22-.15-1.46.13-3.56,2.16-6.29,2.9-1.52,5-1.5,6.42-1.12,2.82.75,4,3.14,5.87,2.66,1.18-.31,1.77-1.62,2.34-2.9.71-1.62,1.28-3.83.79-9.2-.47-5.06-.7-7.6-2.27-8.26-1.78-.76-5.08.87-5.08.87-10.31,4.87-10.64,4.39-10.64,4.39-.51-.74,3.8-5,6-7s3.15-2.5,4-4.23a9.41,9.41,0,0,0,.64-5.93c-.36-1.53-1.69-3.14-4.34-6.3-4.57-5.44-4.59-5.44-4.94-6-3.13-4.62-3-7.42-4.25-7.55-2.05-.21-4.71,6.62-6.06,12.55a56.93,56.93,0,0,0,.07,24.59,57.16,57.16,0,0,0-24.17-4C543.85,208,536.67,209.51,536.55,211.56Z"/><path class="cls-2" d="M461.21,217.77c-1.25-.87-5.42,2.58-8.41,5.91A42,42,0,0,0,444,239.56a42,42,0,0,0-14.15-11.25c-4-1.93-9.21-3.52-10-2.25-.52.81,1.18,2,2.42,5.92.14.44.13.45,1.18,5.59.61,3,.94,4.49,1.66,5.4a7,7,0,0,0,3.72,2.34c1.38.32,2.18,0,4.27-.36s6.59-.93,6.79-.29c0,0,.12.41-7.42,4.14,0,0-2.46,1.16-2.83,2.54-.33,1.21,1,2.5,3.74,5.09,2.88,2.75,4.42,3.43,5.68,3.76,1,.26,2,.52,2.75,0,1.11-.84.3-2.64,1.15-4.62a6.54,6.54,0,0,1,3.66-3.27,6.38,6.38,0,0,1,4.53,1.58c1.56,1.49,1.48,3.47,2.83,3.82.88.23,1.73-.41,2.55-1,1-.79,2.2-2,3.81-5.64,1.52-3.44,2.28-5.15,1.51-6.15s-3.58-1.26-3.58-1.26c-8.4-.56-8.44-1-8.44-1-.07-.66,4.23-1.84,6.38-2.32s2.93-.48,4.08-1.3a6.85,6.85,0,0,0,2.54-3.59c.32-1.12,0-2.64-.53-5.62-1-5.15-1-5.16-1-5.62C460.88,220.06,462,218.31,461.21,217.77Z"/><path class="cls-2" d="M470,281.66c-3.11-4.78-7.68-9.94-9.41-9.1-1.1.53-.05,2.95-1.3,8-.14.57-.16.58-2.42,6.86-1.31,3.65-2,5.5-1.78,7a8.82,8.82,0,0,0,2.49,5c1.29,1.25,2.38,1.44,4.88,2.43s7.79,3.37,7.57,4.19c0,0-.13.53-10.81-.42,0,0-3.44-.37-4.76.88s-.55,3.41.69,8c1.31,4.9,2.53,6.66,3.68,7.85.92,1,1.86,1.92,3,1.8,1.76-.17,2.07-2.66,4.31-4.25,1.12-.79,3-1.54,6.14-1.13,2.59,1.67,3.54,3.38,3.89,4.72.7,2.66-.69,4.76.54,6,.8.83,2.15.7,3.46.57,1.65-.16,3.72-.71,7.88-3.6,3.93-2.72,5.89-4.08,5.71-5.68-.2-1.8-3.05-3.75-3.05-3.75-8.76-6.18-8.53-6.67-8.52-6.67.36-.76,5.82.81,8.48,1.7s3.5,1.43,5.3,1.3a8.88,8.88,0,0,0,5.14-2.21c1.09-1,1.79-2.84,3.15-6.47,2.34-6.25,2.33-6.27,2.59-6.8,2.33-4.69,4.7-5.86,4.21-7-.78-1.76-7.6-.78-13.07.85a53.55,53.55,0,0,0-20.08,11.43A53.52,53.52,0,0,0,470,281.66Z"/><path class="cls-2" d="M572.13,412.83c1.66.05,2.32.22,3.35-.17a5.38,5.38,0,0,0,2.64-2.22c.47-.78.55-2,.71-4.36.27-4.1.26-4.11.32-4.47.55-3.17,1.74-4.28,1.25-4.85-.77-.9-4.61.89-7.54,2.82a32.65,32.65,0,0,0-9.81,10.28,32.81,32.81,0,0,0-8.49-11.33c-2.68-2.27-6.28-4.5-7.15-3.7-.55.51.5,1.75.66,5,0,.36,0,.37-.22,4.47-.12,2.38-.18,3.58.19,4.42a5.48,5.48,0,0,0,2.35,2.51c1,.51,1.66.43,3.31.57s5.18.61,5.2,1.13c0,0,0,.34-6.45,1.66,0,0-2.08.4-2.64,1.36s.28,2.11,1.82,4.61c1.64,2.65,2.67,3.47,3.56,4,.7.39,1.43.8,2.09.53,1-.41.75-1.93,1.79-3.27a5.13,5.13,0,0,1,3.41-1.75,5,5,0,0,1,3.13,2.1c.88,1.44.43,2.92,1.38,3.45.62.35,1.39,0,2.14-.27.94-.39,2.06-1.08,4-3.52s2.74-3.45,2.36-4.35-2.47-1.67-2.47-1.67c-6.25-2.09-6.2-2.43-6.2-2.43C566.92,412.81,570.41,412.77,572.13,412.83Z"/><path class="cls-2" d="M495.38,571.37c-1.2-1.07-6.28,1.83-10.08,4.78A44.26,44.26,0,0,0,473.18,591a44.11,44.11,0,0,0-13.47-13.56c-4.07-2.57-9.4-5-10.5-3.78-.69.74,1,2.2,1.65,6.39.08.47.06.48.36,5.87.18,3.13.28,4.71.91,5.75a7.45,7.45,0,0,0,3.64,2.95c1.45.52,2.37.31,4.69.25s7.29,0,7.4.71c0,0,.06.44-8.72,3.13,0,0-2.85.82-3.48,2.16s.7,2.71,3.21,5.76c2.67,3.22,4.23,4.14,5.54,4.66,1,.41,2.11.84,3,.39,1.34-.69.76-2.64,2-4.53.62-.95,1.85-2.09,4.49-2.8a7.05,7.05,0,0,1,4.65,2.28c1.44,1.76,1,3.76,2.44,4.32.91.36,1.93-.17,2.93-.68,1.26-.64,2.71-1.71,5.06-5.18,2.21-3.27,3.31-4.91,2.64-6-.76-1.28-3.68-1.82-3.68-1.82-9-1.81-9-2.26-9-2.26,0-.68,4.88-1.24,7.29-1.42s3.25-.06,4.64-.72a7.39,7.39,0,0,0,3.34-3.28c.53-1.1.47-2.68.34-5.81-.22-5.39-.24-5.41-.21-5.88C494.65,573.65,496.14,572,495.38,571.37Z"/><path class="cls-2" d="M452.64,468.46c2,1.78,2.64,2.66,4.29,3.28a8.62,8.62,0,0,0,5.39.16c1.33-.44,2.6-1.75,5.1-4.35,4.29-4.48,4.29-4.5,4.71-4.86,3.75-3.13,6.27-3.18,6.23-4.34-.08-1.85-6.53-3.76-12-4.56a50.81,50.81,0,0,0-22,1.79,50.81,50.81,0,0,0,.53-22c-1.1-5.42-3.37-11.75-5.23-11.72-1.16,0-1.07,2.54-4,6.46-.32.44-.35.44-4.58,5-2.46,2.64-3.7,4-4.05,5.33a8.45,8.45,0,0,0,.46,5.37c.71,1.62,1.62,2.22,3.51,4.1s5.79,6.08,5.31,6.7c0,0-.31.41-9.54-4.74,0,0-2.95-1.71-4.57-1.17-1.43.49-1.69,2.74-2.21,7.26-.55,4.78-.08,6.81.53,8.31.49,1.19,1,2.41,2.06,2.78,1.64.57,2.79-1.47,5.36-1.95,1.29-.23,3.21-.13,5.9,1.51,1.73,2.49,2,4.37,1.81,5.68-.31,2.59-2.29,3.85-1.64,5.46.43,1,1.68,1.47,2.9,1.89,1.53.53,3.58.89,8.33.07,4.48-.77,6.71-1.16,7.12-2.62.45-1.65-1.42-4.5-1.42-4.5-5.67-8.92-5.28-9.25-5.28-9.25C446.25,463,450.58,466.61,452.64,468.46Z"/><path class="cls-2" d="M532.57,259.73c2.66,0,3.73.27,5.38-.35a8.52,8.52,0,0,0,4.16-3.43c.72-1.2.81-3,1-6.63.28-6.2.26-6.22.35-6.76.75-4.82,2.62-6.52,1.82-7.37-1.27-1.34-7.39,1.47-12,4.47a50.83,50.83,0,0,0-15.39,15.84,50.77,50.77,0,0,0-14.08-16.89c-4.4-3.35-10.28-6.62-11.65-5.38-.87.78.86,2.62,1.25,7.49,0,.54,0,.56-.18,6.77-.11,3.6-.16,5.42.47,6.68a8.55,8.55,0,0,0,3.88,3.73c1.6.75,2.68.6,5.34.77s8.36.77,8.41,1.55c0,0,0,.51-10.3,2.71,0,0-3.35.65-4.21,2.13-.76,1.31.53,3.18,3.11,6.92,2.74,4,4.42,5.18,5.87,5.9,1.16.58,2.34,1.17,3.39.74,1.6-.65,1.13-2.95,2.75-5,.81-1,2.33-2.21,5.43-2.76,2.94.75,4.36,2,5.1,3.09,1.47,2.15.81,4.41,2.36,5.19,1,.5,2.24,0,3.43-.48,1.5-.61,3.28-1.7,6.31-5.44,2.86-3.53,4.29-5.29,3.64-6.65-.75-1.55-4-2.46-4-2.46-10.14-3-10.07-3.48-10.07-3.48C524.18,259.86,529.79,259.7,532.57,259.73Z"/><path class="cls-2" d="M635.42,382c-.52-4.51-.78-6.77-2.21-7.25-1.63-.55-4.58,1.16-4.58,1.16-9.22,5.15-9.53,4.75-9.53,4.75-.48-.63,3.34-4.75,5.3-6.71s2.81-2.48,3.52-4.09a8.53,8.53,0,0,0,.46-5.37c-.35-1.35-1.59-2.7-4-5.33-4.23-4.55-4.26-4.54-4.59-5-2.91-3.92-2.82-6.44-4-6.46-1.85,0-4.12,6.3-5.22,11.72a50.73,50.73,0,0,0,.52,22,50.76,50.76,0,0,0-22-1.78c-5.47.79-11.92,2.7-12,4.55,0,1.17,2.48,1.22,6.23,4.35.42.35.41.37,4.71,4.86,2.5,2.6,3.77,3.91,5.1,4.34a8.47,8.47,0,0,0,5.39-.16c1.65-.62,2.3-1.49,4.29-3.28s6.39-5.43,7-4.91c0,0,.39.33-5.28,9.25,0,0-1.87,2.85-1.42,4.5.4,1.45,2.64,1.84,7.12,2.61,4.75.82,6.8.47,8.33-.06,1.22-.42,2.47-.85,2.9-1.9.65-1.6-1.33-2.87-1.65-5.46-.15-1.31.09-3.18,1.82-5.68,2.69-1.63,4.61-1.74,5.9-1.5,2.56.47,3.72,2.51,5.36,2,1.07-.37,1.57-1.59,2.06-2.79C635.5,388.81,636,386.79,635.42,382Z"/><path class="cls-2" d="M561.63,503.51c-9.34,2.09-23.62,6.84-39.55,19-1.56-19.86-7.47-33.64-12.11-42-5.26-9.48-13.21-19.86-16.61-18.49-2.15.86-.47,5.57-3.53,15-.34,1.07-.38,1.08-5.5,12.68-3,6.72-4.45,10.14-4.3,13a16.74,16.74,0,0,0,4,9.83c2.28,2.55,4.32,3,8.93,5.26,4.79,2.31,14.29,7.42,13.77,8.94,0,0-.33,1-20.42-2.24,0,0-6.46-1.15-9.13,1-2.35,1.92-1.49,6.38.23,15.28,1.83,9.45,3.91,13,5.93,15.35,1.61,1.92,3.27,3.88,5.45,3.82,3.37-.09,4.28-4.77,8.74-7.48,2.23-1.36,5.84-2.51,11.78-1.33,4.67,3.51,6.24,6.88,6.73,9.47,1,5.12-2,8.92.21,11.49,1.41,1.68,4,1.61,6.48,1.54,3.14-.08,7.13-.86,15.41-5.77,7.8-4.63,11.7-6.94,11.57-10-.14-3.45-5.29-7.51-5.29-7.51-15.76-12.87-15.24-13.78-15.24-13.78.8-1.39,10.92,2.31,15.83,4.36,4.72,2,6.45,3.16,9.86,3.17a16.76,16.76,0,0,0,10-3.51c2.2-1.76,3.77-5.14,6.83-11.82,5.26-11.53,5.24-11.57,5.81-12.54,5-8.57,9.68-10.45,8.9-12.63C585.26,500.19,572.21,501.14,561.63,503.51Z"/></svg>