<svg id="Layer_1" data-name="Layer 1" xmlns="http://www.w3.org/2000/svg" viewBox="0 0 735.59 708.66"><defs><style>.cls-1{fill:#965f44;}.cls-2{fill:#fcbd38;}.cls-3{fill:#fedb48;}.cls-4{fill:#ffd627;}</style></defs><title>sunflower</title><path class="cls-1" d="M360.24,440.48c43-.25,81.62-25.3,96.82-62.79h-195C277.46,415.6,316.78,440.74,360.24,440.48Z"/><path class="cls-1" d="M358.92,228.71c-43,.26-81.63,25.3-96.83,62.8h195C441.69,253.6,402.37,228.46,358.92,228.71Z"/><path class="cls-1" d="M395.91,194.58c-.82-.47-1.58-1.06-2.39-1.56-1-.64-2.11-1.27-3.19-1.86s-2.34-1.18-3.52-1.74c-.82-.39-1.67-.72-2.49-1.11-1.13-.54-2.23-1.18-3.38-1.67s-2.63-1-3.95-1.48c-.34-.13-.71-.16-1.05-.29a17.57,17.57,0,0,0-6.55-1,1.81,1.81,0,0,0-1.35.52c-.59.63-1.21,1.24-1.76,1.9a27.78,27.78,0,0,1-2.88,3,11.1,11.1,0,0,1-4.23,2.25,7,7,0,0,1-2.58.51,2,2,0,0,1-1.7-.73,14.26,14.26,0,0,0-2.15-2.9,7,7,0,0,0-1.2-1.05,3.51,3.51,0,0,0-2.34-.37.8.8,0,0,1-.67-.23,3.05,3.05,0,0,0-1.45-.89.4.4,0,0,0-.34.1.46.46,0,0,0,0,.36c.09.18.23.33.33.5a12.69,12.69,0,0,1,.83,1.48,11.11,11.11,0,0,1,.41,1.53,5.73,5.73,0,0,1,.08,3.38.5.5,0,0,1-.27.3c-.56.17-1.12.34-1.69.46a10.08,10.08,0,0,1-5.25-.43c-1.76-.58-3.46-1.32-5.18-2a3.73,3.73,0,0,0-2.55-.12,13.74,13.74,0,0,0-3.6,2c-.66.46-1.25,1-1.89,1.49s-1.12.75-1.63,1.17-.77.79-1.16,1.17-.77.64-1.1,1c-.84.92-1.63,1.88-2.47,2.8s-1.84,1.86-2.68,2.85c-1.06,1.25-2.06,2.55-3.06,3.85-.39.52-.7,1.1-1.06,1.65a13.47,13.47,0,0,0-1.84,3.4,8.05,8.05,0,0,1-.43,1s0,.11,0,.16,0,.37,0,.59l.29-.23c0,.22.09.47.35.3a4.22,4.22,0,0,0,1.33-1c.39-.63,1-1,1.43-1.59.18-.31.56-.49.8-.69-.2.6-.41,1.28-.65,1.95-.12.35-.22.68.2.81.14,0,.26-.13.34-.1.45.15.74-.1,1-.36l2-1.66a1.34,1.34,0,0,1,.23-.13l.3.32c.12-.56.44-.56.83-.43a.64.64,0,0,0,.4-.12c.46-.3.92-.61,1.39-.9a1.79,1.79,0,0,1,.37-.11,2,2,0,0,0,.56-.15,11,11,0,0,0,1-.69c.46-.32.91-.67,1.38-1,.77-.5,1.59-.93,2.35-1.45a17.94,17.94,0,0,1,2.74-1.62,10.56,10.56,0,0,0,1.19-.73c.07-.05.15-.13.22-.13a2.94,2.94,0,0,0,1.42-.38,4.85,4.85,0,0,1,2.52-.25c.48,0,.94.34,1.44.08.06,0,.18,0,.27.05.82.24,1.64.49,2.47.72a2.64,2.64,0,0,0,.63.06,1.61,1.61,0,0,1,.54,0c.43.18.83.43,1.25.61a1.94,1.94,0,0,0,.59.05,3,3,0,0,0-.08-.59,4.56,4.56,0,0,0-.3-.58l.1-.09c.22.11.43.23.66.33a16.77,16.77,0,0,0,1.83.69c.63.16,1.29.18,1.92.31s1.44.39,2.16.56a1.07,1.07,0,0,0,.39-.05c.61,1,1.2,2,1.83,3a2.73,2.73,0,0,1,.43,1.37c0,.25.05.49.08.73.2,1.42.4,2.85.59,4.28a1.62,1.62,0,0,0,.93,1.33,2.89,2.89,0,0,0,1.67.23c1.09-.15,2.19-.26,3.28-.42a4.17,4.17,0,0,0,1.92-.64.67.67,0,0,0,.37-.76c-.28-1.13-.56-2.25-.87-3.36-.24-.85-.53-1.67-.77-2.51a3.29,3.29,0,0,1-.15-.93c0-.65.09-1.29.12-1.94,0-.84,0-1.69,0-2.5a3.2,3.2,0,0,0,1-.13c.67-.33,1.28-.77,1.93-1.14s1.23-.64,1.86-.93,1.21-.49,1.8-.77,1.08-.57,1.62-.85l1.2-.65,1.09-.55c.89-.47,1.61-1.22,2.51-1.68.48-.25.89-.62,1.35-.92s.64-.34,1-.5l.58-.25a6.9,6.9,0,0,1,1.3-.18,11.15,11.15,0,0,1,1.69-.15,9.55,9.55,0,0,1,2.47.34c.93.31,1.93.42,2.89.66a16.19,16.19,0,0,0,1.8.54c1.08.15,2.09.54,3.14.79.26.07.55.23.74-.15,0,0,.22,0,.33,0l.93.21a1.9,1.9,0,0,1,.65.19c.32.21.51.1.73-.14a.47.47,0,0,1,.35-.16c.66.14,1.3.32,1.95.47a.5.5,0,0,0,.42-.09c.2-.21.4-.16.63-.09l1.37.45a.62.62,0,0,0,.66-.12.65.65,0,0,1,.54-.11c.38.11.74.31,1.11.45a1,1,0,0,0,1.21-.32c-.67-.63-1.32-1.3-2-1.9A17.16,17.16,0,0,0,395.91,194.58Z"/><path class="cls-2" d="M572.61,227.82c.48-.25.9-.62,1.36-.91a9.85,9.85,0,0,1,1-.51l.58-.25a6.9,6.9,0,0,1,1.3-.18,12.61,12.61,0,0,1,1.69-.15,9.61,9.61,0,0,1,2.47.34c.93.31,1.93.42,2.88.66a17.57,17.57,0,0,0,1.8.54c1.09.16,2.1.54,3.15.8.26.06.54.23.73-.15,0,0,.22,0,.33,0,.32.06.63.14.94.21a2,2,0,0,1,.65.19c.32.21.51.1.73-.14a.46.46,0,0,1,.35-.16c.65.14,1.3.32,2,.47a.5.5,0,0,0,.42-.09.52.52,0,0,1,.62-.09l1.38.45a.61.61,0,0,0,.66-.12.65.65,0,0,1,.54-.11c.38.11.74.31,1.11.45a1,1,0,0,0,1.2-.31c-.66-.64-1.32-1.31-2-1.91a17.16,17.16,0,0,0-2.65-2.07c-.82-.47-1.58-1.06-2.39-1.56-1.05-.64-2.11-1.27-3.19-1.85s-2.34-1.19-3.52-1.75c-.82-.39-1.67-.72-2.49-1.11-1.14-.54-2.23-1.17-3.39-1.67s-2.62-1-3.94-1.48c-.34-.13-.71-.16-1.05-.29a17.8,17.8,0,0,0-6.55-.95,1.85,1.85,0,0,0-1.35.52c-.59.63-1.21,1.24-1.77,1.9a26.75,26.75,0,0,1-2.87,3,11.1,11.1,0,0,1-4.23,2.25,7,7,0,0,1-2.59.51,2,2,0,0,1-1.69-.73,14.26,14.26,0,0,0-2.15-2.9,7.47,7.47,0,0,0-1.21-1.05,3.42,3.42,0,0,0-2.33-.36.84.84,0,0,1-.67-.24,3.05,3.05,0,0,0-1.45-.89.4.4,0,0,0-.34.1.42.42,0,0,0,0,.36c.09.18.24.33.34.5a14.34,14.34,0,0,1,.83,1.48,11.11,11.11,0,0,1,.41,1.53,5.73,5.73,0,0,1,.08,3.38.49.49,0,0,1-.28.3c-.55.17-1.11.34-1.68.46a10,10,0,0,1-5.26-.43c-1.75-.58-3.45-1.32-5.17-2a3.79,3.79,0,0,0-2.55-.12,13.34,13.34,0,0,0-3.6,2c-.66.45-1.26,1-1.89,1.48s-1.12.75-1.64,1.17-.76.79-1.16,1.17-.76.64-1.09,1c-.84.92-1.63,1.89-2.47,2.8s-1.84,1.86-2.69,2.85c-1.06,1.25-2,2.55-3,3.85-.39.52-.7,1.1-1.06,1.65a12.87,12.87,0,0,0-1.84,3.4,9.87,9.87,0,0,1-.43,1,.94.94,0,0,0,0,.16c0,.19,0,.37,0,.6l.3-.24c0,.22.09.48.34.31a4.32,4.32,0,0,0,1.34-1c.39-.63,1.05-1,1.42-1.59a3.27,3.27,0,0,1,.81-.69c-.2.6-.42,1.28-.65,2-.12.34-.22.67.2.8.13,0,.25-.13.34-.1.44.15.73-.1,1-.36.64-.56,1.3-1.11,2-1.66a1,1,0,0,1,.23-.13l.3.32c.12-.56.44-.56.83-.43a.6.6,0,0,0,.39-.12c.47-.29.93-.61,1.4-.9a1.36,1.36,0,0,1,.36-.1,2.09,2.09,0,0,0,.57-.16c.34-.2.66-.45,1-.69s.9-.67,1.38-1c.77-.49,1.58-.93,2.35-1.45a18.8,18.8,0,0,1,2.74-1.62,9.62,9.62,0,0,0,1.18-.73c.08,0,.15-.13.23-.13a2.86,2.86,0,0,0,1.42-.38,4.85,4.85,0,0,1,2.52-.25c.48,0,.93.34,1.43.09.07,0,.19,0,.28,0,.82.24,1.64.49,2.47.72a2.64,2.64,0,0,0,.63.06,1.92,1.92,0,0,1,.54,0c.42.18.82.43,1.25.61a1.89,1.89,0,0,0,.59.05,3,3,0,0,0-.08-.59,4.56,4.56,0,0,0-.3-.58l.09-.09c.22.11.44.24.67.33a16.77,16.77,0,0,0,1.83.69c.62.16,1.29.18,1.92.32s1.44.38,2.16.55a1.07,1.07,0,0,0,.39-.05c.6,1,1.2,2,1.83,3a2.83,2.83,0,0,1,.43,1.37c0,.25,0,.49.08.73.2,1.43.4,2.85.59,4.28a1.56,1.56,0,0,0,.92,1.33,2.93,2.93,0,0,0,1.68.23c1.09-.14,2.18-.25,3.27-.41a4.35,4.35,0,0,0,1.93-.65.67.67,0,0,0,.37-.76c-.28-1.12-.56-2.25-.88-3.36-.23-.84-.52-1.67-.76-2.51a3,3,0,0,1-.15-.93c0-.65.09-1.29.11-1.94,0-.84,0-1.68,0-2.5a3.24,3.24,0,0,0,1-.13c.67-.33,1.28-.77,1.93-1.14s1.23-.64,1.86-.93,1.21-.49,1.8-.77,1.08-.57,1.62-.85.79-.44,1.2-.65l1.09-.55C571,229,571.71,228.29,572.61,227.82Z"/><path class="cls-1" d="M223.4,215.53c.25.06.54.23.73-.15,0,0,.22,0,.33,0q.47.09.93.21a2,2,0,0,1,.66.18c.31.22.5.11.72-.13a.47.47,0,0,1,.35-.16c.66.14,1.3.32,2,.46a.5.5,0,0,0,.42-.08.49.49,0,0,1,.62-.09l1.37.45a.62.62,0,0,0,.67-.13.7.7,0,0,1,.53-.11c.39.12.74.31,1.12.46a1,1,0,0,0,1.2-.32c-.67-.63-1.32-1.3-2-1.9a18.31,18.31,0,0,0-2.64-2.08c-.83-.47-1.58-1.06-2.39-1.55-1.06-.65-2.11-1.28-3.2-1.86s-2.34-1.18-3.52-1.74c-.82-.39-1.67-.72-2.49-1.11-1.13-.55-2.23-1.18-3.38-1.67s-2.63-1-4-1.49c-.34-.12-.71-.15-1-.28a17.42,17.42,0,0,0-6.56-.95,1.74,1.74,0,0,0-1.34.52c-.6.63-1.22,1.24-1.77,1.9a27.69,27.69,0,0,1-2.87,3,11.35,11.35,0,0,1-4.24,2.25,7.14,7.14,0,0,1-2.58.51,2,2,0,0,1-1.7-.74,14.49,14.49,0,0,0-2.14-2.9,8,8,0,0,0-1.21-1.05,3.49,3.49,0,0,0-2.33-.36.78.78,0,0,1-.68-.24,3,3,0,0,0-1.44-.88.41.41,0,0,0-.35.1.44.44,0,0,0,0,.35c.09.18.23.33.33.51a6.77,6.77,0,0,1,1.25,3,5.73,5.73,0,0,1,.07,3.38.53.53,0,0,1-.27.3c-.56.17-1.12.34-1.68.46a10.12,10.12,0,0,1-5.26-.44c-1.75-.58-3.45-1.32-5.18-2a3.72,3.72,0,0,0-2.55-.13,13.77,13.77,0,0,0-3.6,2c-.65.46-1.25,1-1.89,1.49s-1.12.74-1.63,1.17-.77.79-1.16,1.17-.76.63-1.1,1c-.83.92-1.63,1.88-2.47,2.8s-1.83,1.86-2.68,2.85c-1.06,1.25-2.06,2.55-3.05,3.85-.4.52-.71,1.1-1.07,1.64a13.35,13.35,0,0,0-1.83,3.41c-.11.34-.29.67-.44,1,0,0,0,.1,0,.15s0,.38,0,.6l.3-.23c0,.22.08.47.34.3a4.11,4.11,0,0,0,1.33-1.05c.39-.63,1.05-1,1.43-1.59a3,3,0,0,1,.8-.68c-.19.59-.41,1.28-.65,1.95-.12.35-.21.67.21.81.13,0,.25-.13.33-.1.45.14.74-.1,1-.37l2-1.66a1.79,1.79,0,0,1,.24-.12l.3.32c.11-.56.43-.56.83-.44.11,0,.27,0,.39-.12.47-.29.92-.6,1.39-.89a1.14,1.14,0,0,1,.37-.11,2.18,2.18,0,0,0,.57-.15c.34-.21.66-.46,1-.69s.9-.67,1.37-1c.78-.5,1.59-.94,2.35-1.45a18.44,18.44,0,0,1,2.74-1.62,11.15,11.15,0,0,0,1.19-.73.62.62,0,0,1,.23-.14,2.82,2.82,0,0,0,1.41-.38,5,5,0,0,1,2.52-.25c.48,0,.94.35,1.44.09.07,0,.18,0,.27.05l2.47.72a4.34,4.34,0,0,0,.63.06,1.59,1.59,0,0,1,.54,0c.43.18.83.43,1.26.61a1.89,1.89,0,0,0,.59.05,3.64,3.64,0,0,0-.09-.59,4.6,4.6,0,0,0-.29-.59l.09-.09c.22.11.43.24.66.33a14.55,14.55,0,0,0,1.83.69c.63.17,1.29.18,1.92.32s1.44.38,2.17.56a1,1,0,0,0,.38-.06c.61,1,1.21,2,1.83,3.05a2.67,2.67,0,0,1,.43,1.37c0,.24.05.48.08.73l.6,4.28a1.56,1.56,0,0,0,.92,1.32,2.92,2.92,0,0,0,1.67.24c1.09-.15,2.19-.26,3.28-.42a4.37,4.37,0,0,0,1.93-.64.67.67,0,0,0,.36-.77c-.28-1.12-.56-2.24-.87-3.36-.23-.84-.52-1.66-.77-2.5a3.69,3.69,0,0,1-.15-.93c0-.65.1-1.3.12-1.94,0-.84,0-1.69,0-2.51a2.68,2.68,0,0,0,1-.13c.67-.33,1.28-.77,1.94-1.13s1.22-.65,1.85-.94,1.21-.49,1.8-.77,1.08-.56,1.62-.85l1.2-.64,1.09-.56c.9-.46,1.61-1.21,2.51-1.67.48-.25.9-.63,1.36-.92a9.66,9.66,0,0,1,1-.5,5.79,5.79,0,0,1,.57-.25,6.18,6.18,0,0,1,1.3-.19,14.7,14.7,0,0,1,1.69-.15,10.08,10.08,0,0,1,2.48.34c.93.31,1.92.43,2.88.66a15.45,15.45,0,0,0,1.8.55A30.86,30.86,0,0,1,223.4,215.53Z"/><path class="cls-3" d="M614.9,268.05a10.56,10.56,0,0,0-1.8-.76c-.53-.14-1-.35-1.57-.51-.69-.2-1.38-.39-2.07-.55s-1.49-.31-2.24-.44c-.52-.1-1.05-.15-1.57-.25-.72-.13-1.43-.31-2.15-.42s-1.62-.16-2.44-.22c-.21,0-.42,0-.63,0a10.09,10.09,0,0,0-3.82.46,1.06,1.06,0,0,0-.68.51c-.24.44-.5.88-.71,1.33a16,16,0,0,1-1.17,2.11,6.57,6.57,0,0,1-2,1.91,4,4,0,0,1-1.37.68,1.11,1.11,0,0,1-1.06-.15,8.16,8.16,0,0,0-1.64-1.3,5,5,0,0,0-.84-.41,2,2,0,0,0-1.36.16.48.48,0,0,1-.42,0,1.83,1.83,0,0,0-.94-.27c-.07,0-.16.05-.18.11a.22.22,0,0,0,.07.19c.07.09.18.15.26.24a7.6,7.6,0,0,1,.69.7,6.94,6.94,0,0,1,.46.8,3.39,3.39,0,0,1,.55,1.88.33.33,0,0,1-.11.22c-.29.18-.58.36-.88.51a5.75,5.75,0,0,1-3,.56c-1.07-.05-2.13-.21-3.2-.32a2.17,2.17,0,0,0-1.45.32,8.06,8.06,0,0,0-1.73,1.67c-.3.35-.56.75-.84,1.12s-.52.59-.74.91a8.68,8.68,0,0,0-.48.84c-.15.24-.34.47-.47.73-.33.64-.63,1.3-1,1.95s-.75,1.32-1.08,2c-.41.86-.77,1.75-1.14,2.63-.14.35-.23.73-.35,1.09a7.86,7.86,0,0,0-.52,2.19,4.72,4.72,0,0,1-.1.64V291c0,.11.05.21.08.34l.13-.18c.06.12.12.26.24.12a2.44,2.44,0,0,0,.59-.79c.13-.41.45-.7.57-1.11a1.71,1.71,0,0,1,.35-.51c0,.36,0,.78-.08,1.2,0,.21,0,.41.24.42.07,0,.12-.11.17-.11.27,0,.4-.17.53-.36.28-.42.57-.83.86-1.24a.36.36,0,0,1,.11-.1l.21.13c0-.33.16-.38.41-.37.06,0,.14-.07.2-.13.22-.23.43-.48.65-.71a.62.62,0,0,1,.19-.12,1.17,1.17,0,0,0,.29-.17c.17-.17.31-.36.46-.54s.4-.52.62-.76c.37-.4.76-.77,1.11-1.17a10.21,10.21,0,0,1,1.3-1.33,6.31,6.31,0,0,0,.55-.6s.07-.09.11-.11a1.6,1.6,0,0,0,.74-.43,2.86,2.86,0,0,1,1.38-.52c.27-.07.58.05.82-.17,0,0,.11,0,.16,0l1.5,0a1.53,1.53,0,0,0,.36-.07,1.13,1.13,0,0,1,.31-.06c.26,0,.52.11.79.15a1.35,1.35,0,0,0,.34-.06,1.53,1.53,0,0,0-.13-.32A2.35,2.35,0,0,0,585,281l0-.06a3.1,3.1,0,0,0,.42.08,8.79,8.79,0,0,0,1.14.11c.37,0,.75-.09,1.12-.11s.87,0,1.3,0c.07,0,.14-.06.21-.09.49.47,1,1,1.48,1.43a1.6,1.6,0,0,1,.45.7c0,.14.1.27.15.4l1,2.31a.89.89,0,0,0,.71.61,1.66,1.66,0,0,0,1-.13l1.78-.73a2.69,2.69,0,0,0,1-.66.42.42,0,0,0,.09-.49c-.33-.58-.66-1.17-1-1.75s-.54-.86-.8-1.29a2,2,0,0,1-.23-.5c-.09-.37-.14-.74-.22-1.11s-.24-.95-.36-1.41a1.91,1.91,0,0,0,.53-.22c.33-.29.6-.63.92-.94s.59-.55.9-.81.61-.46.9-.7.52-.49.78-.73l.58-.55.53-.48c.43-.39.72-.92,1.15-1.32.24-.22.42-.49.63-.72a4.79,4.79,0,0,1,.47-.43,3.11,3.11,0,0,1,.28-.23,4.38,4.38,0,0,1,.7-.31,8.15,8.15,0,0,1,.93-.34,5.75,5.75,0,0,1,1.44-.19,16.49,16.49,0,0,0,1.72-.07,10.11,10.11,0,0,0,1.09,0,14.91,14.91,0,0,1,1.89,0c.15,0,.34,0,.39-.2,0,0,.12-.05.19-.05s.37,0,.55,0a1.33,1.33,0,0,1,.4,0c.21.07.3,0,.38-.19s.12-.14.18-.14c.39,0,.78,0,1.16,0a.3.3,0,0,0,.23-.11c.08-.16.2-.16.33-.15l.84,0a.37.37,0,0,0,.36-.17.35.35,0,0,1,.28-.14c.23,0,.46.06.7.08a.57.57,0,0,0,.62-.36C615.85,268.56,615.39,268.28,614.9,268.05Z"/><path class="cls-1" d="M485.71,210.56a5.85,5.85,0,0,1-3,.56c-1.07-.05-2.13-.21-3.2-.32a2.18,2.18,0,0,0-1.45.32,8.06,8.06,0,0,0-1.73,1.67c-.3.35-.55.75-.84,1.12s-.52.59-.74.91a8.68,8.68,0,0,0-.48.84c-.15.24-.33.47-.47.73-.33.64-.63,1.3-1,2s-.75,1.32-1.08,2c-.41.86-.77,1.75-1.14,2.63-.14.35-.23.73-.35,1.09a7.86,7.86,0,0,0-.52,2.19,4.72,4.72,0,0,1-.1.64V227c0,.11.05.21.08.34l.13-.18c.06.12.12.26.24.12a2.44,2.44,0,0,0,.59-.79c.13-.41.45-.7.57-1.11a1.71,1.71,0,0,1,.35-.51c0,.36,0,.78-.07,1.2,0,.21,0,.41.23.42.07,0,.12-.11.17-.11.28,0,.4-.17.53-.36.28-.42.57-.83.86-1.24a.52.52,0,0,1,.11-.1l.22.13c0-.33.16-.38.4-.37a.35.35,0,0,0,.2-.13c.22-.23.43-.48.65-.71a.62.62,0,0,1,.19-.12,1.17,1.17,0,0,0,.29-.17c.17-.17.31-.36.46-.54s.4-.52.63-.76c.36-.4.75-.77,1.1-1.17a11,11,0,0,1,1.3-1.34,5.25,5.25,0,0,0,.56-.59s.06-.09.1-.11a1.6,1.6,0,0,0,.74-.43,2.86,2.86,0,0,1,1.38-.52c.27-.07.58,0,.82-.17,0,0,.11,0,.16,0l1.5,0a1.53,1.53,0,0,0,.36-.07.85.85,0,0,1,.31-.06c.26,0,.53.11.79.15a1.35,1.35,0,0,0,.34-.06,1.53,1.53,0,0,0-.13-.32,2.35,2.35,0,0,0-.26-.29l0-.06a3.1,3.1,0,0,0,.42.08,8.79,8.79,0,0,0,1.14.11c.37,0,.75-.09,1.12-.12s.87,0,1.3,0c.07,0,.14-.06.21-.09.49.47,1,1,1.48,1.43a1.6,1.6,0,0,1,.45.7c0,.14.1.27.15.4l1,2.31a.89.89,0,0,0,.71.61,1.66,1.66,0,0,0,1-.13l1.78-.73a2.61,2.61,0,0,0,1-.66.42.42,0,0,0,.09-.49c-.33-.58-.65-1.17-1-1.75s-.54-.86-.8-1.29a2,2,0,0,1-.22-.5c-.1-.37-.14-.74-.23-1.11s-.24-.95-.35-1.41a2,2,0,0,0,.52-.22c.33-.29.61-.63.92-.94s.59-.55.9-.81.61-.46.9-.7.52-.49.78-.73l.58-.55.53-.48c.43-.39.72-.92,1.16-1.32.23-.22.41-.49.62-.72a6.29,6.29,0,0,1,.47-.43,2.83,2.83,0,0,1,.28-.23,4.12,4.12,0,0,1,.71-.31,7.39,7.39,0,0,1,.92-.34,5.75,5.75,0,0,1,1.44-.19,16.49,16.49,0,0,0,1.72-.07,10.11,10.11,0,0,0,1.09,0,15,15,0,0,1,1.89,0c.16,0,.34,0,.39-.2,0,0,.12-.05.19-.05s.37,0,.55,0a1.32,1.32,0,0,1,.4,0c.21.07.3,0,.38-.19s.12-.14.18-.14c.39,0,.78,0,1.17,0a.3.3,0,0,0,.22-.11c.08-.16.2-.16.34-.15l.83,0a.37.37,0,0,0,.36-.17.35.35,0,0,1,.28-.14c.24,0,.47.06.7.08a.59.59,0,0,0,.63-.36c-.47-.25-.94-.53-1.43-.76a10.23,10.23,0,0,0-1.8-.76c-.53-.14-1-.35-1.57-.51-.69-.2-1.38-.39-2.07-.55s-1.49-.31-2.24-.44c-.52-.1-1.05-.15-1.57-.25-.72-.13-1.43-.31-2.15-.42s-1.62-.16-2.44-.22c-.2,0-.42,0-.63,0a10.09,10.09,0,0,0-3.82.46,1.08,1.08,0,0,0-.68.5c-.24.45-.5.89-.71,1.34a16.67,16.67,0,0,1-1.17,2.11,6.64,6.64,0,0,1-2,1.91,4,4,0,0,1-1.38.68,1.11,1.11,0,0,1-1.06-.15,8.16,8.16,0,0,0-1.64-1.3,4.66,4.66,0,0,0-.84-.41,2,2,0,0,0-1.36.16.48.48,0,0,1-.42,0,1.83,1.83,0,0,0-.94-.27c-.07,0-.16.05-.18.11a.22.22,0,0,0,.07.19c.07.09.18.15.26.24a7.6,7.6,0,0,1,.69.7,6.94,6.94,0,0,1,.46.8,3.39,3.39,0,0,1,.55,1.88.29.29,0,0,1-.11.21A8.82,8.82,0,0,1,485.71,210.56Z"/><path class="cls-3" d="M260.52,133.35a2.21,2.21,0,0,0,.87-.47c.29-.32.7-.44,1-.77a2.22,2.22,0,0,1,.53-.31l-.56,1.06c-.1.18-.19.36,0,.48.08,0,.16-.05.2,0,.24.13.43,0,.63-.1l1.29-.76.14,0a1.51,1.51,0,0,1,.14.21c.13-.31.31-.28.52-.17a.34.34,0,0,0,.24,0l.88-.37a.85.85,0,0,1,.23,0,1.31,1.31,0,0,0,.34,0c.21-.08.42-.2.63-.3s.58-.29.89-.42c.49-.21,1-.38,1.48-.59a10.09,10.09,0,0,1,1.73-.66,6.9,6.9,0,0,0,.75-.3.47.47,0,0,1,.15-.06,1.56,1.56,0,0,0,.85-.08,2.86,2.86,0,0,1,1.47.11c.27.05.5.29.81.2,0,0,.11,0,.15.05l1.35.66a2.12,2.12,0,0,0,.36.1.73.73,0,0,1,.3.07c.23.14.44.32.66.47a1.21,1.21,0,0,0,.34.09c0-.12,0-.24,0-.35a3.16,3.16,0,0,0-.12-.37l.07,0c.11.09.22.18.34.26a9.84,9.84,0,0,0,1,.58c.34.15.72.23,1.07.37s.79.36,1.18.53a.6.6,0,0,0,.23,0c.25.64.49,1.29.76,1.93a1.68,1.68,0,0,1,.11.83,3,3,0,0,0,0,.42c0,.84,0,1.68-.08,2.52a.93.93,0,0,0,.4.85,1.64,1.64,0,0,0,.94.3c.64,0,1.28.07,1.92.09a2.5,2.5,0,0,0,1.17-.18.4.4,0,0,0,.28-.4q-.07-1-.18-2c-.05-.51-.13-1-.19-1.52a2,2,0,0,1,0-.55c.07-.37.18-.73.26-1.1s.17-1,.26-1.43a1.81,1.81,0,0,0,.57,0c.41-.12.81-.31,1.22-.46s.76-.25,1.15-.35.74-.16,1.11-.26.68-.22,1-.33l.75-.25.68-.21c.56-.18,1-.54,1.6-.71.3-.1.58-.27.87-.39a6,6,0,0,1,.6-.2l.35-.08a3.32,3.32,0,0,1,.77,0,7.62,7.62,0,0,1,1,.08,5.91,5.91,0,0,1,1.39.44,17.2,17.2,0,0,0,1.59.67,9,9,0,0,0,1,.49c.6.2,1.15.52,1.72.77.15.06.29.18.44,0,0,0,.13,0,.19,0l.52.21a1,1,0,0,1,.35.17c.16.15.28.11.43,0a.27.27,0,0,1,.22-.06c.36.14.71.31,1.07.46a.27.27,0,0,0,.25,0,.31.31,0,0,1,.37,0l.74.4a.35.35,0,0,0,.39,0,.4.4,0,0,1,.32,0c.21.1.4.25.6.37a.59.59,0,0,0,.72-.06c-.32-.43-.63-.88-1-1.29a10.1,10.1,0,0,0-1.32-1.45c-.42-.36-.8-.77-1.22-1.13s-1.08-1-1.65-1.39-1.22-.91-1.85-1.35c-.43-.31-.89-.58-1.32-.88-.6-.43-1.16-.9-1.78-1.3s-1.41-.83-2.12-1.24c-.18-.1-.39-.16-.57-.27a10.35,10.35,0,0,0-3.67-1.19,1,1,0,0,0-.82.16c-.4.3-.82.59-1.2.92a15.63,15.63,0,0,1-1.93,1.41,6.58,6.58,0,0,1-2.65.87,4.14,4.14,0,0,1-1.53,0,1.12,1.12,0,0,1-.9-.59,8.44,8.44,0,0,0-.95-1.87,4.71,4.71,0,0,0-.59-.73,2.11,2.11,0,0,0-1.31-.44.46.46,0,0,1-.36-.2,1.79,1.79,0,0,0-.74-.65.25.25,0,0,0-.21,0,.25.25,0,0,0,0,.21c0,.11.1.21.14.32a8,8,0,0,1,.34.93c.06.3.06.61.09.92a3.37,3.37,0,0,1-.29,2,.31.31,0,0,1-.18.14,8.85,8.85,0,0,1-1,.1,5.94,5.94,0,0,1-3-.77c-.95-.51-1.85-1.1-2.77-1.66a2.24,2.24,0,0,0-1.45-.32,7.77,7.77,0,0,0-2.26.78c-.42.2-.82.45-1.23.66s-.71.32-1,.52a8.43,8.43,0,0,0-.78.55c-.24.16-.5.29-.73.47-.57.44-1.11.91-1.68,1.36s-1.24.88-1.82,1.36-1.43,1.26-2.13,1.91c-.27.26-.51.56-.76.84a7.66,7.66,0,0,0-1.39,1.76,3.84,3.84,0,0,1-.35.54l0,.09-.07.34.19-.11C260.36,133.27,260.36,133.42,260.52,133.35Z"/><path class="cls-3" d="M410.82,119a2.38,2.38,0,0,0,1-.15c.37-.2.8-.18,1.17-.39a1.86,1.86,0,0,1,.6-.11l-.88.8c-.16.14-.3.28-.13.47.08,0,.17,0,.2,0a.57.57,0,0,0,.63.12l1.47-.27a.75.75,0,0,1,.15,0c0,.08,0,.14.06.25.22-.25.38-.16.55,0a.29.29,0,0,0,.23,0l1,0a.83.83,0,0,1,.21.06,1.32,1.32,0,0,0,.33.08c.24,0,.47,0,.7-.06s.65-.08,1-.09c.53,0,1.07,0,1.6-.05a9.53,9.53,0,0,1,1.85,0,7.31,7.31,0,0,0,.81,0c.05,0,.11,0,.15,0a1.76,1.76,0,0,0,.82.22,2.84,2.84,0,0,1,1.35.6c.24.14.38.45.71.46,0,0,.08.06.12.1.35.36.69.73,1.05,1.08a1.66,1.66,0,0,0,.3.22,1.24,1.24,0,0,1,.27.17c.16.21.29.46.46.67a1.42,1.42,0,0,0,.28.2,1.33,1.33,0,0,0,.13-.33,2.38,2.38,0,0,0,0-.38l.08,0c.08.12.15.25.24.36a9,9,0,0,0,.73.88c.27.27.6.47.88.72s.63.61.94.91a.49.49,0,0,0,.21.08c0,.69,0,1.39.07,2.08a1.66,1.66,0,0,1-.17.82c-.06.12-.11.26-.16.39-.31.78-.61,1.56-.91,2.34a.91.91,0,0,0,.09.94,1.72,1.72,0,0,0,.78.6c.59.24,1.18.51,1.78.74a2.37,2.37,0,0,0,1.15.23.39.39,0,0,0,.41-.28c.17-.65.35-1.3.5-1.95.12-.5.21-1,.33-1.5a1.94,1.94,0,0,1,.18-.51c.19-.32.42-.63.61-1s.49-.85.72-1.26a1.75,1.75,0,0,0,.53.22c.44,0,.87,0,1.3,0s.81,0,1.21.07.75.1,1.13.13.71,0,1.06,0l.79,0,.71,0c.58,0,1.15-.15,1.74-.12.32,0,.63-.06.95-.07s.42,0,.63,0l.36,0a3.92,3.92,0,0,1,.71.29,7.44,7.44,0,0,1,.9.41,5.78,5.78,0,0,1,1.16.89c.38.43.85.77,1.27,1.17.27.25.47.58.76.8.5.39.91.88,1.37,1.31.11.11.21.28.41.14,0,0,.12,0,.17.09l.42.38c.09.09.22.17.27.28s.23.2.41.14a.27.27,0,0,1,.22,0l.86.81a.32.32,0,0,0,.24.08c.16-.06.25,0,.34.13l.57.62a.33.33,0,0,0,.37.13.41.41,0,0,1,.3.1c.16.17.29.38.44.56a.6.6,0,0,0,.7.19c-.16-.52-.3-1.05-.49-1.56a11,11,0,0,0-.76-1.81c-.28-.48-.5-1-.77-1.48-.35-.64-.71-1.26-1.09-1.87s-.85-1.28-1.29-1.91c-.3-.43-.64-.84-.95-1.28-.42-.6-.8-1.24-1.24-1.83s-1-1.27-1.58-1.89c-.14-.16-.32-.28-.45-.45a10.36,10.36,0,0,0-3.05-2.38,1.05,1.05,0,0,0-.83-.13c-.48.15-1,.28-1.43.45a15.16,15.16,0,0,1-2.3.67,6.52,6.52,0,0,1-2.78-.08,4.17,4.17,0,0,1-1.45-.5,1.13,1.13,0,0,1-.65-.86,8.62,8.62,0,0,0-.27-2.09,4.16,4.16,0,0,0-.31-.88,2,2,0,0,0-1.08-.86.5.5,0,0,1-.28-.32,1.75,1.75,0,0,0-.48-.87.21.21,0,0,0-.2,0c-.05,0-.08.12-.09.18s0,.24,0,.36a8,8,0,0,1,0,1,9.08,9.08,0,0,1-.22.9,3.43,3.43,0,0,1-.92,1.74.36.36,0,0,1-.22.07c-.33-.08-.66-.15-1-.26a5.94,5.94,0,0,1-2.54-1.74c-.72-.8-1.37-1.67-2.06-2.51a2.26,2.26,0,0,0-1.26-.8,7.91,7.91,0,0,0-2.38,0c-.46,0-.92.14-1.38.2s-.78,0-1.16.12-.61.18-.92.26-.56.1-.84.19c-.68.22-1.35.48-2,.7s-1.45.41-2.16.67c-.89.32-1.77.69-2.64,1.06-.35.15-.67.35-1,.53a7.23,7.23,0,0,0-1.9,1.19,4.7,4.7,0,0,1-.5.38l-.07.07-.18.3.22,0C410.69,118.86,410.64,119,410.82,119Z"/><path class="cls-1" d="M488.11,163.13a2.7,2.7,0,0,0,1.15-.17c.45-.24,1-.22,1.4-.46a2,2,0,0,1,.71-.14l-1.05.95c-.19.17-.35.33-.15.56.1,0,.2,0,.24,0,.22.24.48.19.75.14.57-.12,1.15-.22,1.73-.33a1,1,0,0,1,.18,0c0,.09,0,.16.08.3.26-.3.45-.19.64,0,0,.06.18.06.28.06.38,0,.75,0,1.13-.06a1.1,1.1,0,0,1,.26.06,1.43,1.43,0,0,0,.39.11c.28,0,.55,0,.83-.08s.77-.09,1.15-.11c.63,0,1.27,0,1.9-.06a12.33,12.33,0,0,1,2.19,0,7.7,7.7,0,0,0,1,0c.06,0,.13,0,.18,0a1.89,1.89,0,0,0,1,.26,3.47,3.47,0,0,1,1.59.72c.29.17.45.53.84.55,0,0,.1.07.15.12.41.42.82.86,1.24,1.28a2.31,2.31,0,0,0,.36.25c.1.07.24.11.31.2.2.26.35.55.55.8a1.22,1.22,0,0,0,.34.24,3.12,3.12,0,0,0,.15-.39,3.38,3.38,0,0,0,0-.45l.09,0c.1.14.18.29.29.42a11,11,0,0,0,.87,1.05c.32.31.71.55,1,.85s.74.72,1.12,1.08a.81.81,0,0,0,.25.09c0,.82,0,1.64.08,2.46a2,2,0,0,1-.21,1c-.07.15-.13.3-.19.46l-1.08,2.77a1.1,1.1,0,0,0,.11,1.12,2,2,0,0,0,.92.71c.71.29,1.4.6,2.11.88a3.1,3.1,0,0,0,1.38.28.46.46,0,0,0,.47-.34c.21-.77.42-1.54.61-2.32.14-.58.24-1.18.38-1.77a2,2,0,0,1,.22-.61c.22-.38.49-.74.72-1.12s.58-1,.86-1.49a1.93,1.93,0,0,0,.63.25c.51,0,1,0,1.54,0s1,0,1.42.07.9.12,1.34.16.84,0,1.26,0l.94,0,.84,0c.7,0,1.37-.18,2.07-.15a10.54,10.54,0,0,0,1.12-.08,6.27,6.27,0,0,1,.75,0c.14,0,.28,0,.43,0a5.47,5.47,0,0,1,.84.34,9.6,9.6,0,0,1,1.07.49,7.23,7.23,0,0,1,1.37,1.05c.45.51,1,.92,1.51,1.39a11.59,11.59,0,0,0,.9,1,19.89,19.89,0,0,1,1.62,1.56c.14.12.25.32.49.16,0,0,.14.06.2.11s.33.3.5.45a1.25,1.25,0,0,1,.32.33c.12.24.27.24.48.17a.35.35,0,0,1,.27,0c.35.31.67.64,1,1a.34.34,0,0,0,.28.09c.19-.06.29,0,.4.16l.68.74a.42.42,0,0,0,.44.15.48.48,0,0,1,.36.12,8.27,8.27,0,0,1,.51.66.7.7,0,0,0,.83.22c-.19-.61-.35-1.23-.58-1.84a11.88,11.88,0,0,0-.89-2.15c-.34-.57-.6-1.18-.92-1.76-.41-.75-.83-1.49-1.29-2.21s-1-1.52-1.53-2.26c-.36-.52-.76-1-1.12-1.52-.5-.72-1-1.48-1.48-2.17s-1.24-1.5-1.87-2.25c-.16-.19-.38-.33-.53-.53a12.38,12.38,0,0,0-3.62-2.82,1.23,1.23,0,0,0-1-.15c-.56.17-1.14.33-1.7.53a18.08,18.08,0,0,1-2.72.8,7.61,7.61,0,0,1-3.29-.11,4.85,4.85,0,0,1-1.73-.58,1.39,1.39,0,0,1-.77-1,10.42,10.42,0,0,0-.31-2.49,5.39,5.39,0,0,0-.38-1,2.41,2.41,0,0,0-1.28-1,.54.54,0,0,1-.32-.37,2.15,2.15,0,0,0-.57-1,.28.28,0,0,0-.24-.06.31.31,0,0,0-.11.22c0,.14,0,.28,0,.42a7.62,7.62,0,0,1,0,1.17,7.8,7.8,0,0,1-.26,1.06,3.94,3.94,0,0,1-1.09,2.06.32.32,0,0,1-.26.09,11.85,11.85,0,0,1-1.17-.31,6.9,6.9,0,0,1-3-2.06c-.86-1-1.63-2-2.44-3a2.63,2.63,0,0,0-1.49-.95,9.27,9.27,0,0,0-2.83-.05c-.55.05-1.09.17-1.64.24s-.92.07-1.37.15-.73.21-1.09.3-.67.12-1,.23c-.81.26-1.61.57-2.42.83s-1.73.48-2.57.79c-1.05.38-2.09.82-3.12,1.26-.41.18-.79.42-1.19.63a8.51,8.51,0,0,0-2.25,1.41,6.8,6.8,0,0,1-.6.46l-.08.08-.21.35.26,0C488,163,487.9,163.15,488.11,163.13Z"/><path class="cls-1" d="M333.06,139.09c.06.11.12.25.24.11a2.44,2.44,0,0,0,.59-.79c.13-.41.45-.7.57-1.11a1.85,1.85,0,0,1,.35-.51c0,.36,0,.78-.07,1.2,0,.21,0,.41.23.42.07,0,.12-.11.17-.11.28,0,.4-.17.53-.36.28-.42.57-.83.86-1.24a.52.52,0,0,1,.11-.1l.22.13c0-.33.16-.38.4-.37a.35.35,0,0,0,.2-.13c.22-.23.43-.48.65-.71a.62.62,0,0,1,.19-.12,1.17,1.17,0,0,0,.29-.17c.17-.17.31-.36.46-.54s.4-.52.63-.76c.36-.4.75-.77,1.1-1.17a10.21,10.21,0,0,1,1.3-1.33,6.1,6.1,0,0,0,.55-.59s.07-.1.11-.12a1.6,1.6,0,0,0,.74-.43,2.86,2.86,0,0,1,1.38-.52c.27-.07.58,0,.82-.17,0,0,.11,0,.16,0l1.5,0a1.53,1.53,0,0,0,.36-.07,1.13,1.13,0,0,1,.31-.06l.79.15a1.35,1.35,0,0,0,.34-.06,1.53,1.53,0,0,0-.13-.32,2.35,2.35,0,0,0-.26-.29l0-.06a3.1,3.1,0,0,0,.42.08,8.79,8.79,0,0,0,1.14.11c.37,0,.75-.09,1.12-.11s.87,0,1.3,0c.07,0,.14-.06.21-.09.49.47,1,1,1.48,1.43a1.6,1.6,0,0,1,.45.7c0,.14.1.27.15.4l1,2.31a.89.89,0,0,0,.71.61,1.66,1.66,0,0,0,1-.13l1.78-.73a2.61,2.61,0,0,0,1-.66.4.4,0,0,0,.09-.48c-.33-.59-.65-1.18-1-1.76s-.54-.86-.8-1.29a1.7,1.7,0,0,1-.22-.5c-.1-.37-.14-.74-.23-1.11s-.24-1-.35-1.41a1.7,1.7,0,0,0,.52-.22c.33-.29.61-.63.92-.93s.59-.55.9-.81.61-.47.9-.71.52-.49.78-.73l.58-.54c.17-.17.35-.32.53-.48.43-.4.72-.93,1.16-1.33.23-.21.41-.49.62-.72a4.79,4.79,0,0,1,.47-.43l.28-.23a3.44,3.44,0,0,1,.71-.3,7.49,7.49,0,0,1,.92-.35,6.25,6.25,0,0,1,1.44-.19,16.49,16.49,0,0,0,1.72-.07,10.11,10.11,0,0,0,1.09,0,17.09,17.09,0,0,1,1.89,0c.16,0,.34,0,.39-.2,0,0,.12-.05.19-.05l.55,0a1.32,1.32,0,0,1,.4,0c.21.07.3,0,.38-.19s.12-.14.18-.14l1.17,0a.3.3,0,0,0,.22-.11.3.3,0,0,1,.34-.15l.83,0a.37.37,0,0,0,.36-.17.38.38,0,0,1,.28-.14c.24,0,.47.06.7.08a.59.59,0,0,0,.63-.36c-.47-.25-.94-.53-1.43-.76a10.23,10.23,0,0,0-1.8-.76c-.53-.14-1-.35-1.57-.51-.69-.2-1.38-.39-2.07-.55s-1.49-.31-2.24-.44c-.52-.1-1.05-.15-1.57-.25-.72-.13-1.43-.31-2.15-.41s-1.62-.17-2.44-.23c-.21,0-.42,0-.63,0a9.9,9.9,0,0,0-3.82.47,1,1,0,0,0-.68.5c-.24.44-.5.88-.71,1.33a16,16,0,0,1-1.17,2.11,6.64,6.64,0,0,1-2,1.91,4,4,0,0,1-1.38.68,1.11,1.11,0,0,1-1.06-.15,8.16,8.16,0,0,0-1.64-1.3,5,5,0,0,0-.84-.41,2,2,0,0,0-1.36.16.51.51,0,0,1-.42,0,1.75,1.75,0,0,0-.94-.28.26.26,0,0,0-.18.11.22.22,0,0,0,.07.19,3,3,0,0,0,.26.24,7.6,7.6,0,0,1,.69.7,6.94,6.94,0,0,1,.46.8,3.39,3.39,0,0,1,.55,1.88.33.33,0,0,1-.11.22c-.29.18-.58.36-.88.51a5.75,5.75,0,0,1-3,.56c-1.07,0-2.13-.21-3.2-.32a2.18,2.18,0,0,0-1.45.32,8.06,8.06,0,0,0-1.73,1.67c-.3.36-.55.75-.84,1.12s-.52.59-.74.91a8.68,8.68,0,0,0-.48.84c-.15.25-.33.47-.47.73-.33.64-.63,1.3-1,2s-.75,1.32-1.08,2c-.41.86-.77,1.75-1.14,2.63-.14.35-.23.73-.35,1.09a7.86,7.86,0,0,0-.52,2.19,4.49,4.49,0,0,1-.1.64v.09c0,.11,0,.22.08.34Z"/><path class="cls-3" d="M167.9,186c0,.12.12.25.23.12a2.51,2.51,0,0,0,.6-.8c.12-.41.44-.7.56-1.11a2.09,2.09,0,0,1,.35-.51c0,.37,0,.78-.07,1.2,0,.22,0,.41.23.42.07,0,.12-.11.17-.11.28,0,.4-.16.53-.36l.86-1.23s.08-.07.11-.11l.22.14c0-.34.16-.39.4-.38.07,0,.15-.07.2-.12l.65-.72a1.22,1.22,0,0,1,.19-.12,1.11,1.11,0,0,0,.3-.17c.16-.17.3-.36.45-.54s.41-.51.63-.76.75-.76,1.1-1.17a10.21,10.21,0,0,1,1.3-1.33,6.28,6.28,0,0,0,.56-.59s.06-.1.1-.11a1.74,1.74,0,0,0,.74-.43,2.87,2.87,0,0,1,1.38-.53c.27-.07.58.05.82-.17,0,0,.11,0,.16,0l1.5,0a2.25,2.25,0,0,0,.36-.06,1.25,1.25,0,0,1,.31-.07c.27,0,.53.12.8.15a1,1,0,0,0,.33-.06,2.15,2.15,0,0,0-.13-.32,2.27,2.27,0,0,0-.26-.28l0-.07c.14,0,.28.07.42.09a11,11,0,0,0,1.14.11c.37,0,.75-.1,1.13-.12s.86,0,1.29,0c.07,0,.14-.06.21-.09.49.48,1,1,1.49,1.43a1.64,1.64,0,0,1,.44.71c0,.13.1.26.16.39l1,2.32a.92.92,0,0,0,.72.6,1.7,1.7,0,0,0,1-.12c.59-.25,1.19-.48,1.78-.74a2.59,2.59,0,0,0,1-.65.4.4,0,0,0,.09-.49c-.32-.59-.65-1.18-1-1.75s-.55-.86-.81-1.3a1.73,1.73,0,0,1-.22-.5c-.09-.36-.14-.74-.23-1.1s-.24-.95-.35-1.42a1.48,1.48,0,0,0,.52-.22c.33-.29.61-.63.92-.93s.59-.55.9-.81.61-.46.9-.71.52-.48.78-.73l.58-.54.53-.48c.43-.4.72-.93,1.16-1.33a8.67,8.67,0,0,0,.62-.72c.15-.15.31-.29.47-.43l.28-.23a4.45,4.45,0,0,1,.71-.3,7.39,7.39,0,0,1,.92-.34,5.82,5.82,0,0,1,1.45-.19c.56,0,1.14-.06,1.71-.07a10.17,10.17,0,0,0,1.1,0c.63-.08,1.26,0,1.88,0,.16,0,.34.05.39-.19,0,0,.12,0,.19-.06l.56,0a1,1,0,0,1,.39,0c.21.07.3,0,.39-.18a.28.28,0,0,1,.17-.15l1.17,0a.25.25,0,0,0,.22-.11c.08-.15.2-.15.34-.14l.84,0a.35.35,0,0,0,.35-.17.4.4,0,0,1,.29-.15c.23,0,.46.06.69.09a.6.6,0,0,0,.63-.36c-.47-.26-.94-.53-1.43-.77a9.4,9.4,0,0,0-1.79-.75c-.54-.14-1.05-.36-1.58-.51-.69-.2-1.37-.4-2.07-.56s-1.49-.3-2.24-.44c-.52-.09-1-.15-1.56-.24-.72-.13-1.43-.32-2.16-.42s-1.62-.16-2.43-.23c-.21,0-.43,0-.63,0a10.35,10.35,0,0,0-3.83.47,1.08,1.08,0,0,0-.68.5c-.24.44-.5.88-.71,1.34a16.55,16.55,0,0,1-1.17,2.1,6.56,6.56,0,0,1-2,1.92,4.44,4.44,0,0,1-1.38.68,1.14,1.14,0,0,1-1.06-.16,8.23,8.23,0,0,0-1.64-1.3,3.81,3.81,0,0,0-.84-.4,2,2,0,0,0-1.36.15.43.43,0,0,1-.41,0,1.79,1.79,0,0,0-1-.28.26.26,0,0,0-.18.11c0,.05,0,.15.07.2s.18.15.26.23a7.58,7.58,0,0,1,.69.7,7.9,7.9,0,0,1,.46.8,3.34,3.34,0,0,1,.55,1.89.29.29,0,0,1-.11.21c-.29.18-.57.36-.88.52a5.93,5.93,0,0,1-3,.56c-1.08-.06-2.14-.21-3.21-.33a2.19,2.19,0,0,0-1.45.33,8,8,0,0,0-1.73,1.66c-.3.36-.55.76-.84,1.13s-.51.59-.74.91-.31.56-.48.83-.33.48-.46.73c-.34.65-.64,1.31-1,1.95s-.76,1.33-1.09,2c-.41.86-.77,1.74-1.14,2.63-.14.35-.23.72-.35,1.08a7.93,7.93,0,0,0-.52,2.2c0,.21-.06.42-.09.63v.1c0,.1.05.21.07.33Z"/><path class="cls-3" d="M446.9,233.16c-.19-.4-.32-.83-.5-1.24s-.47-1-.74-1.56-.58-1.07-.88-1.6c-.21-.37-.45-.72-.66-1.09s-.55-1-.86-1.54-.74-1.09-1.11-1.62c-.1-.14-.23-.25-.33-.39a8.22,8.22,0,0,0-2.25-2.11.83.83,0,0,0-.65-.16c-.39.08-.78.14-1.17.25a11.75,11.75,0,0,1-1.86.36,5.18,5.18,0,0,1-2.21-.27,3.48,3.48,0,0,1-1.11-.5.92.92,0,0,1-.46-.73,6.28,6.28,0,0,0-.06-1.68,3.54,3.54,0,0,0-.18-.73,1.69,1.69,0,0,0-.8-.76.34.34,0,0,1-.19-.27,1.47,1.47,0,0,0-.32-.72.17.17,0,0,0-.16-.05s-.08.09-.08.14a2.62,2.62,0,0,0,0,.28,6.65,6.65,0,0,1-.07.78,5.78,5.78,0,0,1-.24.7,2.67,2.67,0,0,1-.85,1.31.3.3,0,0,1-.18,0,7.08,7.08,0,0,1-.77-.28,4.72,4.72,0,0,1-1.89-1.57c-.51-.68-1-1.42-1.45-2.14a1.82,1.82,0,0,0-.94-.72,6.38,6.38,0,0,0-1.89-.21c-.37,0-.74,0-1.11.06s-.62,0-.93,0-.49.1-.74.14-.46,0-.68.09c-.56.12-1.12.28-1.67.41s-1.19.21-1.77.37c-.73.19-1.45.42-2.17.65-.28.09-.55.23-.83.34a5.94,5.94,0,0,0-1.59.8,4,4,0,0,1-.43.28l-.06,0-.16.22h.17c0,.09-.08.2.06.2a1.85,1.85,0,0,0,.78,0c.31-.14.65-.09,1-.22a1.33,1.33,0,0,1,.48-.05l-.76.57c-.13.1-.25.2-.13.36s.13,0,.16.05.3.16.49.14l1.18-.11.12,0c0,.06,0,.11,0,.2.19-.18.31-.1.43.06s.12.05.18.05c.25,0,.51,0,.76,0a.85.85,0,0,1,.17.06.93.93,0,0,0,.26.1h.55c.26,0,.52,0,.78,0,.43,0,.85.07,1.28.08a7.92,7.92,0,0,1,1.46.12,4.64,4.64,0,0,0,.65,0s.09,0,.12,0a1.34,1.34,0,0,0,.64.24,2.26,2.26,0,0,1,1,.57c.18.14.27.39.53.42,0,0,.06.06.09.09l.75.94a1.45,1.45,0,0,0,.23.19,1.49,1.49,0,0,1,.2.15c.11.19.2.39.31.57a.79.79,0,0,0,.22.18,1.92,1.92,0,0,0,.12-.25c0-.1,0-.2,0-.3h.06a2.85,2.85,0,0,0,.16.3,8.29,8.29,0,0,0,.52.75c.2.24.44.42.65.64s.45.53.68.79a.48.48,0,0,0,.16.08c0,.55-.07,1.1-.09,1.65a1.34,1.34,0,0,1-.2.64,2.85,2.85,0,0,0-.16.3l-.89,1.79a.75.75,0,0,0,0,.75,1.32,1.32,0,0,0,.57.53c.46.24.9.49,1.36.72a2,2,0,0,0,.9.27c.17,0,.29,0,.34-.19.19-.5.37-1,.55-1.52s.23-.77.36-1.16a1.53,1.53,0,0,1,.18-.39c.18-.24.38-.47.55-.71s.45-.63.67-.94a1.9,1.9,0,0,0,.4.21c.34.05.69,0,1,.08s.63.08.95.14.59.13.88.19.56.07.84.11l.63.07.56.08c.46.06.93,0,1.39,0,.25,0,.51,0,.76,0a4.13,4.13,0,0,1,.49.07c.1,0,.19,0,.29.06a2.73,2.73,0,0,1,.54.27,6.56,6.56,0,0,1,.69.4,4.86,4.86,0,0,1,.85.79c.27.37.62.67.93,1s.33.49.54.69c.37.35.66.76,1,1.14.09.09.15.24.32.14,0,0,.09.05.13.09s.2.22.3.33a1.11,1.11,0,0,1,.2.24c.07.17.17.18.31.15a.19.19,0,0,1,.18,0l.62.7a.27.27,0,0,0,.18.08c.14,0,.2,0,.26.13l.41.54a.3.3,0,0,0,.29.13.3.3,0,0,1,.23.1,5.46,5.46,0,0,1,.31.47.47.47,0,0,0,.54.2c-.09-.42-.17-.85-.28-1.27A7.81,7.81,0,0,0,446.9,233.16Z"/><path class="cls-3" d="M256.58,258.67c-.19-.4-.33-.83-.51-1.24s-.47-1.05-.73-1.56-.58-1.07-.88-1.6c-.22-.37-.45-.72-.66-1.09s-.55-1-.86-1.54-.74-1.08-1.12-1.62c-.09-.14-.23-.25-.32-.39a8.22,8.22,0,0,0-2.25-2.11.83.83,0,0,0-.65-.16c-.39.08-.78.14-1.17.25a11.66,11.66,0,0,1-1.87.36,5.16,5.16,0,0,1-2.2-.27,3.38,3.38,0,0,1-1.11-.5.92.92,0,0,1-.46-.73,6.72,6.72,0,0,0-.06-1.68,3.31,3.31,0,0,0-.19-.72,1.6,1.6,0,0,0-.79-.77.37.37,0,0,1-.2-.27,1.39,1.39,0,0,0-.32-.72.15.15,0,0,0-.15-.05s-.08.09-.09.14,0,.19,0,.28a6.65,6.65,0,0,1-.07.78,5.78,5.78,0,0,1-.24.7,2.63,2.63,0,0,1-.85,1.31.26.26,0,0,1-.19,0,7.77,7.77,0,0,1-.76-.28,4.65,4.65,0,0,1-1.89-1.57c-.51-.68-1-1.42-1.45-2.13a1.79,1.79,0,0,0-.94-.73,6.38,6.38,0,0,0-1.89-.21c-.37,0-.74,0-1.11.06s-.62,0-.93,0-.5.1-.75.14-.45,0-.67.09c-.56.12-1.12.28-1.68.41s-1.18.21-1.76.37c-.73.19-1.45.42-2.17.65-.29.09-.55.23-.83.34a5.55,5.55,0,0,0-1.59.81c-.13.1-.29.18-.43.27l-.06,0-.16.23h.17c0,.09-.09.2,0,.2a1.88,1.88,0,0,0,.79,0c.31-.14.65-.09.95-.22a1.39,1.39,0,0,1,.49-.05c-.23.17-.49.38-.76.57s-.26.2-.13.36.13,0,.15.05a.46.46,0,0,0,.49.14l1.19-.11.12,0c0,.06,0,.11,0,.2.19-.18.31-.1.43.06s.12,0,.18,0l.76,0a.48.48,0,0,1,.17,0,.93.93,0,0,0,.26.1c.18,0,.37,0,.55,0s.52,0,.78,0c.43,0,.85.06,1.27.07a8,8,0,0,1,1.47.12,4.57,4.57,0,0,0,.64,0s.1,0,.13,0a1.34,1.34,0,0,0,.63.24,2.22,2.22,0,0,1,1,.58c.18.13.27.38.53.41,0,0,.06.06.09.09l.75.94a1.45,1.45,0,0,0,.23.19c.06.05.15.09.19.15s.21.39.32.57a.91.91,0,0,0,.21.18,1.19,1.19,0,0,0,.13-.25c0-.1,0-.2,0-.3h0c.06.1.11.21.17.3a7.85,7.85,0,0,0,.52.76c.19.23.44.41.65.63s.45.53.68.79c0,0,.11.06.16.08,0,.55-.07,1.1-.1,1.65a1.29,1.29,0,0,1-.19.64,2.85,2.85,0,0,0-.16.3c-.3.59-.59,1.19-.89,1.79a.72.72,0,0,0,0,.75,1.41,1.41,0,0,0,.57.54c.46.23.9.48,1.36.71a1.89,1.89,0,0,0,.9.27c.17,0,.29,0,.34-.19.19-.5.37-1,.54-1.51s.24-.78.37-1.17a1.53,1.53,0,0,1,.18-.39c.18-.24.38-.47.55-.71s.45-.63.67-.94a1.69,1.69,0,0,0,.4.21c.34.05.69,0,1,.08s.64.08.95.14.59.14.89.19.56.07.84.11l.63.07.56.08c.46.06.93,0,1.39,0,.25,0,.5,0,.76,0a2.73,2.73,0,0,1,.49.06c.1,0,.19,0,.29.06a2.53,2.53,0,0,1,.54.28,4.47,4.47,0,0,1,.68.39,4.59,4.59,0,0,1,.86.79,12.77,12.77,0,0,0,.93,1c.19.22.33.49.54.69.37.35.66.76,1,1.14.08.1.15.24.32.14,0,0,.09.05.13.09l.3.33a1.11,1.11,0,0,1,.2.24c.06.17.17.18.31.15a.19.19,0,0,1,.18,0l.62.7a.27.27,0,0,0,.18.08.23.23,0,0,1,.26.13l.41.54a.3.3,0,0,0,.28.13.31.31,0,0,1,.24.1c.11.14.2.32.3.47a.47.47,0,0,0,.54.2c-.08-.42-.16-.85-.27-1.27A7.81,7.81,0,0,0,256.58,258.67Z"/><path class="cls-1" d="M282.67,218.55c-.19-.4-.32-.82-.5-1.23s-.47-1-.74-1.56-.58-1.08-.88-1.61c-.21-.36-.45-.72-.66-1.08s-.55-1-.86-1.54-.73-1.09-1.11-1.62c-.1-.14-.23-.25-.33-.39a8.22,8.22,0,0,0-2.25-2.11.8.8,0,0,0-.65-.17c-.39.09-.78.15-1.17.26a14.54,14.54,0,0,1-1.86.36,5,5,0,0,1-2.2-.28,3.22,3.22,0,0,1-1.12-.49.92.92,0,0,1-.46-.74,6.31,6.31,0,0,0-.06-1.68,3.61,3.61,0,0,0-.18-.72,1.69,1.69,0,0,0-.8-.76.36.36,0,0,1-.19-.27,1.47,1.47,0,0,0-.32-.72.22.22,0,0,0-.16-.06.19.19,0,0,0-.08.15,2.53,2.53,0,0,0,0,.28,6.65,6.65,0,0,1-.07.78,5.78,5.78,0,0,1-.24.7,2.67,2.67,0,0,1-.85,1.31.3.3,0,0,1-.18,0c-.26-.09-.52-.17-.76-.28a4.75,4.75,0,0,1-1.9-1.57c-.51-.69-1-1.42-1.45-2.14a1.8,1.8,0,0,0-.94-.73,6.37,6.37,0,0,0-1.89-.2c-.37,0-.74.05-1.11.06s-.62,0-.93,0-.49.1-.74.14-.46,0-.68.09c-.56.12-1.11.28-1.67.4s-1.19.22-1.77.37c-.73.19-1.45.42-2.17.65-.28.1-.55.23-.83.35a5.94,5.94,0,0,0-1.59.8,3.12,3.12,0,0,1-.43.27l0,0-.17.22h.18c-.05.1-.09.21,0,.21a1.85,1.85,0,0,0,.78,0c.31-.14.65-.09,1-.23a1.59,1.59,0,0,1,.48,0l-.75.57c-.14.1-.26.19-.14.36.06,0,.13,0,.16,0,.13.18.3.16.49.14l1.18-.11.12,0c0,.06,0,.11,0,.2.19-.18.31-.1.43.05s.12.06.18.06l.76,0a.85.85,0,0,1,.17.06.89.89,0,0,0,.26.09,5.19,5.19,0,0,0,.56,0c.26,0,.52,0,.77,0,.43,0,.85.07,1.28.08a9.09,9.09,0,0,1,1.47.11,4.4,4.4,0,0,0,.64,0s.09,0,.12,0a1.27,1.27,0,0,0,.64.23,2.28,2.28,0,0,1,1,.58c.18.13.27.39.53.42,0,0,.06.06.09.09l.75.94a2.11,2.11,0,0,0,.23.19c.06,0,.15.08.2.15s.2.39.32.57a.76.76,0,0,0,.21.18c0-.09.09-.16.12-.25a1.54,1.54,0,0,0,0-.3h.06c.05.1.1.2.16.3.17.25.33.52.52.75s.45.42.65.64.45.53.68.79c0,0,.11.05.16.08,0,.55-.07,1.1-.09,1.65a1.34,1.34,0,0,1-.2.64,2.69,2.69,0,0,0-.16.29c-.29.6-.59,1.2-.89,1.79a.76.76,0,0,0,0,.76,1.32,1.32,0,0,0,.57.53l1.36.72a2.05,2.05,0,0,0,.91.27c.16,0,.28,0,.33-.19.19-.51.38-1,.55-1.52s.23-.77.36-1.16a1.27,1.27,0,0,1,.18-.39c.18-.25.38-.47.55-.71s.45-.64.67-.95a1.28,1.28,0,0,0,.4.21c.34.06.69,0,1,.09s.63.08.95.14l.88.18c.28,0,.56.08.84.11l.63.08.56.08c.46.06.93,0,1.39,0,.25,0,.51,0,.76,0a4.61,4.61,0,0,1,.5.07l.28,0a3.45,3.45,0,0,1,.54.28,5.68,5.68,0,0,1,.69.4,4.51,4.51,0,0,1,.85.79c.27.36.62.67.93,1s.33.49.54.69c.37.35.66.76,1,1.14.09.09.15.23.32.14s.09.05.13.09.2.21.3.33.17.15.2.24.17.18.31.14a.21.21,0,0,1,.18,0c.21.22.41.47.62.7a.27.27,0,0,0,.18.08c.14,0,.2,0,.27.13l.4.53a.27.27,0,0,0,.29.13.36.36,0,0,1,.23.11,5.46,5.46,0,0,1,.31.47.47.47,0,0,0,.54.2c-.09-.42-.17-.85-.28-1.27A7.91,7.91,0,0,0,282.67,218.55Z"/><path class="cls-3" d="M325.47,157a1.85,1.85,0,0,0,.78,0c.31-.14.65-.09,1-.22a1.33,1.33,0,0,1,.48-.05l-.75.57c-.14.1-.26.2-.14.36s.13,0,.16,0c.13.18.31.16.49.14l1.18-.11.12,0c0,.06,0,.11,0,.2.19-.18.31-.1.43.06s.12.05.18.06l.77,0a.64.64,0,0,1,.17.05.77.77,0,0,0,.25.1h.56c.26,0,.52,0,.78,0,.42,0,.84.06,1.27.07a8.1,8.1,0,0,1,1.47.12c.21,0,.43,0,.64,0,0,0,.09,0,.12,0a1.42,1.42,0,0,0,.64.24,2.27,2.27,0,0,1,1,.58c.18.13.26.38.52.41a.26.26,0,0,1,.09.09c.25.31.5.63.76.94a1.37,1.37,0,0,0,.22.19.8.8,0,0,1,.2.15c.11.19.2.39.32.57s.14.12.21.18a1.15,1.15,0,0,0,.12-.25,1.45,1.45,0,0,0,0-.3h.06a1.78,1.78,0,0,0,.17.3,7.75,7.75,0,0,0,.51.76c.2.23.45.41.65.63s.45.53.68.79a.48.48,0,0,0,.16.08c0,.55-.07,1.1-.09,1.65a1.3,1.3,0,0,1-.2.64c-.06.1-.1.2-.15.3-.3.59-.6,1.19-.89,1.79a.72.72,0,0,0,0,.75,1.38,1.38,0,0,0,.58.54l1.35.71a2,2,0,0,0,.91.27.3.3,0,0,0,.34-.19c.18-.5.37-1,.54-1.51s.23-.78.36-1.16a1.47,1.47,0,0,1,.19-.4c.17-.24.37-.47.55-.71s.45-.63.66-.94a1.76,1.76,0,0,0,.41.21c.34.05.69,0,1,.08s.63.08.95.14.59.14.89.19.56.07.84.11l.62.07.56.08c.46.06.93,0,1.39,0,.25,0,.51,0,.76,0a2.84,2.84,0,0,1,.5.06l.28.06a2.59,2.59,0,0,1,.55.28,5,5,0,0,1,.68.39,4.86,4.86,0,0,1,.85.79c.28.37.63.68.93,1s.33.49.54.69c.38.35.66.76,1,1.14.08.1.14.24.32.14,0,0,.09.05.12.09s.2.22.3.33.17.15.2.24.17.18.32.15a.17.17,0,0,1,.17,0l.62.7a.25.25,0,0,0,.19.08c.13,0,.19,0,.26.13l.4.54a.32.32,0,0,0,.29.13.3.3,0,0,1,.23.1c.12.14.2.32.31.47a.47.47,0,0,0,.54.2c-.09-.42-.16-.85-.28-1.27a8,8,0,0,0-.47-1.49c-.19-.4-.32-.83-.5-1.24s-.47-1-.73-1.56-.59-1.07-.89-1.6c-.21-.37-.45-.72-.66-1.09s-.54-1-.85-1.54-.74-1.08-1.12-1.62c-.1-.14-.23-.25-.33-.39a8.08,8.08,0,0,0-2.25-2.11.83.83,0,0,0-.65-.16c-.39.08-.78.14-1.16.25a12.1,12.1,0,0,1-1.87.36,5.14,5.14,0,0,1-2.2-.27,3.53,3.53,0,0,1-1.12-.5.91.91,0,0,1-.45-.73,6.72,6.72,0,0,0-.07-1.68,3.3,3.3,0,0,0-.18-.72,1.66,1.66,0,0,0-.8-.77.34.34,0,0,1-.19-.27,1.47,1.47,0,0,0-.32-.72.17.17,0,0,0-.16-.05s-.07.09-.08.14,0,.19,0,.28a4,4,0,0,1-.07.78,3.62,3.62,0,0,1-.24.7,2.63,2.63,0,0,1-.85,1.31.24.24,0,0,1-.18,0,6.92,6.92,0,0,1-.76-.28,4.71,4.71,0,0,1-1.89-1.56c-.52-.69-1-1.43-1.46-2.14a1.71,1.71,0,0,0-.94-.73,6.35,6.35,0,0,0-1.89-.21c-.37,0-.74,0-1.11.06s-.62,0-.93,0-.49.1-.74.14-.46,0-.68.09l-1.67.41c-.59.13-1.19.21-1.77.37-.73.19-1.45.42-2.17.65-.28.09-.55.23-.83.34a5.83,5.83,0,0,0-1.59.81,4.5,4.5,0,0,1-.43.27l0,0-.17.23h.18C325.38,156.86,325.33,157,325.47,157Z"/><path class="cls-1" d="M550.27,285.19c-.67-.92-1.21-1.93-1.85-2.86-.84-1.22-1.68-2.42-2.59-3.59s-2-2.43-3-3.62c-.7-.83-1.47-1.6-2.17-2.43-1-1.15-1.87-2.37-2.89-3.48s-2.37-2.38-3.58-3.54c-.31-.3-.7-.52-1-.82a21.14,21.14,0,0,0-6.67-4.26,2.19,2.19,0,0,0-1.72-.09c-.95.4-1.91.75-2.83,1.2a32.34,32.34,0,0,1-4.54,1.82,13.46,13.46,0,0,1-5.68.37,8.51,8.51,0,0,1-3.06-.72c-.68-.36-1.37-.79-1.49-1.63a17.36,17.36,0,0,0-.95-4.21,8.82,8.82,0,0,0-.81-1.73,4.22,4.22,0,0,0-2.36-1.54,1,1,0,0,1-.62-.59,3.68,3.68,0,0,0-1.15-1.67.33.33,0,0,0-.56.34c0,.24.09.48.12.72a8.07,8.07,0,0,1-.09,3.88,6.74,6.74,0,0,1-1.53,3.71.59.59,0,0,1-.44.19,19.88,19.88,0,0,1-2.05-.32,12.07,12.07,0,0,1-5.51-3.05c-1.63-1.49-3.13-3.13-4.68-4.7a4.52,4.52,0,0,0-2.72-1.38,16.28,16.28,0,0,0-4.87.39c-.93.17-1.84.48-2.76.69s-1.58.27-2.34.48-1.21.48-1.82.7-1.14.32-1.67.55c-1.35.59-2.68,1.25-4,1.83s-2.89,1.12-4.28,1.79c-1.75.83-3.46,1.76-5.16,2.69-.68.37-1.3.85-1.95,1.27a15.56,15.56,0,0,0-3.62,2.79,9,9,0,0,1-1,.89l-.12.15-.31.64.44-.1c-.06.25-.13.55.22.49a5,5,0,0,0,1.95-.48c.73-.5,1.61-.54,2.32-1a3.6,3.6,0,0,1,1.2-.36c-.5.56-1.06,1.19-1.64,1.81-.3.32-.56.62-.17,1,.17,0,.34,0,.42.05a1.19,1.19,0,0,0,1.3.12c1-.3,1.95-.57,2.93-.85a1.62,1.62,0,0,1,.31,0c.05.15.1.28.18.5.39-.55.74-.4,1.11-.07a.69.69,0,0,0,.48.06l1.94-.29a1.47,1.47,0,0,1,.46.07,2.76,2.76,0,0,0,.69.11c.47-.06.93-.17,1.4-.27.66-.13,1.31-.28,2-.38,1.08-.16,2.18-.24,3.25-.42a21.64,21.64,0,0,1,3.76-.42,13.14,13.14,0,0,0,1.64-.21.7.7,0,0,1,.31,0,3.4,3.4,0,0,0,1.72.28,5.86,5.86,0,0,1,2.86,1c.52.24.86.83,1.52.8.09,0,.19.11.28.18.78.66,1.55,1.34,2.34,2a4.18,4.18,0,0,0,.66.37,2.06,2.06,0,0,1,.57.3c.38.4.69.87,1.07,1.27a2.21,2.21,0,0,0,.62.35,3.46,3.46,0,0,0,.19-.68,5.23,5.23,0,0,0,0-.79l.14-.05c.19.23.36.47.56.68a18.56,18.56,0,0,0,1.67,1.65c.6.49,1.31.83,1.94,1.29s1.38,1.12,2.08,1.67a1.25,1.25,0,0,0,.44.13c.18,1.4.34,2.8.54,4.21a3.28,3.28,0,0,1-.19,1.7c-.1.27-.18.55-.26.83-.47,1.65-.93,3.3-1.4,4.94a1.88,1.88,0,0,0,.37,1.9,3.46,3.46,0,0,0,1.7,1.08c1.26.37,2.51.79,3.77,1.15a5.27,5.27,0,0,0,2.4.25c.42-.08.7-.25.77-.66.23-1.35.46-2.71.65-4.08.15-1,.23-2.07.37-3.1a4.07,4.07,0,0,1,.28-1.09c.32-.7.72-1.36,1.06-2.05.43-.9.83-1.82,1.23-2.71a3.64,3.64,0,0,0,1.12.34c.88,0,1.76-.21,2.64-.29s1.65-.1,2.47-.11,1.55.06,2.33.05,1.44-.08,2.17-.13l1.61-.11,1.45-.07c1.2-.07,2.33-.53,3.53-.6.64,0,1.27-.24,1.91-.33.43-.06.86-.06,1.29-.08.25,0,.5,0,.74,0a8.13,8.13,0,0,1,1.51.44,16.44,16.44,0,0,1,1.91.67,11.61,11.61,0,0,1,2.53,1.58c.86.8,1.89,1.4,2.81,2.13a19.57,19.57,0,0,0,1.7,1.48c1.1.69,2,1.61,3.05,2.4.24.2.48.52.87.2,0,0,.25.08.35.16.32.22.62.45.92.68a2.31,2.31,0,0,1,.62.53c.24.38.5.36.85.21a.59.59,0,0,1,.47,0c.64.48,1.25,1,1.9,1.47a.6.6,0,0,0,.49.11c.32-.14.52,0,.73.21l1.27,1.16a.75.75,0,0,0,.78.19.77.77,0,0,1,.64.14c.36.31.66.7,1,1a1.21,1.21,0,0,0,1.46.25c-.42-1-.81-2.06-1.29-3.07A20.51,20.51,0,0,0,550.27,285.19Z"/><path class="cls-2" d="M313.76,180.78c.05,0,.25.08.36.16.32.22.62.45.92.68a2.31,2.31,0,0,1,.62.53c.24.38.5.36.85.2a.61.61,0,0,1,.46,0c.65.48,1.26,1,1.91,1.47a.6.6,0,0,0,.49.11.59.59,0,0,1,.72.21l1.28,1.16a.75.75,0,0,0,.78.19.77.77,0,0,1,.64.14c.36.31.66.7,1,1a1.21,1.21,0,0,0,1.46.25c-.42-1-.81-2.06-1.29-3.07a20.51,20.51,0,0,0-1.89-3.55c-.67-.92-1.21-1.93-1.85-2.86-.84-1.22-1.69-2.42-2.59-3.59s-2-2.43-3-3.62c-.71-.83-1.47-1.6-2.18-2.43-1-1.15-1.86-2.37-2.88-3.48s-2.37-2.38-3.58-3.54c-.31-.3-.7-.52-1-.82a21.14,21.14,0,0,0-6.67-4.26,2.19,2.19,0,0,0-1.72-.09c-1,.4-1.91.75-2.83,1.2a32.34,32.34,0,0,1-4.54,1.82,13.46,13.46,0,0,1-5.68.37,8.46,8.46,0,0,1-3.06-.72c-.68-.36-1.37-.79-1.49-1.63a17.36,17.36,0,0,0-.95-4.21,8.82,8.82,0,0,0-.81-1.73,4.22,4.22,0,0,0-2.36-1.54.94.94,0,0,1-.62-.59,3.68,3.68,0,0,0-1.15-1.67.53.53,0,0,0-.42-.06.48.48,0,0,0-.14.4c0,.24.09.48.12.72a15.18,15.18,0,0,1,.19,2,13.63,13.63,0,0,1-.28,1.87,6.77,6.77,0,0,1-1.53,3.71.59.59,0,0,1-.44.19c-.69-.08-1.38-.18-2.05-.32a12.07,12.07,0,0,1-5.51-3.05c-1.63-1.49-3.13-3.13-4.68-4.7a4.52,4.52,0,0,0-2.72-1.38,16.28,16.28,0,0,0-4.87.39c-.93.17-1.84.48-2.76.69s-1.58.27-2.34.48-1.21.48-1.82.7-1.14.32-1.67.55c-1.35.59-2.68,1.25-4,1.83s-2.89,1.12-4.28,1.79c-1.75.83-3.46,1.76-5.16,2.69-.68.37-1.3.85-1.95,1.27a15.56,15.56,0,0,0-3.62,2.79,9,9,0,0,1-1,.89l-.12.15-.31.64.44-.1c-.06.25-.14.55.22.49a5,5,0,0,0,2-.48c.73-.5,1.61-.54,2.32-1a3.6,3.6,0,0,1,1.2-.36c-.5.56-1.06,1.19-1.64,1.81-.3.32-.56.62-.17,1,.17,0,.34,0,.42.05.41.38.84.26,1.3.12,1-.3,1.95-.57,2.93-.85a1.62,1.62,0,0,1,.31,0c.05.15.1.28.17.5.4-.55.75-.4,1.12-.07a.69.69,0,0,0,.48.06l1.94-.29a1.51,1.51,0,0,1,.46.07,2.75,2.75,0,0,0,.68.11c.48-.06.94-.17,1.41-.27.65-.13,1.3-.28,2-.38,1.08-.16,2.18-.24,3.25-.42a21.64,21.64,0,0,1,3.76-.42,13.14,13.14,0,0,0,1.64-.21.68.68,0,0,1,.31,0,3.4,3.4,0,0,0,1.72.28,5.86,5.86,0,0,1,2.86,1c.52.24.86.83,1.52.8.09,0,.19.11.28.18.78.66,1.55,1.34,2.34,2a4.18,4.18,0,0,0,.66.37,2.06,2.06,0,0,1,.57.3c.38.4.69.87,1.07,1.27a2.21,2.21,0,0,0,.62.35,3.46,3.46,0,0,0,.19-.68,7,7,0,0,0,0-.79l.14-.05c.19.23.36.47.56.68a18.56,18.56,0,0,0,1.67,1.65c.6.49,1.31.83,1.93,1.29s1.39,1.12,2.09,1.67a1.25,1.25,0,0,0,.44.13c.18,1.4.34,2.8.54,4.21a3.28,3.28,0,0,1-.19,1.7c-.1.27-.18.55-.26.83-.47,1.65-.93,3.3-1.4,4.94a1.88,1.88,0,0,0,.37,1.9,3.46,3.46,0,0,0,1.7,1.08c1.26.37,2.5.79,3.77,1.15a5.26,5.26,0,0,0,2.4.25c.42-.08.7-.25.77-.66.23-1.35.46-2.71.65-4.08.15-1,.23-2.07.37-3.1a4.07,4.07,0,0,1,.28-1.09c.32-.7.72-1.36,1.06-2.05.43-.9.83-1.82,1.23-2.71a3.55,3.55,0,0,0,1.12.34c.88,0,1.76-.21,2.64-.29s1.65-.1,2.47-.11,1.55.06,2.33.05,1.44-.08,2.17-.13l1.61-.11,1.45-.07c1.2-.07,2.33-.53,3.53-.6.64,0,1.27-.24,1.91-.33a11.15,11.15,0,0,1,1.29-.07h.74a8.13,8.13,0,0,1,1.51.44,16.44,16.44,0,0,1,1.91.67,11.55,11.55,0,0,1,2.52,1.58c.87.8,1.9,1.4,2.82,2.13a19.57,19.57,0,0,0,1.7,1.48,37.27,37.27,0,0,1,3,2.4C313.14,180.78,313.38,181.1,313.76,180.78Z"/><path class="cls-2" d="M412.86,167.07c.19.11.44.15.57.3.38.41.7.87,1.08,1.28a2.4,2.4,0,0,0,.61.34,4.07,4.07,0,0,0,.2-.68,5.11,5.11,0,0,0-.05-.78l.15-.05c.18.22.36.47.56.68a19.88,19.88,0,0,0,1.66,1.65c.6.49,1.32.83,1.94,1.29s1.38,1.12,2.08,1.66a1.31,1.31,0,0,0,.45.13c.18,1.4.34,2.81.54,4.21a3.38,3.38,0,0,1-.19,1.7,8,8,0,0,0-.26.83l-1.41,5a1.93,1.93,0,0,0,.37,1.9,3.59,3.59,0,0,0,1.71,1.07c1.26.37,2.5.79,3.76,1.15A5,5,0,0,0,429,189c.42-.07.69-.25.76-.65.24-1.36.46-2.72.66-4.09.15-1,.23-2.07.37-3.1a3.31,3.31,0,0,1,.28-1.08c.32-.7.72-1.36,1.05-2.06.43-.9.83-1.82,1.24-2.7a3.3,3.3,0,0,0,1.12.33c.88,0,1.76-.21,2.64-.28s1.64-.1,2.46-.11,1.56.06,2.33,0,1.45-.09,2.17-.14l1.61-.11,1.46-.07c1.19-.07,2.32-.53,3.53-.59.64,0,1.27-.24,1.91-.33.42-.06.86-.06,1.29-.08.24,0,.49,0,.74,0a8.26,8.26,0,0,1,1.5.44,14.26,14.26,0,0,1,1.91.66,12,12,0,0,1,2.53,1.58c.86.8,1.89,1.41,2.82,2.14a21.3,21.3,0,0,0,1.7,1.47c1.1.7,2,1.61,3,2.41.25.19.48.51.87.19.05,0,.25.08.36.16.31.22.62.45.92.69a2.42,2.42,0,0,1,.62.52c.24.39.5.36.85.21a.53.53,0,0,1,.46,0c.65.47,1.26,1,1.9,1.46a.63.63,0,0,0,.5.12c.32-.14.51,0,.72.2l1.28,1.16a.72.72,0,0,0,.78.19.82.82,0,0,1,.64.15c.36.31.65.7,1,1a1.2,1.2,0,0,0,1.46.24c-.42-1-.81-2.06-1.29-3.06a21.56,21.56,0,0,0-1.89-3.55c-.67-.92-1.21-1.93-1.86-2.87-.83-1.21-1.68-2.42-2.58-3.58s-2-2.44-3-3.63c-.71-.83-1.48-1.6-2.18-2.43-1-1.14-1.86-2.37-2.88-3.47s-2.38-2.38-3.58-3.55c-.31-.3-.7-.52-1-.82a21,21,0,0,0-6.67-4.25,2.08,2.08,0,0,0-1.71-.09c-.95.39-1.92.75-2.84,1.2a32.29,32.29,0,0,1-4.54,1.81,13.29,13.29,0,0,1-5.68.37,8.66,8.66,0,0,1-3.05-.71c-.68-.37-1.37-.79-1.49-1.63a17.26,17.26,0,0,0-.95-4.21,8.56,8.56,0,0,0-.81-1.73,4.14,4.14,0,0,0-2.37-1.54.94.94,0,0,1-.61-.59,3.71,3.71,0,0,0-1.15-1.68.5.5,0,0,0-.42-.05c-.1.05-.15.26-.15.4s.1.47.12.71a15.2,15.2,0,0,1,.2,2,13.19,13.19,0,0,1-.28,1.87,6.78,6.78,0,0,1-1.53,3.71.64.64,0,0,1-.45.2c-.68-.09-1.37-.18-2.05-.33a12,12,0,0,1-5.51-3.05c-1.63-1.48-3.12-3.12-4.68-4.69a4.43,4.43,0,0,0-2.71-1.39,15.94,15.94,0,0,0-4.87.4c-.93.17-1.84.47-2.77.68-.77.18-1.57.27-2.34.48s-1.2.48-1.81.7-1.14.32-1.68.55c-1.35.59-2.67,1.25-4,1.84s-2.89,1.12-4.29,1.78c-1.75.84-3.45,1.77-5.16,2.69-.67.37-1.29.85-1.94,1.27a15.19,15.19,0,0,0-3.63,2.8,11.48,11.48,0,0,1-1,.89l-.12.15c-.1.2-.2.4-.31.64l.43-.11c-.06.26-.13.56.23.5a4.92,4.92,0,0,0,1.95-.49c.73-.49,1.6-.53,2.31-1a3.63,3.63,0,0,1,1.21-.35l-1.64,1.81c-.3.32-.56.62-.17,1,.16,0,.33,0,.41.06.42.38.85.25,1.31.11,1-.29,1.95-.57,2.92-.84a1.17,1.17,0,0,1,.32,0c.05.15.09.27.17.49.4-.55.74-.4,1.11-.06a.72.72,0,0,0,.49.06c.65-.09,1.29-.21,1.94-.3a1.83,1.83,0,0,1,.45.07,2.42,2.42,0,0,0,.69.11c.47-.05.94-.17,1.41-.26.65-.13,1.3-.29,2-.39,1.08-.15,2.17-.23,3.25-.42a21.43,21.43,0,0,1,3.76-.42,11.36,11.36,0,0,0,1.63-.21c.11,0,.23-.07.32,0a3.51,3.51,0,0,0,1.72.28,5.81,5.81,0,0,1,2.86,1c.52.24.85.84,1.52.8.09,0,.19.11.27.18.78.67,1.56,1.34,2.35,2A3.21,3.21,0,0,0,412.86,167.07Z"/><path class="cls-2" d="M212.53,272.8c-1-.61-1.83-1.35-2.76-2-1.22-.82-2.45-1.63-3.71-2.38s-2.72-1.53-4.09-2.26c-1-.51-1.95-.95-2.9-1.46-1.33-.7-2.6-1.51-3.94-2.16-1.51-.73-3.07-1.34-4.62-2-.4-.16-.84-.22-1.23-.39a20.8,20.8,0,0,0-7.74-1.48,2.17,2.17,0,0,0-1.64.55c-.73.71-1.5,1.4-2.2,2.16a31.57,31.57,0,0,1-3.57,3.37,13.25,13.25,0,0,1-5.15,2.45,8.41,8.41,0,0,1-3.1.47,2.35,2.35,0,0,1-2-1,17.51,17.51,0,0,0-2.4-3.56,8.52,8.52,0,0,0-1.38-1.31,4.15,4.15,0,0,0-2.76-.56,1,1,0,0,1-.79-.32,3.61,3.61,0,0,0-1.67-1.13.51.51,0,0,0-.41.1.5.5,0,0,0,0,.43c.09.22.26.4.37.62a15.18,15.18,0,0,1,.91,1.8,14,14,0,0,1,.41,1.84,6.84,6.84,0,0,1-.08,4,.66.66,0,0,1-.34.34,20.45,20.45,0,0,1-2,.45,11.83,11.83,0,0,1-6.23-.79c-2.06-.78-4-1.75-6-2.64a4.46,4.46,0,0,0-3-.28,16.34,16.34,0,0,0-4.39,2.17c-.8.51-1.54,1.13-2.32,1.67s-1.37.83-2,1.31-1,.89-1.44,1.32-.94.72-1.35,1.13c-1,1.06-2,2.16-3.09,3.2s-2.28,2.12-3.34,3.25c-1.32,1.43-2.58,2.92-3.83,4.42-.5.59-.89,1.27-1.35,1.9a15.79,15.79,0,0,0-2.36,3.95,11.6,11.6,0,0,1-.57,1.18l-.06.18c0,.22,0,.44,0,.71l.36-.26c0,.26.08.57.39.38a4.9,4.9,0,0,0,1.64-1.18c.5-.73,1.3-1.09,1.78-1.81a3.78,3.78,0,0,1,1-.78c-.26.7-.55,1.5-.87,2.29-.16.41-.29.79.2,1,.16,0,.31-.14.4-.11.53.2.89-.08,1.26-.37.8-.64,1.61-1.26,2.42-1.88a1.43,1.43,0,0,1,.28-.13l.34.4c.17-.66.55-.65,1-.48.12.05.33,0,.47-.12.57-.32,1.13-.67,1.7-1a1.58,1.58,0,0,1,.44-.11,2.57,2.57,0,0,0,.69-.15c.42-.22.81-.51,1.21-.77.56-.36,1.11-.75,1.69-1.08.94-.55,1.93-1,2.87-1.6a22.28,22.28,0,0,1,3.34-1.78,12.08,12.08,0,0,0,1.45-.8c.09-.05.19-.15.28-.15a3.35,3.35,0,0,0,1.7-.38,5.77,5.77,0,0,1,3-.16c.57,0,1.1.46,1.71.18.08,0,.21,0,.32.07,1,.33,1.93.67,2.9,1a3.66,3.66,0,0,0,.75.1,2.14,2.14,0,0,1,.63.07c.5.23,1,.55,1.47.79a2.58,2.58,0,0,0,.7.09,5.69,5.69,0,0,0-.07-.71,7.51,7.51,0,0,0-.33-.71l.12-.1c.25.14.5.31.77.43a22.24,22.24,0,0,0,2.14.92c.74.23,1.52.28,2.27.48s1.69.53,2.54.78a1.23,1.23,0,0,0,.46-.05c.67,1.24,1.33,2.49,2,3.72a3.3,3.3,0,0,1,.43,1.65c0,.29,0,.58.06.87.16,1.71.33,3.42.49,5.12a1.85,1.85,0,0,0,1,1.63,3.44,3.44,0,0,0,2,.37c1.31-.12,2.62-.19,3.92-.32a5.21,5.21,0,0,0,2.33-.66.81.81,0,0,0,.47-.89c-.27-1.35-.55-2.7-.86-4.05-.24-1-.54-2-.78-3a3.83,3.83,0,0,1-.13-1.11c.05-.77.18-1.54.24-2.3.07-1,.11-2,.17-3a3.51,3.51,0,0,0,1.16-.1c.81-.36,1.56-.85,2.36-1.25s1.49-.7,2.25-1,1.47-.52,2.18-.82,1.32-.62,2-.93l1.46-.7c.44-.21.88-.4,1.32-.6,1.09-.51,2-1.36,3.07-1.86.59-.27,1.1-.7,1.66-1,.38-.21.78-.37,1.17-.55.23-.1.47-.18.7-.27a8,8,0,0,1,1.56-.14,15.48,15.48,0,0,1,2-.09,11.52,11.52,0,0,1,2.93.53c1.09.42,2.27.61,3.39.94a19.72,19.72,0,0,0,2.11.75,36.78,36.78,0,0,1,3.71,1.11c.3.09.63.3.88-.14,0-.06.26,0,.39,0,.37.09.74.19,1.1.3a2.41,2.41,0,0,1,.77.26c.36.27.6.15.87-.12a.53.53,0,0,1,.42-.18c.78.2,1.53.46,2.3.66a.63.63,0,0,0,.51-.08.61.61,0,0,1,.74-.07l1.61.6a.74.74,0,0,0,.8-.11.76.76,0,0,1,.64-.1c.45.16.87.41,1.3.6a1.2,1.2,0,0,0,1.45-.31c-.76-.79-1.5-1.62-2.31-2.38A21,21,0,0,0,212.53,272.8Z"/><path class="cls-2" d="M300.39,511.18c12.81-16.94,28.74-38,22.23-58.12-2.67-8.27-8.32-13.88-12.6-17.27A56.51,56.51,0,0,1,303.56,462a55.32,55.32,0,0,1-17.5,19.76A88.9,88.9,0,0,0,300,451.29c.95-4,3.74-15.67.34-17.49-1.92-1-5.17,1.45-9,5a121.89,121.89,0,0,0-23.51,29.76,259.85,259.85,0,0,0-14.63,31c1-10.6,4.62-32.41,20.46-52.83a95.68,95.68,0,0,1,20.93-19.89,27,27,0,0,0-15.34-5.08c-4,0-13.16,1.2-27,17.7-4.68,5.56-15.06,19.41-24.27,47.06-6.68,20-8.52,36.08-10.8,56.08-1.93,16.82-2.54,30.89-2.74,40.76,6.34-4.07,15.28-10,25.67-17.62C263.35,548.6,282.94,534.24,300.39,511.18Z"/><path class="cls-2" d="M451.31,427c-8.38-1.73-15.95.49-21,2.61a55,55,0,0,1,19.11,18.66,56.38,56.38,0,0,1,8.2,25.27,88,88,0,0,0-19-27.4c-2.91-2.8-11.52-11.07-14.76-9-1.82,1.2-1.32,5.29-.22,10.45a123.42,123.42,0,0,0,13.75,35.53,258.33,258.33,0,0,0,19.17,28.27,100.68,100.68,0,0,1-34.95-44.25,98.49,98.49,0,0,1-6.6-28.37,27.37,27.37,0,0,0-11.93,11.06c-2,3.57-5.49,12.24,1.72,32.68,2.43,6.89,9.11,22.93,28.14,44.77,13.79,15.83,26.57,25.39,42.49,37.31,13.4,10,25.1,17.54,33.42,22.59-.33-7.62-1-18.47-2.33-31.44-3-29-5.59-53.48-16.63-80.34C481.79,455.74,471.71,431.22,451.31,427Z"/><path class="cls-2" d="M392.62,510.66c2.73-17.11,6.12-38.38-6.15-50.18A29.15,29.15,0,0,0,371,453.11a45.76,45.76,0,0,1,.29,42.16,72.47,72.47,0,0,0-1.57-27.17c-.82-3.2-3.26-12.65-6.37-12.61-1.76,0-3.14,3.07-4.56,7.09a100.9,100.9,0,0,0-5.5,30.46,212.18,212.18,0,0,0,1.29,27.81,83.31,83.31,0,0,1-5.42-45.71,79.73,79.73,0,0,1,7.41-22.4,21.72,21.72,0,0,0-12.86,2.4c-2.85,1.6-8.94,6-12.58,23.23-1.23,5.81-3.39,19.76.51,43.1,2.82,16.92,7.58,29.08,13.52,44.24,5,12.75,9.88,23,13.48,30.14,3-5.4,7.1-13.14,11.63-22.65C380.37,551.89,388.91,534,392.62,510.66Z"/><path class="cls-2" d="M474,382a43.8,43.8,0,0,1,20.72,5.72,44.72,44.72,0,0,1,15.46,14.75,69.52,69.52,0,0,0-24-12c-3.13-.84-12.41-3.32-13.91-.54-.84,1.57,1.08,4.29,3.82,7.53a97.62,97.62,0,0,0,23.34,19.85,201.62,201.62,0,0,0,24.41,12.53,79.64,79.64,0,0,1-41.74-17.66,77.89,77.89,0,0,1-15.51-17.59,22.87,22.87,0,0,0-4.28,12.59c0,3.32.76,10.89,13.69,22.58,4.35,3.94,15.22,12.72,37.09,20.74,15.85,5.81,28.58,7.56,44.46,9.75,13.36,1.83,24.55,2.55,32.4,2.86-3.15-5.3-7.75-12.76-13.65-21.45-13.23-19.48-24.36-35.86-42.45-50.61-5.56-4.53-11.69-9.51-18.12-13.41H478.09A35.8,35.8,0,0,0,474,382Z"/><path class="cls-2" d="M182.12,399c-12.82,11.13-20.64,21.53-30.38,34.48-8.19,10.9-14.36,20.45-18.51,27.24,6.07-.16,14.72-.52,25.05-1.43,23.16-2,42.65-3.75,64.2-12.43,15.83-6.38,35.49-14.31,39.17-31.08a30.52,30.52,0,0,0-1.74-17.35,44.87,44.87,0,0,1-15.16,15.48,43.76,43.76,0,0,1-20.24,6.36A70.08,70.08,0,0,0,246.62,405c2.27-2.36,9-9.34,7.36-12-.92-1.52-4.19-1.18-8.3-.35a96,96,0,0,0-28.5,10.79,204.2,204.2,0,0,0-22.8,15.36c5-6.95,16.42-20.62,35.77-28.14a76.13,76.13,0,0,1,22.68-5,24.06,24.06,0,0,0-5.77-7.91H215C208.39,380.33,197,386.1,182.12,399Z"/><path class="cls-4" d="M315.52,565A163.37,163.37,0,0,0,329.37,544,146.74,146.74,0,0,1,322,493.43a318.33,318.33,0,0,1-21.82,34.36c-5.27,7.23-10.56,13.83-15.72,19.83a178.39,178.39,0,0,0,5.74,43.32A162.33,162.33,0,0,0,315.52,565Z"/><path class="cls-4" d="M511.39,509.77a169.84,169.84,0,0,0,39.23,17.72,166.3,166.3,0,0,0-8.43-35.62,163.28,163.28,0,0,0-10.24-23,140.06,140.06,0,0,1-46.2-20.09A321.74,321.74,0,0,1,503,485.74C506.32,494.1,509.07,502.15,511.39,509.77Z"/><path class="cls-4" d="M207.59,510.13c3-7.39,6.42-15.15,10.41-23.19a319,319,0,0,1,20.44-35.23,139.52,139.52,0,0,1-47.77,15.83A165.2,165.2,0,0,0,167,524.23a169.34,169.34,0,0,0,40.62-14.1Z"/><path class="cls-4" d="M400.12,515.6a146.45,146.45,0,0,1-8.49,27,165.65,165.65,0,0,0,12.13,22,163.11,163.11,0,0,0,23.21,28,176.53,176.53,0,0,0,5.6-19.61A178.65,178.65,0,0,0,436.16,550c-4.67-6.41-9.41-13.43-14.08-21.08a318.94,318.94,0,0,1-19-36A147.82,147.82,0,0,1,400.12,515.6Z"/><path class="cls-4" d="M121.91,383.08a174.63,174.63,0,0,0-15,13.5,158.78,158.78,0,0,0,34.75,9.49,157.16,157.16,0,0,0,24.71,1.82,141.92,141.92,0,0,1,20.42-19.33A139.42,139.42,0,0,1,203,377.69H129.1C126.74,379.37,124.35,381.14,121.91,383.08Z"/><path class="cls-4" d="M568.63,409.65a157.88,157.88,0,0,0,60.1-7,173.76,173.76,0,0,0-14.08-14.54c-4.27-3.94-8.46-7.36-12.47-10.4H535.34a141.61,141.61,0,0,1,33.29,32Z"/></svg>