<svg id="Layer_1" data-name="Layer 1" xmlns="http://www.w3.org/2000/svg" viewBox="0 0 708.66 708.66"><defs><style>.cls-1{fill:#965f44;}.cls-2{fill:#fedb48;}.cls-3{fill:#fcbd38;}.cls-4{fill:#ffd627;}</style></defs><title>sunflower</title><path class="cls-1" d="M463.8,346.53a112.63,112.63,0,0,0-68.4-103.59V82.77h-4.15V625.9h4.15V450.12A112.64,112.64,0,0,0,463.8,346.53Z"/><path class="cls-1" d="M299.68,246.46a112.51,112.51,0,0,0,0,200.14V625.9h4.15V82.77h-4.15Z"/><path class="cls-2" d="M163.54,284.82c17.27,13.31,38.74,29.85,59.28,23.09,8.43-2.77,14.14-8.64,17.6-13.08a56.63,56.63,0,0,1-46.82-24.9,89.72,89.72,0,0,0,31,14.5c4,1,16,3.89,17.83.35,1.05-2-1.47-5.37-5.07-9.37A124.21,124.21,0,0,0,207,251a260.73,260.73,0,0,0-31.56-15.19c10.81,1,33.06,4.79,53.88,21.24a99,99,0,0,1,20.28,21.75,28.33,28.33,0,0,0,5.18-15.93c0-4.18-1.22-13.68-18-28.08-5.67-4.86-19.8-15.64-48-25.21-20.44-6.94-36.8-8.85-57.19-11.22-17.15-2-31.5-2.64-41.56-2.84,4.15,6.59,10.21,15.87,18,26.66C125.39,246.35,140,266.7,163.54,284.82Z"/><path class="cls-2" d="M249.37,441.6c1.76-8.71-.51-16.57-2.66-21.78a56.57,56.57,0,0,1-44.81,28.37,89.48,89.48,0,0,0,27.95-19.78c2.86-3,11.29-12,9.13-15.32-1.21-1.9-5.39-1.38-10.65-.24a124.64,124.64,0,0,0-36.24,14.29,263,263,0,0,0-28.82,19.91c6.26-8.88,20.52-26.35,45.13-36.31a99.14,99.14,0,0,1,28.93-6.86,28.43,28.43,0,0,0-11.28-12.39c-3.64-2-12.48-5.7-33.33,1.79-7,2.53-23.38,9.47-45.66,29.23-16.14,14.33-25.89,27.6-38,44.15-10.22,13.91-17.88,26.07-23,34.71,7.77-.35,18.84-1,32.06-2.42,29.62-3.15,54.54-5.81,81.93-17.27C220.08,473.26,245.08,462.79,249.37,441.6Z"/><path class="cls-2" d="M164.07,380.63c17.45,2.84,39.14,6.36,51.18-6.38,4.94-5.24,6.76-11.62,7.51-16.12a46,46,0,0,1-43,.3,72.78,72.78,0,0,0,27.72-1.63c3.26-.85,12.9-3.39,12.85-6.62,0-1.83-3.12-3.26-7.23-4.73A100.56,100.56,0,0,0,182,339.74a211.19,211.19,0,0,0-28.36,1.33,83.61,83.61,0,0,1,46.61-5.63,80.49,80.49,0,0,1,22.85,7.7,22.94,22.94,0,0,0-2.45-13.36c-1.63-3-6.14-9.28-23.69-13.07-5.92-1.28-20.15-3.52-43.95.53-17.25,2.93-29.65,7.88-45.11,14.05-13,5.19-23.49,10.26-30.74,14,5.5,3.1,13.4,7.38,23.1,12.08C122,367.91,140.31,376.77,164.07,380.63Z"/><path class="cls-2" d="M295.25,465.21a45.94,45.94,0,0,1-20.87,37.59,73.09,73.09,0,0,0,12.21-24.93c.85-3.26,3.38-12.9.55-14.45-1.6-.88-4.38,1.11-7.67,4a101,101,0,0,0-20.25,24.24A212.47,212.47,0,0,0,246.44,517a83.57,83.57,0,0,1,18-43.36,80.11,80.11,0,0,1,17.92-16.11,23,23,0,0,0-12.83-4.44c-3.38,0-11.1.79-23,14.21-4,4.53-13,15.82-21.14,38.53-5.93,16.47-7.72,29.7-9.95,46.19-1.87,13.88-2.6,25.5-2.91,33.65,5.4-3.27,13-8,21.87-14.17,19.86-13.74,36.57-25.31,51.61-44.1,4.62-5.78,9.7-12.14,13.68-18.82V469.41A37.4,37.4,0,0,0,295.25,465.21Z"/><path class="cls-2" d="M278,162c-11.35-13.32-21.95-21.44-35.16-31.55-11.12-8.52-20.85-14.92-27.77-19.24.15,6.31.52,15.29,1.45,26,2.08,24.06,3.83,44.31,12.68,66.69,6.5,16.44,14.59,36.87,31.69,40.68,7,1.57,13.44-.14,17.7-1.8A45.92,45.92,0,0,1,256.26,206a72.76,72.76,0,0,0,15.59,23c2.4,2.36,9.51,9.34,12.27,7.64,1.55-1,1.2-4.35.36-8.63a101,101,0,0,0-11-29.6,212.08,212.08,0,0,0-15.67-23.68c7.09,5.22,21,17.06,28.7,37.16a80.26,80.26,0,0,1,5.1,23.56,24.77,24.77,0,0,0,8.07-6V196.07C297,189.25,291.1,177.38,278,162Z"/><path class="cls-3" d="M108.69,300.54A166.19,166.19,0,0,0,130,314.93a146.86,146.86,0,0,1,51.61-7.71,325.4,325.4,0,0,1-35-22.67c-7.37-5.48-14.11-11-20.23-16.33a177.44,177.44,0,0,0-44.18,6A167,167,0,0,0,108.69,300.54Z"/><path class="cls-3" d="M165,504a178.22,178.22,0,0,0-18.07,40.75,166.59,166.59,0,0,0,59.76-19.39,146.7,146.7,0,0,1,20.49-48,323.63,323.63,0,0,1-37.68,17.95C181,498.74,172.75,501.6,165,504Z"/><path class="cls-3" d="M164.62,188.42c7.53,3.09,15.45,6.67,23.64,10.82a326.82,326.82,0,0,1,35.93,21.22,146.61,146.61,0,0,1-16.14-49.62,167,167,0,0,0-57.81-24.61,177.45,177.45,0,0,0,14.38,42.19Z"/><path class="cls-3" d="M159,388.42a146.93,146.93,0,0,1-27.58-8.82,166.95,166.95,0,0,0-51,36.72,181.42,181.42,0,0,0,20,5.81A179,179,0,0,0,124,425.86c6.54-4.85,13.7-9.77,21.49-14.63a324.38,324.38,0,0,1,36.76-19.75A147.56,147.56,0,0,1,159,388.42Z"/><path class="cls-3" d="M294.17,99.41a177.08,177.08,0,0,0-13.76-15.62,166.58,166.58,0,0,0-11.54,61.76,146.09,146.09,0,0,1,30.81,38.12V106.89C298,104.43,296.16,102,294.17,99.41Z"/><path class="cls-3" d="M267.09,563.47a166.48,166.48,0,0,0,7.15,62.43,180.06,180.06,0,0,0,14.83-14.62c4-4.45,7.51-8.79,10.61-12.95V528.88a146.47,146.47,0,0,1-32.59,34.59Z"/><path class="cls-4" d="M591.38,248.47a4.17,4.17,0,0,1-1.43-.63,1.16,1.16,0,0,1-.58-.93,8.36,8.36,0,0,0-.08-2.12,3.93,3.93,0,0,0-.24-.91,2.07,2.07,0,0,0-1-1,.42.42,0,0,1-.25-.34,1.8,1.8,0,0,0-.41-.91.24.24,0,0,0-.2-.07c-.06,0-.1.11-.11.18s0,.24,0,.36a6.62,6.62,0,0,1-.09,1,7.62,7.62,0,0,1-.3.88,3.36,3.36,0,0,1-1.09,1.65.34.34,0,0,1-.24,0,8,8,0,0,1-1-.35,6,6,0,0,1-2.42-2c-.66-.87-1.25-1.8-1.87-2.71a2.3,2.3,0,0,0-1.2-.92,8.25,8.25,0,0,0-2.42-.26c-.47,0-.94.06-1.42.08s-.79,0-1.19,0-.63.12-1,.17-.59.05-.87.11c-.72.16-1.42.36-2.14.51s-1.52.28-2.26.47c-.93.24-1.85.53-2.77.83-.37.11-.72.29-1.07.43a7.3,7.3,0,0,0-2,1,6.26,6.26,0,0,1-.55.34l-.08.06c-.06.09-.13.18-.21.28h.23c-.06.12-.12.26.06.26a2.55,2.55,0,0,0,1-.05c.4-.18.84-.11,1.23-.29a2.21,2.21,0,0,1,.62-.06l-1,.73c-.17.12-.33.25-.17.45.08,0,.17,0,.2.07.17.22.39.2.63.17l1.51-.13a.39.39,0,0,1,.15,0,1.31,1.31,0,0,1,0,.25c.25-.23.4-.12.55.07a.38.38,0,0,0,.24.08l1,0a.83.83,0,0,1,.22.08,1.46,1.46,0,0,0,.33.12h.71c.33,0,.66,0,1,0,.54,0,1.08.09,1.62.1a10.68,10.68,0,0,1,1.88.14,4.57,4.57,0,0,0,.83.05c.05,0,.11,0,.15,0a1.66,1.66,0,0,0,.82.3,3,3,0,0,1,1.31.73c.23.17.34.49.67.53,0,0,.09.07.12.11.32.4.64.8,1,1.19a3.22,3.22,0,0,0,.28.24,1,1,0,0,1,.26.19c.14.24.26.49.41.72a1,1,0,0,0,.27.23,2.3,2.3,0,0,0,.15-.32,1.58,1.58,0,0,0,0-.38h.08c.07.13.13.26.21.38a10.78,10.78,0,0,0,.67,1c.24.29.56.53.83.81s.57.67.86,1a.68.68,0,0,0,.21.1c0,.69-.09,1.39-.12,2.08a1.64,1.64,0,0,1-.25.81c-.07.12-.14.25-.2.38l-1.14,2.26a.93.93,0,0,0,0,.95,1.66,1.66,0,0,0,.73.68c.58.3,1.16.62,1.74.91a2.57,2.57,0,0,0,1.16.34.4.4,0,0,0,.43-.25c.24-.63.48-1.27.7-1.91.16-.49.3-1,.46-1.47a1.92,1.92,0,0,1,.24-.5c.22-.31.47-.59.7-.89l.85-1.2a1.72,1.72,0,0,0,.52.27c.44.06.88.06,1.32.1s.81.11,1.22.18.75.17,1.13.24.72.09,1.08.13l.8.1.72.1c.59.08,1.18,0,1.78,0,.32,0,.64,0,1,0s.42.05.63.08l.37.07a4.47,4.47,0,0,1,.69.35,8.12,8.12,0,0,1,.88.5,5.7,5.7,0,0,1,1.09,1c.35.46.8.85,1.19,1.29a8.51,8.51,0,0,0,.69.87,17.34,17.34,0,0,1,1.27,1.45c.11.12.19.29.41.17,0,0,.12.07.16.11s.26.28.39.42a1.26,1.26,0,0,1,.26.31c.08.21.21.22.4.18a.31.31,0,0,1,.22,0c.27.29.53.6.8.89a.3.3,0,0,0,.23.1c.17,0,.25,0,.34.16s.34.46.52.68a.34.34,0,0,0,.36.17.38.38,0,0,1,.3.13c.15.18.26.4.39.59a.61.61,0,0,0,.69.26c-.11-.53-.21-1.08-.35-1.61a10.64,10.64,0,0,0-.6-1.89c-.24-.5-.42-1-.65-1.56s-.6-1.32-.93-2-.75-1.36-1.14-2c-.27-.47-.57-.91-.84-1.38-.37-.64-.7-1.32-1.1-2s-.94-1.37-1.43-2c-.12-.18-.29-.32-.41-.49a10.66,10.66,0,0,0-2.88-2.68,1.12,1.12,0,0,0-.83-.2c-.5.1-1,.19-1.5.32a17.68,17.68,0,0,1-2.39.46A6.75,6.75,0,0,1,591.38,248.47Z"/><path class="cls-4" d="M546.46,163.46a4.37,4.37,0,0,1-1.43-.63,1.16,1.16,0,0,1-.58-.93,8.36,8.36,0,0,0-.08-2.12,4.79,4.79,0,0,0-.24-.92,2.07,2.07,0,0,0-1-1,.45.45,0,0,1-.24-.34,2,2,0,0,0-.41-.92.27.27,0,0,0-.21-.06s-.09.11-.1.18,0,.23,0,.35a4.05,4.05,0,0,1-.39,1.87,3.34,3.34,0,0,1-1.1,1.66.32.32,0,0,1-.23.05,8,8,0,0,1-1-.35,6,6,0,0,1-2.42-2c-.67-.87-1.25-1.8-1.87-2.71a2.21,2.21,0,0,0-1.2-.92,8.25,8.25,0,0,0-2.42-.26c-.47,0-.94.06-1.42.08s-.79,0-1.19,0-.63.12-.95.18a8.27,8.27,0,0,0-.87.11c-.72.16-1.42.35-2.14.51s-1.52.28-2.26.47c-.93.24-1.86.53-2.78.82-.36.12-.71.3-1.06.44a7.3,7.3,0,0,0-2,1c-.17.13-.37.22-.55.34l-.08.06-.21.28h.23c-.06.12-.12.25.06.26a2.37,2.37,0,0,0,1-.06c.4-.17.84-.11,1.23-.28a1.66,1.66,0,0,1,.62-.06c-.29.22-.63.48-1,.72-.17.13-.33.25-.17.46.08,0,.17,0,.2.06.17.23.39.21.63.18l1.51-.14.15,0c0,.08,0,.15,0,.26.25-.23.4-.13.55.07a.33.33,0,0,0,.23.07l1,0a.83.83,0,0,1,.22.08,1.28,1.28,0,0,0,.33.11c.23,0,.47,0,.71,0s.66,0,1,0c.55,0,1.09.09,1.63.1a10.75,10.75,0,0,1,1.88.14,5.64,5.64,0,0,0,.82.05.4.4,0,0,1,.16,0,1.66,1.66,0,0,0,.82.3,3,3,0,0,1,1.31.73c.23.16.34.48.67.53,0,0,.09.07.12.11.32.4.64.79,1,1.18a1.35,1.35,0,0,0,.28.25,1,1,0,0,1,.26.19c.14.23.26.49.4.72a1.24,1.24,0,0,0,.28.22,1.77,1.77,0,0,0,.15-.31,1.58,1.58,0,0,0,.05-.38h.08c.07.12.13.26.21.38a10.69,10.69,0,0,0,.66.95c.25.29.57.52.84.8s.57.67.86,1c0,.06.14.07.21.11,0,.69-.09,1.39-.12,2.08a1.64,1.64,0,0,1-.25.81,2.75,2.75,0,0,0-.2.38l-1.14,2.26a.93.93,0,0,0,0,1,1.8,1.8,0,0,0,.74.68l1.74.91a2.7,2.7,0,0,0,1.16.34.4.4,0,0,0,.43-.25c.24-.63.47-1.27.69-1.91.17-.49.31-1,.47-1.47a1.92,1.92,0,0,1,.24-.5c.22-.31.47-.59.7-.89l.85-1.2a2,2,0,0,0,.52.27c.43.06.88.06,1.32.1s.81.11,1.22.18.75.17,1.13.24.72.09,1.08.13l.8.1.71.1c.6.08,1.19,0,1.79,0,.32,0,.64,0,1,0a4.55,4.55,0,0,1,.63.09,2.66,2.66,0,0,1,.37.07,3.73,3.73,0,0,1,.69.35,7.46,7.46,0,0,1,.88.5,6,6,0,0,1,1.09,1c.35.46.8.85,1.19,1.29a9.76,9.76,0,0,0,.69.87,17.34,17.34,0,0,1,1.27,1.45c.11.11.19.29.41.17,0,0,.12.06.16.11s.26.28.39.42a1.26,1.26,0,0,1,.26.31c.08.21.21.22.39.18a.26.26,0,0,1,.23,0l.8.88a.31.31,0,0,0,.23.11c.17,0,.25,0,.33.16l.52.68a.4.4,0,0,0,.37.17.38.38,0,0,1,.3.13,6,6,0,0,1,.39.59.59.59,0,0,0,.69.25c-.11-.53-.21-1.07-.35-1.6a10.39,10.39,0,0,0-.6-1.89c-.24-.51-.42-1.05-.65-1.56-.29-.66-.6-1.33-.94-2s-.74-1.36-1.13-2c-.27-.47-.58-.91-.84-1.38-.38-.65-.7-1.32-1.1-1.95s-.94-1.37-1.43-2.05c-.12-.17-.29-.31-.41-.49a10.62,10.62,0,0,0-2.88-2.67,1.09,1.09,0,0,0-.84-.2c-.5.1-1,.18-1.49.32a16.23,16.23,0,0,1-2.39.45A6.75,6.75,0,0,1,546.46,163.46Z"/><path class="cls-4" d="M629.49,357.05a12.59,12.59,0,0,0-2.49-1.18c-.74-.22-1.45-.56-2.19-.8-.95-.31-1.9-.61-2.87-.86s-2.06-.48-3.1-.69c-.72-.14-1.45-.23-2.17-.38-1-.2-2-.49-3-.65s-2.25-.25-3.38-.36c-.29,0-.58,0-.87,0a12.48,12.48,0,0,0-5.3.73,1.45,1.45,0,0,0-.94.78c-.33.69-.69,1.37-1,2.08a25.68,25.68,0,0,1-1.63,3.28,9.58,9.58,0,0,1-2.83,3,5.35,5.35,0,0,1-1.9,1.06,1.45,1.45,0,0,1-1.48-.23,11.44,11.44,0,0,0-2.27-2,5.7,5.7,0,0,0-1.16-.63,2.51,2.51,0,0,0-1.89.24.56.56,0,0,1-.57-.05,2.21,2.21,0,0,0-1.31-.43.35.35,0,0,0-.25.17.48.48,0,0,0,.1.31c.1.13.25.23.36.36a9.76,9.76,0,0,1,1,1.09,11.17,11.17,0,0,1,.64,1.24,5.54,5.54,0,0,1,.76,2.94.47.47,0,0,1-.15.33c-.39.28-.8.56-1.21.8a7.37,7.37,0,0,1-4.19.88c-1.48-.09-3-.33-4.44-.5a2.72,2.72,0,0,0-2,.5,11.82,11.82,0,0,0-2.39,2.59c-.42.56-.77,1.18-1.17,1.75s-.71.93-1,1.42-.44.87-.66,1.3-.47.74-.65,1.14c-.46,1-.88,2-1.34,3s-1,2.06-1.5,3.13c-.57,1.34-1.08,2.72-1.58,4.1-.2.54-.32,1.13-.49,1.69a13.55,13.55,0,0,0-.73,3.41,8.11,8.11,0,0,1-.12,1v.15c0,.17.06.33.1.53l.19-.28c.07.18.16.4.33.19a4,4,0,0,0,.82-1.24c.17-.64.61-1.09.78-1.73a3.08,3.08,0,0,1,.48-.79c0,.57,0,1.22-.1,1.86,0,.34,0,.64.33.66.09-.07.17-.17.24-.17.37,0,.55-.26.73-.56.39-.65.79-1.29,1.18-1.92a.87.87,0,0,1,.16-.17l.3.21c0-.52.22-.59.56-.58.09,0,.2-.11.28-.2.3-.36.59-.75.89-1.11a1,1,0,0,1,.27-.18A1.94,1.94,0,0,0,574,387c.23-.27.42-.56.63-.84s.56-.8.87-1.18c.5-.62,1-1.2,1.53-1.83a14.85,14.85,0,0,1,1.8-2.07,11.71,11.71,0,0,0,.77-.92c.05-.06.09-.15.15-.17a2.38,2.38,0,0,0,1-.68,3.68,3.68,0,0,1,1.91-.81c.38-.11.8.07,1.14-.27,0-.05.14,0,.22,0l2.07.05a2.3,2.3,0,0,0,.51-.1c.14,0,.29-.13.42-.1.37,0,.73.17,1.1.23a1.32,1.32,0,0,0,.47-.1,3.54,3.54,0,0,0-.18-.49,3.94,3.94,0,0,0-.36-.45l.06-.1c.19.05.39.11.58.14a11.93,11.93,0,0,0,1.57.16c.52,0,1-.15,1.56-.18s1.2,0,1.8,0a.89.89,0,0,0,.29-.15c.68.75,1.36,1.5,2.06,2.23a2.72,2.72,0,0,1,.62,1.1,6.26,6.26,0,0,0,.21.61l1.35,3.61a1.3,1.3,0,0,0,1,.94,2.11,2.11,0,0,0,1.35-.19c.82-.39,1.65-.75,2.47-1.15a3.62,3.62,0,0,0,1.37-1,.68.68,0,0,0,.12-.76c-.45-.91-.9-1.83-1.37-2.73-.36-.68-.76-1.33-1.12-2a3.1,3.1,0,0,1-.31-.78c-.12-.57-.19-1.15-.31-1.72-.15-.75-.33-1.48-.49-2.2a2.23,2.23,0,0,0,.73-.35c.45-.45.83-1,1.27-1.45s.82-.86,1.25-1.26.84-.72,1.24-1.1.73-.76,1.09-1.14l.79-.84.74-.75c.6-.62,1-1.45,1.6-2.07.33-.33.57-.76.87-1.12s.43-.45.64-.67.27-.24.4-.36a4.91,4.91,0,0,1,1-.47,9.14,9.14,0,0,1,1.28-.53,7,7,0,0,1,2-.3c.79,0,1.58-.09,2.38-.11a10.94,10.94,0,0,0,1.51.05,25.46,25.46,0,0,1,2.62-.06c.21,0,.47.08.54-.3,0-.05.16-.07.25-.08l.77,0a1.27,1.27,0,0,1,.55,0c.29.11.42,0,.54-.3,0-.09.15-.22.24-.22.54,0,1.08,0,1.61-.06a.39.39,0,0,0,.31-.17.4.4,0,0,1,.47-.23l1.16.06a.47.47,0,0,0,.49-.26.52.52,0,0,1,.4-.23c.32,0,.64.1,1,.14a.82.82,0,0,0,.87-.57C630.81,357.84,630.16,357.41,629.49,357.05Z"/><path class="cls-4" d="M514.38,302.21a3.65,3.65,0,0,0,1.88-.81c1-.84,2.11-1.65,3.14-2.5A5.36,5.36,0,0,0,521,297a.81.81,0,0,0-.1-1c-1-1-2-1.95-3-2.89-.76-.72-1.58-1.38-2.35-2.09a3.79,3.79,0,0,1-.74-.86c-.39-.67-.71-1.38-1.09-2.06-.49-.88-1-1.74-1.52-2.59a3.66,3.66,0,0,0,.93-.74c.48-.76.84-1.6,1.3-2.38s.87-1.44,1.34-2.13,1-1.27,1.39-1.93.77-1.26,1.15-1.89c.28-.47.55-.95.84-1.42l.79-1.25c.63-1,.91-2.26,1.55-3.31.35-.55.54-1.2.84-1.79.2-.39.45-.75.68-1.12.14-.21.29-.41.44-.62a8.15,8.15,0,0,1,1.24-1,17.56,17.56,0,0,1,1.66-1.22,11.94,11.94,0,0,1,2.78-1.21c1.16-.27,2.26-.78,3.4-1.14.73-.23,1.52-.28,2.21-.57a37.27,37.27,0,0,1,3.76-1.18c.3-.1.7-.11.66-.62,0-.06.22-.16.34-.21l1.1-.37a2.46,2.46,0,0,1,.8-.22c.46,0,.59-.22.67-.6a.56.56,0,0,1,.26-.38c.77-.27,1.55-.49,2.32-.76a.63.63,0,0,0,.38-.35c.07-.35.31-.42.59-.49l1.7-.4a.76.76,0,0,0,.62-.55.79.79,0,0,1,.48-.45c.47-.12,1-.15,1.44-.23a1.23,1.23,0,0,0,1-1.09c-1.09-.23-2.18-.5-3.29-.67a20.91,20.91,0,0,0-4-.46c-1.15,0-2.3-.09-3.45-.08-1.49,0-3,0-4.47.11s-3.17.26-4.74.43c-1.1.11-2.18.31-3.28.43-1.51.16-3,.2-4.55.42-1.68.25-3.35.63-5,1-.43.09-.83.29-1.26.37a21.63,21.63,0,0,0-7.39,3.15,2.22,2.22,0,0,0-1.08,1.39c-.22,1-.49,2-.65,3.06a33.47,33.47,0,0,1-1.13,4.85,13.67,13.67,0,0,1-3,5,8.52,8.52,0,0,1-2.37,2.15,2.35,2.35,0,0,1-2.21.32,17.42,17.42,0,0,0-4-1.62,9,9,0,0,0-1.9-.31,4.2,4.2,0,0,0-2.65,1.1,1,1,0,0,1-.85.18,3.67,3.67,0,0,0-2.05,0,.48.48,0,0,0-.29.32c0,.11.13.27.24.35s.45.19.67.31a13.85,13.85,0,0,1,1.77,1,15.5,15.5,0,0,1,1.39,1.3,6.85,6.85,0,0,1,2.19,3.42.66.66,0,0,1-.1.48c-.47.53-.95,1.05-1.46,1.53a12.33,12.33,0,0,1-5.73,2.88c-2.17.51-4.4.82-6.6,1.22a4.67,4.67,0,0,0-2.73,1.49,16.84,16.84,0,0,0-2.5,4.3c-.39.88-.67,1.82-1,2.72s-.7,1.47-1,2.23-.3,1.29-.47,1.93-.4,1.13-.51,1.72c-.3,1.47-.52,3-.82,4.42s-.75,3.07-1,4.62c-.33,1.94-.55,3.91-.77,5.87-.09.78,0,1.57-.08,2.36a15.7,15.7,0,0,0,.21,4.64,9.39,9.39,0,0,1,.18,1.31l.06.19.35.62.16-.42c.18.2.39.43.54.09a5.08,5.08,0,0,0,.74-1.91c0-.89.48-1.65.49-2.53a3.92,3.92,0,0,1,.4-1.21c.17.73.37,1.57.55,2.41.09.44.19.83.71.7.11-.13.18-.29.28-.31.56-.13.71-.57.86-1,.32-1,.66-2,1-2.94a1.56,1.56,0,0,1,.16-.28l.51.14c-.22-.65.1-.85.59-1,.14,0,.26-.22.33-.37.31-.59.59-1.2.89-1.79a1.75,1.75,0,0,1,.32-.35,2.94,2.94,0,0,0,.49-.51c.23-.43.4-.88.6-1.33.27-.62.52-1.26.82-1.87.5-1,1.06-1.95,1.54-3a22.58,22.58,0,0,1,1.83-3.39,13.3,13.3,0,0,0,.78-1.5c.05-.09.07-.23.15-.28a3.52,3.52,0,0,0,1.23-1.28,6,6,0,0,1,2.46-1.85c.5-.29,1.19-.23,1.55-.81,0-.08.2-.1.31-.13,1-.27,2-.53,3-.82a3.35,3.35,0,0,0,.69-.33c.2-.1.37-.28.58-.31.55-.08,1.12-.08,1.68-.17a2.13,2.13,0,0,0,.64-.32,4,4,0,0,0-.45-.55,4.62,4.62,0,0,0-.67-.41.83.83,0,0,1,0-.15c.29,0,.6,0,.89-.08a22.3,22.3,0,0,0,2.33-.45c.75-.23,1.45-.63,2.19-.89s1.73-.51,2.59-.79c.14,0,.25-.2.37-.3,1.26.66,2.52,1.33,3.8,2a3.38,3.38,0,0,1,1.3,1.13,7.4,7.4,0,0,0,.53.69l3.28,4A1.9,1.9,0,0,0,514.38,302.21Z"/><path class="cls-4" d="M566.55,522.93a3.57,3.57,0,0,0,1.88-.81c1-.84,2.11-1.64,3.14-2.49a5.5,5.5,0,0,0,1.6-1.88.79.79,0,0,0-.1-1c-1-1-2-2-3-2.9-.77-.71-1.58-1.38-2.36-2.08a4.27,4.27,0,0,1-.73-.86c-.39-.67-.71-1.39-1.09-2.06-.49-.88-1-1.75-1.52-2.59a3.65,3.65,0,0,0,.92-.75c.49-.76.85-1.6,1.3-2.38s.87-1.43,1.34-2.13,1-1.26,1.39-1.92.77-1.26,1.15-1.9c.29-.47.56-.94.85-1.41s.52-.84.78-1.26c.64-1,.91-2.25,1.56-3.3.34-.56.54-1.2.84-1.79a10.92,10.92,0,0,1,.68-1.13c.14-.21.29-.41.44-.61a7.6,7.6,0,0,1,1.24-1,13.8,13.8,0,0,1,1.66-1.22,11.89,11.89,0,0,1,2.77-1.22c1.16-.26,2.27-.78,3.41-1.14a19.7,19.7,0,0,0,2.2-.57,36.28,36.28,0,0,1,3.76-1.17c.31-.1.71-.11.67-.62,0-.06.21-.16.34-.21.36-.14.73-.26,1.1-.38a2.58,2.58,0,0,1,.8-.22c.46,0,.58-.21.66-.59a.57.57,0,0,1,.27-.39c.76-.27,1.55-.49,2.31-.75.16-.06.36-.21.39-.35.07-.35.31-.43.59-.49l1.7-.41a.75.75,0,0,0,.61-.54.81.81,0,0,1,.49-.45c.47-.13,1-.15,1.44-.24a1.24,1.24,0,0,0,1.05-1.08c-1.09-.23-2.18-.5-3.29-.68a21,21,0,0,0-4-.45c-1.15,0-2.3-.09-3.45-.09-1.49,0-3,0-4.47.11s-3.16.26-4.74.43c-1.09.12-2.18.32-3.27.43-1.52.16-3.05.21-4.55.43-1.69.24-3.35.62-5,1-.43.09-.83.29-1.26.37a21.51,21.51,0,0,0-7.4,3.16,2.22,2.22,0,0,0-1.07,1.39c-.22,1-.49,2-.65,3.06a33.34,33.34,0,0,1-1.13,4.84,13.59,13.59,0,0,1-3,5,8.8,8.8,0,0,1-2.36,2.15,2.36,2.36,0,0,1-2.22.31,17.14,17.14,0,0,0-4-1.61,9,9,0,0,0-1.91-.32,4.33,4.33,0,0,0-2.65,1.1.94.94,0,0,1-.84.18,3.7,3.7,0,0,0-2.06,0,.51.51,0,0,0-.29.32c0,.11.13.27.25.34s.45.2.66.31a16.19,16.19,0,0,1,1.78,1,14.28,14.28,0,0,1,1.39,1.31,6.81,6.81,0,0,1,2.18,3.42.61.61,0,0,1-.09.48c-.47.52-.95,1.05-1.47,1.53a12.37,12.37,0,0,1-5.72,2.87c-2.18.51-4.4.83-6.61,1.23a4.55,4.55,0,0,0-2.72,1.48,16.73,16.73,0,0,0-2.5,4.31c-.4.88-.67,1.81-1,2.71s-.69,1.47-1,2.24-.3,1.28-.47,1.92-.4,1.14-.52,1.72c-.29,1.47-.52,3-.82,4.43s-.75,3.06-1,4.61c-.33,1.95-.55,3.91-.77,5.88-.09.77-.05,1.57-.08,2.35a15.77,15.77,0,0,0,.21,4.65,11.16,11.16,0,0,1,.18,1.31l.06.19.34.62.17-.43c.18.2.38.43.54.1a5.06,5.06,0,0,0,.73-1.91c0-.9.49-1.65.49-2.53a3.53,3.53,0,0,1,.41-1.21c.17.73.37,1.57.54,2.41.1.43.19.82.72.7.11-.13.18-.29.28-.32.56-.13.7-.57.85-1,.33-1,.66-2,1-2.94a2.46,2.46,0,0,1,.17-.27l.51.14c-.23-.65.1-.85.59-1,.13,0,.26-.23.33-.37.31-.6.58-1.2.89-1.8a2,2,0,0,1,.31-.34,2.67,2.67,0,0,0,.5-.51c.23-.43.4-.89.59-1.33.28-.63.52-1.26.83-1.87.49-1,1.06-2,1.53-3a22.33,22.33,0,0,1,1.84-3.4,11,11,0,0,0,.77-1.49c0-.1.08-.23.15-.28a3.54,3.54,0,0,0,1.24-1.28,6,6,0,0,1,2.46-1.85c.5-.3,1.19-.24,1.54-.82.05-.07.2-.09.31-.12,1-.27,2-.53,3-.82a4,4,0,0,0,.69-.34,2.13,2.13,0,0,1,.57-.31c.56-.08,1.13-.08,1.69-.16a2.56,2.56,0,0,0,.64-.32,4.13,4.13,0,0,0-.45-.55,5.16,5.16,0,0,0-.68-.42.83.83,0,0,0,0-.15c.3,0,.6,0,.9-.08a18.43,18.43,0,0,0,2.33-.45c.75-.22,1.45-.62,2.19-.88s1.73-.52,2.59-.79a1.28,1.28,0,0,0,.36-.3c1.27.65,2.53,1.33,3.8,2a3.19,3.19,0,0,1,1.3,1.14c.17.24.35.46.54.69l3.28,4A1.89,1.89,0,0,0,566.55,522.93Z"/><path class="cls-1" d="M549.92,377.19c-.84-.47-1.61-1.07-2.43-1.56-1.08-.65-2.16-1.29-3.26-1.87s-2.39-1.2-3.59-1.76c-.84-.4-1.7-.73-2.54-1.12-1.16-.55-2.27-1.19-3.45-1.68s-2.68-1-4-1.5c-.35-.12-.73-.16-1.07-.28a18.09,18.09,0,0,0-6.68-1,1.87,1.87,0,0,0-1.38.53c-.6.64-1.24,1.25-1.8,1.92a29.44,29.44,0,0,1-2.93,3,11.58,11.58,0,0,1-4.32,2.27,7.41,7.41,0,0,1-2.63.51,2,2,0,0,1-1.73-.74A14.29,14.29,0,0,0,505.9,371a7.2,7.2,0,0,0-1.23-1.06,3.63,3.63,0,0,0-2.38-.37.81.81,0,0,1-.69-.24,3.07,3.07,0,0,0-1.47-.89.41.41,0,0,0-.35.1.42.42,0,0,0,0,.36c.1.18.24.33.34.51a11.64,11.64,0,0,1,.85,1.49,11.27,11.27,0,0,1,.42,1.54,5.64,5.64,0,0,1,.08,3.4.51.51,0,0,1-.28.31c-.56.17-1.14.34-1.71.46a10.32,10.32,0,0,1-5.37-.44c-1.78-.58-3.52-1.32-5.27-2a3.87,3.87,0,0,0-2.6-.12,14,14,0,0,0-3.68,2c-.67.46-1.27,1-1.93,1.5s-1.13.75-1.66,1.18-.78.79-1.18,1.18-.78.64-1.12,1c-.85.92-1.66,1.89-2.52,2.81s-1.87,1.88-2.74,2.88c-1.08,1.25-2.09,2.56-3.11,3.88-.4.52-.72,1.1-1.08,1.65a13.17,13.17,0,0,0-1.88,3.43,8.26,8.26,0,0,1-.44,1c0,.05,0,.11,0,.16s0,.37,0,.6l.3-.23c0,.21.09.47.35.3a4.4,4.4,0,0,0,1.36-1.06c.4-.63,1.07-1,1.45-1.6a3.31,3.31,0,0,1,.82-.69c-.2.6-.42,1.29-.66,2-.12.35-.22.68.21.81.13,0,.25-.13.34-.1.45.15.75-.1,1.06-.36.66-.57,1.33-1.13,2-1.68a1.08,1.08,0,0,1,.24-.12l.3.32c.12-.57.45-.57.85-.44.11,0,.28-.05.4-.12.48-.29.94-.61,1.42-.9a1.19,1.19,0,0,1,.38-.11,2.51,2.51,0,0,0,.57-.15c.35-.21.68-.46,1-.7s.92-.68,1.41-1c.79-.5,1.61-.94,2.39-1.46a20,20,0,0,1,2.8-1.63,11.43,11.43,0,0,0,1.21-.73c.08-.05.15-.14.23-.14a2.9,2.9,0,0,0,1.44-.38,5,5,0,0,1,2.57-.26c.49,0,1,.35,1.47.09.07,0,.19,0,.28.05l2.52.73a4.34,4.34,0,0,0,.64.06,1.67,1.67,0,0,1,.55,0c.43.18.84.43,1.28.61a2,2,0,0,0,.6,0,2.8,2.8,0,0,0-.09-.59,4.09,4.09,0,0,0-.3-.59l.1-.09c.22.11.44.24.67.33a16.17,16.17,0,0,0,1.87.69c.64.17,1.31.19,2,.32s1.47.39,2.2.57a1.11,1.11,0,0,0,.4-.06c.62,1,1.23,2.05,1.87,3.07a2.73,2.73,0,0,1,.43,1.38,6.06,6.06,0,0,0,.09.73l.6,4.31a1.6,1.6,0,0,0,.94,1.34,3,3,0,0,0,1.71.24c1.11-.15,2.23-.26,3.34-.42a4.55,4.55,0,0,0,2-.65.68.68,0,0,0,.37-.77c-.28-1.13-.58-2.26-.89-3.39-.24-.84-.54-1.68-.78-2.52a3.37,3.37,0,0,1-.16-.94c0-.65.1-1.3.12-1.95,0-.85,0-1.7,0-2.53a2.82,2.82,0,0,0,1-.13c.68-.33,1.3-.77,2-1.14s1.25-.65,1.89-.94,1.23-.5,1.84-.78,1.1-.57,1.65-.85l1.22-.65,1.11-.56c.92-.47,1.64-1.22,2.56-1.69.49-.25.91-.63,1.38-.92a10.15,10.15,0,0,1,1-.51c.19-.1.39-.17.59-.26a7.22,7.22,0,0,1,1.33-.18,13,13,0,0,1,1.72-.15,9.93,9.93,0,0,1,2.52.34c.95.32,2,.43,2.94.67.62.15,1.21.46,1.84.55a32,32,0,0,1,3.21.79c.26.07.55.24.74-.15,0,0,.23,0,.34,0,.32.06.64.14,1,.21a2.28,2.28,0,0,1,.67.19c.32.22.52.1.74-.14a.48.48,0,0,1,.36-.16c.67.14,1.32.33,2,.47a.56.56,0,0,0,.43-.08c.2-.22.4-.17.63-.1l1.4.46a.64.64,0,0,0,.68-.13.67.67,0,0,1,.55-.11,12.16,12.16,0,0,1,1.13.46,1.05,1.05,0,0,0,1.23-.32c-.68-.64-1.35-1.31-2.07-1.92A17.22,17.22,0,0,0,549.92,377.19Z"/><path class="cls-1" d="M547.65,457.93c-.55-.14-1.07-.36-1.61-.52-.7-.2-1.4-.39-2.11-.55s-1.52-.31-2.29-.45c-.53-.09-1.06-.15-1.59-.24-.74-.14-1.46-.32-2.2-.43s-1.65-.16-2.48-.23c-.22,0-.43,0-.65,0a10.54,10.54,0,0,0-3.9.48,1.06,1.06,0,0,0-.69.5c-.24.45-.51.89-.72,1.35a17.74,17.74,0,0,1-1.2,2.12,6.59,6.59,0,0,1-2.08,1.92,4.26,4.26,0,0,1-1.4.69,1.17,1.17,0,0,1-1.09-.15A8.16,8.16,0,0,0,522,461.1a4.7,4.7,0,0,0-.85-.4,2,2,0,0,0-1.39.15.47.47,0,0,1-.43,0,1.79,1.79,0,0,0-1-.28.26.26,0,0,0-.18.11.24.24,0,0,0,.07.2,3,3,0,0,0,.27.23c.23.24.49.45.7.71s.31.54.47.81a3.36,3.36,0,0,1,.56,1.9.33.33,0,0,1-.11.21c-.3.18-.59.36-.9.52a6.08,6.08,0,0,1-3.08.57c-1.09-.06-2.18-.22-3.27-.33a2.28,2.28,0,0,0-1.48.32,8.51,8.51,0,0,0-1.76,1.68c-.3.36-.56.76-.85,1.14s-.53.59-.76.91-.32.57-.49.84-.34.48-.47.74c-.34.65-.65,1.32-1,2s-.77,1.34-1.1,2c-.42.87-.8,1.76-1.17,2.65-.15.36-.23.73-.36,1.1a7.6,7.6,0,0,0-.53,2.21c0,.21-.06.42-.09.64v.09c0,.11,0,.22.07.34L503,482c.06.11.12.25.24.12a2.84,2.84,0,0,0,.61-.8c.12-.42.45-.71.57-1.12a1.93,1.93,0,0,1,.36-.52c0,.37-.05.79-.08,1.21,0,.22,0,.41.24.43.07,0,.13-.12.18-.11.28,0,.41-.17.54-.37.28-.42.58-.83.87-1.24,0-.05.08-.07.11-.11l.23.14c0-.34.16-.39.41-.38a.35.35,0,0,0,.2-.13l.66-.72a1,1,0,0,1,.2-.12,1.11,1.11,0,0,0,.3-.17c.16-.17.31-.36.46-.54s.42-.52.64-.77c.37-.4.77-.77,1.13-1.18a11.13,11.13,0,0,1,1.32-1.34,6.37,6.37,0,0,0,.57-.59s.06-.1.11-.12a1.59,1.59,0,0,0,.75-.43,3,3,0,0,1,1.41-.53c.27-.07.59.05.84-.17,0,0,.1,0,.16,0l1.52,0a2.2,2.2,0,0,0,.37-.06,1,1,0,0,1,.32-.07l.81.15a1.12,1.12,0,0,0,.35-.06,1.16,1.16,0,0,0-.4-.61l0-.06.43.08a9,9,0,0,0,1.15.11c.39,0,.77-.1,1.15-.12s.88,0,1.33,0a.67.67,0,0,0,.21-.1c.5.48,1,1,1.51,1.44a1.68,1.68,0,0,1,.46.72c0,.13.1.26.15.39.33.78.67,1.56,1,2.33a.92.92,0,0,0,.73.61,1.77,1.77,0,0,0,1-.12c.6-.25,1.22-.48,1.82-.74a2.57,2.57,0,0,0,1-.66.41.41,0,0,0,.1-.49q-.5-.9-1-1.77c-.26-.44-.55-.86-.82-1.3a2.34,2.34,0,0,1-.23-.51c-.09-.36-.14-.74-.22-1.11s-.25-1-.37-1.42a1.73,1.73,0,0,0,.54-.23c.33-.29.62-.63.93-.94s.61-.55.92-.81.62-.47.92-.72.53-.48.8-.73l.59-.55.54-.48c.44-.4.73-.94,1.18-1.34a9,9,0,0,0,.64-.73c.14-.15.31-.29.47-.43l.29-.23a3.53,3.53,0,0,1,.72-.3,8.41,8.41,0,0,1,.94-.35,6,6,0,0,1,1.47-.19c.58,0,1.17-.06,1.76-.07a10.36,10.36,0,0,0,1.11,0c.64-.08,1.28,0,1.93,0,.15,0,.34,0,.39-.19,0,0,.12-.05.19-.06l.57,0a1.08,1.08,0,0,1,.4,0c.22.07.31,0,.4-.19s.11-.14.17-.14l1.19,0a.3.3,0,0,0,.23-.11.3.3,0,0,1,.34-.15l.86,0a.37.37,0,0,0,.36-.17.37.37,0,0,1,.29-.14c.24,0,.47.06.71.08a.6.6,0,0,0,.64-.36c-.48-.26-.95-.54-1.45-.77A10.09,10.09,0,0,0,547.65,457.93Z"/><path class="cls-1" d="M622.46,332.47A8.84,8.84,0,0,0,622,331c-.2-.4-.34-.83-.52-1.24s-.48-1.06-.75-1.57-.59-1.09-.9-1.62c-.21-.37-.46-.73-.67-1.1s-.56-1.05-.87-1.55-.76-1.09-1.14-1.63c-.1-.14-.24-.25-.33-.39a8.48,8.48,0,0,0-2.3-2.13.86.86,0,0,0-.66-.16c-.4.08-.8.15-1.19.25a13.71,13.71,0,0,1-1.91.37,5.49,5.49,0,0,1-2.24-.28,3.33,3.33,0,0,1-1.14-.5.9.9,0,0,1-.46-.74,6.82,6.82,0,0,0-.07-1.69,3.56,3.56,0,0,0-.19-.73,1.69,1.69,0,0,0-.81-.77.37.37,0,0,1-.2-.27,1.42,1.42,0,0,0-.32-.73s-.12-.07-.16-.05-.08.09-.09.14a2.81,2.81,0,0,0,0,.29,7,7,0,0,1-.07.79,6.52,6.52,0,0,1-.25.7,2.6,2.6,0,0,1-.87,1.31.25.25,0,0,1-.18,0c-.27-.09-.53-.17-.78-.28a4.81,4.81,0,0,1-1.93-1.58c-.53-.69-1-1.44-1.48-2.16a1.8,1.8,0,0,0-1-.73,6.61,6.61,0,0,0-1.93-.21c-.38,0-.75.05-1.13.06s-.63,0-1,0-.5.09-.76.13-.46,0-.69.09l-1.7.41c-.6.13-1.21.22-1.8.37-.75.2-1.48.43-2.21.66a9.11,9.11,0,0,0-.86.35,5.8,5.8,0,0,0-1.61.81c-.14.1-.3.18-.44.27l-.06.05a2.65,2.65,0,0,1-.17.22h.18c0,.1-.09.21.05.21a1.93,1.93,0,0,0,.8,0c.32-.14.66-.09,1-.23a1.67,1.67,0,0,1,.49-.05l-.77.58c-.14.1-.26.2-.14.36s.14,0,.16.06a.49.49,0,0,0,.5.14c.4,0,.8-.08,1.21-.11,0,0,.08,0,.12,0s0,.11,0,.21c.2-.19.32-.1.44.05a.27.27,0,0,0,.19.06l.77,0a.64.64,0,0,1,.18.06.8.8,0,0,0,.26.09,3.49,3.49,0,0,0,.56,0h.8c.43,0,.86.07,1.3.08a9.26,9.26,0,0,1,1.49.11,4.87,4.87,0,0,0,.66,0s.09,0,.12,0a1.46,1.46,0,0,0,.65.24,2.38,2.38,0,0,1,1,.58c.18.13.27.39.53.42,0,0,.07.06.1.09l.77.94a1.5,1.5,0,0,0,.23.2c.06.05.15.08.2.15s.2.39.32.57.15.12.22.18a1.15,1.15,0,0,0,.12-.25,1.45,1.45,0,0,0,0-.3h.06c.06.1.11.21.17.3a6.86,6.86,0,0,0,.53.76c.2.23.45.42.66.64s.46.54.7.8c0,0,.11,0,.16.08,0,.55-.07,1.11-.1,1.66a1.26,1.26,0,0,1-.19.64l-.17.3-.9,1.81a.74.74,0,0,0,0,.76,1.4,1.4,0,0,0,.59.54l1.38.72a2.13,2.13,0,0,0,.92.27c.17,0,.29,0,.35-.19.19-.51.38-1,.55-1.53s.24-.78.37-1.17a1.84,1.84,0,0,1,.19-.4c.18-.24.38-.47.56-.71s.46-.64.68-.95c.13.06.26.19.41.21.35.05.71.05,1.06.08l1,.14c.3.06.6.14.9.19s.57.08.86.11l.63.08.58.08c.47.06.94,0,1.42,0,.25,0,.51,0,.77,0a4,4,0,0,1,.5.07,2.47,2.47,0,0,1,.29.06,2.44,2.44,0,0,1,.56.28,6.68,6.68,0,0,1,.7.39,5,5,0,0,1,.87.8c.28.37.63.68.94,1a7.65,7.65,0,0,0,.56.69c.38.35.67.77,1,1.15.08.1.15.24.32.14s.1.05.13.09l.31.33a.92.92,0,0,1,.2.25c.07.17.17.18.32.14a.21.21,0,0,1,.18,0c.22.23.42.47.64.7a.23.23,0,0,0,.18.08c.14,0,.2,0,.27.13l.41.55a.32.32,0,0,0,.29.13.31.31,0,0,1,.24.1c.12.15.21.32.31.47a.5.5,0,0,0,.56.21C622.64,333.32,622.57,332.89,622.46,332.47Z"/><path class="cls-1" d="M407.82,180.78c-.31.68-.65,1.47-1,2.25-.18.41-.34.78.16,1,.16,0,.32-.12.41-.08.53.23.9,0,1.3-.31.85-.6,1.7-1.18,2.56-1.76a1.11,1.11,0,0,1,.3-.12l.32.41c.21-.65.59-.62,1.06-.42a.72.72,0,0,0,.48-.1c.6-.29,1.19-.62,1.79-.91a1.34,1.34,0,0,1,.46-.08,3.2,3.2,0,0,0,.7-.12c.44-.21.85-.47,1.27-.71.59-.34,1.17-.7,1.78-1,1-.5,2-.93,3-1.45a22.7,22.7,0,0,1,3.5-1.63,11,11,0,0,0,1.51-.73c.1-.05.2-.14.29-.13a3.64,3.64,0,0,0,1.76-.29,5.92,5.92,0,0,1,3.07,0c.58.06,1.1.52,1.73.27.09,0,.22,0,.33.08,1,.38,1.93.78,2.9,1.15a3.78,3.78,0,0,0,.76.14,2.2,2.2,0,0,1,.64.1c.5.26.95.61,1.45.87a2.3,2.3,0,0,0,.71.13,3.31,3.31,0,0,0,0-.71,5.16,5.16,0,0,0-.29-.74l.12-.09c.26.15.5.33.77.47a19,19,0,0,0,2.13,1c.74.27,1.54.37,2.29.6s1.7.62,2.55.92a1.26,1.26,0,0,0,.47,0c.62,1.28,1.23,2.58,1.87,3.85a3.31,3.31,0,0,1,.36,1.69c0,.29,0,.58,0,.87.07,1.73.15,3.46.23,5.18a1.89,1.89,0,0,0,1,1.7,3.68,3.68,0,0,0,2,.47c1.33-.05,2.67-.06,4-.12a5.34,5.34,0,0,0,2.4-.55c.38-.21.59-.46.53-.87-.21-1.37-.43-2.75-.67-4.11-.19-1-.45-2.05-.65-3.09a3.82,3.82,0,0,1-.07-1.12c.09-.78.26-1.54.36-2.31.13-1,.22-2,.32-3a3.66,3.66,0,0,0,1.19-.05c.85-.31,1.64-.77,2.47-1.13s1.55-.63,2.35-.9,1.51-.45,2.26-.71,1.37-.55,2.06-.83c.5-.21,1-.43,1.52-.63s.92-.36,1.38-.54c1.13-.46,2.08-1.27,3.22-1.72.61-.24,1.15-.64,1.75-.93a12.82,12.82,0,0,1,1.21-.5l.72-.23a8.54,8.54,0,0,1,1.6-.07,15.63,15.63,0,0,1,2.06,0,11.92,11.92,0,0,1,2.95.69c1.09.48,2.28.72,3.41,1.12a22.24,22.24,0,0,0,2.11.86,37.21,37.21,0,0,1,3.72,1.3c.3.11.63.34.9-.09,0-.05.27,0,.4,0,.37.11.74.24,1.11.36a2.32,2.32,0,0,1,.76.3c.36.29.61.18.9-.08a.55.55,0,0,1,.44-.15c.77.24,1.53.53,2.31.78a.63.63,0,0,0,.51-.05.62.62,0,0,1,.77,0l1.6.69a.75.75,0,0,0,.82-.07.87.87,0,0,1,.67-.07c.44.18.85.46,1.29.67a1.22,1.22,0,0,0,1.49-.24c-.74-.83-1.45-1.7-2.23-2.51a21.66,21.66,0,0,0-3-2.77c-.94-.66-1.79-1.45-2.71-2.14-1.2-.88-2.41-1.76-3.65-2.58s-2.69-1.68-4.06-2.49c-.95-.56-1.93-1-2.88-1.61-1.31-.78-2.56-1.66-3.9-2.38-1.5-.81-3.06-1.5-4.6-2.23-.4-.19-.84-.27-1.24-.46a21.73,21.73,0,0,0-7.81-1.89,2.22,2.22,0,0,0-1.69.47c-.79.68-1.6,1.34-2.35,2.07a33.27,33.27,0,0,1-3.81,3.2,13.47,13.47,0,0,1-5.37,2.2,8.56,8.56,0,0,1-3.18.31,2.39,2.39,0,0,1-2-1.07,17.13,17.13,0,0,0-2.26-3.71,8.85,8.85,0,0,0-1.34-1.39,4.31,4.31,0,0,0-2.78-.71.94.94,0,0,1-.79-.36,3.65,3.65,0,0,0-1.65-1.22.5.5,0,0,0-.42.08.53.53,0,0,0,0,.43c.09.22.24.42.35.64a15.32,15.32,0,0,1,.83,1.86,14.48,14.48,0,0,1,.33,1.88,6.81,6.81,0,0,1-.29,4,.66.66,0,0,1-.37.33c-.69.14-1.39.27-2.09.35a12.4,12.4,0,0,1-6.3-1.12c-2-.89-4-2-6-3a4.66,4.66,0,0,0-3.07-.44,16.89,16.89,0,0,0-4.58,2c-.84.47-1.63,1-2.45,1.56s-1.44.76-2.11,1.21-1,.85-1.53,1.26-1,.68-1.44,1.07c-1.12,1-2.19,2.06-3.31,3.06s-2.43,2-3.56,3.1c-1.43,1.36-2.78,2.8-4.13,4.24-.54.58-1,1.24-1.47,1.85a15.29,15.29,0,0,0-2.61,3.85,9.3,9.3,0,0,1-.64,1.15,1.07,1.07,0,0,1-.07.19c0,.22-.06.44-.09.71l.38-.25c0,.27.06.58.38.41a5.24,5.24,0,0,0,1.73-1.1c.55-.71,1.38-1,1.91-1.74A3.78,3.78,0,0,1,407.82,180.78Z"/><path class="cls-1" d="M507.63,564.75c-.68-.92-1.24-1.94-1.89-2.88-.85-1.22-1.72-2.44-2.64-3.61s-2-2.45-3.05-3.66c-.72-.83-1.5-1.61-2.22-2.44-1-1.16-1.9-2.39-2.94-3.5s-2.42-2.4-3.65-3.58c-.32-.3-.71-.52-1-.82a21.63,21.63,0,0,0-6.81-4.29,2.26,2.26,0,0,0-1.75-.09c-1,.4-2,.76-2.89,1.21a32.29,32.29,0,0,1-4.63,1.83,13.64,13.64,0,0,1-5.79.37,8.72,8.72,0,0,1-3.11-.72c-.7-.36-1.4-.79-1.52-1.64a17.63,17.63,0,0,0-1-4.24,9.06,9.06,0,0,0-.83-1.75,4.31,4.31,0,0,0-2.41-1.55.93.93,0,0,1-.63-.59,3.75,3.75,0,0,0-1.17-1.69.51.51,0,0,0-.43-.05c-.1.05-.15.26-.15.4s.1.48.13.72a8.2,8.2,0,0,1-.09,3.91,6.87,6.87,0,0,1-1.56,3.74.63.63,0,0,1-.46.19,21.12,21.12,0,0,1-2.09-.33,12.23,12.23,0,0,1-5.62-3.07c-1.66-1.49-3.18-3.15-4.77-4.73a4.58,4.58,0,0,0-2.77-1.39,16.55,16.55,0,0,0-5,.4c-.95.17-1.88.47-2.82.69s-1.61.27-2.39.48-1.23.48-1.85.71-1.16.32-1.71.55c-1.37.59-2.72,1.26-4.1,1.85s-2.95,1.13-4.37,1.8c-1.78.84-3.53,1.77-5.27,2.71-.69.37-1.31.85-2,1.28a15.54,15.54,0,0,0-3.69,2.81,10.45,10.45,0,0,1-1,.9l-.12.15-.32.64.45-.1c-.06.25-.14.56.23.5a5.12,5.12,0,0,0,2-.49c.74-.5,1.63-.54,2.36-1a4,4,0,0,1,1.22-.36c-.51.56-1.08,1.2-1.67,1.83-.31.32-.57.62-.17,1,.17,0,.34,0,.42.05.42.39.87.26,1.33.12,1-.3,2-.57,3-.85a1.15,1.15,0,0,1,.32,0c.05.15.09.28.17.5.41-.56.76-.4,1.14-.07a.72.72,0,0,0,.49.06l2-.29a1.82,1.82,0,0,1,.46.06,3,3,0,0,0,.71.12c.48-.06.95-.18,1.43-.27.67-.13,1.33-.29,2-.39,1.1-.16,2.22-.24,3.31-.42a23.64,23.64,0,0,1,3.84-.43,10.74,10.74,0,0,0,1.67-.21c.1,0,.23-.07.31,0a3.58,3.58,0,0,0,1.76.28,6,6,0,0,1,2.92,1c.53.24.87.84,1.55.81.09,0,.19.11.28.18.79.67,1.58,1.35,2.39,2a3.64,3.64,0,0,0,.67.38,2.12,2.12,0,0,1,.58.3c.39.41.71.88,1.09,1.28a2.27,2.27,0,0,0,.63.35,3.4,3.4,0,0,0,.2-.69,7.09,7.09,0,0,0,0-.79l.14,0c.19.23.37.48.58.69a18.89,18.89,0,0,0,1.69,1.66c.61.49,1.34.84,2,1.3s1.41,1.13,2.12,1.68a1.36,1.36,0,0,0,.46.13c.18,1.41.34,2.83.55,4.24a3.36,3.36,0,0,1-.2,1.72,8,8,0,0,0-.26.83c-.48,1.66-1,3.32-1.43,5a1.9,1.9,0,0,0,.37,1.92,3.65,3.65,0,0,0,1.74,1.08c1.28.38,2.55.8,3.84,1.16a5.35,5.35,0,0,0,2.45.25c.43-.08.71-.25.78-.66.24-1.37.47-2.74.67-4.11.15-1,.23-2.09.38-3.13a4.07,4.07,0,0,1,.28-1.09c.33-.7.74-1.37,1.08-2.07.44-.91.85-1.83,1.26-2.72a4,4,0,0,0,1.14.33c.9,0,1.79-.21,2.7-.29s1.67-.1,2.51-.1,1.58.05,2.37,0,1.48-.08,2.22-.13l1.64-.11,1.48-.07c1.22-.07,2.37-.54,3.6-.6.65,0,1.3-.24,1.95-.34a11.38,11.38,0,0,1,1.31-.07h.76a7.94,7.94,0,0,1,1.54.45,15.23,15.23,0,0,1,1.94.67,11.73,11.73,0,0,1,2.58,1.59c.88.8,1.93,1.42,2.88,2.15.6.47,1.09,1.09,1.72,1.49a38.6,38.6,0,0,1,3.11,2.42c.25.19.49.52.89.2.05,0,.25.08.36.16.32.22.63.45.94.69a2.31,2.31,0,0,1,.63.52c.25.39.51.37.87.21a.63.63,0,0,1,.47,0c.66.48,1.28,1,1.94,1.48a.64.64,0,0,0,.51.11c.32-.14.52,0,.73.21l1.3,1.17a.76.76,0,0,0,.8.19.77.77,0,0,1,.65.15,14.35,14.35,0,0,1,1,1,1.23,1.23,0,0,0,1.49.24c-.43-1-.83-2.08-1.31-3.09A21.7,21.7,0,0,0,507.63,564.75Z"/><path class="cls-4" d="M401.67,128.1a3.75,3.75,0,0,0,.92-1.21c.19-.63.68-1.07.87-1.7a2.67,2.67,0,0,1,.54-.77c0,.55-.07,1.19-.12,1.83,0,.32,0,.62.37.64.1-.07.19-.17.26-.16.43,0,.62-.26.82-.56l1.32-1.88a.9.9,0,0,1,.18-.16l.33.2c0-.51.25-.58.62-.57.1,0,.23-.1.31-.19.34-.36.67-.74,1-1.09a.79.79,0,0,1,.29-.18,2.06,2.06,0,0,0,.46-.27c.25-.25.47-.54.7-.82s.63-.79,1-1.16c.56-.6,1.16-1.17,1.71-1.79a16.67,16.67,0,0,1,2-2,9.14,9.14,0,0,0,.86-.9c.06-.06.1-.15.17-.17a2.65,2.65,0,0,0,1.14-.66,4.49,4.49,0,0,1,2.13-.8c.42-.11.9.08,1.27-.26.05,0,.16,0,.25,0l2.31,0a2.75,2.75,0,0,0,.56-.1,1.65,1.65,0,0,1,.47-.1c.42,0,.82.17,1.23.23a1.71,1.71,0,0,0,.53-.1,3.48,3.48,0,0,0-.21-.48,5.34,5.34,0,0,0-.39-.44l.06-.1a4.67,4.67,0,0,0,.65.13,14.6,14.6,0,0,0,1.75.17c.58,0,1.16-.15,1.74-.18s1.34,0,2,0c.11,0,.21-.09.32-.13.76.72,1.52,1.46,2.29,2.18a2.34,2.34,0,0,1,.69,1.08c.07.2.16.4.24.6l1.5,3.53a1.45,1.45,0,0,0,1.11.93,2.78,2.78,0,0,0,1.51-.19c.91-.39,1.84-.74,2.75-1.13a3.84,3.84,0,0,0,1.52-1,.59.59,0,0,0,.14-.74c-.5-.9-1-1.8-1.53-2.68-.4-.67-.84-1.31-1.25-2a3.12,3.12,0,0,1-.34-.77c-.14-.55-.22-1.13-.35-1.68-.17-.73-.37-1.46-.55-2.16a2.79,2.79,0,0,0,.82-.34c.5-.44.93-1,1.41-1.42s.92-.84,1.4-1.24.94-.71,1.38-1.08.81-.74,1.21-1.11l.9-.83.82-.74c.66-.61,1.11-1.41,1.78-2,.36-.33.64-.74,1-1.1a8.93,8.93,0,0,1,.72-.66l.44-.35a6.26,6.26,0,0,1,1.09-.46,10.76,10.76,0,0,1,1.43-.52,8.22,8.22,0,0,1,2.23-.29c.88,0,1.77-.09,2.65-.11a16.06,16.06,0,0,0,1.69,0,28.52,28.52,0,0,1,2.92-.06c.24,0,.52.07.6-.3,0,0,.19-.07.29-.08l.86,0a2.07,2.07,0,0,1,.61,0c.32.11.46,0,.59-.29a.51.51,0,0,1,.27-.22c.6,0,1.21,0,1.81,0a.49.49,0,0,0,.34-.17c.13-.24.31-.24.52-.23l1.3.07a.54.54,0,0,0,.54-.27.65.65,0,0,1,.45-.22c.35,0,.71.1,1.07.14a.92.92,0,0,0,1-.56c-.73-.39-1.45-.81-2.2-1.16a16.15,16.15,0,0,0-2.78-1.16c-.82-.21-1.62-.54-2.43-.77-1.06-.31-2.13-.6-3.21-.85s-2.3-.47-3.46-.67c-.8-.15-1.61-.23-2.41-.37-1.11-.21-2.21-.49-3.33-.64s-2.51-.25-3.77-.35c-.32,0-.65,0-1,0a16,16,0,0,0-5.91.71,1.67,1.67,0,0,0-1.05.77c-.37.67-.77,1.34-1.1,2a23,23,0,0,1-1.81,3.21,10.22,10.22,0,0,1-3.15,2.92,6.6,6.6,0,0,1-2.13,1,1.77,1.77,0,0,1-1.64-.23,12.82,12.82,0,0,0-2.54-2,6.37,6.37,0,0,0-1.29-.62,3.16,3.16,0,0,0-2.11.24.72.72,0,0,1-.64,0,2.7,2.7,0,0,0-1.46-.42.34.34,0,0,0-.27.17c0,.07,0,.22.1.29s.28.23.41.36a11.89,11.89,0,0,1,1.06,1.07,10.56,10.56,0,0,1,.72,1.22,5.08,5.08,0,0,1,.84,2.88.43.43,0,0,1-.17.32c-.44.28-.89.55-1.35.79a9.19,9.19,0,0,1-4.67.86c-1.65-.09-3.3-.33-4.95-.5a3.4,3.4,0,0,0-2.24.5,12.38,12.38,0,0,0-2.67,2.54c-.47.55-.86,1.15-1.3,1.72s-.8.9-1.15,1.39-.48.85-.73,1.27-.52.72-.72,1.12c-.52,1-1,2-1.5,3s-1.17,2-1.67,3.08c-.64,1.31-1.2,2.66-1.77,4-.22.54-.35,1.11-.54,1.66a11.72,11.72,0,0,0-.81,3.35,8.09,8.09,0,0,1-.14,1v.14c0,.17.07.33.12.52l.2-.27C401.39,128.1,401.49,128.31,401.67,128.1Z"/><path class="cls-4" d="M559.57,339.08c.47,0,.94-.1,1.41-.15l1-.11,1-.09c.78-.07,1.5-.4,2.28-.47.42,0,.83-.19,1.25-.27a7.53,7.53,0,0,1,.83-.08l.49,0a5,5,0,0,1,1,.25,9.27,9.27,0,0,1,1.26.38,7.51,7.51,0,0,1,1.7,1c.58.49,1.27.85,1.89,1.3a13.76,13.76,0,0,0,1.15.9c.73.42,1.36,1,2,1.47.16.12.32.32.57.11,0,0,.16,0,.24.09s.41.27.61.42a1.37,1.37,0,0,1,.42.32c.17.24.34.22.56.11a.35.35,0,0,1,.3,0c.44.28.85.6,1.28.89a.4.4,0,0,0,.33.06.39.39,0,0,1,.48.11l.86.72a.5.5,0,0,0,.52.1.53.53,0,0,1,.42.07c.24.19.44.44.67.65a.79.79,0,0,0,1,.12c-.3-.65-.59-1.31-.92-1.94a13.63,13.63,0,0,0-1.33-2.24c-.46-.58-.84-1.21-1.29-1.8-.57-.76-1.16-1.52-1.78-2.24s-1.35-1.52-2-2.26c-.48-.51-1-1-1.48-1.51-.66-.71-1.28-1.47-2-2.16s-1.61-1.47-2.43-2.19c-.21-.19-.47-.31-.68-.5a13.61,13.61,0,0,0-4.46-2.56,1.41,1.41,0,0,0-1.12,0c-.61.28-1.23.54-1.82.85a22.2,22.2,0,0,1-2.91,1.29,8.77,8.77,0,0,1-3.7.39,5.69,5.69,0,0,1-2-.38c-.45-.21-.92-.47-1-1a10.94,10.94,0,0,0-.73-2.69,5.38,5.38,0,0,0-.57-1.09,2.74,2.74,0,0,0-1.58-.93.63.63,0,0,1-.42-.36,2.32,2.32,0,0,0-.8-1.05.29.29,0,0,0-.27,0,.32.32,0,0,0-.08.26c0,.16.07.31.09.46a9.53,9.53,0,0,1,.18,1.29,8.29,8.29,0,0,1-.13,1.21,4.39,4.39,0,0,1-.9,2.44.43.43,0,0,1-.29.13,11.94,11.94,0,0,1-1.34-.15,7.89,7.89,0,0,1-3.68-1.82c-1.1-.92-2.12-1.93-3.18-2.9a2.92,2.92,0,0,0-1.8-.82,10.56,10.56,0,0,0-3.17.38c-.6.14-1.19.36-1.79.52s-1,.21-1.51.37-.78.34-1.17.5-.73.23-1.07.4c-.87.41-1.72.87-2.58,1.29s-1.86.8-2.75,1.26c-1.12.59-2.21,1.23-3.3,1.87-.43.26-.82.59-1.23.87a10,10,0,0,0-2.3,1.9,5.66,5.66,0,0,1-.6.6l-.07.1-.19.42.29-.08c0,.17-.08.36.16.31a3.24,3.24,0,0,0,1.26-.36c.46-.34,1-.39,1.48-.73a2.92,2.92,0,0,1,.77-.26c-.31.37-.66.8-1,1.21-.18.22-.35.42-.08.64.11,0,.22,0,.27,0a.79.79,0,0,0,.85,0l1.89-.62a.75.75,0,0,1,.21,0c0,.09.07.17.12.31.25-.36.48-.28.73-.07.06.06.21,0,.31,0l1.26-.23a.77.77,0,0,1,.3,0,2.38,2.38,0,0,0,.45.05c.31-.05.61-.14.91-.21s.85-.22,1.27-.3c.7-.13,1.41-.21,2.11-.36a14.38,14.38,0,0,1,2.44-.37,6.64,6.64,0,0,0,1.07-.18c.06,0,.14-.05.2,0a2.24,2.24,0,0,0,1.13.14,3.81,3.81,0,0,1,1.89.54c.35.14.58.52,1,.48.06,0,.13.06.19.11l1.58,1.22a2.3,2.3,0,0,0,.44.23,1.63,1.63,0,0,1,.38.17c.25.25.47.55.73.8a1.42,1.42,0,0,0,.41.2,2.18,2.18,0,0,0,.11-.44,2.94,2.94,0,0,0,0-.51l.09,0c.13.14.25.29.39.42a12.1,12.1,0,0,0,1.13,1c.4.3.88.5,1.3.78s.93.69,1.4,1a1,1,0,0,0,.29.07c.15.9.3,1.8.46,2.7a2,2,0,0,1-.08,1.1,5.36,5.36,0,0,0-.14.54c-.27,1.08-.52,2.15-.79,3.23a1.21,1.21,0,0,0,.29,1.21,2.34,2.34,0,0,0,1.14.65c.83.21,1.66.44,2.49.64a3.5,3.5,0,0,0,1.58.1c.27-.06.44-.18.48-.44.11-.89.23-1.77.32-2.65.07-.67.09-1.34.16-2a2.43,2.43,0,0,1,.15-.71c.19-.46.44-.9.63-1.35s.5-1.2.74-1.78a2.31,2.31,0,0,0,.74.19c.57-.05,1.14-.19,1.72-.26s1.07-.1,1.6-.13S559.07,339.1,559.57,339.08Z"/><path class="cls-3" d="M431,245.44a3.78,3.78,0,0,0,1.2-.93c.35-.56.94-.86,1.28-1.42a3,3,0,0,1,.73-.61c-.18.53-.37,1.14-.59,1.74-.1.31-.19.6.19.72.12,0,.22-.12.3-.09.4.13.66-.09.93-.32l1.77-1.48a.84.84,0,0,1,.21-.11l.27.28c.1-.49.39-.5.74-.38.1,0,.25-.05.36-.11l1.25-.8a1.59,1.59,0,0,1,.33-.09,1.75,1.75,0,0,0,.51-.14c.31-.18.59-.4.89-.61s.81-.59,1.24-.86c.69-.44,1.42-.83,2.11-1.29a16.42,16.42,0,0,1,2.47-1.44,9.72,9.72,0,0,0,1.06-.65c.07,0,.14-.12.2-.12a2.58,2.58,0,0,0,1.28-.34,4.67,4.67,0,0,1,2.27-.22c.43,0,.84.31,1.29.08.06,0,.16,0,.24,0,.74.22,1.48.44,2.22.64a3.55,3.55,0,0,0,.57.06,1.59,1.59,0,0,1,.49,0c.38.16.74.38,1.12.54a1.57,1.57,0,0,0,.53,0,2.84,2.84,0,0,0-.07-.52,3.78,3.78,0,0,0-.27-.53l.09-.08a6.54,6.54,0,0,0,.59.3,17.28,17.28,0,0,0,1.65.61c.56.15,1.16.16,1.73.28s1.29.34,1.94.5a.87.87,0,0,0,.35,0c.54.9,1.08,1.81,1.65,2.7a2.43,2.43,0,0,1,.38,1.22c0,.22,0,.43.07.65l.54,3.8a1.37,1.37,0,0,0,.83,1.18,2.67,2.67,0,0,0,1.5.21c1-.13,2-.23,2.95-.37a4,4,0,0,0,1.73-.57c.27-.18.41-.38.33-.68-.25-1-.5-2-.78-3-.22-.75-.48-1.48-.69-2.22a3,3,0,0,1-.14-.83c0-.58.09-1.15.11-1.72,0-.75,0-1.5,0-2.23a2.61,2.61,0,0,0,.87-.12c.6-.29,1.15-.68,1.74-1s1.1-.57,1.67-.83,1.08-.44,1.62-.69,1-.5,1.45-.75.72-.39,1.08-.57l1-.5c.81-.41,1.45-1.07,2.26-1.49.43-.22.8-.55,1.22-.81a8.77,8.77,0,0,1,.86-.45l.52-.22a5.59,5.59,0,0,1,1.17-.16,11.61,11.61,0,0,1,1.52-.14,8.92,8.92,0,0,1,2.22.3c.84.28,1.73.38,2.59.59a16.64,16.64,0,0,0,1.62.49,26.58,26.58,0,0,1,2.83.7c.23.06.49.2.66-.13,0,0,.2,0,.3,0l.84.19a1.84,1.84,0,0,1,.59.17c.28.19.45.09.65-.12a.42.42,0,0,1,.32-.15c.58.13,1.16.29,1.75.42a.48.48,0,0,0,.38-.08.46.46,0,0,1,.56-.08l1.23.4a.56.56,0,0,0,.6-.11.59.59,0,0,1,.48-.1c.35.1.67.28,1,.41a.92.92,0,0,0,1.08-.29c-.6-.56-1.19-1.15-1.82-1.69a15.83,15.83,0,0,0-2.39-1.84c-.74-.42-1.42-.94-2.15-1.38-.94-.57-1.89-1.14-2.87-1.65s-2.1-1-3.16-1.55c-.74-.35-1.5-.64-2.24-1-1-.48-2-1-3.05-1.48s-2.36-.89-3.54-1.32c-.31-.11-.64-.14-.94-.25a16,16,0,0,0-5.9-.85,1.63,1.63,0,0,0-1.21.47c-.53.56-1.09,1.09-1.59,1.68a24.74,24.74,0,0,1-2.58,2.64,10,10,0,0,1-3.81,2,6.39,6.39,0,0,1-2.32.46,1.77,1.77,0,0,1-1.53-.66,12.8,12.8,0,0,0-1.93-2.57,7.35,7.35,0,0,0-1.08-.94,3.18,3.18,0,0,0-2.1-.32.69.69,0,0,1-.61-.21,2.7,2.7,0,0,0-1.3-.79.4.4,0,0,0-.31.09.37.37,0,0,0,0,.32c.08.16.2.29.3.45a11.28,11.28,0,0,1,.74,1.31,11.83,11.83,0,0,1,.38,1.36,5,5,0,0,1,.06,3,.43.43,0,0,1-.24.27c-.5.15-1,.3-1.52.41a9.12,9.12,0,0,1-4.72-.39c-1.58-.51-3.11-1.17-4.66-1.76a3.4,3.4,0,0,0-2.29-.11,12.41,12.41,0,0,0-3.24,1.76c-.59.41-1.13.89-1.7,1.32s-1,.67-1.47,1.05a14.43,14.43,0,0,0-1,1c-.32.31-.69.57-1,.89-.75.82-1.46,1.68-2.22,2.49S437,235,436.21,235.9c-1,1.11-1.85,2.27-2.75,3.42-.35.46-.63,1-.95,1.47a11.55,11.55,0,0,0-1.66,3,6.44,6.44,0,0,1-.39.9l0,.14c0,.16,0,.33,0,.52l.27-.2C430.71,245.36,430.75,245.59,431,245.44Z"/><path class="cls-3" d="M601.2,280.73a11,11,0,0,0-1.84-.76c-.54-.14-1.06-.36-1.6-.51-.7-.21-1.41-.4-2.12-.56s-1.52-.31-2.28-.45c-.53-.09-1.07-.14-1.59-.24-.74-.13-1.46-.32-2.2-.42s-1.66-.17-2.49-.23c-.21,0-.43,0-.64,0a10.31,10.31,0,0,0-3.9.47,1.09,1.09,0,0,0-.69.5c-.25.45-.51.89-.73,1.35a15.75,15.75,0,0,1-1.19,2.12,6.73,6.73,0,0,1-2.08,1.93,4.19,4.19,0,0,1-1.41.68,1.15,1.15,0,0,1-1.08-.15,8.47,8.47,0,0,0-1.67-1.31,4.74,4.74,0,0,0-.85-.41,2.12,2.12,0,0,0-1.4.16.48.48,0,0,1-.42,0,1.78,1.78,0,0,0-1-.27.21.21,0,0,0-.18.11.22.22,0,0,0,.07.19,3,3,0,0,0,.26.24,6.7,6.7,0,0,1,.7.71,7.06,7.06,0,0,1,.48.8,3.38,3.38,0,0,1,.56,1.9.3.3,0,0,1-.12.21,7.94,7.94,0,0,1-.89.52,6.08,6.08,0,0,1-3.08.57c-1.09-.06-2.18-.22-3.27-.33a2.27,2.27,0,0,0-1.48.33,8,8,0,0,0-1.76,1.68c-.31.36-.56.76-.86,1.13s-.52.6-.75.92-.32.56-.49.84-.34.47-.47.73c-.34.65-.65,1.32-1,2s-.77,1.33-1.11,2c-.41.87-.79,1.76-1.16,2.65-.15.35-.24.73-.36,1.09a7.6,7.6,0,0,0-.53,2.21,4.49,4.49,0,0,1-.1.64v.1c0,.1.05.21.08.34l.14-.18c0,.12.12.25.24.12a2.51,2.51,0,0,0,.6-.8c.13-.42.46-.71.58-1.12a1.73,1.73,0,0,1,.36-.51c0,.36,0,.78-.08,1.2,0,.22,0,.42.24.43.07,0,.13-.11.18-.11.28,0,.4-.17.54-.37.28-.41.58-.83.87-1.24a1,1,0,0,1,.11-.1l.22.13c0-.34.17-.38.41-.37.07,0,.15-.08.21-.13.22-.24.44-.49.66-.72a.67.67,0,0,1,.2-.12,1.49,1.49,0,0,0,.3-.18c.16-.17.31-.36.46-.54s.41-.52.64-.76c.37-.4.77-.77,1.13-1.18a9.9,9.9,0,0,1,1.32-1.35,6.37,6.37,0,0,0,.57-.59s.06-.1.11-.11a1.75,1.75,0,0,0,.75-.44,3.09,3.09,0,0,1,1.41-.53c.27-.07.59.06.83-.17a.24.24,0,0,1,.17,0l1.52,0a2.2,2.2,0,0,0,.37-.06,1.32,1.32,0,0,1,.32-.07c.27,0,.54.12.81.15a.82.82,0,0,0,.34-.06,1.79,1.79,0,0,0-.13-.32c-.08-.1-.18-.19-.26-.29l0-.06a3,3,0,0,0,.43.08,9,9,0,0,0,1.15.11c.38,0,.77-.09,1.15-.11s.88,0,1.32,0a.6.6,0,0,0,.22-.09l1.51,1.44a1.59,1.59,0,0,1,.46.71c0,.13.1.26.15.4.33.77.67,1.55,1,2.33a.92.92,0,0,0,.73.61,1.69,1.69,0,0,0,1-.13c.6-.25,1.21-.48,1.81-.74a2.54,2.54,0,0,0,1-.66.41.41,0,0,0,.1-.49c-.34-.59-.67-1.18-1-1.77-.26-.44-.55-.86-.82-1.3a2.27,2.27,0,0,1-.23-.5c-.09-.37-.14-.75-.23-1.12s-.24-1-.36-1.42a2.11,2.11,0,0,0,.54-.22c.33-.29.61-.64.93-.94s.61-.56.92-.82.62-.46.92-.71l.8-.74.59-.54c.17-.17.36-.32.54-.49.44-.4.73-.93,1.18-1.33.23-.22.42-.5.64-.73a4.79,4.79,0,0,1,.47-.43,3.36,3.36,0,0,1,.29-.24,4.19,4.19,0,0,1,.72-.3c.32-.11.64-.28.94-.35a6,6,0,0,1,1.47-.19,17.38,17.38,0,0,0,1.76-.07,10.39,10.39,0,0,0,1.11,0,15.38,15.38,0,0,1,1.92,0c.16,0,.35,0,.4-.2,0,0,.12-.05.19-.05l.57,0a1.33,1.33,0,0,1,.4,0c.21.07.31,0,.39-.19a.32.32,0,0,1,.18-.15l1.19,0c.08,0,.2-.05.23-.12s.2-.15.34-.15l.86.05a.39.39,0,0,0,.36-.18.39.39,0,0,1,.29-.14c.24,0,.47.06.71.08a.6.6,0,0,0,.64-.36C602.17,281.24,601.69,281,601.2,280.73Z"/><path class="cls-3" d="M532.56,136.28c-.39-.57-.69-1.2-1.07-1.79-.48-.76-1-1.52-1.49-2.25s-1.15-1.54-1.75-2.29c-.41-.52-.86-1-1.27-1.54-.57-.72-1.08-1.49-1.68-2.19s-1.4-1.51-2.11-2.26c-.18-.19-.42-.33-.6-.53a13,13,0,0,0-4-2.77,1.35,1.35,0,0,0-1.06-.1c-.59.21-1.19.4-1.77.65a19.58,19.58,0,0,1-2.85,1,8.15,8.15,0,0,1-3.51.07,5.22,5.22,0,0,1-1.86-.52,1.47,1.47,0,0,1-.88-1,10.36,10.36,0,0,0-.46-2.59,6,6,0,0,0-.46-1.08,2.58,2.58,0,0,0-1.41-1,.62.62,0,0,1-.37-.37,2.12,2.12,0,0,0-.66-1,.31.31,0,0,0-.26-.05c-.06,0-.09.16-.09.24s0,.29.05.44a8.45,8.45,0,0,1,.06,1.23,7.51,7.51,0,0,1-.22,1.13,4.17,4.17,0,0,1-1,2.21.4.4,0,0,1-.28.11c-.42-.07-.84-.15-1.26-.26a7.49,7.49,0,0,1-3.31-2c-1-1-1.84-2-2.75-3a2.85,2.85,0,0,0-1.64-.92,10.13,10.13,0,0,0-3,.11c-.58.08-1.14.24-1.72.34s-1,.12-1.45.23-.76.26-1.14.38-.71.16-1.05.29c-.85.32-1.68.68-2.53,1s-1.81.6-2.68,1c-1.1.46-2.18,1-3.26,1.49-.42.21-.82.49-1.23.72a9.4,9.4,0,0,0-2.31,1.61,7.49,7.49,0,0,1-.61.51l-.08.09-.21.38.27,0c0,.15-.09.33.13.3a3.15,3.15,0,0,0,1.21-.24c.47-.28,1-.28,1.46-.56a2.28,2.28,0,0,1,.75-.18l-1.06,1c-.19.19-.36.36-.13.59.1,0,.21,0,.25,0a.75.75,0,0,0,.8.1l1.83-.43a.61.61,0,0,1,.19,0c0,.1.05.17.1.31.26-.32.46-.22.68,0a.42.42,0,0,0,.3,0c.4,0,.8-.09,1.2-.12a.92.92,0,0,1,.28,0,1.58,1.58,0,0,0,.42.09c.29,0,.58-.08.88-.13s.81-.14,1.21-.18c.67-.06,1.35-.08,2-.16a13.85,13.85,0,0,1,2.32-.16,7,7,0,0,0,1-.08c.06,0,.14,0,.19,0a2.18,2.18,0,0,0,1.05.22,3.58,3.58,0,0,1,1.74.66c.31.16.5.54.92.53.05,0,.11.07.16.12.46.43.92.86,1.39,1.28a2,2,0,0,0,.39.24,1.46,1.46,0,0,1,.35.2c.22.26.4.55.62.81a1.93,1.93,0,0,0,.37.23,2.07,2.07,0,0,0,.14-.42,3.68,3.68,0,0,0,0-.47l.09,0a4.35,4.35,0,0,0,.32.43,12.28,12.28,0,0,0,1,1c.36.31.79.54,1.16.84s.82.72,1.24,1.07a.78.78,0,0,0,.27.09c.07.86.13,1.72.22,2.58a2,2,0,0,1-.17,1c-.07.16-.12.33-.18.49-.33,1-.66,2-1,3a1.14,1.14,0,0,0,.18,1.16,2.14,2.14,0,0,0,1,.7c.76.26,1.52.55,2.29.81a3.31,3.31,0,0,0,1.47.21c.26,0,.44-.13.49-.37.18-.82.36-1.64.52-2.47.12-.62.19-1.25.31-1.88a2.45,2.45,0,0,1,.2-.65c.22-.42.48-.81.7-1.22s.57-1.09.84-1.61a2.28,2.28,0,0,0,.68.23c.54,0,1.09-.08,1.64-.1s1,0,1.52,0,1,.08,1.43.09.89,0,1.34,0l1,0h.89c.74,0,1.45-.26,2.19-.27.4,0,.79-.11,1.19-.15s.53,0,.79,0,.31,0,.46,0a4.53,4.53,0,0,1,.92.31,9.34,9.34,0,0,1,1.16.46,7.09,7.09,0,0,1,1.51,1c.51.5,1.13.9,1.68,1.37.35.3.63.69,1,.95a22.27,22.27,0,0,1,1.81,1.54c.15.13.29.33.53.15,0,0,.16.05.22.1l.55.45a1.31,1.31,0,0,1,.37.33c.13.24.29.23.51.15a.36.36,0,0,1,.29,0l1.13,1a.38.38,0,0,0,.3.08.38.38,0,0,1,.44.14l.76.75a.45.45,0,0,0,.47.13.54.54,0,0,1,.39.11c.22.2.39.44.59.66a.75.75,0,0,0,.89.19c-.24-.63-.45-1.28-.71-1.9A14.17,14.17,0,0,0,532.56,136.28Z"/><path class="cls-3" d="M468.41,587c-.74-.21-1.45-.55-2.18-.79-1-.31-1.91-.61-2.87-.86s-2.07-.48-3.11-.69c-.71-.15-1.44-.23-2.16-.38-1-.2-2-.49-3-.65s-2.26-.25-3.38-.36c-.29,0-.59,0-.88,0a12.82,12.82,0,0,0-5.3.73,1.56,1.56,0,0,0-.94.78c-.33.69-.69,1.37-1,2.09A26.17,26.17,0,0,1,442,590.1a9.73,9.73,0,0,1-2.83,3,5.55,5.55,0,0,1-1.91,1.06,1.41,1.41,0,0,1-1.47-.24,11.7,11.7,0,0,0-2.27-2,6,6,0,0,0-1.16-.63,2.51,2.51,0,0,0-1.89.24.6.6,0,0,1-.58,0,2.17,2.17,0,0,0-1.31-.43.33.33,0,0,0-.24.17.39.39,0,0,0,.09.3,4.17,4.17,0,0,0,.37.36,12.49,12.49,0,0,1,.95,1.1,13.17,13.17,0,0,1,.64,1.24,5.73,5.73,0,0,1,.76,2.94.53.53,0,0,1-.15.33c-.4.28-.8.56-1.22.8a7.34,7.34,0,0,1-4.18.88c-1.49-.09-3-.33-4.44-.51a2.8,2.8,0,0,0-2,.5,11.9,11.9,0,0,0-2.4,2.6c-.41.56-.76,1.18-1.16,1.75s-.72.92-1,1.42-.43.87-.66,1.3-.46.74-.65,1.14c-.46,1-.88,2-1.34,3s-1.05,2.07-1.5,3.14c-.57,1.34-1.07,2.72-1.58,4.09-.2.55-.32,1.13-.48,1.7a13,13,0,0,0-.73,3.41,8.39,8.39,0,0,1-.13,1v.15c0,.16.07.33.11.53l.18-.28c.08.18.17.39.33.19a3.94,3.94,0,0,0,.82-1.24c.17-.64.62-1.09.78-1.73a2.71,2.71,0,0,1,.49-.79c0,.56-.06,1.21-.1,1.86,0,.34,0,.64.32.66.1-.07.17-.17.24-.17.38,0,.55-.26.74-.57.38-.64.78-1.28,1.18-1.92a1.14,1.14,0,0,1,.15-.16l.3.21c0-.52.23-.6.56-.58.09,0,.21-.11.28-.2.31-.37.59-.75.9-1.12a1.2,1.2,0,0,1,.26-.18,1.46,1.46,0,0,0,.41-.27c.23-.26.42-.55.63-.83s.57-.81.87-1.19c.5-.61,1-1.19,1.53-1.82a17.12,17.12,0,0,1,1.8-2.08,7.66,7.66,0,0,0,.77-.92c.05,0,.09-.15.15-.17a2.22,2.22,0,0,0,1-.67,3.81,3.81,0,0,1,1.92-.82c.37-.11.8.08,1.13-.26.05-.05.15,0,.22,0,.69,0,1.39,0,2.08,0a2.33,2.33,0,0,0,.5-.1,1.34,1.34,0,0,1,.43-.1c.37.06.73.18,1.1.24a1.37,1.37,0,0,0,.47-.1,2.38,2.38,0,0,0-.19-.49,3.87,3.87,0,0,0-.35-.45l.05-.1a4.16,4.16,0,0,0,.59.13,11.78,11.78,0,0,0,1.57.17c.52,0,1-.15,1.56-.18s1.2,0,1.8,0c.1,0,.19-.09.28-.14.69.74,1.37,1.5,2.06,2.23a2.5,2.5,0,0,1,.62,1.1c.06.21.14.41.21.61l1.35,3.61a1.32,1.32,0,0,0,1,.94,2.12,2.12,0,0,0,1.35-.2c.81-.38,1.65-.74,2.46-1.14a3.47,3.47,0,0,0,1.37-1,.68.68,0,0,0,.13-.76q-.68-1.38-1.38-2.73c-.36-.68-.75-1.34-1.12-2a3.22,3.22,0,0,1-.3-.78c-.13-.57-.2-1.16-.32-1.73-.15-.74-.33-1.48-.49-2.2a2.31,2.31,0,0,0,.73-.34c.45-.45.84-1,1.27-1.45s.82-.86,1.25-1.26.84-.72,1.24-1.11.73-.75,1.09-1.13l.8-.85c.24-.25.49-.49.73-.75.6-.62,1-1.44,1.61-2.06.32-.33.57-.76.87-1.12a5.81,5.81,0,0,1,.64-.67c.12-.13.26-.24.39-.36a4.91,4.91,0,0,1,1-.47,12.18,12.18,0,0,1,1.28-.54,7.06,7.06,0,0,1,2-.29c.79,0,1.59-.09,2.38-.11a12.94,12.94,0,0,0,1.52,0,25.27,25.27,0,0,1,2.61-.06c.21,0,.47.07.54-.3,0,0,.17-.08.26-.08.25,0,.51,0,.77-.05a1.62,1.62,0,0,1,.54,0c.3.11.42,0,.54-.29.05-.1.16-.22.24-.22.54,0,1.08,0,1.62-.06a.44.44,0,0,0,.31-.17.39.39,0,0,1,.46-.24l1.16.07a.49.49,0,0,0,.5-.27.52.52,0,0,1,.39-.22c.32,0,.64.09,1,.13a.8.8,0,0,0,.87-.56c-.65-.4-1.29-.82-2-1.19A13.51,13.51,0,0,0,468.41,587Z"/><path class="cls-3" d="M509,440.53c-.46-.57-.84-1.21-1.28-1.8-.58-.76-1.17-1.51-1.79-2.24s-1.35-1.52-2-2.26c-.49-.51-1-1-1.49-1.5-.66-.72-1.28-1.48-2-2.17s-1.61-1.47-2.43-2.19c-.21-.18-.47-.31-.67-.5a13.76,13.76,0,0,0-4.47-2.56,1.37,1.37,0,0,0-1.12,0c-.61.27-1.23.53-1.82.84a19.83,19.83,0,0,1-2.91,1.29,8.75,8.75,0,0,1-3.7.39,5.28,5.28,0,0,1-2-.38c-.45-.21-.91-.47-1-1a10.86,10.86,0,0,0-.73-2.68,5.21,5.21,0,0,0-.57-1.1,2.74,2.74,0,0,0-1.58-.93.61.61,0,0,1-.42-.36,2.32,2.32,0,0,0-.8-1.05.21.21,0,0,0-.35.23c0,.16.07.31.09.46a9.53,9.53,0,0,1,.18,1.29,8.42,8.42,0,0,1-.13,1.22,4.39,4.39,0,0,1-.9,2.43.47.47,0,0,1-.29.14c-.45,0-.9-.08-1.34-.16a7.94,7.94,0,0,1-3.68-1.82c-1.1-.91-2.12-1.93-3.17-2.9a3,3,0,0,0-1.81-.82,10.56,10.56,0,0,0-3.17.38c-.6.14-1.19.36-1.79.52s-1,.21-1.51.37-.77.34-1.17.5-.73.24-1.07.4c-.87.42-1.72.88-2.58,1.29s-1.86.8-2.75,1.26c-1.12.59-2.21,1.23-3.3,1.88-.43.25-.82.58-1.23.87a9.66,9.66,0,0,0-2.29,1.89,6.79,6.79,0,0,1-.6.6l-.08.1c-.06.13-.11.27-.18.42l.28-.08c0,.17-.07.36.16.32a3.37,3.37,0,0,0,1.26-.37c.46-.34,1-.39,1.48-.72a2.32,2.32,0,0,1,.78-.26c-.31.37-.66.79-1,1.21-.18.21-.35.41-.08.63.11,0,.22,0,.27,0,.28.24.56.14.86,0l1.88-.62a.75.75,0,0,1,.21,0l.12.31c.25-.36.48-.27.73-.07a.41.41,0,0,0,.31,0l1.26-.24a1,1,0,0,1,.3,0,1.77,1.77,0,0,0,.45.05,9.24,9.24,0,0,0,.91-.21c.43-.1.85-.22,1.27-.3.7-.13,1.42-.21,2.11-.35a14.4,14.4,0,0,1,2.44-.38,6.64,6.64,0,0,0,1.07-.18c.06,0,.14-.05.2,0a2.26,2.26,0,0,0,1.13.14,3.81,3.81,0,0,1,1.89.54c.35.15.58.52,1,.48,0,0,.12.07.18.11l1.58,1.22a2.3,2.3,0,0,0,.44.23,1.33,1.33,0,0,1,.38.17c.26.26.47.55.73.8a2,2,0,0,0,.41.21,2.46,2.46,0,0,0,.11-.45,2.73,2.73,0,0,0-.05-.5l.1,0a5,5,0,0,0,.38.42,12.1,12.1,0,0,0,1.13,1c.4.3.88.5,1.3.78s.93.69,1.4,1a.73.73,0,0,0,.29.07c.16.9.3,1.8.47,2.7a2.16,2.16,0,0,1-.08,1.1,5.44,5.44,0,0,0-.15.54c-.26,1.08-.52,2.16-.79,3.23a1.22,1.22,0,0,0,.29,1.21,2.26,2.26,0,0,0,1.14.65c.83.21,1.66.45,2.49.64a3.37,3.37,0,0,0,1.58.1c.27-.06.44-.18.48-.44.12-.88.23-1.77.32-2.65.07-.67.09-1.34.16-2a2.43,2.43,0,0,1,.15-.71c.19-.46.44-.89.64-1.35s.49-1.2.73-1.78a2.37,2.37,0,0,0,.74.19c.58,0,1.14-.18,1.72-.25s1.07-.11,1.6-.14,1,0,1.52,0,.94-.09,1.42-.15l1-.11.95-.08c.78-.08,1.5-.41,2.29-.48.41,0,.82-.19,1.24-.26a7.52,7.52,0,0,1,.83-.09H494a4.93,4.93,0,0,1,1,.24,9.42,9.42,0,0,1,1.27.38,7.67,7.67,0,0,1,1.69.95c.58.49,1.27.85,1.89,1.3.4.28.73.67,1.15.91A24.67,24.67,0,0,1,503,441c.16.11.32.31.57.1,0,0,.16,0,.24.09s.41.28.62.42a1.46,1.46,0,0,1,.41.32c.17.24.34.22.56.11a.37.37,0,0,1,.31,0c.43.29.84.6,1.27.89a.4.4,0,0,0,.33.06c.21-.1.34,0,.48.11l.86.72a.49.49,0,0,0,.52.1.52.52,0,0,1,.42.08c.24.19.44.43.67.64a.79.79,0,0,0,1,.12c-.3-.64-.58-1.31-.92-1.94A14.06,14.06,0,0,0,509,440.53Z"/><path class="cls-4" d="M542.47,190.49c-1.22-1.32-2.31-2.76-3.45-4.15a3.69,3.69,0,0,0-2.11-1.33,13.41,13.41,0,0,0-4-.07c-.77.07-1.54.24-2.31.33s-1.3.09-1.94.2-1,.29-1.54.42-1,.17-1.41.32c-1.14.36-2.27.79-3.42,1.15s-2.44.68-3.63,1.1c-1.5.53-3,1.15-4.42,1.76-.59.24-1.13.58-1.69.87a12.51,12.51,0,0,0-3.17,2,8.59,8.59,0,0,1-.85.64l-.11.11-.31.49.37,0c-.07.2-.15.44.14.42a4.11,4.11,0,0,0,1.63-.24c.63-.34,1.35-.3,2-.64a3,3,0,0,1,1-.19c-.45.4-1,.87-1.48,1.32-.27.24-.51.46-.22.78.14,0,.28,0,.34.07a1,1,0,0,0,1,.2l2.46-.45a2.09,2.09,0,0,1,.25,0c0,.13.06.23.11.41.36-.41.63-.26.91,0,.07.08.26.09.39.09.53,0,1.07-.07,1.6-.08a1.23,1.23,0,0,1,.37.08,2.25,2.25,0,0,0,.55.15c.39,0,.78-.07,1.17-.1s1.08-.13,1.63-.16c.89,0,1.79,0,2.68-.08a17.82,17.82,0,0,1,3.1,0,8.74,8.74,0,0,0,1.35,0c.09,0,.19,0,.26,0a2.78,2.78,0,0,0,1.38.36,4.89,4.89,0,0,1,2.26,1c.4.24.63.75,1.17.77.08,0,.15.1.21.17.59.6,1.16,1.2,1.76,1.79a3,3,0,0,0,.5.36,1.71,1.71,0,0,1,.45.28c.27.36.49.76.77,1.11a1.7,1.7,0,0,0,.48.33,3.89,3.89,0,0,0,.21-.53,3.43,3.43,0,0,0,0-.64l.12,0c.14.2.26.41.41.6a15.57,15.57,0,0,0,1.23,1.46c.45.44,1,.77,1.47,1.19s1,1,1.57,1.51a1,1,0,0,0,.36.13c0,1.15,0,2.29.1,3.44a2.65,2.65,0,0,1-.28,1.36c-.11.21-.19.42-.28.64L542.13,215a1.5,1.5,0,0,0,.15,1.55,2.85,2.85,0,0,0,1.3,1c1,.41,2,.84,3,1.23a4.31,4.31,0,0,0,2,.39c.34,0,.58-.14.67-.46.3-1.08.59-2.16.86-3.24.2-.82.35-1.65.54-2.47a3.09,3.09,0,0,1,.31-.85c.32-.54.7-1,1-1.57.43-.69.83-1.4,1.22-2.08a3,3,0,0,0,.89.35c.72.05,1.45,0,2.18,0s1.34,0,2,.11,1.26.17,1.89.22,1.19.05,1.78.07l1.32,0c.4,0,.8,0,1.19.06,1,0,1.94-.25,2.93-.2.52,0,1-.09,1.58-.11a9.38,9.38,0,0,1,1.06,0l.6.07a6.78,6.78,0,0,1,1.2.47,13.86,13.86,0,0,1,1.5.69,9.72,9.72,0,0,1,1.94,1.47c.64.71,1.43,1.29,2.13,1.95a15.89,15.89,0,0,0,1.27,1.32c.84.65,1.52,1.46,2.29,2.18.19.18.35.45.7.23,0,0,.19.08.28.15s.46.42.69.63a2.1,2.1,0,0,1,.47.47c.16.33.38.33.67.23a.49.49,0,0,1,.38,0c.49.43.95.89,1.43,1.33a.49.49,0,0,0,.4.13.5.5,0,0,1,.57.22c.32.35.64.69,1,1a.61.61,0,0,0,.63.22.69.69,0,0,1,.51.16c.27.28.48.62.72.92a1,1,0,0,0,1.17.31c-.26-.85-.5-1.72-.81-2.57a16.82,16.82,0,0,0-1.26-3c-.47-.79-.84-1.65-1.29-2.45-.58-1.05-1.18-2.09-1.83-3.1s-1.42-2.11-2.15-3.16c-.51-.72-1.08-1.4-1.58-2.12-.71-1-1.34-2.06-2.08-3s-1.75-2.11-2.65-3.14c-.22-.27-.52-.48-.75-.74a17.31,17.31,0,0,0-5.11-4,1.77,1.77,0,0,0-1.39-.21c-.8.24-1.62.45-2.4.74a26,26,0,0,1-3.85,1.1,10.78,10.78,0,0,1-4.66-.15,7,7,0,0,1-2.43-.82,1.88,1.88,0,0,1-1.09-1.43,13.91,13.91,0,0,0-.44-3.46,7.67,7.67,0,0,0-.53-1.46,3.48,3.48,0,0,0-1.81-1.43.76.76,0,0,1-.45-.52,3,3,0,0,0-.81-1.44.4.4,0,0,0-.34-.08c-.08,0-.14.2-.14.31a5.65,5.65,0,0,0,0,.58,12.82,12.82,0,0,1,0,1.64,11.09,11.09,0,0,1-.38,1.48,5.46,5.46,0,0,1-1.54,2.87.48.48,0,0,1-.37.12c-.56-.12-1.11-.25-1.65-.42A9.87,9.87,0,0,1,542.47,190.49Z"/><path class="cls-4" d="M567.89,417.52c-1.21-1.33-2.3-2.77-3.45-4.16a3.67,3.67,0,0,0-2.11-1.33,13,13,0,0,0-4-.06c-.78.06-1.54.23-2.31.33s-1.31.09-1.95.2-1,.29-1.54.42-.95.16-1.4.31c-1.15.37-2.28.79-3.43,1.16s-2.44.67-3.63,1.1c-1.49.53-3,1.14-4.42,1.75-.58.25-1.12.59-1.69.87a12.55,12.55,0,0,0-3.17,2c-.26.24-.57.42-.85.64a.57.57,0,0,0-.11.11c-.1.15-.19.31-.3.49l.36-.05c-.07.2-.15.43.14.42a4.27,4.27,0,0,0,1.63-.24c.64-.34,1.35-.3,2-.65a3,3,0,0,1,1-.19c-.45.41-1,.88-1.48,1.33-.27.23-.5.46-.21.78.13,0,.27,0,.33.07.31.34.67.27,1.06.2.81-.16,1.63-.31,2.45-.45a.77.77,0,0,1,.26,0c0,.12.05.23.1.41.37-.41.63-.26.91,0,.08.09.26.09.39.09l1.61-.08a1.58,1.58,0,0,1,.36.09,1.86,1.86,0,0,0,.55.14,11.54,11.54,0,0,0,1.17-.1c.54-.05,1.09-.13,1.63-.15.89,0,1.79,0,2.68-.08a17.83,17.83,0,0,1,3.1,0,12.18,12.18,0,0,0,1.35,0,.58.58,0,0,1,.26,0,2.78,2.78,0,0,0,1.38.36,4.86,4.86,0,0,1,2.26,1c.4.24.63.74,1.18.76.07,0,.14.11.21.17.58.6,1.16,1.21,1.75,1.8a3,3,0,0,0,.5.35c.15.1.35.15.45.28.27.36.49.76.77,1.12a2.39,2.39,0,0,0,.48.33,3.55,3.55,0,0,0,.21-.54,3.29,3.29,0,0,0,0-.63l.13,0a6.1,6.1,0,0,0,.4.59,15.81,15.81,0,0,0,1.23,1.46c.45.44,1,.77,1.48,1.19s1,1,1.57,1.51a.92.92,0,0,0,.35.14c0,1.14.05,2.29.11,3.44a2.74,2.74,0,0,1-.29,1.35c-.11.21-.19.43-.28.65L567.55,442a1.52,1.52,0,0,0,.15,1.56,2.82,2.82,0,0,0,1.31,1c1,.4,2,.84,3,1.23a4.27,4.27,0,0,0,1.94.39.65.65,0,0,0,.67-.47c.3-1.07.59-2.15.86-3.23.2-.82.35-1.65.54-2.48a2.92,2.92,0,0,1,.32-.85c.31-.53.69-1,1-1.57s.82-1.4,1.22-2.08a3,3,0,0,0,.88.36c.73,0,1.45,0,2.18,0s1.35.05,2,.11,1.26.17,1.89.22,1.19,0,1.78.07l1.32,0,1.2.06c1,0,1.93-.24,2.92-.2.53,0,1.06-.09,1.59-.11.35,0,.7,0,1,0l.61.06a7.06,7.06,0,0,1,1.19.48,12.18,12.18,0,0,1,1.5.69,9.45,9.45,0,0,1,1.94,1.47c.64.71,1.43,1.28,2.13,1.94.45.42.79,1,1.27,1.33a27.68,27.68,0,0,1,2.29,2.17c.19.18.36.46.7.23,0,0,.19.09.28.16.24.2.46.41.69.62a2.09,2.09,0,0,1,.47.47c.16.33.38.33.68.24a.47.47,0,0,1,.37,0c.49.44,1,.9,1.44,1.33a.51.51,0,0,0,.39.14c.28-.09.42,0,.58.22.31.35.63.69,1,1a.59.59,0,0,0,.62.22.65.65,0,0,1,.51.17c.27.28.48.61.73.91a1,1,0,0,0,1.17.32c-.27-.85-.51-1.73-.82-2.57a16.61,16.61,0,0,0-1.26-3c-.47-.79-.83-1.64-1.29-2.45-.58-1-1.18-2.08-1.82-3.09s-1.42-2.12-2.16-3.16c-.51-.72-1.07-1.41-1.58-2.13-.71-1-1.34-2.06-2.08-3s-1.75-2.1-2.64-3.14c-.23-.27-.53-.47-.76-.74a17.07,17.07,0,0,0-5.1-3.95,1.76,1.76,0,0,0-1.4-.21c-.8.24-1.61.45-2.4.74a27.11,27.11,0,0,1-3.84,1.1,11.14,11.14,0,0,1-4.67-.15,7.2,7.2,0,0,1-2.43-.82,2,2,0,0,1-1.09-1.43,14,14,0,0,0-.44-3.47,6.89,6.89,0,0,0-.53-1.46,3.42,3.42,0,0,0-1.8-1.43.75.75,0,0,1-.46-.52,3.05,3.05,0,0,0-.81-1.44.39.39,0,0,0-.34-.08.4.4,0,0,0-.14.31c0,.2,0,.39,0,.59a12.66,12.66,0,0,1,0,1.63,13,13,0,0,1-.37,1.49,5.45,5.45,0,0,1-1.55,2.87.52.52,0,0,1-.37.12,16,16,0,0,1-1.65-.43A9.85,9.85,0,0,1,567.89,417.52Z"/><path class="cls-4" d="M444,473.63c-1.21-1.32-2.3-2.76-3.45-4.15a3.63,3.63,0,0,0-2.1-1.33,13.41,13.41,0,0,0-4-.07c-.78.07-1.54.24-2.31.33s-1.31.09-1.95.2-1,.29-1.54.42-.95.17-1.4.32c-1.15.36-2.28.79-3.43,1.15s-2.44.68-3.63,1.1c-1.49.53-3,1.15-4.42,1.76-.58.24-1.12.58-1.68.87a12.4,12.4,0,0,0-3.18,2,7.56,7.56,0,0,1-.85.64l-.11.11-.3.49.36-.05c-.07.2-.15.44.15.42a4.14,4.14,0,0,0,1.63-.24c.63-.34,1.34-.3,2-.64a3.05,3.05,0,0,1,1-.19c-.45.4-1,.87-1.48,1.32-.27.24-.5.46-.21.78.13,0,.27,0,.33.07a1,1,0,0,0,1.06.2c.81-.16,1.63-.3,2.45-.45a2.17,2.17,0,0,1,.26,0c0,.13.05.23.1.41.37-.41.64-.26.91,0a.61.61,0,0,0,.39.09c.54,0,1.07-.07,1.61-.08a1.17,1.17,0,0,1,.36.08,2.33,2.33,0,0,0,.56.15c.38,0,.77-.07,1.16-.1.55-.06,1.09-.13,1.63-.16.9,0,1.79,0,2.68-.08a17.83,17.83,0,0,1,3.1,0,8.7,8.7,0,0,0,1.35,0c.09,0,.19,0,.26,0a2.78,2.78,0,0,0,1.38.36,4.84,4.84,0,0,1,2.26,1c.4.24.63.75,1.18.77.07,0,.14.1.21.17.58.6,1.16,1.2,1.75,1.79a2.74,2.74,0,0,0,.51.36,1.65,1.65,0,0,1,.44.28c.28.36.5.76.77,1.11a2,2,0,0,0,.48.33,3.89,3.89,0,0,0,.21-.53,4.57,4.57,0,0,0,0-.64l.12,0c.13.2.25.41.4.6a17.26,17.26,0,0,0,1.23,1.46c.45.44,1,.77,1.48,1.19s1,1,1.57,1.51c.08.08.23.09.35.13,0,1.15.05,2.29.11,3.44a2.76,2.76,0,0,1-.29,1.36c-.11.21-.19.42-.28.64l-1.53,3.88a1.5,1.5,0,0,0,.15,1.55,2.87,2.87,0,0,0,1.31,1c1,.41,2,.84,3,1.23a4.3,4.3,0,0,0,1.94.39c.35,0,.59-.14.67-.46.3-1.08.59-2.16.86-3.24.2-.82.35-1.65.54-2.47a3.11,3.11,0,0,1,.32-.85c.32-.54.69-1,1-1.57.42-.69.82-1.4,1.22-2.08a3.06,3.06,0,0,0,.88.35c.73.05,1.46,0,2.18,0s1.35.05,2,.11,1.26.17,1.89.22,1.19.05,1.78.07l1.33,0,1.19.06c1,0,1.94-.25,2.92-.2.53,0,1.06-.09,1.59-.12.35,0,.7,0,1.05,0l.61.07a7,7,0,0,1,1.19.47,13.86,13.86,0,0,1,1.5.69,9.45,9.45,0,0,1,1.94,1.47c.64.71,1.43,1.29,2.13,1.95a17.7,17.7,0,0,0,1.27,1.32,29.57,29.57,0,0,1,2.29,2.18c.19.18.36.45.7.23,0,0,.2.08.28.15.24.2.47.42.69.63a1.91,1.91,0,0,1,.47.47c.17.33.38.33.68.23a.46.46,0,0,1,.37,0c.49.43,1,.89,1.44,1.33a.47.47,0,0,0,.39.13.52.52,0,0,1,.58.22c.31.35.63.69.95,1a.6.6,0,0,0,.62.22.67.67,0,0,1,.51.16c.27.28.48.62.73.92a1,1,0,0,0,1.17.31c-.27-.85-.5-1.72-.81-2.57a17.63,17.63,0,0,0-1.27-3c-.47-.79-.83-1.65-1.28-2.45-.59-1.05-1.19-2.09-1.83-3.1s-1.42-2.11-2.16-3.16c-.51-.72-1.07-1.4-1.58-2.12-.71-1-1.34-2.06-2.08-3s-1.75-2.11-2.64-3.14c-.23-.27-.53-.48-.76-.74a17.26,17.26,0,0,0-5.1-4,1.78,1.78,0,0,0-1.39-.21c-.81.24-1.62.45-2.41.74a25.51,25.51,0,0,1-3.84,1.1,10.77,10.77,0,0,1-4.66-.15,7,7,0,0,1-2.44-.82,1.93,1.93,0,0,1-1.09-1.43,13.46,13.46,0,0,0-.44-3.46,7,7,0,0,0-.52-1.46,3.48,3.48,0,0,0-1.81-1.43.8.8,0,0,1-.46-.52,2.94,2.94,0,0,0-.8-1.44.41.41,0,0,0-.34-.08c-.09,0-.14.2-.15.31s0,.39,0,.58a11.22,11.22,0,0,1,0,1.64,11,11,0,0,1-.37,1.48,5.46,5.46,0,0,1-1.54,2.87.51.51,0,0,1-.38.12c-.55-.12-1.11-.25-1.65-.42A9.93,9.93,0,0,1,444,473.63Z"/></svg>