<svg width="400" height="160" viewBox="0 0 400 160" fill="none" xmlns="http://www.w3.org/2000/svg">
<g style="mix-blend-mode:overlay" clip-path="url(#clip0_7_271)">
<path d="M234.104 -1.38552C234.443 -6.6841 235.517 -11.9098 237.296 -16.9123C237.436 -17.3085 237.568 -17.6974 237.722 -18.101C240.132 -24.3751 243.629 -30.1751 248.053 -35.2348C249.372 -36.7494 250.765 -38.1968 252.229 -39.5714C254.082 -41.3212 256.042 -42.9534 258.099 -44.4584C256.25 -42.0124 254.582 -39.6912 253.094 -37.4948C252.097 -36.0272 251.179 -34.6037 250.328 -33.2535C249.051 -31.2283 247.943 -29.3498 246.982 -27.6548C245.709 -25.4252 244.57 -23.122 243.57 -20.7573C243.071 -19.5906 242.557 -18.3065 242.051 -16.9123C240.834 -13.5658 239.872 -10.1316 239.175 -6.63938C238.58 -3.60153 238.331 -1.19473 239.432 -0.512319C241.383 0.683741 246.432 -4.26926 248.141 -5.94228C251.423 -9.18672 254.238 -12.8713 256.507 -16.8903C257.492 -18.6239 258.389 -20.4068 259.192 -22.2322C259.081 -20.4336 258.823 -18.647 258.422 -16.8903C257.661 -13.5268 256.368 -10.3064 254.591 -7.35115C251.83 -2.76558 247.985 1.07189 243.394 3.82432C246.41 4.99837 250.959 6.2091 255.942 5.10109C265.774 2.89976 271.41 -7.02828 275.644 -16.9123C276.634 -19.231 277.551 -21.5424 278.425 -23.7511C279.298 -25.9598 280.017 -27.9923 280.692 -30.0836C282.624 -36.1636 284.064 -42.389 284.999 -48.6996C286.1 -55.8466 286.738 -63.1624 287.421 -71.0505C287.538 -72.452 287.641 -73.7875 287.736 -75.101C288.162 -80.9272 288.36 -85.8582 288.47 -89.5124C287.245 -88.7786 285.887 -87.8907 284.427 -86.9442C280.024 -84.0898 274.69 -80.3989 268.775 -75.8714L267.763 -75.1377C258.862 -68.3208 251.62 -62.6267 243.827 -53.5279C242.411 -51.8695 241.119 -50.2699 239.93 -48.7363C235.714 -43.4166 232.147 -37.613 229.305 -31.4484C228.469 -29.57 227.911 -28.0584 227.544 -26.9504C226.391 -23.7203 225.634 -20.3618 225.292 -16.949C224.866 -11.8125 226.091 -9.13423 226.891 -7.76206C228.601 -4.96044 231.114 -2.73847 234.104 -1.38552V-1.38552Z" fill="#FCBD38"/>
<path d="M152.479 163.143C152.368 168.492 150.947 173.732 148.34 178.405C147.988 179.043 147.606 179.623 147.239 180.203C144.761 184.03 141.512 187.298 137.7 189.801C139.933 186.805 141.853 183.589 143.431 180.203C144.645 177.604 145.627 174.903 146.366 172.131C146.968 169.82 148.766 162.981 146.755 161.858C145.618 161.242 143.651 162.651 141.311 164.676C136.128 169.191 131.619 174.425 127.919 180.218C127.449 180.951 127.112 181.524 126.892 181.891C123.473 187.678 120.443 193.686 117.822 199.875C117.888 199.347 117.962 198.76 118.05 198.136C118.373 195.888 118.819 193.659 119.385 191.459C120.384 187.584 121.768 183.818 123.516 180.218C125.44 176.255 127.822 172.531 130.612 169.123C134.253 164.695 138.54 160.842 143.328 157.691C140.68 155.747 137.506 154.65 134.222 154.543C131.83 154.543 126.349 155.1 117.896 164.625C115.841 166.929 111.989 171.735 107.836 180.218C107.021 181.876 106.192 183.681 105.363 185.633C104.952 186.609 104.541 187.621 104.123 188.678C103.704 189.735 103.301 190.821 102.897 191.958C101.833 194.893 100.96 197.711 100.219 200.44C99.4778 203.17 98.8834 205.834 98.3625 208.512C98.0103 210.288 97.7021 212.064 97.4086 213.861C96.8509 217.347 96.3592 220.92 95.8383 224.743C95.0605 230.533 94.5615 235.75 94.2386 240.263C94.1212 241.843 94.0258 243.33 93.9525 244.724C93.8791 246.126 93.813 247.424 93.769 248.613C95.0164 247.879 96.4253 246.991 97.9736 246.023C100.556 244.401 103.536 242.471 106.779 240.263L109.274 238.56C120.882 230.489 130.972 223.532 140.137 213.861C141.112 212.827 142.081 211.77 143.035 210.669C143.989 209.569 144.943 208.468 145.882 207.279L147.078 205.812C148.7 203.779 150.358 201.659 151.943 199.472C152.339 198.922 152.728 198.371 153.11 197.814C155.025 195.104 156.69 192.225 158.085 189.214C159.409 186.398 160.233 183.374 160.521 180.276C160.707 177.983 160.458 175.675 159.787 173.474C158.438 169.377 155.893 165.779 152.479 163.143Z" fill="#FCBD38"/>
<path d="M289.967 242.09C289.967 241.488 289.893 240.872 289.849 240.241C289.534 235.398 289.013 229.638 288.14 223.173C287.699 219.915 287.274 216.84 286.812 213.839C285.7 205.856 283.782 198.006 281.088 190.41C279.701 186.557 278.285 183.189 276.891 180.217C272.488 170.759 268.254 165.542 266.09 163.084C261.019 157.375 257.028 154.887 254.122 153.809C253.296 153.496 252.44 153.27 251.568 153.134C250.969 153.036 250.363 152.992 249.756 153.002C248.199 153.025 246.655 153.297 245.184 153.809C243.572 154.376 242.046 155.164 240.65 156.15C249.662 162.039 256.793 170.393 261.195 180.217C262.691 183.549 263.882 187.01 264.754 190.556C265.388 193.117 265.858 195.715 266.163 198.335C264.578 194.592 262.971 191.217 261.43 188.216C261.049 187.482 260.696 186.748 260.293 186.014C259.163 183.908 258.092 182.008 257.094 180.335C257.069 180.289 257.042 180.245 257.013 180.203C253.172 173.802 248.349 168.044 242.719 163.142C240.378 161.117 238.412 159.701 237.274 160.325C235.264 161.425 237.061 168.264 237.67 170.598C238.551 173.927 239.78 177.154 241.339 180.225C242.767 183.051 244.431 185.751 246.314 188.296C244.971 187.414 243.696 186.433 242.499 185.361C241.765 184.701 240.972 183.945 240.18 183.094C239.342 182.184 238.556 181.229 237.825 180.232C237.021 179.167 236.286 178.052 235.623 176.893C233.017 172.218 231.596 166.975 231.485 161.624C228.968 163.663 225.651 167.009 224.147 171.896C223.334 174.6 223.146 177.453 223.597 180.24C224.44 185.919 227.53 191.525 231.191 196.764C233.393 199.912 235.799 202.921 238.045 205.731C238.639 206.465 239.226 207.199 239.82 207.888C241.611 210.002 243.431 211.975 245.287 213.861C254.056 222.74 263.676 229.41 274.638 237.012C276.306 238.166 277.906 239.25 279.437 240.263C283.671 243.08 287.34 245.362 290.158 247.065C290.15 245.553 290.084 243.895 289.967 242.09Z" fill="#FCBD38"/>
<path d="M105.59 -22.2028C110.206 -10.543 115.936 3.9491 128.073 6.65675C132.29 7.48333 136.658 7.03633 140.621 5.37264C136.057 2.64525 132.232 -1.15833 129.478 -5.70565C126.724 -10.253 125.125 -15.4056 124.823 -20.7132C127.429 -14.6216 131.183 -9.08852 135.881 -4.41599C137.583 -2.74297 142.631 2.18802 144.583 1.00664C145.684 0.331561 145.434 -2.08257 144.84 -5.11308C143.355 -12.4783 140.723 -19.5648 137.04 -26.1138C133.711 -31.9529 129.997 -37.564 125.923 -42.9101C135.08 -36.2452 142.137 -27.0995 146.264 -16.5527C148.325 -11.1987 149.562 -5.5626 149.932 0.162796C152.933 -1.17541 155.459 -3.38749 157.182 -6.18439C158.393 -8.25365 160.602 -13.2947 156.536 -25.3654C155.164 -29.4305 151.356 -38.9183 140.247 -51.9502C132.175 -61.394 124.676 -67.1541 115.298 -74.3305C107.373 -80.3695 100.476 -84.8749 95.5667 -87.9715C95.6768 -83.4954 95.941 -77.1262 96.594 -69.5096C98.0689 -52.4419 99.3017 -38.0818 105.59 -22.2028Z" fill="#FCBD38"/>
<path d="M124.94 122.051C131.897 132.902 141.365 141.918 152.545 148.335C154.408 149.399 156.324 150.397 158.276 151.314C159.251 151.776 160.242 152.209 161.211 152.635C162.179 153.06 163.221 153.457 164.241 153.831C182.247 160.542 202.068 160.542 220.074 153.831V153.831C223.116 152.698 226.083 151.377 228.96 149.876C230.868 148.885 232.732 147.814 234.552 146.677C236.372 145.539 238.133 144.321 239.842 143.044C240.701 142.399 241.545 141.746 242.374 141.07C247.356 137.036 251.835 132.416 255.714 127.312C257.006 125.61 258.229 123.856 259.383 122.051C261.443 118.799 263.265 115.403 264.835 111.888H119.495C121.06 115.404 122.88 118.801 124.94 122.051Z" fill="#965F44"/>
<path d="M263.529 43.1109C256.879 29.8813 246.685 18.7591 234.084 10.9851C221.482 3.2111 206.968 -0.909105 192.161 -0.915878C176.445 -0.91627 161.078 3.71854 147.983 12.4085C134.888 21.0985 124.647 33.4576 118.541 47.9391H265.708C265.018 46.3175 264.321 44.6885 263.529 43.1109Z" fill="#965F44"/>
<path d="M378.952 122.051C375.045 118.387 370.895 114.991 366.529 111.888H317.051C322.972 114.786 329.202 118.14 335.63 122.051C336.364 122.484 337.039 122.902 337.743 123.342C343.276 126.791 348.346 130.284 352.991 133.718C363.528 132.762 373.904 130.489 383.876 126.952C382.394 125.36 380.735 123.717 378.952 122.051Z" fill="#FFCC26"/>
<path d="M322.899 43.1109C320.162 44.8426 317.491 46.4349 314.871 47.9464H359.698C361.07 46.9558 362.457 45.9139 363.851 44.8059C364.585 44.2409 365.245 43.6759 365.928 43.1109C366.808 42.3771 367.667 41.6433 368.503 40.9095C371.005 38.7082 373.295 36.5069 375.379 34.3569C376.069 33.6231 376.744 32.8893 377.389 32.2216C378.688 30.8127 379.899 29.4332 381.022 28.0978C381.587 27.43 382.122 26.7696 382.643 26.1239C373.669 23.7334 364.458 22.3455 355.178 21.9854C353.85 21.9267 352.558 21.8974 351.311 21.89C346.967 25.691 342.19 29.5873 336.958 33.469C333.363 36.14 329.826 38.6128 326.348 40.8875C325.188 41.6458 324.039 42.3869 322.899 43.1109Z" fill="#FFCC26"/>
<path d="M20.1489 46.3541C20.8827 46.9118 21.5504 47.4181 22.2549 47.9464H66.4651C59.7756 43.9663 53.2928 39.6485 47.0419 35.0099C41.8174 31.1209 37.0405 27.2319 32.6965 23.4236C22.1142 23.5219 11.5858 24.9443 1.35681 27.6575C6.90354 34.5714 13.2068 40.8427 20.1489 46.3541V46.3541Z" fill="#FFCC26"/>
<path d="M70.2 111.866H19.6646C15.1174 114.958 10.79 118.361 6.7134 122.051C4.26258 124.252 2.06124 126.454 0.10939 128.493C4.75164 130.147 9.48795 131.524 14.2933 132.617C19.8 133.87 25.3843 134.752 31.0088 135.259C32.1682 134.403 33.3569 133.539 34.575 132.669C38.2439 130.078 42.1109 127.466 46.2568 124.883C47.8344 123.9 49.39 122.961 50.9456 122.044C57.645 118.074 64.0803 114.713 70.2 111.866Z" fill="#FFCC26"/>
<path d="M375.628 180.218C372.407 175.14 368.423 169.211 363.624 162.607C361.356 159.525 359.221 156.605 357.064 153.801C354.811 150.866 352.558 147.99 350.181 145.194C346.006 140.248 341.479 135.611 336.635 131.318C335.593 130.394 334.568 129.509 333.561 128.662C330.552 126.123 327.69 123.929 325.056 122.058C319.591 118.033 313.697 114.625 307.482 111.895H277.17C275.294 113.693 273.749 115.807 272.606 118.14C278.763 118.649 284.827 119.963 290.642 122.051C291.464 122.352 292.293 122.66 293.129 122.997C298.175 125.041 302.963 127.671 307.394 130.834C310.411 132.984 313.259 135.361 315.913 137.945C316.522 138.532 317.102 139.119 317.66 139.698C320.032 142.148 322.239 144.754 324.264 147.498C324.587 147.939 324.887 148.357 325.166 148.753C322.231 146.42 319.391 144.306 316.706 142.413C314.915 141.151 313.191 139.977 311.569 138.898C310.748 138.355 309.94 137.842 309.163 137.343C307.602 136.364 306.134 135.459 304.76 134.628C296.782 129.927 288.116 126.507 279.078 124.494C278.146 124.296 277.258 124.12 276.443 123.988C275.158 123.71 273.83 123.698 272.54 123.951C272.123 124.067 271.762 124.327 271.52 124.685C269.993 127.063 275.974 133.41 277.999 135.552C283.641 141.458 290.367 146.221 297.811 149.582C296.916 149.516 295.8 149.399 294.502 149.193C289.182 148.331 284.089 146.41 279.525 143.543C278.547 142.942 277.647 142.323 276.825 141.687C272.837 138.696 269.438 134.991 266.801 130.761C266.508 130.284 266.251 129.851 266.024 129.462C264.515 132.914 263.698 136.629 263.617 140.395C263.622 141.906 263.772 143.412 264.064 144.893C264.75 148.132 266.13 151.184 268.108 153.838C269.862 156.205 271.923 158.329 274.235 160.156C275.416 161.103 276.663 162.005 277.955 162.864C281.282 165.027 284.759 166.949 288.36 168.616C289.094 168.961 289.827 169.299 290.561 169.622C293.46 170.943 296.365 172.161 299.139 173.291C306.149 176.218 313.399 178.536 320.808 180.218C322.275 180.555 323.743 180.863 325.21 181.157C335.483 183.219 345.874 184.327 357.269 185.559C363.139 186.183 368.393 186.601 372.862 186.888C375.548 187.056 377.94 187.181 380.009 187.277C378.732 185.193 377.272 182.808 375.628 180.218Z" fill="#FEDB48"/>
<path d="M118.05 130.959C113.238 139.386 105.534 145.784 96.3665 148.966C94.8067 149.504 93.2166 149.95 91.6043 150.301C89.8361 150.684 88.044 150.946 86.2404 151.086C88.5395 150.019 90.7807 148.831 92.9544 147.528C94.8399 146.402 96.6646 145.177 98.4211 143.859C101.16 141.82 103.716 139.546 106.06 137.064C106.948 136.125 108.591 134.378 110.029 132.522C110.235 132.25 110.44 131.986 110.631 131.715C111.02 131.179 111.365 130.636 111.695 130.115C111.849 129.851 111.996 129.587 112.121 129.337C112.478 128.694 112.702 127.985 112.781 127.253C112.815 126.882 112.73 126.509 112.539 126.189C111.893 125.184 110.059 125.14 107.615 125.522C106.801 125.646 105.913 125.822 104.981 126.028C95.9416 128.037 87.2748 131.457 79.2988 136.161C77.9193 136.983 76.4518 137.888 74.8961 138.876C74.1183 139.368 73.3185 139.889 72.4894 140.432C70.8457 141.511 69.1213 142.677 67.3529 143.939C64.6673 145.84 61.8349 147.946 58.8924 150.279C63.3318 143.983 73.4506 131.59 90.8999 124.524C93.2976 123.559 95.7473 122.728 98.2376 122.036C102.555 120.829 106.978 120.035 111.446 119.666C109.976 116.58 107.768 113.904 105.018 111.873H80.5536C80.2821 111.969 80.0253 112.042 79.7538 112.145C76.3637 113.363 69.8991 116.041 61.1378 122.036C56.325 125.36 51.725 128.982 47.3648 132.881C41.9697 137.674 36.962 142.885 32.3883 148.467C30.9208 150.228 29.5193 152.011 28.1177 153.831C25.5789 157.125 23.062 160.552 20.3764 164.206C16.0544 170.077 12.3929 175.507 9.36969 180.239C7.31511 183.446 5.52468 186.352 4.04979 188.832C8.1883 188.641 13.6329 188.333 20.0608 187.761C22.1961 187.577 24.4635 187.357 26.7896 187.108L32.447 186.506C41.744 185.486 50.4466 184.422 59.0318 182.683C62.4659 181.949 65.8853 181.215 69.3047 180.239C74.6111 178.779 79.8192 176.982 84.8975 174.861C96.6013 169.959 110.58 164.082 116.964 153.831C118.021 152.138 118.854 150.315 119.444 148.408C119.635 147.762 119.803 147.102 119.943 146.427C120.505 143.573 120.537 140.641 120.038 137.776C119.637 135.435 118.97 133.148 118.05 130.959V130.959Z" fill="#FEDB48"/>
<path d="M271.652 19.9014C275.54 15.9106 279.904 12.4136 284.647 9.48909C294.317 3.56998 305.212 -0.0593549 316.5 -1.12136C308.912 1.92341 301.533 5.46801 294.414 9.48909L294.113 9.65785L293.57 9.96604C285.743 14.5287 278.665 20.2679 272.584 26.9824C271.945 27.7162 271.358 28.3692 270.845 29.0149C270.588 29.3378 270.346 29.6533 270.111 29.9542C269.245 31.1723 268.739 32.2289 268.805 33.0507C268.817 33.2533 268.872 33.4509 268.966 33.6304C270.03 35.663 275.827 34.6871 279.496 33.8726L280.303 33.6891L281.616 33.3809C283.985 32.7901 286.316 32.055 288.595 31.1796C292.699 29.6087 296.633 27.6247 300.335 25.258C301.407 24.5829 302.495 23.8491 303.601 23.0567C299.922 28.4851 294.973 32.9321 289.183 36.0105C283.394 39.0888 276.939 40.7051 270.382 40.7187C270.669 41.0856 270.984 41.4525 271.322 41.8708C271.659 42.289 272.011 42.6632 272.393 43.0742C274.165 44.9627 276.196 46.5907 278.425 47.9098H303.124C306.162 46.5163 309.092 44.9 311.892 43.0742C314.182 41.6066 316.42 40.0143 318.599 38.4147C320.778 36.815 322.892 35.186 324.917 33.6158C329.546 30.0507 333.927 26.1748 338.029 22.0147C341.955 18.0189 345.675 13.826 349.176 9.45239C354.312 3.11254 359.133 -3.60887 364.321 -10.8219C365.862 -12.9572 367.256 -15.0045 368.635 -16.9563C372.113 -21.99 374.946 -26.3634 377.066 -29.7314C374.395 -29.6801 371.292 -29.5773 367.813 -29.4086C362.017 -29.115 355.192 -28.6014 347.583 -27.7135C333.12 -26.0332 321.519 -24.683 307.02 -19.7593C304.298 -18.8348 301.781 -17.8956 299.418 -16.9563C284.42 -10.9687 276.451 -4.84896 273.002 -1.87715C267.814 2.56221 264.732 6.3485 262.89 9.45239C260.498 13.4882 260.22 16.3646 260.205 18.0376C260.204 20.7961 260.816 23.5203 261.995 26.0138C262.537 27.1688 263.168 28.2802 263.881 29.3378C266.195 25.9749 268.795 22.8178 271.652 19.9014V19.9014Z" fill="#FEDB48"/>
<path d="M110.998 -0.292187C106.977 -3.74095 96.9536 -11.3869 76.9508 -18.1744C62.4513 -23.098 50.8502 -24.4482 36.3874 -26.1359C24.2214 -27.5521 14.0365 -28.007 6.90419 -28.1464C9.83931 -23.4796 14.1466 -16.8976 19.6499 -9.23695C31.9921 7.91146 42.3971 22.3155 59.0539 35.2007C64.7554 39.6034 71.0952 44.461 77.7139 47.9464H107.916C110.047 46.3202 111.954 44.4205 113.588 42.2963C107.03 42.2931 100.573 40.682 94.7816 37.6041C88.9904 34.5262 84.0422 30.0755 80.3702 24.6416C86.9803 29.4476 94.4542 32.9354 102.384 34.9145C105.253 35.6116 113.72 37.6735 115.034 35.164C115.768 33.7478 113.992 31.3557 111.438 28.516C105.218 21.6466 97.9523 15.8023 89.9093 11.1988C82.6997 7.10741 75.2227 3.5062 67.5291 0.41958C75.197 1.15336 90.9733 3.81696 105.744 15.484C111.286 19.8685 116.134 25.0633 120.126 30.8934C122.463 27.5837 123.742 23.6441 123.795 19.5932C123.766 16.6654 122.929 9.92202 110.998 -0.292187Z" fill="#FEDB48"/>
</g>
<path d="M115.242 71.776L119.724 59.356H121.74L126.042 71.776L127.428 72.082V73H122.28V72.082L123.63 71.776L122.91 69.49H117.834L117.078 71.758L118.482 72.064V73H114.018V72.064L115.242 71.776ZM121.182 64.072L120.408 61.498L118.23 68.23H122.496L121.182 64.072ZM132.919 71.794V60.508L130.003 60.724L129.391 62.344L128.311 62.38L128.527 59.356H139.435V62.362L138.517 62.47L137.977 60.706L135.133 60.508V71.776L137.311 72.064V73H130.813V72.064L132.919 71.794ZM142.573 71.776V60.598L141.205 60.436V59.356H150.637L150.889 62.038H149.629L149.071 60.598L144.805 60.454V65.386L147.703 65.296L148.045 63.946H149.197V67.906H148.045L147.703 66.556L144.805 66.502V71.884L149.521 71.686L150.493 69.904L151.681 70.156L151.267 73H141.169V72.064L142.573 71.776ZM155.013 71.794V60.706L153.663 60.562V59.356H158.829V60.562L157.281 60.724L157.263 71.848L161.385 71.596L162.609 69.49L163.599 69.922L163.005 73H153.627V72.064L155.013 71.794ZM166.718 71.776V60.598L165.116 60.436V59.356H170.48V60.436L168.95 60.598V71.776L170.588 72.064V73H165.098V72.064L166.718 71.776ZM177.386 56.116H179.204L181.49 58.348L180.644 58.852L178.304 57.52L175.892 58.852L175.1 58.366L177.386 56.116ZM174.164 71.776V60.598L172.796 60.436V59.356H182.228L182.48 62.038H181.22L180.662 60.598L176.396 60.454V65.386L179.294 65.296L179.636 63.946H180.788V67.906H179.636L179.294 66.556L176.396 66.502V71.884L181.112 71.686L182.084 69.904L183.272 70.156L182.858 73H172.76V72.064L174.164 71.776ZM196.678 59.23C197.518 59.23 198.298 59.284 199.018 59.392C199.75 59.5 200.368 59.62 200.872 59.752L200.71 62.488H199.54L198.964 60.976C198.844 60.832 198.544 60.7 198.064 60.58C197.584 60.448 196.978 60.388 196.246 60.4C195.418 60.4 194.674 60.64 194.014 61.12C193.366 61.588 192.856 62.242 192.484 63.082C192.112 63.922 191.926 64.882 191.926 65.962C191.926 67.066 192.076 68.086 192.376 69.022C192.688 69.958 193.162 70.714 193.798 71.29C194.446 71.854 195.244 72.136 196.192 72.136C196.744 72.136 197.266 72.058 197.758 71.902C198.262 71.734 198.622 71.482 198.838 71.146V68.032L196.822 67.852V66.772H201.934V67.852L200.944 68.032V72.37C200.764 72.358 200.506 72.388 200.17 72.46C199.846 72.532 199.504 72.61 199.144 72.694C198.448 72.874 197.83 73.012 197.29 73.108C196.762 73.204 196.234 73.252 195.706 73.252C194.506 73.252 193.438 72.964 192.502 72.388C191.566 71.812 190.84 71.014 190.324 69.994C189.808 68.974 189.55 67.828 189.55 66.556C189.55 65.092 189.862 63.808 190.486 62.704C191.11 61.588 191.962 60.73 193.042 60.13C194.122 59.53 195.334 59.23 196.678 59.23ZM205.423 71.776V60.598L203.821 60.436V59.356H209.185V60.436L207.655 60.598V71.776L209.293 72.064V73H203.803V72.064L205.423 71.776ZM216.757 59.23C218.281 59.23 219.469 59.506 220.321 60.058C221.185 60.61 221.617 61.534 221.617 62.83C221.617 63.79 221.359 64.618 220.843 65.314C220.327 65.998 219.607 66.496 218.683 66.808C218.719 66.82 218.815 66.874 218.971 66.97C219.331 67.198 219.661 67.54 219.961 67.996C220.273 68.452 220.657 69.082 221.113 69.886C221.449 70.486 221.719 70.942 221.923 71.254C222.127 71.554 222.319 71.734 222.499 71.794L223.525 72.064V73H220.555C220.363 73 220.159 72.82 219.943 72.46C219.727 72.088 219.439 71.506 219.079 70.714C218.575 69.598 218.119 68.728 217.711 68.104C217.315 67.48 216.883 67.168 216.415 67.168L215.083 67.186V71.776L216.865 72.064V73H211.249V72.064L212.851 71.776V60.688L211.447 60.526V59.356H213.643C213.895 59.356 214.135 59.35 214.363 59.338C214.591 59.326 214.801 59.314 214.993 59.302C215.737 59.254 216.325 59.23 216.757 59.23ZM216.451 60.346C216.355 60.358 216.223 60.364 216.055 60.364C215.575 60.388 215.251 60.43 215.083 60.49V66.034C215.359 66.07 215.797 66.088 216.397 66.088C217.381 66.088 218.125 65.854 218.629 65.386C219.133 64.906 219.385 64.138 219.385 63.082C219.385 62.194 219.145 61.51 218.665 61.03C218.197 60.55 217.459 60.322 216.451 60.346ZM225.144 71.776L229.626 59.356H231.642L235.944 71.776L237.33 72.082V73H232.182V72.082L233.532 71.776L232.812 69.49H227.736L226.98 71.758L228.384 72.064V73H223.92V72.064L225.144 71.776ZM231.084 64.072L230.31 61.498L228.132 68.23H232.398L231.084 64.072ZM243.397 73.216C242.605 73.216 241.789 73.138 240.949 72.982C240.121 72.826 239.533 72.652 239.185 72.46V69.364H240.157L240.823 71.236C241.123 71.584 241.501 71.824 241.957 71.956C242.425 72.088 242.959 72.154 243.559 72.154C244.243 72.154 244.819 71.968 245.287 71.596C245.767 71.224 246.007 70.684 246.007 69.976C246.007 69.412 245.767 68.914 245.287 68.482C244.819 68.038 244.135 67.564 243.235 67.06C242.335 66.58 241.615 66.154 241.075 65.782C240.535 65.41 240.091 64.978 239.743 64.486C239.395 63.982 239.221 63.4 239.221 62.74C239.221 61.984 239.437 61.342 239.869 60.814C240.313 60.286 240.871 59.89 241.543 59.626C242.227 59.362 242.923 59.23 243.631 59.23C244.351 59.23 245.065 59.296 245.773 59.428C246.493 59.56 247.015 59.71 247.339 59.878V62.506H246.313L245.593 60.76C245.413 60.604 245.137 60.484 244.765 60.4C244.405 60.304 244.033 60.256 243.649 60.256C243.049 60.256 242.509 60.418 242.029 60.742C241.549 61.054 241.309 61.534 241.309 62.182C241.309 62.818 241.567 63.364 242.083 63.82C242.611 64.276 243.409 64.786 244.477 65.35C245.245 65.758 245.887 66.142 246.403 66.502C246.919 66.862 247.345 67.288 247.681 67.78C248.017 68.26 248.185 68.812 248.185 69.436C248.185 70.672 247.729 71.614 246.817 72.262C245.917 72.898 244.777 73.216 243.397 73.216ZM255.011 73.216C254.219 73.216 253.403 73.138 252.563 72.982C251.735 72.826 251.147 72.652 250.799 72.46V69.364H251.771L252.437 71.236C252.737 71.584 253.115 71.824 253.571 71.956C254.039 72.088 254.573 72.154 255.173 72.154C255.857 72.154 256.433 71.968 256.901 71.596C257.381 71.224 257.621 70.684 257.621 69.976C257.621 69.412 257.381 68.914 256.901 68.482C256.433 68.038 255.749 67.564 254.849 67.06C253.949 66.58 253.229 66.154 252.689 65.782C252.149 65.41 251.705 64.978 251.357 64.486C251.009 63.982 250.835 63.4 250.835 62.74C250.835 61.984 251.051 61.342 251.483 60.814C251.927 60.286 252.485 59.89 253.157 59.626C253.841 59.362 254.537 59.23 255.245 59.23C255.965 59.23 256.679 59.296 257.387 59.428C258.107 59.56 258.629 59.71 258.953 59.878V62.506H257.927L257.207 60.76C257.027 60.604 256.751 60.484 256.379 60.4C256.019 60.304 255.647 60.256 255.263 60.256C254.663 60.256 254.123 60.418 253.643 60.742C253.163 61.054 252.923 61.534 252.923 62.182C252.923 62.818 253.181 63.364 253.697 63.82C254.225 64.276 255.023 64.786 256.091 65.35C256.859 65.758 257.501 66.142 258.017 66.502C258.533 66.862 258.959 67.288 259.295 67.78C259.631 68.26 259.799 68.812 259.799 69.436C259.799 70.672 259.343 71.614 258.431 72.262C257.531 72.898 256.391 73.216 255.011 73.216ZM268.372 59.23C269.548 59.23 270.58 59.518 271.468 60.094C272.356 60.67 273.04 61.462 273.52 62.47C274 63.478 274.24 64.618 274.24 65.89C274.24 67.366 273.964 68.662 273.412 69.778C272.872 70.882 272.122 71.74 271.162 72.352C270.202 72.952 269.122 73.252 267.922 73.252C266.722 73.252 265.66 72.964 264.736 72.388C263.812 71.812 263.098 71.02 262.594 70.012C262.09 68.992 261.838 67.84 261.838 66.556C261.838 65.116 262.126 63.838 262.702 62.722C263.29 61.606 264.07 60.754 265.042 60.166C266.074 59.542 267.184 59.23 268.372 59.23ZM268.102 60.346C266.854 60.346 265.906 60.886 265.258 61.966C264.622 63.034 264.304 64.504 264.304 66.376C264.304 67.36 264.454 68.296 264.754 69.184C265.066 70.06 265.51 70.774 266.086 71.326C266.662 71.866 267.346 72.136 268.138 72.136C269.374 72.136 270.286 71.608 270.874 70.552C271.474 69.484 271.774 67.996 271.774 66.088C271.774 65.044 271.624 64.084 271.324 63.208C271.036 62.332 270.61 61.636 270.046 61.12C269.494 60.604 268.846 60.346 268.102 60.346ZM277.742 71.794V60.706L276.392 60.562V59.356H281.558V60.562L280.01 60.724L279.992 71.848L284.114 71.596L285.338 69.49L286.328 69.922L285.734 73H276.356V72.064L277.742 71.794Z" fill="black"/>
<path d="M135.567 77.0612C136.033 77.0612 136.453 77.0985 136.827 77.1732C137.2 77.2385 137.597 77.3318 138.017 77.4532L138.409 77.5512L138.297 79.5112H137.625L137.289 78.3352C136.999 78.1485 136.691 78.0132 136.365 77.9292C136.047 77.8452 135.651 77.8032 135.175 77.8032C134.493 77.8032 133.859 77.9852 133.271 78.3492C132.692 78.7132 132.225 79.2452 131.871 79.9452C131.525 80.6452 131.353 81.4665 131.353 82.4092C131.353 83.2958 131.502 84.1125 131.801 84.8592C132.099 85.5965 132.538 86.1845 133.117 86.6232C133.705 87.0618 134.405 87.2812 135.217 87.2812C136.309 87.2812 137.069 87.0198 137.499 86.4972L137.863 85.4052H138.423V87.3372C138.301 87.3465 138.157 87.3745 137.989 87.4212C137.821 87.4678 137.704 87.5005 137.639 87.5192C137.219 87.6592 136.803 87.7665 136.393 87.8412C135.991 87.9252 135.506 87.9672 134.937 87.9672C134.003 87.9672 133.163 87.7478 132.417 87.3092C131.67 86.8705 131.087 86.2592 130.667 85.4752C130.247 84.6912 130.037 83.7998 130.037 82.8012C130.037 81.6718 130.289 80.6732 130.793 79.8052C131.297 78.9278 131.969 78.2512 132.809 77.7752C133.658 77.2992 134.577 77.0612 135.567 77.0612ZM144.743 77.0612C145.63 77.0612 146.404 77.2852 147.067 77.7332C147.739 78.1718 148.252 78.7832 148.607 79.5672C148.971 80.3418 149.153 81.2238 149.153 82.2132C149.153 83.3985 148.938 84.4252 148.509 85.2932C148.08 86.1612 147.496 86.8238 146.759 87.2812C146.022 87.7385 145.205 87.9672 144.309 87.9672C143.394 87.9672 142.587 87.7432 141.887 87.2952C141.196 86.8472 140.66 86.2312 140.277 85.4472C139.904 84.6538 139.717 83.7578 139.717 82.7592C139.717 81.5645 139.95 80.5285 140.417 79.6512C140.893 78.7738 141.523 78.1158 142.307 77.6772C143.054 77.2665 143.866 77.0612 144.743 77.0612ZM144.491 77.7472C143.81 77.7472 143.212 77.9432 142.699 78.3352C142.195 78.7178 141.803 79.2778 141.523 80.0152C141.243 80.7432 141.103 81.6112 141.103 82.6192C141.103 83.4592 141.238 84.2338 141.509 84.9432C141.789 85.6525 142.186 86.2218 142.699 86.6512C143.222 87.0712 143.828 87.2812 144.519 87.2812C145.191 87.2812 145.77 87.0852 146.255 86.6932C146.75 86.3012 147.128 85.7365 147.389 84.9992C147.65 84.2618 147.781 83.3892 147.781 82.3812C147.781 81.5505 147.65 80.7805 147.389 80.0712C147.137 79.3618 146.759 78.7972 146.255 78.3772C145.76 77.9572 145.172 77.7472 144.491 77.7472ZM153.91 87.9252C153.275 87.9252 152.65 87.8645 152.034 87.7432C151.418 87.6125 150.998 87.4818 150.774 87.3512V85.1952H151.348L151.754 86.5672C152.006 86.8285 152.337 87.0152 152.748 87.1272C153.159 87.2298 153.597 87.2812 154.064 87.2812C154.661 87.2812 155.175 87.1272 155.604 86.8192C156.043 86.5018 156.262 86.0305 156.262 85.4052C156.262 85.0318 156.145 84.7005 155.912 84.4112C155.688 84.1125 155.408 83.8512 155.072 83.6272C154.736 83.4032 154.283 83.1372 153.714 82.8292C153.107 82.5118 152.608 82.2225 152.216 81.9612C151.824 81.6905 151.497 81.3685 151.236 80.9952C150.975 80.6218 150.844 80.1925 150.844 79.7072C150.844 79.1098 151.012 78.6152 151.348 78.2232C151.693 77.8218 152.118 77.5278 152.622 77.3412C153.126 77.1545 153.635 77.0612 154.148 77.0612C154.764 77.0612 155.301 77.1172 155.758 77.2292C156.215 77.3318 156.565 77.4532 156.808 77.5932V79.4692H156.248L155.758 78.1392C155.59 77.9898 155.352 77.8778 155.044 77.8032C154.745 77.7285 154.419 77.6912 154.064 77.6912C153.756 77.6912 153.443 77.7518 153.126 77.8732C152.809 77.9945 152.538 78.1905 152.314 78.4612C152.099 78.7318 151.992 79.0772 151.992 79.4972C151.992 79.9825 152.193 80.4025 152.594 80.7572C153.005 81.1025 153.597 81.4712 154.372 81.8632C155.044 82.2178 155.581 82.5258 155.982 82.7872C156.383 83.0485 156.724 83.3705 157.004 83.7532C157.293 84.1265 157.438 84.5605 157.438 85.0552C157.438 86.0165 157.107 86.7352 156.444 87.2112C155.781 87.6872 154.937 87.9252 153.91 87.9252ZM161.982 87.0292V77.8592L159.378 77.9992L158.93 79.2312L158.342 79.2452L158.51 77.1592H166.658L166.644 79.2732L166.126 79.3292L165.79 77.9852L163.228 77.8592V87.0292L165.034 87.2112V87.7712H160.26V87.2112L161.982 87.0292ZM177.327 77.7892L176.263 77.9152V83.1372C176.263 84.7705 175.909 85.9838 175.199 86.7772C174.499 87.5705 173.533 87.9672 172.301 87.9672C170.817 87.9672 169.749 87.5845 169.095 86.8192C168.451 86.0538 168.129 84.8778 168.129 83.2912L168.143 77.9012L167.065 77.7892V77.1592H170.593V77.7892L169.389 77.9152V83.3332C169.389 84.7798 169.66 85.8018 170.201 86.3992C170.752 86.9965 171.527 87.2952 172.525 87.2952C174.373 87.2952 175.297 85.9092 175.297 83.1372V77.9152L174.079 77.7892V77.1592H177.327V77.7892ZM182.221 77.0612C183.369 77.0612 184.251 77.2758 184.867 77.7052C185.492 78.1252 185.805 78.8578 185.805 79.9032C185.805 80.6125 185.595 81.2332 185.175 81.7652C184.755 82.2972 184.19 82.6752 183.481 82.8992L183.593 82.9552C183.919 83.0952 184.232 83.3798 184.531 83.8092C184.829 84.2385 185.17 84.8032 185.553 85.5032C185.842 86.0165 186.061 86.3945 186.211 86.6372C186.369 86.8705 186.514 87.0012 186.645 87.0292L187.415 87.2112V87.7712H185.497C185.375 87.7712 185.24 87.6498 185.091 87.4072C184.941 87.1552 184.727 86.7398 184.447 86.1612C183.98 85.1905 183.56 84.4345 183.187 83.8932C182.813 83.3518 182.417 83.0998 181.997 83.1372C181.745 83.1465 181.334 83.1512 180.765 83.1512V87.0292L182.207 87.2112V87.7712H178.203V87.2112L179.519 87.0292V77.9572L178.371 77.8592V77.1592H180.135C180.321 77.1592 180.555 77.1452 180.835 77.1172C181.357 77.0798 181.819 77.0612 182.221 77.0612ZM182.039 77.7472C181.964 77.7565 181.843 77.7612 181.675 77.7612C181.236 77.7798 180.933 77.8125 180.765 77.8592V82.4232C181.017 82.4512 181.46 82.4652 182.095 82.4652C182.869 82.4652 183.467 82.2645 183.887 81.8632C184.307 81.4525 184.517 80.8458 184.517 80.0432C184.517 79.2778 184.325 78.6945 183.943 78.2932C183.56 77.8918 182.925 77.7098 182.039 77.7472ZM188.329 87.0292L191.927 77.1452H192.991L196.449 87.0292L197.555 87.2112V87.7712H194.013V87.2112L195.147 87.0292L194.377 84.7612H190.177L189.407 87.0292L190.555 87.2112V87.7712H187.349V87.2112L188.329 87.0292ZM192.893 80.3932L192.305 78.4892L190.429 84.0052H194.111L192.893 80.3932ZM206.92 77.0612C207.387 77.0612 207.807 77.0985 208.18 77.1732C208.554 77.2385 208.95 77.3318 209.37 77.4532L209.762 77.5512L209.65 79.5112H208.978L208.642 78.3352C208.353 78.1485 208.045 78.0132 207.718 77.9292C207.401 77.8452 207.004 77.8032 206.528 77.8032C205.847 77.8032 205.212 77.9852 204.624 78.3492C204.046 78.7132 203.579 79.2452 203.224 79.9452C202.879 80.6452 202.706 81.4665 202.706 82.4092C202.706 83.2958 202.856 84.1125 203.154 84.8592C203.453 85.5965 203.892 86.1845 204.47 86.6232C205.058 87.0618 205.758 87.2812 206.57 87.2812C207.662 87.2812 208.423 87.0198 208.852 86.4972L209.216 85.4052H209.776V87.3372C209.655 87.3465 209.51 87.3745 209.342 87.4212C209.174 87.4678 209.058 87.5005 208.992 87.5192C208.572 87.6592 208.157 87.7665 207.746 87.8412C207.345 87.9252 206.86 87.9672 206.29 87.9672C205.357 87.9672 204.517 87.7478 203.77 87.3092C203.024 86.8705 202.44 86.2592 202.02 85.4752C201.6 84.6912 201.39 83.7998 201.39 82.8012C201.39 81.6718 201.642 80.6732 202.146 79.8052C202.65 78.9278 203.322 78.2512 204.162 77.7752C205.012 77.2992 205.931 77.0612 206.92 77.0612ZM215.061 77.0612C216.209 77.0612 217.091 77.2758 217.707 77.7052C218.332 78.1252 218.645 78.8578 218.645 79.9032C218.645 80.6125 218.435 81.2332 218.015 81.7652C217.595 82.2972 217.03 82.6752 216.321 82.8992L216.433 82.9552C216.759 83.0952 217.072 83.3798 217.371 83.8092C217.669 84.2385 218.01 84.8032 218.393 85.5032C218.682 86.0165 218.901 86.3945 219.051 86.6372C219.209 86.8705 219.354 87.0012 219.485 87.0292L220.255 87.2112V87.7712H218.337C218.215 87.7712 218.08 87.6498 217.931 87.4072C217.781 87.1552 217.567 86.7398 217.287 86.1612C216.82 85.1905 216.4 84.4345 216.027 83.8932C215.653 83.3518 215.257 83.0998 214.837 83.1372C214.585 83.1465 214.174 83.1512 213.605 83.1512V87.0292L215.047 87.2112V87.7712H211.043V87.2112L212.359 87.0292V77.9572L211.211 77.8592V77.1592H212.975C213.161 77.1592 213.395 77.1452 213.675 77.1172C214.197 77.0798 214.659 77.0612 215.061 77.0612ZM214.879 77.7472C214.804 77.7565 214.683 77.7612 214.515 77.7612C214.076 77.7798 213.773 77.8125 213.605 77.8592V82.4232C213.857 82.4512 214.3 82.4652 214.935 82.4652C215.709 82.4652 216.307 82.2645 216.727 81.8632C217.147 81.4525 217.357 80.8458 217.357 80.0432C217.357 79.2778 217.165 78.6945 216.783 78.2932C216.4 77.8918 215.765 77.7098 214.879 77.7472ZM222.149 87.0292V77.9012L220.973 77.7892V77.1592H224.571V77.7892L223.395 77.9012V87.0292L224.627 87.2112V87.7712H220.945V87.2112L222.149 87.0292ZM226.406 87.0292L230.004 77.1452H231.068L234.526 87.0292L235.632 87.2112V87.7712H232.09V87.2112L233.224 87.0292L232.454 84.7612H228.254L227.484 87.0292L228.632 87.2112V87.7712H225.426V87.2112L226.406 87.0292ZM230.97 80.3932L230.382 78.4892L228.506 84.0052H232.188L230.97 80.3932ZM239.488 87.0292V77.8592L236.884 77.9992L236.436 79.2312L235.848 79.2452L236.016 77.1592H244.164L244.15 79.2732L243.632 79.3292L243.296 77.9852L240.734 77.8592V87.0292L242.54 87.2112V87.7712H237.766V87.2112L239.488 87.0292ZM246.321 87.0292V77.9012L245.145 77.7892V77.1592H248.743V77.7892L247.567 77.9012V87.0292L248.799 87.2112V87.7712H245.117V87.2112L246.321 87.0292ZM249.611 77.7892V77.1592H253.237V77.7892L251.963 77.9012L254.385 85.0832L254.833 86.5252L255.225 85.0692L257.353 77.9012L256.219 77.7892V77.1592H259.313V77.7892L258.431 77.8872L255.113 87.9112H254.161L250.535 77.8872L249.611 77.7892ZM260.339 87.0292L263.937 77.1452H265.001L268.459 87.0292L269.565 87.2112V87.7712H266.023V87.2112L267.157 87.0292L266.387 84.7612H262.187L261.417 87.0292L262.565 87.2112V87.7712H259.359V87.2112L260.339 87.0292ZM264.903 80.3932L264.315 78.4892L262.439 84.0052H266.121L264.903 80.3932Z" fill="black"/>
<path d="M147.249 102.521V93.3935L146.101 93.2815V92.6515H153.213L153.409 94.6115H152.695L152.373 93.4075L148.481 93.3235V97.3555L151.099 97.2995L151.295 96.2215H151.953V99.1615H151.295L151.099 98.0695L148.481 98.0275V102.563L152.667 102.451L153.339 100.981L153.955 101.135L153.647 103.263H146.073V102.703L147.249 102.521ZM158.631 102.521L162.229 92.6375H163.293L166.751 102.521L167.857 102.703V103.263H164.315V102.703L165.449 102.521L164.679 100.253H160.479L159.709 102.521L160.857 102.703V103.263H157.651V102.703L158.631 102.521ZM163.195 95.8855L162.607 93.9815L160.731 99.4975H164.413L163.195 95.8855ZM172.47 92.5535C173.618 92.5535 174.5 92.7681 175.116 93.1975C175.741 93.6175 176.054 94.3501 176.054 95.3955C176.054 96.1048 175.844 96.7255 175.424 97.2575C175.004 97.7895 174.439 98.1675 173.73 98.3915L173.842 98.4475C174.168 98.5875 174.481 98.8721 174.78 99.3015C175.078 99.7308 175.419 100.295 175.802 100.995C176.091 101.509 176.31 101.887 176.46 102.129C176.618 102.363 176.763 102.493 176.894 102.521L177.664 102.703V103.263H175.746C175.624 103.263 175.489 103.142 175.34 102.899C175.19 102.647 174.976 102.232 174.696 101.653C174.229 100.683 173.809 99.9268 173.436 99.3855C173.062 98.8441 172.666 98.5921 172.246 98.6295C171.994 98.6388 171.583 98.6435 171.014 98.6435V102.521L172.456 102.703V103.263H168.452V102.703L169.768 102.521V93.4495L168.62 93.3515V92.6515H170.384C170.57 92.6515 170.804 92.6375 171.084 92.6095C171.606 92.5721 172.068 92.5535 172.47 92.5535ZM172.288 93.2395C172.213 93.2488 172.092 93.2535 171.924 93.2535C171.485 93.2721 171.182 93.3048 171.014 93.3515V97.9155C171.266 97.9435 171.709 97.9575 172.344 97.9575C173.118 97.9575 173.716 97.7568 174.136 97.3555C174.556 96.9448 174.766 96.3381 174.766 95.5355C174.766 94.7701 174.574 94.1868 174.192 93.7855C173.809 93.3841 173.174 93.2021 172.288 93.2395ZM181.434 102.521V93.3515L178.83 93.4915L178.382 94.7235L177.794 94.7375L177.962 92.6515H186.11L186.096 94.7655L185.578 94.8215L185.242 93.4775L182.68 93.3515V102.521L184.486 102.703V103.263H179.712V102.703L181.434 102.521ZM188.169 102.521V93.3935L187.021 93.2815V92.6515H194.133L194.329 94.6115H193.615L193.293 93.4075L189.401 93.3235V97.3555L192.019 97.2995L192.215 96.2215H192.873V99.1615H192.215L192.019 98.0695L189.401 98.0275V102.563L193.587 102.451L194.259 100.981L194.875 101.135L194.567 103.263H186.993V102.703L188.169 102.521ZM199.503 103.417C198.868 103.417 198.243 103.357 197.627 103.235C197.011 103.105 196.591 102.974 196.367 102.843V100.687H196.941L197.347 102.059C197.599 102.321 197.93 102.507 198.341 102.619C198.751 102.722 199.19 102.773 199.657 102.773C200.254 102.773 200.767 102.619 201.197 102.311C201.635 101.994 201.855 101.523 201.855 100.897C201.855 100.524 201.738 100.193 201.505 99.9035C201.281 99.6048 201.001 99.3435 200.665 99.1195C200.329 98.8955 199.876 98.6295 199.307 98.3215C198.7 98.0041 198.201 97.7148 197.809 97.4535C197.417 97.1828 197.09 96.8608 196.829 96.4875C196.567 96.1141 196.437 95.6848 196.437 95.1995C196.437 94.6021 196.605 94.1075 196.941 93.7155C197.286 93.3141 197.711 93.0201 198.215 92.8335C198.719 92.6468 199.227 92.5535 199.741 92.5535C200.357 92.5535 200.893 92.6095 201.351 92.7215C201.808 92.8241 202.158 92.9455 202.401 93.0855V94.9615H201.841L201.351 93.6315C201.183 93.4821 200.945 93.3701 200.637 93.2955C200.338 93.2208 200.011 93.1835 199.657 93.1835C199.349 93.1835 199.036 93.2441 198.719 93.3655C198.401 93.4868 198.131 93.6828 197.907 93.9535C197.692 94.2241 197.585 94.5695 197.585 94.9895C197.585 95.4748 197.785 95.8948 198.187 96.2495C198.597 96.5948 199.19 96.9635 199.965 97.3555C200.637 97.7101 201.173 98.0181 201.575 98.2795C201.976 98.5408 202.317 98.8628 202.597 99.2455C202.886 99.6188 203.031 100.053 203.031 100.547C203.031 101.509 202.699 102.227 202.037 102.703C201.374 103.179 200.529 103.417 199.503 103.417ZM204.719 102.521L208.317 92.6375H209.381L212.839 102.521L213.945 102.703V103.263H210.403V102.703L211.537 102.521L210.767 100.253H206.567L205.797 102.521L206.945 102.703V103.263H203.739V102.703L204.719 102.521ZM209.283 95.8855L208.695 93.9815L206.819 99.4975H210.501L209.283 95.8855ZM224.802 93.3375L223.654 93.4495V103.263H222.324L217.718 96.0115L216.752 94.0935V102.521L218.11 102.703V103.263H214.666V102.703L215.842 102.521V93.4495L214.708 93.3515V92.6515H217.088L221.764 100.253L222.744 102.115V93.4635L221.596 93.3375V92.6515H224.802V93.3375ZM226.307 102.521L229.905 92.6375H230.969L234.427 102.521L235.533 102.703V103.263H231.991V102.703L233.125 102.521L232.355 100.253H228.155L227.385 102.521L228.533 102.703V103.263H225.327V102.703L226.307 102.521ZM230.871 95.8855L230.283 93.9815L228.407 99.4975H232.089L230.871 95.8855ZM239.389 102.521V93.3515L236.785 93.4915L236.337 94.7235L235.749 94.7375L235.917 92.6515H244.065L244.051 94.7655L243.533 94.8215L243.197 93.4775L240.635 93.3515V102.521L242.441 102.703V103.263H237.667V102.703L239.389 102.521ZM249.89 92.5535C250.777 92.5535 251.552 92.7775 252.214 93.2255C252.886 93.6641 253.4 94.2755 253.754 95.0595C254.118 95.8341 254.3 96.7161 254.3 97.7055C254.3 98.8908 254.086 99.9175 253.656 100.785C253.227 101.653 252.644 102.316 251.906 102.773C251.169 103.231 250.352 103.459 249.456 103.459C248.542 103.459 247.734 103.235 247.034 102.787C246.344 102.339 245.807 101.723 245.424 100.939C245.051 100.146 244.864 99.2501 244.864 98.2515C244.864 97.0568 245.098 96.0208 245.564 95.1435C246.04 94.2661 246.67 93.6081 247.454 93.1695C248.201 92.7588 249.013 92.5535 249.89 92.5535ZM249.638 93.2395C248.957 93.2395 248.36 93.4355 247.846 93.8275C247.342 94.2101 246.95 94.7701 246.67 95.5075C246.39 96.2355 246.25 97.1035 246.25 98.1115C246.25 98.9515 246.386 99.7261 246.656 100.435C246.936 101.145 247.333 101.714 247.846 102.143C248.369 102.563 248.976 102.773 249.666 102.773C250.338 102.773 250.917 102.577 251.402 102.185C251.897 101.793 252.275 101.229 252.536 100.491C252.798 99.7541 252.928 98.8815 252.928 97.8735C252.928 97.0428 252.798 96.2728 252.536 95.5635C252.284 94.8541 251.906 94.2895 251.402 93.8695C250.908 93.4495 250.32 93.2395 249.638 93.2395Z" fill="black"/>
<defs>
<clipPath id="clip0_7_271">
<rect width="400" height="160" fill="white"/>
</clipPath>
</defs>
</svg>
