<?xml version="1.0" encoding="iso-8859-1"?>
<!-- Generator: Adobe Illustrator 19.0.0, SVG Export Plug-In . SVG Version: 6.00 Build 0)  -->
<svg version="1.1" id="Layer_1" xmlns="http://www.w3.org/2000/svg" xmlns:xlink="http://www.w3.org/1999/xlink" x="0px" y="0px"
	 viewBox="0 0 512 512" style="enable-background:new 0 0 512 512;" xml:space="preserve">
<g transform="translate(1 1)">
	<g>
		<path style="fill:#FFE100;" d="M144.067,84.333c-5.12,0-8.533-3.413-8.533-8.533V24.6c0-5.12,3.413-8.533,8.533-8.533
			c5.12,0,8.533,3.413,8.533,8.533v51.2C152.6,80.92,149.187,84.333,144.067,84.333z"/>
		<path style="fill:#FFE100;" d="M383,84.333c-5.12,0-8.533-3.413-8.533-8.533V24.6c0-5.12,3.413-8.533,8.533-8.533
			c5.12,0,8.533,3.413,8.533,8.533v51.2C391.533,80.92,388.12,84.333,383,84.333z"/>
		<path style="fill:#FFE100;" d="M178.2,33.133h-34.133c-5.12,0-8.533-3.413-8.533-8.533s3.413-8.533,8.533-8.533H178.2
			c5.12,0,8.533,3.413,8.533,8.533S183.32,33.133,178.2,33.133z"/>
		<path style="fill:#FFE100;" d="M383,33.133h-34.133c-5.12,0-8.533-3.413-8.533-8.533s3.413-8.533,8.533-8.533H383
			c5.12,0,8.533,3.413,8.533,8.533S388.12,33.133,383,33.133z"/>
		<path style="fill:#FFE100;" d="M109.933,357.4c-5.12,0-8.533-3.413-8.533-8.533v-59.733c0-5.12,3.413-8.533,8.533-8.533
			s8.533,3.413,8.533,8.533v59.733C118.467,353.987,115.053,357.4,109.933,357.4z"/>
		<path style="fill:#FFE100;" d="M127,331.8H92.867c-5.12,0-8.533-3.413-8.533-8.533c0-5.12,3.413-8.533,8.533-8.533H127
			c5.12,0,8.533,3.413,8.533,8.533C135.533,328.387,132.12,331.8,127,331.8z"/>
	</g>
	<path style="fill:#00DA6C;" d="M335.213,41.667H174.787c-2.56,0-5.12-2.56-5.12-5.12V12.653c0-2.56,2.56-5.12,5.12-5.12H334.36
		c3.413,0,5.973,2.56,5.973,5.12v23.04C340.333,39.107,337.773,41.667,335.213,41.667"/>
	<g>
		<path style="fill:#FFE100;" d="M470.893,368.493l-19.627-98.133c-12.8-64.853-9.387-105.813-2.56-171.52
			c0.853-11.947-8.533-23.04-20.48-23.04H7.533v50.347c0,57.173,6.827,88.747,20.48,144.213l0,0
			c3.413,11.093,12.8,18.773,24.747,18.773h100.693c13.653,0,24.747-11.093,24.747-24.747v-77.653h102.4v213.333H7.533v102.4
			h448.853c11.093,0,20.48-9.387,20.48-20.48V449.56C476.867,422.253,475.16,394.947,470.893,368.493"/>
		<path style="fill:#FFE100;" d="M470.893,368.493l-19.627-98.133c-12.8-64.853-9.387-105.813-2.56-171.52
			c0.853-11.947-8.533-23.04-20.48-23.04H33.133v50.347c0,57.173,6.827,88.747,20.48,144.213l0,0
			c3.413,11.093,12.8,18.773,24.747,18.773h75.093c13.653,0,24.747-11.093,24.747-24.747v-77.653h102.4v213.333H33.133v102.4
			h423.253c11.093,0,20.48-9.387,20.48-20.48V449.56C476.867,422.253,475.16,394.947,470.893,368.493"/>
	</g>
	<g>
		<path style="fill:#FFFFFF;" d="M7.533,502.467h25.6v-102.4h-25.6V502.467z"/>
		<path style="fill:#FFFFFF;" d="M52.76,289.133h25.6c-11.093,0-21.333-7.68-23.893-18.773
			c-14.507-55.467-21.333-87.04-21.333-144.213V75.8h-25.6v50.347c0,57.173,6.827,88.747,20.48,144.213
			C31.427,281.453,40.813,289.133,52.76,289.133"/>
	</g>
	<path style="fill:#FFA800;" d="M493.933,368.493l-19.627-98.133c-12.8-64.853-9.387-105.813-2.56-171.52
		c1.707-12.8-8.533-23.04-20.48-23.04h-25.6c11.947,0,22.187,10.24,20.48,23.04c-6.827,65.707-10.24,106.667,2.56,171.52
		l19.627,98.133c4.267,26.453,5.973,53.76,5.973,80.213v32.427c0,11.093-9.387,20.48-20.48,20.48h25.6
		c11.093,0,20.48-9.387,20.48-20.48v-32.427C499.907,422.253,498.2,394.947,493.933,368.493"/>
	<path style="fill:#FFE100;" d="M509.293,337.773L509.293,337.773c-0.853-5.12-3.413-21.333-3.413-26.453
		c-0.853-12.8-0.853-11.093-3.413-23.04c-9.387-42.667-5.973-28.16-8.533-42.667c-8.533-52.053-5.973-88.747,0-147.627
		c1.707-11.947-8.533-23.04-20.48-23.04h-22.187c11.947,0,22.187,10.24,20.48,23.04c-6.827,65.707-8.533,106.667,5.12,171.52
		L511,442.733v-73.387C511,359.107,511,348.867,509.293,337.773"/>
	<path style="fill:#00DA6C;" d="M101.4,220.867L101.4,220.867c-9.387,0-17.067-7.68-17.067-17.067v-34.133
		c0-9.387,7.68-17.067,17.067-17.067l0,0c9.387,0,17.067,7.68,17.067,17.067V203.8C118.467,213.187,110.787,220.867,101.4,220.867"
		/>
	<path style="fill:#63D3FD;" d="M408.6,306.2c0,28.16-23.04,51.2-51.2,51.2c-5.12,0-25.6-23.04-25.6-51.2s20.48-51.2,25.6-51.2
		C385.56,255,408.6,278.04,408.6,306.2"/>
	<path style="fill:#3DB9F9;" d="M383,255c-4.267,0-8.533,0.853-12.8,1.707c22.187,5.973,38.4,25.6,38.4,49.493
		c0,23.893-16.213,43.52-38.4,49.493c4.267,0.853,8.533,1.707,12.8,1.707c28.16,0,51.2-23.04,51.2-51.2S411.16,255,383,255"/>
	<path d="M481.987,511H7.533C2.413,511-1,507.587-1,502.467v-102.4c0-5.12,3.413-8.533,8.533-8.533h264.533V195.267h-85.333v69.12
		c0,18.773-15.36,33.28-33.28,33.28H52.76c-15.36,0-29.013-10.24-32.427-25.6C6.68,216.6-1,185.027-1,126.147V75.8
		c0-5.12,3.413-8.533,8.533-8.533h446.293c8.533,0,16.213,3.413,21.333,9.387c5.12,5.973,8.533,14.507,7.68,22.187
		c-6.827,67.413-10.24,105.813,2.56,168.96l19.627,98.133l0,0c4.267,27.307,5.973,54.613,5.973,81.92v32.427
		C511,498.2,498.2,511,481.987,511z M16.067,493.933h465.92c6.827,0,11.947-5.12,11.947-11.947V449.56
		c0-26.453-1.707-52.907-5.973-78.507l-19.627-98.987c-12.8-65.707-10.24-106.667-2.56-174.08c0-3.413-0.853-6.827-3.413-9.387
		c-2.56-2.56-5.12-4.267-8.533-4.267H16.067v41.813c0,57.173,6.827,87.893,20.48,141.653c1.707,7.68,8.533,11.947,16.213,11.947
		h100.693c9.387,0,16.213-7.68,16.213-16.213v-76.8c0-5.12,3.413-8.533,8.533-8.533h102.4c5.12,0,8.533,3.413,8.533,8.533v213.333
		c0,5.12-3.413,8.533-8.533,8.533H16.067V493.933z"/>
	<path d="M101.4,357.4c-5.12,0-8.533-3.413-8.533-8.533v-59.733c0-5.12,3.413-8.533,8.533-8.533c5.12,0,8.533,3.413,8.533,8.533
		v59.733C109.933,353.987,106.52,357.4,101.4,357.4z"/>
	<path d="M101.4,161.133c-5.12,0-8.533-3.413-8.533-8.533v-34.133c0-5.12,3.413-8.533,8.533-8.533c5.12,0,8.533,3.413,8.533,8.533
		V152.6C109.933,157.72,106.52,161.133,101.4,161.133z"/>
	<path d="M135.533,84.333c-5.12,0-8.533-3.413-8.533-8.533V24.6c0-5.12,3.413-8.533,8.533-8.533s8.533,3.413,8.533,8.533v51.2
		C144.067,80.92,140.653,84.333,135.533,84.333z"/>
	<path d="M374.467,84.333c-5.12,0-8.533-3.413-8.533-8.533V24.6c0-5.12,3.413-8.533,8.533-8.533c5.12,0,8.533,3.413,8.533,8.533
		v51.2C383,80.92,379.587,84.333,374.467,84.333z"/>
	<path d="M101.4,255c-5.12,0-8.533-3.413-8.533-8.533v-25.6c0-5.12,3.413-8.533,8.533-8.533c5.12,0,8.533,3.413,8.533,8.533v25.6
		C109.933,251.587,106.52,255,101.4,255z"/>
	<path d="M118.467,331.8H84.333c-5.12,0-8.533-3.413-8.533-8.533c0-5.12,3.413-8.533,8.533-8.533h34.133
		c5.12,0,8.533,3.413,8.533,8.533C127,328.387,123.587,331.8,118.467,331.8z"/>
	<path d="M101.4,229.4c-14.507,0-25.6-11.093-25.6-25.6v-34.133c0-14.507,11.093-25.6,25.6-25.6s25.6,11.093,25.6,25.6V203.8
		C127,218.307,115.907,229.4,101.4,229.4z M101.4,161.133c-5.12,0-8.533,3.413-8.533,8.533V203.8c0,5.12,3.413,8.533,8.533,8.533
		c5.12,0,8.533-3.413,8.533-8.533v-34.133C109.933,164.547,106.52,161.133,101.4,161.133z"/>
	<path d="M383,365.933c-33.28,0-59.733-26.453-59.733-59.733S349.72,246.467,383,246.467s59.733,26.453,59.733,59.733
		S416.28,365.933,383,365.933z M383,263.533c-23.893,0-42.667,18.773-42.667,42.667c0,23.893,18.773,42.667,42.667,42.667
		c23.893,0,42.667-18.773,42.667-42.667C425.667,282.307,406.893,263.533,383,263.533z"/>
	<path d="M374.467,400.067c0,5.12-3.413,8.533-8.533,8.533s-8.533-3.413-8.533-8.533s3.413-8.533,8.533-8.533
		S374.467,394.947,374.467,400.067"/>
	<path d="M408.6,400.067c0,5.12-3.413,8.533-8.533,8.533s-8.533-3.413-8.533-8.533s3.413-8.533,8.533-8.533
		S408.6,394.947,408.6,400.067"/>
	<path d="M357.4,212.333c0,5.12-3.413,8.533-8.533,8.533c-5.12,0-8.533-3.413-8.533-8.533c0-5.12,3.413-8.533,8.533-8.533
		C353.987,203.8,357.4,207.213,357.4,212.333"/>
	<path d="M391.533,212.333c0,5.12-3.413,8.533-8.533,8.533c-5.12,0-8.533-3.413-8.533-8.533c0-5.12,3.413-8.533,8.533-8.533
		C388.12,203.8,391.533,207.213,391.533,212.333"/>
	<path d="M425.667,212.333c0,5.12-3.413,8.533-8.533,8.533s-8.533-3.413-8.533-8.533c0-5.12,3.413-8.533,8.533-8.533
		S425.667,207.213,425.667,212.333"/>
	<path d="M272.067,135.533h-85.333c-5.12,0-8.533-3.413-8.533-8.533s3.413-8.533,8.533-8.533h85.333c5.12,0,8.533,3.413,8.533,8.533
		S277.187,135.533,272.067,135.533z"/>
	<path d="M178.2,442.733H7.533C2.413,442.733-1,439.32-1,434.2c0-5.12,3.413-8.533,8.533-8.533H178.2
		c5.12,0,8.533,3.413,8.533,8.533C186.733,439.32,183.32,442.733,178.2,442.733z"/>
	<path d="M92.867,476.867H7.533c-5.12,0-8.533-3.413-8.533-8.533c0-5.12,3.413-8.533,8.533-8.533h85.333
		c5.12,0,8.533,3.413,8.533,8.533C101.4,473.453,97.987,476.867,92.867,476.867z"/>
	<path d="M340.333,50.2H169.667c-5.12,0-8.533-3.413-8.533-8.533V7.533c0-5.12,3.413-8.533,8.533-8.533h170.667
		c5.12,0,8.533,3.413,8.533,8.533v34.133C348.867,46.787,345.453,50.2,340.333,50.2z M178.2,33.133h153.6V16.067H178.2V33.133z"/>
	<path d="M169.667,33.133h-34.133c-5.12,0-8.533-3.413-8.533-8.533s3.413-8.533,8.533-8.533h34.133c5.12,0,8.533,3.413,8.533,8.533
		S174.787,33.133,169.667,33.133z"/>
	<path d="M374.467,33.133h-34.133c-5.12,0-8.533-3.413-8.533-8.533s3.413-8.533,8.533-8.533h34.133c5.12,0,8.533,3.413,8.533,8.533
		S379.587,33.133,374.467,33.133z"/>
	<path d="M212.333,50.2c-5.12,0-8.533-3.413-8.533-8.533V7.533c0-5.12,3.413-8.533,8.533-8.533c5.12,0,8.533,3.413,8.533,8.533
		v34.133C220.867,46.787,217.453,50.2,212.333,50.2z"/>
	<path d="M255,50.2c-5.12,0-8.533-3.413-8.533-8.533V7.533C246.467,2.413,249.88-1,255-1s8.533,3.413,8.533,8.533v34.133
		C263.533,46.787,260.12,50.2,255,50.2z"/>
	<path d="M297.667,50.2c-5.12,0-8.533-3.413-8.533-8.533V7.533c0-5.12,3.413-8.533,8.533-8.533s8.533,3.413,8.533,8.533v34.133
		C306.2,46.787,302.787,50.2,297.667,50.2z"/>
	<path d="M400.067,331.8c-2.56,0-4.267-0.853-5.973-2.56l-34.133-34.133c-3.413-3.413-3.413-8.533,0-11.947
		c3.413-3.413,8.533-3.413,11.947,0l34.133,34.133c3.413,3.413,3.413,8.533,0,11.947C404.333,330.947,402.627,331.8,400.067,331.8z"
		/>
	<path d="M365.933,331.8c-2.56,0-4.267-0.853-5.973-2.56c-3.413-3.413-3.413-8.533,0-11.947l34.133-34.133
		c3.413-3.413,8.533-3.413,11.947,0c3.413,3.413,3.413,8.533,0,11.947l-34.133,34.133C370.2,330.947,368.493,331.8,365.933,331.8z"
		/>
</g>
<g>
</g>
<g>
</g>
<g>
</g>
<g>
</g>
<g>
</g>
<g>
</g>
<g>
</g>
<g>
</g>
<g>
</g>
<g>
</g>
<g>
</g>
<g>
</g>
<g>
</g>
<g>
</g>
<g>
</g>
</svg>
